<svg xmlns="http://www.w3.org/2000/svg" xmlns:xlink="http://www.w3.org/1999/xlink" width="15.999755859375" height="15.9990234375" viewBox="0 0 15.999755859375 15.9990234375" fill="none"><g opacity="1"  transform="translate(0 0)  rotate(0)"><path id="矩形 1" fill-rule="evenodd" style="fill:#FFFFFF" opacity="1" d="M0 3.6L3.6 3.6L3.6 0L0 0L0 3.6Z"></path><path id="矩形 1" fill-rule="evenodd" style="fill:#FFFFFF" opacity="1" d="M0 7.73281L3.6 7.73281L3.6 4.13281L0 4.13281L0 7.73281Z"></path><path id="矩形 1" fill-rule="evenodd" style="fill:#FFFFFF" opacity="1" d="M0 11.8661L3.6 11.8661L3.6 8.26611L0 8.26611L0 11.8661Z"></path><path id="矩形 1" fill-rule="evenodd" style="fill:#FFFFFF" opacity="1" d="M0 15.9989L3.6 15.9989L3.6 12.3989L0 12.3989L0 15.9989Z"></path><path id="矩形 1" fill-rule="evenodd" style="fill:#FFFFFF" opacity="1" d="M4.1333 3.6L7.7333 3.6L7.7333 0L4.1333 0L4.1333 3.6Z"></path><path id="矩形 1" fill-rule="evenodd" style="fill:#FFFFFF" opacity="1" d="M4.1333 7.73281L7.7333 7.73281L7.7333 4.13281L4.1333 4.13281L4.1333 7.73281Z"></path><path id="矩形 1" fill-rule="evenodd" style="fill:#FFFFFF" opacity="1" d="M4.1333 11.8661L7.7333 11.8661L7.7333 8.26611L4.1333 8.26611L4.1333 11.8661Z"></path><path id="矩形 1" fill-rule="evenodd" style="fill:#FFFFFF" opacity="1" d="M4.1333 15.9989L7.7333 15.9989L7.7333 12.3989L4.1333 12.3989L4.1333 15.9989Z"></path><path id="矩形 1" fill-rule="evenodd" style="fill:#FFFFFF" opacity="1" d="M8.26636 3.6L11.8664 3.6L11.8664 0L8.26636 0L8.26636 3.6Z"></path><path id="矩形 1" fill-rule="evenodd" style="fill:#FFFFFF" opacity="1" d="M8.26636 7.73281L11.8664 7.73281L11.8664 4.13281L8.26636 4.13281L8.26636 7.73281Z"></path><path id="矩形 1" fill-rule="evenodd" style="fill:#FFFFFF" opacity="1" d="M8.26636 11.8661L11.8664 11.8661L11.8664 8.26611L8.26636 8.26611L8.26636 11.8661Z"></path><path id="矩形 1" fill-rule="evenodd" style="fill:#FFFFFF" opacity="1" d="M8.26636 15.9989L11.8664 15.9989L11.8664 12.3989L8.26636 12.3989L8.26636 15.9989Z"></path><path id="矩形 1" fill-rule="evenodd" style="fill:#FFFFFF" opacity="1" d="M12.3997 3.6L15.9997 3.6L15.9997 0L12.3997 0L12.3997 3.6Z"></path><path id="矩形 1" fill-rule="evenodd" style="fill:#FFFFFF" opacity="1" d="M12.3997 7.73281L15.9997 7.73281L15.9997 4.13281L12.3997 4.13281L12.3997 7.73281Z"></path><path id="矩形 1" fill-rule="evenodd" style="fill:#FFFFFF" opacity="1" d="M12.3997 11.8661L15.9997 11.8661L15.9997 8.26611L12.3997 8.26611L12.3997 11.8661Z"></path><path id="矩形 1" fill-rule="evenodd" style="fill:#FFFFFF" opacity="1" d="M12.3997 15.9989L15.9997 15.9989L15.9997 12.3989L12.3997 12.3989L12.3997 15.9989Z"></path></g></svg>