<svg xmlns="http://www.w3.org/2000/svg" xmlns:xlink="http://www.w3.org/1999/xlink" width="42" height="42" viewBox="0 0 42 42" fill="none">
<path d="M36.0356 32.3179C36.0387 32.325 36.0418 32.3322 36.045 32.3395C36.0481 32.3468 36.0511 32.3541 36.054 32.3615C36.0568 32.369 36.0596 32.3765 36.0624 32.384C36.0651 32.3916 36.0677 32.3993 36.0703 32.407C36.0727 32.4146 36.0751 32.4224 36.0775 32.4302C36.0799 32.4381 36.0821 32.4459 36.0842 32.4538C36.0862 32.4618 36.0883 32.4698 36.0901 32.4778C36.0921 32.4859 36.094 32.4939 36.0956 32.5021C36.0973 32.5102 36.099 32.5183 36.1005 32.5266C36.1019 32.5348 36.1032 32.543 36.1045 32.5513C36.1058 32.5596 36.1071 32.5679 36.1082 32.5762C36.1091 32.5846 36.1101 32.5929 36.111 32.6013C36.1119 32.6097 36.1127 32.6181 36.1132 32.6265C36.1139 32.6349 36.1145 32.6434 36.1149 32.6518C36.1154 32.6603 36.1156 32.6688 36.1158 32.6772C36.116 32.6857 36.1162 32.6942 36.1162 32.7026C36.1162 32.7111 36.116 32.7196 36.1158 32.7281C36.1156 32.7365 36.1154 32.745 36.1149 32.7535C36.1145 32.7619 36.1139 32.7703 36.1132 32.7788C36.1127 32.7872 36.1119 32.7956 36.111 32.804C36.1101 32.8124 36.1091 32.8207 36.1082 32.8291C36.1071 32.8374 36.1058 32.8457 36.1045 32.854C36.1032 32.8623 36.1019 32.8705 36.1005 32.8787C36.099 32.887 36.0973 32.8951 36.0956 32.9032C36.094 32.9114 36.0921 32.9194 36.0901 32.9275C36.0883 32.9355 36.0862 32.9435 36.0842 32.9514C36.0821 32.9594 36.0799 32.9672 36.0775 32.9751C36.0751 32.9829 36.0727 32.9907 36.0703 32.9983C36.0677 33.006 36.0651 33.0137 36.0624 33.0212C36.0596 33.0288 36.0568 33.0363 36.054 33.0437C36.0511 33.0512 36.0481 33.0585 36.045 33.0658C36.0418 33.0731 36.0387 33.0803 36.0356 33.0874C36.0339 33.0949 36.0328 33.1026 36.0319 33.1104C36.0309 33.1182 36.0306 33.126 36.0306 33.1339C36.0306 33.1418 36.0309 33.1496 36.0319 33.1574C36.0328 33.1652 36.0339 33.1729 36.0356 33.1804C36.0357 33.1862 36.0357 33.192 36.0359 33.1977C36.0361 33.2035 36.0361 33.2092 36.0359 33.215C36.0357 33.2208 36.0357 33.2265 36.0356 33.2323C36.0354 33.238 36.035 33.2438 36.0346 33.2495C36.0343 33.2552 36.0339 33.261 36.0333 33.2667C36.0328 33.2724 36.0322 33.2781 36.0317 33.2838C36.0309 33.2895 36.0302 33.2952 36.0295 33.3008C36.0287 33.3065 36.0278 33.3121 36.0269 33.3177C36.0259 33.3233 36.025 33.3289 36.0239 33.3345C36.023 33.34 36.0219 33.3456 36.0206 33.3511C36.0193 33.3566 36.018 33.3621 36.0167 33.3676C36.0154 33.373 36.0141 33.3784 36.0126 33.3838C36.0112 33.3892 36.0097 33.3945 36.008 33.3998C36.0063 33.4051 36.0047 33.4104 36.003 33.4156C36.0014 33.4208 35.9995 33.426 35.9977 33.4311C35.9958 33.4363 35.994 33.4414 35.9919 33.4464C35.9899 33.4514 35.9879 33.4564 35.9858 33.4614C35.9838 33.4663 35.9816 33.4712 35.9792 33.476C35.977 33.4809 35.9747 33.4856 35.9723 33.4904C35.9699 33.4951 35.9675 33.4997 35.9651 33.5044C35.9627 33.509 35.9603 33.5135 35.9577 33.518C35.9551 33.5225 35.9525 33.5269 35.9498 33.5312C35.947 33.5356 35.9444 33.5399 35.9416 33.5441C35.9389 33.5483 35.9359 33.5524 35.9331 33.5565C35.9302 33.5606 35.9272 33.5646 35.9243 33.5685C35.9213 33.5725 35.9183 33.5763 35.9152 33.5801C35.9121 33.5839 35.9089 33.5876 35.9058 33.5912C35.9026 33.5949 35.8993 33.5984 35.8962 33.6019C35.8928 33.6054 35.8895 33.6088 35.8862 33.6121C35.8828 33.6154 35.8795 33.6186 35.876 33.6218C35.8727 33.6249 35.8692 33.628 35.8657 33.631C35.8621 33.6339 35.8586 33.6368 35.8551 33.6396C35.7671 33.7327 35.7231 33.9064 35.6351 34.0119C35.5471 34.1174 35.4327 34.3345 35.2302 34.3285L33.2542 34.3285C33.2222 34.3361 33.1908 34.3467 33.1599 34.3603C33.129 34.3736 33.0989 34.39 33.0695 34.409C33.0255 34.4156 32.9815 34.4156 32.9375 34.409L29.5445 34.409C29.5097 34.4171 29.4753 34.4278 29.4415 34.4414C29.4077 34.4547 29.3746 34.4708 29.342 34.4896C29.298 34.4956 29.254 34.4956 29.21 34.4896L25.8522 34.4896C25.7875 34.5089 25.7244 34.5357 25.6628 34.5704C25.6116 34.5767 25.5602 34.5767 25.5088 34.5704L21.9883 34.6077C21.9563 34.6152 21.9249 34.6259 21.894 34.6395C21.8631 34.6528 21.8328 34.6692 21.8034 34.6882C21.7683 34.6942 21.7331 34.6942 21.6978 34.6882L18.4237 34.6882C18.4195 34.6893 18.4153 34.6903 18.4111 34.6911C18.4069 34.6919 18.4027 34.6927 18.3984 34.6935C18.3942 34.694 18.3899 34.6945 18.3857 34.695C18.3815 34.6953 18.3772 34.6955 18.373 34.6955C18.3687 34.6958 18.3645 34.6958 18.3602 34.6955C18.3559 34.6955 18.3517 34.6953 18.3474 34.695C18.3432 34.6948 18.339 34.6942 18.3347 34.6935C18.3305 34.6929 18.3263 34.6922 18.3221 34.6914C18.3179 34.6906 18.3137 34.6895 18.3095 34.6885C18.3053 34.6872 18.3011 34.6862 18.297 34.6849C18.2928 34.6835 18.2887 34.682 18.2846 34.6804C18.2805 34.6789 18.2764 34.6773 18.2724 34.6755C18.2683 34.6736 18.2643 34.6716 18.2603 34.6695C18.2563 34.6676 18.2523 34.6656 18.2484 34.6632C18.2444 34.6609 18.2405 34.6585 18.2367 34.6559C18.2328 34.6536 18.229 34.651 18.2252 34.6481C18.2214 34.6455 18.2176 34.6426 18.2139 34.6398C18.2102 34.6369 18.2065 34.6338 18.2029 34.6306C18.1993 34.6275 18.1957 34.6244 18.1922 34.621C18.1886 34.6176 18.1851 34.6142 18.1817 34.6106C18.1783 34.6072 18.1749 34.6035 18.1716 34.5996C18.1683 34.596 18.165 34.592 18.1618 34.5881C18.1585 34.5842 18.1554 34.5803 18.1523 34.5761C18.1492 34.572 18.1462 34.5678 18.1432 34.5636C18.1402 34.5592 18.1373 34.5548 18.1344 34.5503C18.1316 34.5459 18.1288 34.5415 18.1261 34.5368C18.1234 34.5323 18.1207 34.5277 18.1181 34.5227C18.1155 34.518 18.113 34.5133 18.1106 34.5084C18.1081 34.5034 18.1058 34.4982 18.1035 34.4932C18.1012 34.4883 18.0989 34.4831 18.0968 34.4781C18.0946 34.4729 18.0926 34.4677 18.0906 34.4622C18.0886 34.457 18.0866 34.4518 18.0848 34.4463C18.054 34.3718 17.9792 34.3285 17.9308 34.2602C17.9264 34.2529 17.9225 34.2451 17.9191 34.2368C17.9157 34.2285 17.9129 34.2199 17.9106 34.2108C17.9083 34.2018 17.9067 34.1926 17.9056 34.1831C17.9046 34.1737 17.9042 34.1642 17.9044 34.1546L17.9044 32.4669C17.9044 32.3738 17.9792 32.2807 18.0276 32.2C18.0812 32.1212 18.1398 32.0509 18.2036 31.989C18.2134 31.9801 18.2236 31.9721 18.2341 31.9651C18.2447 31.9582 18.2556 31.9523 18.2668 31.9476C18.2779 31.9429 18.2893 31.9393 18.3008 31.9369C18.3124 31.9345 18.324 31.9333 18.3356 31.9332L19.6118 31.9332C19.6678 31.9191 19.7222 31.8963 19.7747 31.865C19.8187 31.859 19.8627 31.859 19.9067 31.865L20.844 31.865C20.8089 31.6416 20.9056 31.4182 20.7649 31.2444L20.7649 31.1141L20.7649 30.6488C20.7584 30.6136 20.7499 30.5794 20.7396 30.5461C20.7292 30.5128 20.7172 30.4808 20.7033 30.4502C20.6991 30.4006 20.6991 30.3509 20.7033 30.3013L20.7033 29.8545C20.685 29.7738 20.663 29.6952 20.6373 29.6187C20.6312 29.5979 20.6264 29.5766 20.6227 29.5547C20.619 29.5329 20.6164 29.5108 20.6152 29.4884L20.6152 29.0603C20.6152 28.9175 20.6152 28.8493 20.5449 28.7873L20.5449 28.6755L20.5449 28.1916C20.5281 28.117 20.5076 28.0446 20.4831 27.9744C20.4802 27.9529 20.4787 27.9311 20.4787 27.9092C20.4787 27.8873 20.4802 27.8656 20.4831 27.8441L20.4831 27.3787C20.4684 27.2971 20.4478 27.2185 20.4216 27.1429C20.4195 27.1244 20.4184 27.1058 20.4184 27.0871C20.4184 27.0683 20.4195 27.0497 20.4216 27.0312L20.4216 26.5968C20.4216 26.4541 20.3909 26.4914 20.3731 26.4355C20.3589 26.3918 20.3487 26.3463 20.3424 26.299L20.3424 25.9019C20.3424 25.7716 20.3424 25.6599 20.272 25.573L20.272 25.4613C20.2831 25.2545 20.2831 25.0477 20.272 24.8408C20.2456 24.6112 20.3731 24.4747 20.3996 24.2824C20.3996 24.2079 20.5096 24.152 20.5711 24.0838C20.5711 23.9038 20.6152 23.6805 20.5711 23.5315C20.47 23.2399 20.5711 22.911 20.4656 22.6628C20.36 22.4146 20.4656 22.1106 20.3731 21.8748C20.2807 21.639 20.3731 21.2543 20.272 21.0123C20.1707 20.7703 20.272 20.4476 20.1751 20.2056C20.0784 19.9636 20.1751 19.5851 20.074 19.3369C20.0644 19.291 20.0555 19.2449 20.0476 19.1984C20.0396 19.1519 20.0324 19.1052 20.0259 19.0582C20.0195 19.0113 20.0139 18.9641 20.0091 18.9167C20.0045 18.8694 20.0004 18.8219 19.9973 18.7743C19.9941 18.7266 19.9919 18.679 19.9904 18.6312C19.9888 18.5834 19.9882 18.5356 19.9884 18.4878C19.9886 18.4399 19.9895 18.3921 19.9914 18.3444C19.993 18.2966 19.9956 18.2489 19.9991 18.2014C19.9991 18.1331 19.9991 18.0401 20.0696 18.009C20.0696 18.009 20.1047 17.9035 20.1047 17.8415C20.1106 17.7732 20.1143 17.7048 20.116 17.6361C20.1176 17.5674 20.1173 17.4987 20.1147 17.43C20.1121 17.3614 20.1075 17.2931 20.1006 17.225C20.0938 17.1569 20.0849 17.0894 20.074 17.0224C19.986 16.737 20.074 16.4329 19.9771 16.1909C19.8802 15.9489 19.9771 15.6138 19.8802 15.3781C19.7835 15.1423 19.8582 14.801 19.7791 14.559C19.6998 14.317 19.7791 14.0254 19.6822 13.8144C19.5855 13.6034 19.6822 13.2373 19.5855 13.0015C19.5506 12.9492 19.5169 12.8952 19.4848 12.8396C19.4524 12.784 19.4215 12.7268 19.3921 12.6682C19.3627 12.6095 19.3347 12.5495 19.3082 12.4881C19.2817 12.4268 19.2568 12.3642 19.2334 12.3003C19.1992 12.1317 19.1552 11.9683 19.1014 11.8102L14.1109 11.8102C14.0449 11.8102 13.9745 11.8102 13.9305 11.7171C13.8865 11.624 13.8689 11.7171 13.8381 11.7171L13.4244 11.7171C13.288 11.7171 13.2176 11.7605 13.1427 11.6116L12.6939 11.6116C12.6103 11.6116 12.5134 11.6116 12.4474 11.5061L11.9149 11.5061C11.8357 11.5061 11.7433 11.5371 11.6817 11.4068L11.2592 11.4068C11.1448 11.4068 11.0568 11.4503 10.9776 11.3075C10.9776 11.2765 10.916 11.3075 10.8852 11.3075L10.4451 11.3075C10.3659 11.3075 10.2822 11.3075 10.225 11.2083L9.78056 11.2083C9.66174 11.2083 9.59133 11.2517 9.52531 11.109L8.98843 11.109C8.91361 11.109 8.8256 11.1462 8.7728 11.0097L8.2887 11.0097C8.2183 11.0097 8.13467 11.0531 8.08627 10.9104C8.08627 10.8732 7.98065 10.8794 7.92344 10.8794L6.03552 10.8794C5.8903 10.8794 5.73627 10.9476 5.59544 10.7801L2.97699 10.7801C2.9091 10.7596 2.84308 10.7307 2.77894 10.6932L2.64693 10.6932L1.08025 10.2589L0.913025 10.2589L0.913025 9.19781L6.70003 9.19781L6.70003 8.99925C6.70003 8.73864 6.77044 8.63935 6.95088 8.63935L7.47016 8.63935L7.47016 8.21741L12.9271 8.21741C12.9802 8.22948 13.0315 8.25016 13.0811 8.27946C13.1039 8.29014 13.1271 8.2986 13.1507 8.30484C13.1742 8.31107 13.198 8.31502 13.222 8.31669L19.6471 8.35392C19.6833 8.36153 19.719 8.37208 19.7543 8.38557C19.7896 8.39906 19.8244 8.4154 19.8582 8.43458C19.878 8.4391 19.8978 8.44136 19.9178 8.44136C19.9376 8.44136 19.9573 8.4391 19.9771 8.43458L26.0326 8.46561C26.1016 8.48469 26.1691 8.51158 26.2351 8.54628C26.2584 8.55103 26.2818 8.55341 26.3055 8.55341C26.329 8.55341 26.3525 8.55103 26.3758 8.54628L30.0196 8.54628C30.0989 8.54628 30.2045 8.48423 30.2485 8.65176C30.3585 8.70761 30.4641 8.75104 30.5698 8.8131C30.5759 8.81688 30.582 8.82101 30.588 8.82548C30.5939 8.82994 30.5996 8.83473 30.6053 8.83984C30.6111 8.84496 30.6166 8.85038 30.622 8.85611C30.6273 8.86184 30.6327 8.86787 30.6377 8.87418C30.6427 8.88049 30.6475 8.88708 30.6521 8.89393C30.6567 8.90079 30.6614 8.90789 30.6656 8.91525C30.6699 8.9226 30.6739 8.93018 30.6778 8.93799C30.6817 8.9458 30.6852 8.95381 30.6885 8.96202C30.7414 9.14196 30.9043 9.21022 30.913 9.44601C30.913 9.51427 31.0274 9.57011 31.089 9.62596C31.1507 9.68181 31.2254 9.74386 31.287 9.81211C31.3488 9.88037 31.3708 9.96103 31.4279 10.0169C31.4852 10.0727 31.6039 10.1038 31.6523 10.1968C31.7008 10.2899 31.9164 10.3644 31.9912 10.5753C32.0221 10.6622 32.1321 10.6932 32.2026 10.7491C32.2303 10.7677 32.2567 10.7895 32.2819 10.8145C32.307 10.8395 32.3305 10.8673 32.3521 10.898C32.356 10.9066 32.3599 10.9151 32.3641 10.9234C32.3684 10.9317 32.3726 10.9399 32.3771 10.9479C32.3817 10.9559 32.3863 10.9638 32.3909 10.9715C32.3958 10.9792 32.4006 10.9867 32.4056 10.9941C32.4105 11.0015 32.4157 11.0086 32.4209 11.0157C32.4263 11.0227 32.4316 11.0295 32.4372 11.0361C32.4425 11.0428 32.4481 11.0492 32.4538 11.0554C32.4595 11.0617 32.4655 11.0677 32.4714 11.0736C32.4773 11.0794 32.4834 11.085 32.4895 11.0905C32.4956 11.0959 32.5019 11.1011 32.5082 11.1061C32.5145 11.111 32.5207 11.1158 32.5272 11.1204C32.5337 11.1249 32.5403 11.1292 32.547 11.1333C32.5535 11.1374 32.5601 11.1413 32.567 11.1449C32.5738 11.1485 32.5806 11.1519 32.5875 11.155C32.5943 11.1582 32.6013 11.1611 32.6082 11.1638C32.6152 11.1664 32.6222 11.1689 32.6293 11.171C32.6601 11.171 32.6866 11.2579 32.7173 11.2951L33.0562 11.6736C33.1179 11.7419 33.1926 11.7915 33.2586 11.8536C33.2911 11.8772 33.3226 11.9035 33.3527 11.9325C33.3829 11.9616 33.4117 11.9932 33.4391 12.0273C33.4461 12.0421 33.4535 12.0563 33.4614 12.0702C33.4694 12.084 33.4775 12.0973 33.4862 12.1102C33.4949 12.123 33.5039 12.1353 33.5134 12.147C33.5228 12.1587 33.5324 12.1698 33.5426 12.1804C33.5528 12.191 33.5631 12.2009 33.5738 12.2102C33.5846 12.2195 33.5955 12.2281 33.6067 12.2361C33.618 12.2441 33.6295 12.2513 33.6411 12.2579C33.6528 12.2645 33.6646 12.2704 33.6766 12.2755C33.6918 12.2837 33.7066 12.2933 33.7208 12.3043C33.7351 12.3154 33.7486 12.3277 33.7615 12.3413C33.7746 12.3549 33.7868 12.3698 33.7985 12.3857C33.8101 12.4018 33.8208 12.4188 33.8308 12.4369C33.838 12.4522 33.8456 12.467 33.8537 12.4813C33.8617 12.4957 33.8702 12.5094 33.8793 12.5227C33.8883 12.536 33.8976 12.5487 33.9074 12.5608C33.9172 12.5729 33.9273 12.5843 33.9379 12.5952C33.9484 12.606 33.9591 12.6162 33.9702 12.6257C33.9813 12.6351 33.9928 12.6439 34.0044 12.652C34.0161 12.66 34.0281 12.6673 34.0403 12.6739C34.0523 12.6805 34.0647 12.6862 34.0773 12.6913C34.0897 12.6978 34.1019 12.7054 34.1135 12.7142C34.1253 12.7231 34.1366 12.733 34.1473 12.744C34.1583 12.755 34.1684 12.767 34.178 12.78C34.1876 12.793 34.1965 12.8069 34.2048 12.8216C34.2533 12.8898 34.2973 12.9643 34.3413 13.0326C34.3433 13.0373 34.3457 13.0418 34.3481 13.0461C34.3507 13.0504 34.3535 13.0543 34.3564 13.058C34.3596 13.0617 34.3627 13.065 34.3661 13.0681C34.3694 13.0711 34.3729 13.0737 34.3764 13.076C34.3895 13.0805 34.4025 13.0859 34.4152 13.0921C34.428 13.0982 34.4404 13.1052 34.4528 13.1131C34.4652 13.1209 34.4772 13.1295 34.4888 13.1388C34.5005 13.1482 34.5119 13.1583 34.523 13.1692C34.5341 13.18 34.5448 13.1916 34.5552 13.2038C34.5654 13.216 34.5753 13.2289 34.5848 13.2424C34.5942 13.256 34.6033 13.2701 34.612 13.2848C34.6205 13.2995 34.6286 13.3147 34.6362 13.3304C34.6687 13.3686 34.7031 13.4033 34.7392 13.4344C34.7752 13.4656 34.8127 13.493 34.8517 13.5166C34.8656 13.5249 34.8793 13.5342 34.8926 13.5444C34.9059 13.5546 34.9189 13.5657 34.9314 13.5777C34.944 13.5896 34.9562 13.6025 34.9679 13.6161C34.9795 13.6297 34.9906 13.6441 35.0013 13.6593C35.005 13.6682 35.0089 13.677 35.0128 13.6856C35.0168 13.6942 35.0211 13.7027 35.0254 13.7111C35.0296 13.7194 35.0342 13.7275 35.0389 13.7355C35.0435 13.7435 35.0481 13.7513 35.0531 13.7589C35.0581 13.7666 35.0631 13.774 35.0682 13.7813C35.0736 13.7885 35.079 13.7956 35.0843 13.8024C35.0897 13.8093 35.0954 13.8159 35.1012 13.8223C35.1069 13.8288 35.1126 13.835 35.1187 13.841C35.1246 13.847 35.1307 13.8528 35.1368 13.8583C35.1429 13.8639 35.1492 13.8692 35.1557 13.8742C35.162 13.8793 35.1685 13.8841 35.1751 13.8887C35.1816 13.8933 35.1882 13.8976 35.1949 13.9017C35.2017 13.9058 35.2084 13.9097 35.2152 13.9133C35.2221 13.9169 35.2291 13.9202 35.2361 13.9232C35.243 13.9263 35.25 13.9291 35.2572 13.9317C35.2644 13.9342 35.2714 13.9365 35.2786 13.9385C35.3138 13.9385 35.3402 14.0192 35.3711 14.0564C35.4811 14.1867 35.5911 14.317 35.7055 14.4411C35.8198 14.5652 35.842 14.559 35.9122 14.6211C35.9757 14.672 36.0343 14.7319 36.0883 14.801C36.103 14.8263 36.1188 14.8504 36.1356 14.8731C36.1524 14.8959 36.17 14.9172 36.1886 14.9371C36.2071 14.9569 36.2264 14.9752 36.2463 14.9919C36.2665 15.0085 36.2872 15.0235 36.3084 15.0368C36.3249 15.0475 36.3412 15.0592 36.3569 15.0722C36.3726 15.0852 36.3879 15.0992 36.4027 15.1143C36.4175 15.1294 36.4318 15.1455 36.4454 15.1626C36.4591 15.1798 36.4721 15.1978 36.4845 15.2167C36.4987 15.242 36.514 15.2661 36.5305 15.2888C36.5469 15.3116 36.5641 15.3329 36.5823 15.3527C36.6004 15.3726 36.6192 15.3909 36.639 15.4076C36.6588 15.4243 36.6791 15.4392 36.7 15.4525C36.7165 15.4626 36.7328 15.4739 36.7485 15.4863C36.7642 15.4987 36.7795 15.5122 36.7943 15.5268C36.8091 15.5414 36.8233 15.557 36.837 15.5736C36.8507 15.5902 36.8637 15.6078 36.876 15.6263C36.9465 15.7193 36.9994 15.8311 37.1005 15.8683C37.1166 15.8769 37.1323 15.8869 37.1476 15.8984C37.163 15.9099 37.1776 15.9227 37.1918 15.9369C37.2059 15.951 37.2192 15.9663 37.2319 15.9829C37.2447 15.9995 37.2567 16.0171 37.2678 16.0358C37.2747 16.0505 37.282 16.0648 37.29 16.0787C37.2979 16.0925 37.3063 16.1058 37.315 16.1186C37.3236 16.1314 37.3325 16.1437 37.3419 16.1555C37.3514 16.1672 37.3612 16.1783 37.3713 16.1889C37.3815 16.1995 37.3919 16.2094 37.4026 16.2187C37.4133 16.228 37.4242 16.2366 37.4355 16.2446C37.4468 16.2525 37.4582 16.2598 37.4699 16.2664C37.4815 16.273 37.4934 16.2789 37.5054 16.284C37.5178 16.2911 37.5296 16.2991 37.5413 16.3082C37.5529 16.3173 37.564 16.3273 37.5747 16.3383C37.5856 16.3492 37.5958 16.3611 37.6056 16.3738C37.6154 16.3865 37.6245 16.4001 37.633 16.4143C37.6858 16.4764 37.7254 16.5508 37.7738 16.6191C37.8223 16.6873 37.8003 16.6687 37.8134 16.6687C37.8263 16.6734 37.8391 16.6789 37.8517 16.6852C37.8641 16.6916 37.8764 16.6987 37.8886 16.7066C37.9007 16.7145 37.9125 16.7231 37.924 16.7325C37.9356 16.7419 37.9467 16.7521 37.9576 16.7629C37.9685 16.7737 37.9791 16.7852 37.9892 16.7974C37.9994 16.8096 38.009 16.8224 38.0183 16.8359C38.0277 16.8493 38.0366 16.8633 38.0449 16.8779C38.0532 16.8925 38.0611 16.9076 38.0687 16.9231C38.1022 16.9595 38.1369 16.9933 38.173 17.0244C38.2091 17.0555 38.246 17.0838 38.2843 17.1093C38.312 17.1268 38.3385 17.1476 38.3634 17.1716C38.3886 17.1955 38.4121 17.2223 38.4339 17.252C38.4378 17.2607 38.4416 17.2694 38.4459 17.2778C38.4501 17.2863 38.4544 17.2946 38.4586 17.3028C38.4631 17.3109 38.4677 17.3189 38.4725 17.3268C38.4771 17.3346 38.4819 17.3423 38.4869 17.3498C38.4919 17.3573 38.4971 17.3647 38.5023 17.3718C38.5075 17.379 38.5128 17.3859 38.5184 17.3927C38.5237 17.3995 38.5295 17.4061 38.5352 17.4125C38.5409 17.4188 38.5466 17.425 38.5526 17.431C38.5585 17.437 38.5646 17.4427 38.5707 17.4483C38.5768 17.4538 38.5831 17.4592 38.5894 17.4643C38.5958 17.4694 38.6021 17.4743 38.6086 17.479C38.6151 17.4836 38.6217 17.4881 38.6284 17.4922C38.635 17.4964 38.6417 17.5004 38.6485 17.5042C38.6554 17.5079 38.6622 17.5114 38.669 17.5146C38.6759 17.5179 38.6829 17.5209 38.6899 17.5237C38.697 17.5265 38.704 17.529 38.7112 17.5312C38.7508 17.5312 38.7903 17.6057 38.8123 17.6553C38.8916 17.8415 39.0765 17.8291 39.1468 18.0401C39.1777 18.1269 39.2877 18.1517 39.3581 18.22C39.4285 18.2883 39.4681 18.3627 39.5254 18.431L39.7146 18.6171C39.785 18.6916 39.851 18.7722 39.9214 18.8405L40.1106 19.0329C40.1766 19.1073 40.2426 19.188 40.313 19.2562L40.5023 19.4486C40.5693 19.5036 40.6338 19.5636 40.6959 19.6285C40.7593 19.7065 40.8196 19.7893 40.8764 19.8767C40.8895 19.9515 40.9059 20.0247 40.9257 20.0963C40.9457 20.168 40.9688 20.2375 40.9953 20.3049C41.1624 20.64 41.0437 21.0061 41.0744 21.3536C41.0744 21.4032 41.0393 21.4653 41.0173 21.5149C41.0165 21.5313 41.0152 21.5476 41.0136 21.5639C41.0119 21.5802 41.0097 21.5963 41.0069 21.6123C41.0041 21.6282 41.001 21.644 40.9971 21.6596C40.9934 21.6752 40.9891 21.6905 40.9845 21.7056C40.9799 21.7206 40.9747 21.7354 40.9692 21.7498C40.9634 21.7642 40.9575 21.7782 40.9511 21.7919C40.9446 21.8056 40.9376 21.8188 40.9304 21.8316C40.923 21.8444 40.9152 21.8567 40.9072 21.8686C40.8632 21.9679 40.8412 22.1168 40.7795 22.1664C40.7179 22.2161 40.7004 22.4332 40.6035 22.5077C40.5068 22.5822 40.5508 22.6566 40.5068 22.6938C40.3746 22.8055 40.3835 23.0662 40.2339 23.1655C40.1723 23.2089 40.1546 23.3764 40.1063 23.4819C40.1004 23.4999 40.0939 23.5175 40.0871 23.5347C40.0801 23.5518 40.0725 23.5685 40.0644 23.5846C40.0562 23.6008 40.0475 23.6163 40.0385 23.6313C40.0292 23.6463 40.0196 23.6606 40.0094 23.6743C40.003 23.6797 39.9967 23.6853 39.9906 23.6912C39.9845 23.697 39.9784 23.7031 39.9725 23.7094C39.9666 23.7157 39.9608 23.7221 39.9551 23.7288C39.9494 23.7355 39.9436 23.7425 39.9383 23.7496C39.9329 23.7567 39.9275 23.764 39.9222 23.7714C39.917 23.7789 39.912 23.7866 39.907 23.7944C39.902 23.8023 39.8974 23.8103 39.8928 23.8185C39.8882 23.8267 39.8835 23.835 39.8793 23.8435C39.875 23.852 39.8708 23.8607 39.8667 23.8695C39.8627 23.8783 39.8588 23.8872 39.8551 23.8963C39.8514 23.9054 39.8479 23.9146 39.8445 23.9239C39.8412 23.9333 39.8381 23.9427 39.8349 23.9523C39.8318 23.9618 39.829 23.9715 39.8264 23.9813C39.8236 23.991 39.8212 24.0009 39.8188 24.0108C39.8164 24.0208 39.8144 24.0308 39.8124 24.0409C39.8103 24.051 39.8087 24.0611 39.807 24.0714C39.807 24.1458 39.7146 24.2017 39.6661 24.2637C39.6177 24.3258 39.6354 24.301 39.6354 24.3196C39.6354 24.4933 39.5386 24.5802 39.455 24.6795C39.431 24.7188 39.4089 24.7602 39.389 24.8039C39.3692 24.8476 39.3514 24.8929 39.3361 24.9401L39.191 25.2317C39.191 25.2317 39.1468 25.2752 39.1468 25.3C39.1468 25.4675 39.0501 25.5606 38.9752 25.6661L38.9752 25.7095C38.939 25.8459 38.8965 25.9783 38.8476 26.1066C38.8057 26.1891 38.7587 26.2657 38.7068 26.3362C38.7068 26.3362 38.6761 26.3735 38.6761 26.3983C38.6761 26.5658 38.5792 26.6589 38.4999 26.7582C38.4986 26.7626 38.4977 26.7672 38.4971 26.7719C38.4965 26.7766 38.4962 26.7813 38.4962 26.7861C38.4962 26.7909 38.4965 26.7956 38.4971 26.8003C38.4977 26.805 38.4986 26.8096 38.4999 26.814C38.4988 26.8232 38.4975 26.8323 38.4958 26.8413C38.4943 26.8504 38.4927 26.8593 38.4908 26.8682C38.489 26.8772 38.4869 26.886 38.4847 26.8947C38.4825 26.9035 38.4801 26.9122 38.4777 26.9208C38.4753 26.9294 38.4725 26.9379 38.4697 26.9463C38.467 26.9548 38.464 26.963 38.4609 26.9713C38.4577 26.9795 38.4546 26.9876 38.4512 26.9955C38.4477 27.0035 38.4442 27.0113 38.4405 27.019C38.4368 27.0267 38.4329 27.0343 38.4291 27.0417C38.4252 27.0492 38.4211 27.0565 38.4169 27.0636C38.4126 27.0708 38.4084 27.0777 38.4039 27.0846C38.3993 27.0914 38.3947 27.0981 38.3901 27.1046C38.3854 27.1111 38.3806 27.1174 38.3756 27.1236C38.3706 27.1297 38.3657 27.1357 38.3605 27.1415C38.3553 27.1473 38.3501 27.1529 38.3448 27.1583C38.3394 27.1637 38.3338 27.1689 38.3283 27.1739C38.327 27.1789 38.3259 27.184 38.3253 27.1892C38.3246 27.1944 38.3242 27.1996 38.3242 27.2049C38.3242 27.2103 38.3246 27.2155 38.3253 27.2207C38.3259 27.226 38.327 27.231 38.3283 27.236C38.3283 27.4035 38.2314 27.4966 38.1567 27.5959C38.1536 27.5991 38.1506 27.6027 38.148 27.6069C38.1455 27.611 38.1432 27.6155 38.1412 27.6203C38.1394 27.6251 38.1379 27.6302 38.1368 27.6355C38.1357 27.6408 38.1349 27.6462 38.1347 27.6517C38.1334 27.6609 38.1318 27.67 38.1301 27.679C38.1284 27.688 38.1266 27.697 38.1246 27.7059C38.1225 27.7148 38.1203 27.7236 38.1179 27.7324C38.1155 27.7411 38.1131 27.7498 38.1105 27.7584C38.1079 27.767 38.1051 27.7755 38.1022 27.7838C38.0992 27.7922 38.0961 27.8005 38.0929 27.8087C38.0898 27.8169 38.0865 27.825 38.083 27.8329C38.0794 27.8409 38.0759 27.8487 38.0721 27.8564C38.0684 27.8641 38.0645 27.8716 38.0604 27.879C38.0563 27.8865 38.0521 27.8937 38.0478 27.9009C38.0436 27.908 38.0393 27.915 38.0347 27.9219C38.0301 27.9287 38.0255 27.9354 38.0208 27.9419C38.016 27.9484 38.0112 27.9547 38.0062 27.9609C38.0012 27.9671 37.9961 27.9731 37.9909 27.9789C37.9857 27.9847 37.9805 27.9904 37.9752 27.9958C37.9698 28.0013 37.9643 28.0065 37.9587 28.0116C37.9563 28.0323 37.9563 28.053 37.9587 28.0737C37.9556 28.0916 37.9521 28.1094 37.9478 28.1269C37.9436 28.1444 37.9389 28.1616 37.9338 28.1785C37.9284 28.1954 37.9227 28.212 37.9164 28.2282C37.9099 28.2443 37.9031 28.2601 37.8959 28.2754C37.8886 28.2908 37.8809 28.3056 37.8726 28.32C37.8642 28.3343 37.8556 28.3481 37.8465 28.3614C37.8374 28.3746 37.8278 28.3873 37.8178 28.3993C37.808 28.4114 37.7977 28.4228 37.787 28.4336C37.7816 28.4425 37.7772 28.4523 37.7735 28.4627C37.7698 28.4732 37.767 28.4842 37.765 28.4956C37.7356 28.5956 37.7021 28.6928 37.6646 28.7872C37.627 28.8817 37.5856 28.9727 37.5405 29.0603C37.4569 29.1906 37.4438 29.3705 37.3514 29.4698C37.2589 29.5691 37.2325 29.8483 37.0874 29.9662C37.0389 30.0034 37.0565 30.1896 36.9685 30.2517C36.8805 30.3137 36.898 30.5371 36.7925 30.6301C36.6869 30.7232 36.7089 30.8411 36.6649 30.9528C36.6372 31.0219 36.6063 31.0881 36.5725 31.1514C36.5085 31.2526 36.4484 31.3581 36.392 31.4678C36.348 31.5671 36.3171 31.6788 36.2776 31.7843L36.0356 32.3179ZM23.6561 31.8339L26.64 31.8339C26.6575 31.8381 26.6753 31.8418 26.6932 31.845C26.7111 31.8483 26.7289 31.8511 26.7468 31.8534C26.7648 31.8558 26.7827 31.8577 26.8006 31.8591C26.8186 31.8606 26.8365 31.8617 26.8544 31.8622C26.8724 31.8628 26.8903 31.8629 26.9082 31.8626C26.9262 31.8622 26.9443 31.8614 26.9622 31.8602C26.9801 31.859 26.9981 31.8573 27.016 31.8552C27.0339 31.8531 27.0517 31.8505 27.0696 31.8475C27.0874 31.8445 27.1051 31.841 27.1231 31.8371C27.1408 31.8332 27.1586 31.8289 27.1761 31.8241C27.1937 31.8193 27.2112 31.8141 27.2288 31.8084C27.2464 31.8028 27.2638 31.7967 27.2811 31.7901C27.2985 31.7836 27.3157 31.7766 27.3329 31.7692C27.3501 31.7618 27.3673 31.754 27.3843 31.7457C27.4011 31.7375 27.4181 31.7288 27.435 31.7197C27.4518 31.7106 27.4684 31.7011 27.4849 31.6912L27.5729 31.6044L27.762 31.4244C27.797 31.3837 27.8336 31.3464 27.872 31.3127L28.0922 31.1328C28.1192 31.1096 28.1442 31.0828 28.1669 31.0521C28.2185 30.9892 28.2729 30.9313 28.3298 30.8783C28.4047 30.8163 28.5058 30.7915 28.5542 30.7046C28.6027 30.6177 28.7611 30.5681 28.8314 30.4502C28.9018 30.3323 28.9811 30.3509 29.0251 30.2889C29.0346 30.2718 29.0444 30.2554 29.0547 30.2395C29.0653 30.2237 29.0762 30.2085 29.0874 30.194C29.0987 30.1794 29.1106 30.1656 29.1226 30.1525C29.1348 30.1394 29.1473 30.127 29.1603 30.1154C29.173 30.1038 29.1864 30.093 29.1999 30.083C29.2134 30.073 29.2272 30.0638 29.2415 30.0554C29.2557 30.0471 29.2699 30.0396 29.2845 30.033C29.2991 30.0264 29.3137 30.0207 29.3287 30.0158C29.345 29.9743 29.3635 29.9347 29.3842 29.8973C29.4047 29.8598 29.4274 29.8249 29.452 29.7925C29.4556 29.79 29.4589 29.7874 29.4622 29.7848C29.4657 29.7821 29.469 29.7794 29.4724 29.7766C29.4757 29.7737 29.479 29.7708 29.4822 29.7679C29.4855 29.7649 29.4888 29.7618 29.492 29.7587C29.4951 29.7555 29.4981 29.7523 29.5012 29.749C29.5044 29.7457 29.5075 29.7424 29.5105 29.7389C29.5136 29.7354 29.5166 29.7319 29.5193 29.7283C29.5223 29.7247 29.5253 29.7211 29.528 29.7173C29.5308 29.7136 29.5336 29.7098 29.5363 29.7059C29.5391 29.702 29.5419 29.6981 29.5445 29.694C29.5471 29.69 29.5497 29.686 29.5522 29.6818C29.5548 29.6777 29.5572 29.6735 29.5596 29.6692C29.562 29.665 29.5644 29.6606 29.5669 29.6562C29.5693 29.6518 29.5715 29.6474 29.5737 29.6429C29.5759 29.6384 29.5781 29.6339 29.5802 29.6293C29.5822 29.6247 29.5842 29.62 29.5863 29.6153C29.5883 29.6106 29.5901 29.6058 29.592 29.601C29.5938 29.5962 29.5957 29.5914 29.5974 29.5865C29.599 29.5816 29.6009 29.5767 29.6025 29.5717C29.6042 29.5667 29.6057 29.5617 29.6072 29.5566C29.6086 29.5516 29.6101 29.5465 29.6114 29.5414C29.6127 29.5363 29.614 29.5311 29.6153 29.5259C29.6166 29.5207 29.6177 29.5155 29.6188 29.5102C29.6199 29.505 29.621 29.4997 29.6219 29.4944C29.6229 29.4891 29.6238 29.4838 29.6247 29.4785C29.6256 29.4731 29.6264 29.4678 29.6269 29.4624C29.6277 29.457 29.6284 29.4516 29.629 29.4462C29.6295 29.4408 29.6299 29.4353 29.6304 29.4299C29.631 29.4244 29.6314 29.419 29.6316 29.4135C29.6317 29.4081 29.6321 29.4026 29.6323 29.3972C29.6325 29.3917 29.6325 29.3862 29.6325 29.3807C29.6327 29.3753 29.6327 29.3698 29.6325 29.3643C29.6325 29.3271 29.6325 29.2899 29.6632 29.2526C29.694 29.2154 29.7205 29.1409 29.7161 29.0913C29.7196 29.058 29.7225 29.0247 29.7249 28.9912C29.7273 28.9577 29.729 28.9242 29.7301 28.8906C29.7314 28.857 29.732 28.8233 29.7318 28.7897C29.7318 28.756 29.731 28.7224 29.7297 28.6888C29.7284 28.6552 29.7266 28.6217 29.724 28.5883C29.7216 28.5548 29.7185 28.5215 29.7148 28.4882C29.7111 28.455 29.7068 28.4219 29.7018 28.389C29.6968 28.3561 29.6913 28.3234 29.6852 28.2909C29.5972 28.0302 29.6587 27.7014 29.584 27.3973C29.5757 27.3292 29.5694 27.2606 29.5652 27.1917C29.5609 27.1228 29.5589 27.0538 29.5589 26.9847C29.5589 26.9155 29.5609 26.8465 29.5652 26.7776C29.5694 26.7087 29.5757 26.6402 29.584 26.572L29.584 26.4541C29.672 26.4541 29.6456 26.3362 29.6632 26.268C29.6807 26.1997 29.6632 26.1997 29.6632 26.1873C29.7601 26.088 29.8525 25.9391 29.9581 25.9081C30.0636 25.8771 30.2485 25.6847 30.4245 25.753C30.4354 25.7568 30.4463 25.7596 30.4573 25.7615C30.4683 25.7634 30.4794 25.7644 30.4905 25.7644C30.5016 25.7644 30.5127 25.7634 30.5238 25.7615C30.5349 25.7596 30.5458 25.7568 30.5565 25.753C30.5623 25.7518 30.5678 25.7501 30.5732 25.7479C30.5785 25.7457 30.5839 25.7431 30.5891 25.74C30.5942 25.7368 30.5992 25.7332 30.6042 25.7292C30.609 25.7251 30.6137 25.7206 30.6181 25.7157C30.6556 25.6374 30.6969 25.563 30.7414 25.4924C30.825 25.3807 30.9263 25.2938 31.0099 25.1759C31.0934 25.058 31.1507 24.9215 31.2343 24.8036C31.3179 24.6857 31.4192 24.6112 31.5028 24.4933C31.578 24.3789 31.6483 24.259 31.7139 24.1334C31.7533 24.0747 31.796 24.0209 31.8417 23.9721C31.8944 23.91 31.9517 23.8604 32.0001 23.7922C32.0484 23.7239 32.1672 23.544 32.2597 23.4261C32.3521 23.3082 32.4048 23.2833 32.4708 23.2027C32.537 23.122 32.6601 22.9607 32.7481 22.8366C32.8361 22.7125 32.8317 22.6877 32.8757 22.6132L33.0077 22.4394C33.0606 22.3774 33.1179 22.3278 33.1662 22.2595C33.2146 22.1912 33.3115 22.0051 33.3906 21.8934C33.4699 21.7817 33.5755 21.6948 33.6591 21.5769C33.7428 21.4591 33.7999 21.3225 33.8835 21.2047C33.9671 21.0867 34.0553 21.0061 34.1388 20.9006C34.1398 20.8975 34.1407 20.8943 34.1416 20.891C34.1425 20.8877 34.1431 20.8843 34.1436 20.881C34.1442 20.8775 34.1448 20.8741 34.1449 20.8707C34.1451 20.8672 34.1453 20.8637 34.1453 20.8603C34.1453 20.8568 34.1451 20.8533 34.1449 20.8499C34.1448 20.8464 34.1442 20.843 34.1436 20.8396C34.1431 20.8362 34.1425 20.8328 34.1416 20.8295C34.1407 20.8263 34.1398 20.8231 34.1388 20.8199C34.0993 20.7641 34.0553 20.6772 34.0024 20.6586C33.9902 20.6527 33.9782 20.6462 33.9662 20.639C33.9543 20.6319 33.9427 20.6241 33.9312 20.6157C33.9198 20.6072 33.9085 20.5982 33.8974 20.5886C33.8865 20.579 33.8757 20.5688 33.8654 20.558C33.8549 20.5472 33.8447 20.5359 33.8349 20.5241C33.8251 20.5122 33.8157 20.4998 33.8064 20.487C33.7974 20.4741 33.7885 20.4607 33.7802 20.4469C33.7717 20.4331 33.7635 20.4189 33.7559 20.4042C33.6942 20.3348 33.6282 20.2748 33.5579 20.2242C33.5298 20.203 33.5034 20.1782 33.4786 20.1498C33.3951 20.0443 33.3335 19.8954 33.2366 19.8395C33.2231 19.8325 33.21 19.8249 33.1969 19.8166C33.1837 19.8082 33.171 19.7992 33.1582 19.7896C33.1456 19.78 33.1333 19.7697 33.1211 19.7589C33.109 19.748 33.0972 19.7365 33.0857 19.7245C33.0741 19.7124 33.063 19.6998 33.0521 19.6866C33.0412 19.6734 33.0306 19.6597 33.0205 19.6454C33.0103 19.6312 33.0003 19.6164 32.9909 19.6012C32.9815 19.5859 32.9724 19.5702 32.9637 19.5541C32.9413 19.5244 32.9177 19.4971 32.8927 19.4721C32.8678 19.4472 32.8415 19.4248 32.8141 19.4052C32.7041 19.2997 32.5897 19.2004 32.4841 19.0763C32.3786 18.9522 32.3566 18.8591 32.2466 18.8343C32.2419 18.8335 32.2373 18.8321 32.2327 18.83C32.2282 18.828 32.224 18.8254 32.2197 18.8222C32.2155 18.819 32.2116 18.8153 32.2081 18.8111C32.2044 18.8069 32.2011 18.8022 32.1981 18.7971C32.1541 18.7288 32.1188 18.6482 32.0704 18.5861C32.0604 18.571 32.0498 18.5567 32.0386 18.5433C32.0273 18.5299 32.0156 18.5175 32.0034 18.506C31.9912 18.4945 31.9787 18.4841 31.9655 18.4746C31.9524 18.4652 31.9391 18.4569 31.9252 18.4496C31.9132 18.4441 31.9016 18.4379 31.8901 18.431C31.8785 18.424 31.8672 18.4164 31.8561 18.4081C31.845 18.3999 31.8343 18.3909 31.8237 18.3813C31.8132 18.3718 31.8028 18.3616 31.793 18.3507C31.7832 18.3399 31.7736 18.3285 31.7644 18.3166C31.7551 18.3046 31.7463 18.2921 31.7378 18.2791C31.7292 18.266 31.7211 18.2525 31.7135 18.2385C31.706 18.2245 31.6987 18.2101 31.6919 18.1952C31.6821 18.1771 31.6714 18.1601 31.6597 18.1441C31.6481 18.1281 31.6359 18.1133 31.6228 18.0996C31.6098 18.086 31.5961 18.0737 31.5819 18.0627C31.5677 18.0516 31.5531 18.042 31.5379 18.0338C31.5261 18.0279 31.5144 18.0214 31.5028 18.0141C31.4911 18.0069 31.4798 17.9991 31.4687 17.9906C31.4575 17.9822 31.4466 17.9731 31.436 17.9635C31.4255 17.9538 31.4151 17.9436 31.405 17.9329C31.395 17.9221 31.3852 17.9108 31.3758 17.8989C31.3663 17.8871 31.3571 17.8747 31.3484 17.8619C31.3397 17.849 31.3312 17.8358 31.3232 17.822C31.3153 17.8082 31.3075 17.794 31.3003 17.7794C31.2735 17.7455 31.2454 17.714 31.216 17.685C31.1866 17.6559 31.1559 17.6295 31.1243 17.6057C31.0526 17.5552 30.9851 17.4952 30.9219 17.4257C30.847 17.3203 30.7899 17.19 30.671 17.1713C30.671 17.1713 30.6445 17.1713 30.6358 17.1341C30.627 17.0969 30.5478 16.9852 30.4994 16.9231C30.4909 16.9083 30.4818 16.8942 30.4722 16.881C30.4624 16.8677 30.4523 16.8553 30.4415 16.8438C30.4308 16.8323 30.4195 16.8218 30.4079 16.8122C30.3962 16.8026 30.3842 16.7941 30.3718 16.7866C30.3591 16.7816 30.3463 16.7757 30.3339 16.7691C30.3215 16.7624 30.3093 16.755 30.2975 16.7467C30.2855 16.7385 30.2738 16.7296 30.2626 16.7199C30.2511 16.7102 30.24 16.6998 30.2295 16.6887C30.2188 16.6776 30.2084 16.6658 30.1984 16.6534C30.1886 16.641 30.179 16.6279 30.1699 16.6143C30.1609 16.6007 30.1522 16.5864 30.1441 16.5717C30.1357 16.557 30.1282 16.5417 30.1209 16.526C30.0941 16.4932 30.0659 16.4627 30.0365 16.4347C30.0071 16.4067 29.9766 16.3813 29.9449 16.3585C29.9091 16.3351 29.8745 16.3084 29.8414 16.2783C29.8083 16.2481 29.7767 16.2149 29.7469 16.1785C29.6765 16.073 29.6192 15.9551 29.5092 15.9303C29.4946 15.9338 29.4798 15.9338 29.4652 15.9303C29.3552 15.7752 29.2672 15.5829 29.1 15.527C29.056 15.527 29.0207 15.4463 28.9856 15.4029C28.9503 15.3595 28.8976 15.2726 28.8491 15.2167C28.7857 15.1394 28.7197 15.067 28.6511 14.9996L28.4618 14.8134L28.2418 14.5776L28.1802 14.5776C28.0965 14.4597 28.0262 14.3232 27.9382 14.2177C27.8502 14.1122 27.7709 14.0378 27.7665 13.864C27.7677 13.8591 27.7687 13.854 27.7694 13.8487C27.77 13.8436 27.7703 13.8383 27.7703 13.833C27.7703 13.8277 27.77 13.8225 27.7694 13.8173C27.7687 13.8121 27.7677 13.807 27.7665 13.802C27.6653 13.802 27.7049 13.6655 27.696 13.591C27.6914 13.5166 27.6914 13.4421 27.696 13.3676L25.5001 13.3676C25.4916 13.3698 25.4831 13.3718 25.4748 13.3734C25.4663 13.3751 25.4578 13.3765 25.4493 13.3776C25.4406 13.3788 25.4321 13.3796 25.4236 13.3802C25.4151 13.3808 25.4066 13.3811 25.3979 13.3812C25.3894 13.3812 25.3809 13.381 25.3722 13.3805C25.3637 13.38 25.3552 13.3792 25.3467 13.3782C25.338 13.3771 25.3295 13.3758 25.321 13.3742C25.3125 13.3727 25.304 13.3708 25.2957 13.3687C25.2873 13.3666 25.2788 13.3642 25.2705 13.3615C25.2622 13.3589 25.2539 13.356 25.2456 13.3528C25.2372 13.3497 25.2291 13.3462 25.221 13.3425C25.2128 13.3388 25.2047 13.3349 25.1966 13.3307C25.1886 13.3265 25.1807 13.322 25.1727 13.3173C25.1648 13.3126 25.157 13.3076 25.1494 13.3025C25.1417 13.2973 25.1341 13.2918 25.1265 13.2861C25.1189 13.2804 25.1113 13.2745 25.1041 13.2684C24.9984 13.1567 24.8577 13.0822 24.7388 12.9705C24.6199 12.8588 24.5715 12.623 24.457 12.4865C24.4241 12.4483 24.3934 12.4069 24.3648 12.3624C24.3119 12.2941 24.2679 12.1763 24.2108 12.1576C24.0786 12.108 23.9819 11.9219 23.8234 11.9777L23.7926 11.9777C23.7486 11.835 23.6561 11.8784 23.5814 11.8784L20.5316 11.8784C20.5253 11.9591 20.5253 12.0397 20.5316 12.1204C20.5318 12.1731 20.5334 12.2258 20.5366 12.2783C20.5397 12.3308 20.5445 12.3831 20.5508 12.435C20.5569 12.487 20.5647 12.5385 20.5741 12.5896C20.5834 12.6407 20.5941 12.6911 20.6065 12.7409C20.6856 12.9767 20.6065 13.2808 20.712 13.5476C20.7178 13.5885 20.7218 13.6296 20.7246 13.6711C20.7274 13.7126 20.7289 13.7541 20.7289 13.7958C20.7289 13.8374 20.7274 13.879 20.7246 13.9205C20.7218 13.9619 20.7178 14.0031 20.712 14.044L20.712 14.1619C20.822 14.2487 20.778 14.4039 20.7956 14.528C20.8133 14.6521 20.7385 14.9313 20.8794 15.0802L20.8794 15.1485C20.8786 15.2153 20.8799 15.2821 20.8832 15.3488C20.8866 15.4154 20.8919 15.4818 20.8993 15.5478C20.9067 15.6138 20.9161 15.6793 20.9274 15.7442C20.9387 15.8091 20.952 15.8732 20.9674 15.9365C21.0465 16.1475 20.9674 16.4578 21.0774 16.6936C21.0766 16.7397 21.0766 16.7858 21.0775 16.8319C21.0783 16.878 21.0798 16.9241 21.0822 16.9701C21.0846 17.0162 21.0875 17.0621 21.0914 17.1079C21.0953 17.1537 21.0999 17.1994 21.1053 17.2449C21.1106 17.2904 21.1167 17.3357 21.1236 17.3808C21.1304 17.426 21.138 17.4708 21.1463 17.5154C21.1546 17.5601 21.1637 17.6044 21.1735 17.6484C21.1833 17.6924 21.1937 17.7361 21.2049 17.7794C21.2314 17.7886 21.2563 17.803 21.2798 17.8229C21.2966 17.8395 21.3131 17.8572 21.3288 17.876C21.3445 17.8948 21.3595 17.9146 21.3739 17.9355C21.3883 17.9563 21.402 17.978 21.415 18.0007C21.4279 18.0233 21.4401 18.0468 21.4514 18.0711C21.4909 18.1952 21.6054 18.2634 21.579 18.4434C21.5527 18.6233 21.579 18.6792 21.6054 18.7226C21.6318 18.766 21.6627 18.8902 21.667 18.9832L21.667 19.5417C21.7551 19.6223 21.7287 19.7402 21.7374 19.8519C21.7463 19.9636 21.711 20.1684 21.7638 20.2553C21.7709 20.2687 21.7773 20.2826 21.7834 20.2969C21.7895 20.3113 21.7951 20.326 21.8001 20.3411C21.8051 20.3562 21.8095 20.3716 21.8134 20.3873C21.8173 20.4031 21.8208 20.419 21.8236 20.4352C21.8263 20.4514 21.8287 20.4678 21.8304 20.4843C21.8321 20.5008 21.8332 20.5174 21.8337 20.5341C21.8343 20.5507 21.8341 20.5674 21.8335 20.5841C21.833 20.6007 21.8317 20.6173 21.8298 20.6338L21.8298 21.0805C21.8269 21.1031 21.8254 21.1258 21.8254 21.1488C21.8254 21.1718 21.8269 21.1945 21.8298 21.217C21.855 21.2996 21.8755 21.3844 21.8914 21.4715L21.8914 21.8996C21.8957 21.9509 21.9043 22.0005 21.9178 22.0485C21.9428 22.12 21.9618 22.1945 21.9752 22.2719L21.9752 22.8676C21.9752 22.8862 22.0367 23.0475 22.0412 23.1406C22.0476 23.2502 22.0476 23.3599 22.0412 23.4695C22.041 23.4763 22.0408 23.4831 22.0406 23.4899C22.0406 23.4967 22.0406 23.5035 22.0408 23.5102C22.041 23.517 22.0412 23.5238 22.0413 23.5306C22.0415 23.5374 22.0419 23.5442 22.0425 23.5509C22.043 23.5577 22.0436 23.5644 22.0441 23.5712C22.0447 23.5779 22.0454 23.5846 22.0463 23.5913C22.0473 23.598 22.0482 23.6047 22.0491 23.6114C22.05 23.618 22.0511 23.6246 22.0523 23.6312C22.0535 23.6378 22.0548 23.6444 22.0561 23.6509C22.0574 23.6574 22.0589 23.6639 22.0604 23.6704C22.0619 23.6768 22.0635 23.6832 22.0652 23.6896C22.0669 23.696 22.0685 23.7023 22.0704 23.7086C22.0722 23.7149 22.0743 23.7211 22.0763 23.7273C22.0783 23.7334 22.0804 23.7396 22.0826 23.7456C22.0846 23.7517 22.0868 23.7577 22.0892 23.7637C22.0916 23.7696 22.094 23.7755 22.0964 23.7813C22.0988 23.7872 22.1014 23.7929 22.104 23.7986C22.1068 23.8043 22.1094 23.8099 22.1122 23.8155C22.1149 23.8211 22.1179 23.8266 22.1208 23.8319C22.1236 23.8373 22.1266 23.8427 22.1297 23.8479C22.1329 23.8532 22.136 23.8583 22.1391 23.8634C22.1423 23.8685 22.1456 23.8735 22.1489 23.8784C22.1523 23.8834 22.1556 23.8882 22.1591 23.8929C22.1626 23.8977 22.1661 23.9023 22.1697 23.9069C22.1732 23.9114 22.1769 23.9159 22.1806 23.9203C22.1843 23.9246 22.188 23.9289 22.1918 23.9331C22.1955 23.9372 22.1994 23.9413 22.2033 23.9453C22.2072 23.9493 22.2113 23.9531 22.2151 23.9569C22.2192 23.9607 22.2233 23.9643 22.2273 23.9679C22.2316 23.9714 22.2357 23.9749 22.2399 23.9782C22.2442 23.9816 22.2484 23.9848 22.2527 23.9879C22.2569 23.991 22.2612 23.994 22.2656 23.9969C22.285 24.0157 22.3041 24.0356 22.3224 24.0565C22.3409 24.0774 22.3588 24.0992 22.376 24.122C22.3932 24.1448 22.4096 24.1686 22.4257 24.1932C22.4416 24.2178 22.4568 24.2433 22.4714 24.2696C22.486 24.2959 22.4997 24.3229 22.5128 24.3507C22.5259 24.3785 22.5381 24.4069 22.5496 24.436C22.5611 24.4651 22.5718 24.4948 22.5818 24.5251C22.5916 24.5554 22.6006 24.5862 22.6088 24.6174C22.6661 24.8098 22.6485 25.0518 22.7101 25.2379C22.7716 25.4241 22.7101 25.7405 22.8025 26.0012C22.8948 26.2618 22.8025 26.4914 22.8992 26.7458C22.9961 27.0002 22.8992 27.267 22.9961 27.54C23.093 27.813 22.9961 28.0923 23.0972 28.3653C23.1985 28.6383 23.0972 28.8183 23.1897 29.0603C23.2821 29.3023 23.1897 29.6373 23.2954 29.9166C23.3437 30.0345 23.2954 30.2144 23.3174 30.3633L23.3174 30.475C23.4097 30.5309 23.3877 30.6488 23.3877 30.7418L23.3877 31.2879C23.4801 31.3437 23.4537 31.4616 23.4581 31.5547C23.4625 31.6478 23.6561 31.7098 23.6561 31.8339ZM37.6065 24.5057C37.5625 24.4561 37.5318 24.394 37.4923 24.3754C37.4721 24.3621 37.4529 24.347 37.4342 24.3302C37.4155 24.3134 37.3976 24.2951 37.3806 24.2752C37.3634 24.2554 37.3473 24.2341 37.3321 24.2114C37.317 24.1887 37.3029 24.1648 37.2898 24.1396C37.2774 24.1212 37.2643 24.1036 37.2506 24.087C37.2369 24.0703 37.2227 24.0547 37.2081 24.0401C37.1933 24.0255 37.178 24.012 37.1622 23.9996C37.1465 23.9872 37.1303 23.976 37.1138 23.9659C37.0925 23.9517 37.072 23.9358 37.0521 23.9184C37.0321 23.9011 37.0129 23.8822 36.9944 23.8618C36.9759 23.8415 36.9581 23.8198 36.9413 23.7967C36.9245 23.7737 36.9086 23.7494 36.8936 23.7239C36.8317 23.6548 36.7671 23.5907 36.7 23.5315C36.6344 23.4724 36.5714 23.4083 36.5109 23.3392C36.458 23.2771 36.4185 23.1717 36.3611 23.1468C36.3484 23.1406 36.3356 23.1337 36.3232 23.1261C36.3109 23.1185 36.2985 23.1101 36.2864 23.1011C36.2744 23.0921 36.2628 23.0825 36.2513 23.0721C36.2399 23.0618 36.2288 23.0509 36.218 23.0393C36.2071 23.0277 36.1968 23.0155 36.1866 23.0028C36.1764 22.99 36.1666 22.9767 36.1572 22.9628C36.1478 22.949 36.1389 22.9346 36.1304 22.9198C36.1217 22.9049 36.1136 22.8896 36.106 22.8738C36.0831 22.8428 36.0587 22.8143 36.033 22.7883C36.0071 22.7623 35.9801 22.7391 35.952 22.7187C35.8816 22.6566 35.7891 22.6256 35.7407 22.5449C35.7368 22.5363 35.7329 22.5279 35.7287 22.5196C35.7244 22.5112 35.7201 22.503 35.7155 22.495C35.7111 22.487 35.7065 22.4791 35.7018 22.4714C35.697 22.4637 35.6922 22.4562 35.6872 22.4488C35.6822 22.4415 35.6771 22.4343 35.6719 22.4273C35.6665 22.4203 35.6612 22.4135 35.6556 22.4068C35.6503 22.4002 35.6445 22.3937 35.6388 22.3875C35.6331 22.3813 35.6273 22.3752 35.6214 22.3694C35.6155 22.3635 35.6094 22.3579 35.6033 22.3525C35.5972 22.3471 35.5909 22.3418 35.5846 22.3369C35.5783 22.3319 35.5719 22.3271 35.5654 22.3226C35.5589 22.318 35.5525 22.3137 35.5458 22.3096C35.5391 22.3055 35.5325 22.3017 35.5258 22.298C35.519 22.2944 35.5122 22.2911 35.5053 22.2879C35.4985 22.2848 35.4914 22.2819 35.4844 22.2792C35.4776 22.2765 35.4706 22.2741 35.4633 22.2719L35.4371 22.2223C35.4343 22.2194 35.4317 22.2167 35.429 22.214C35.4264 22.2113 35.4236 22.2087 35.4208 22.2062C35.418 22.2037 35.4151 22.2012 35.4123 22.1989C35.4095 22.1965 35.4066 22.1942 35.4038 22.192C35.4009 22.1898 35.3979 22.1877 35.3949 22.1857C35.392 22.1837 35.389 22.1817 35.3859 22.1799C35.3829 22.178 35.38 22.1763 35.3768 22.1746C35.3737 22.1729 35.3705 22.1713 35.3674 22.1698C35.3642 22.1683 35.3611 22.1669 35.358 22.1656C35.3548 22.1643 35.3517 22.163 35.3485 22.1619C35.3452 22.1608 35.3419 22.1597 35.3387 22.1588C35.3356 22.1578 35.3323 22.157 35.3291 22.1562C35.3258 22.1555 35.3225 22.1548 35.3193 22.1542C35.316 22.1537 35.3127 22.1532 35.3093 22.1528C35.3062 22.1524 35.3029 22.1521 35.2995 22.152C35.2962 22.1518 35.2929 22.1517 35.2896 22.1517C35.2862 22.1517 35.2829 22.1518 35.2798 22.152C35.2764 22.1521 35.2731 22.1524 35.2698 22.1528C35.2664 22.1532 35.2631 22.1537 35.26 22.1542C35.2566 22.1548 35.2533 22.1555 35.2502 22.1562C35.2468 22.157 35.2435 22.1578 35.2404 22.1588C35.2372 22.1597 35.2339 22.1608 35.2308 22.1619C35.2276 22.163 35.2243 22.1643 35.2211 22.1656C35.218 22.1669 35.2149 22.1683 35.2117 22.1698C35.2086 22.1713 35.2056 22.1729 35.2025 22.1746C35.1993 22.1763 35.1964 22.178 35.1932 22.1799C35.1903 22.1817 35.1873 22.1837 35.1842 22.1857C35.1812 22.1877 35.1783 22.1898 35.1755 22.192C35.1725 22.1942 35.1696 22.1965 35.1668 22.1989C35.164 22.2012 35.1611 22.2037 35.1583 22.2062C35.1555 22.2087 35.1529 22.2113 35.1502 22.214C35.1474 22.2167 35.1448 22.2194 35.1422 22.2223C35.0542 22.3526 34.9529 22.4705 34.8649 22.6008C34.7769 22.7311 34.7857 22.7559 34.7417 22.8242C34.7 22.8854 34.656 22.9433 34.6097 22.9979C34.5541 23.053 34.5012 23.113 34.4513 23.1779C34.3796 23.3037 34.3032 23.4236 34.2224 23.5377C34.086 23.6991 33.932 23.8356 33.7824 23.9969C33.7378 24.0654 33.6966 24.1378 33.6591 24.2141C33.6193 24.2784 33.5753 24.3363 33.5271 24.3878C33.4744 24.4499 33.4126 24.4995 33.3686 24.5616C33.3246 24.6236 33.2235 24.816 33.1442 24.9339C33.065 25.0518 32.9682 25.1263 32.8801 25.2317C32.84 25.281 32.8034 25.3348 32.7701 25.3931C32.7176 25.4743 32.662 25.5508 32.603 25.6227C32.5413 25.6909 32.4666 25.7405 32.4048 25.815C32.3432 25.8895 32.2068 26.0756 32.1101 26.2059C32.0696 26.2608 32.0313 26.3187 31.9957 26.3797C31.9616 26.4468 31.925 26.5109 31.8857 26.572L31.6303 26.8823C31.6303 26.8823 31.6303 26.9567 31.6568 26.9878C31.6832 27.0188 31.7052 26.9878 31.7097 26.9878C31.7712 27.2111 31.9604 27.2111 32.0528 27.3849C32.1014 27.4477 32.1526 27.5056 32.2068 27.5586C32.2597 27.6269 32.3037 27.7572 32.3608 27.7696C32.3689 27.7729 32.3771 27.7764 32.385 27.7802C32.393 27.784 32.4009 27.788 32.4089 27.7923C32.4168 27.7966 32.4246 27.8012 32.4322 27.806C32.4399 27.8108 32.4475 27.8158 32.4551 27.8211C32.4627 27.8264 32.4703 27.8319 32.4777 27.8377C32.4849 27.8435 32.4923 27.8495 32.4995 27.8557C32.5067 27.862 32.5137 27.8684 32.5207 27.8751C32.5276 27.8818 32.5344 27.8887 32.5413 27.8959C32.5481 27.903 32.5548 27.9104 32.5612 27.9179C32.5677 27.9255 32.574 27.9333 32.5803 27.9413C32.5866 27.9492 32.5927 27.9574 32.5988 27.9658C32.6047 27.9742 32.6106 27.9827 32.6163 27.9915C32.6221 28.0002 32.6276 28.0092 32.633 28.0183C32.6383 28.0274 32.6437 28.0367 32.6489 28.0461C32.654 28.0556 32.659 28.0651 32.6638 28.0749C32.6686 28.0847 32.6733 28.0946 32.6777 28.1047C32.7833 28.2598 32.933 28.3094 33.021 28.4894C33.0465 28.5332 33.0741 28.5742 33.1035 28.6127C33.1329 28.6511 33.1641 28.6866 33.197 28.719C33.2499 28.781 33.307 28.8369 33.3642 28.8927C33.4355 28.9441 33.503 29.004 33.5666 29.0727C33.5783 29.0947 33.5905 29.1162 33.6032 29.1372C33.6158 29.1582 33.6289 29.1786 33.6424 29.1984C33.6559 29.2182 33.67 29.2374 33.6844 29.2559C33.6986 29.2745 33.7134 29.2924 33.7288 29.3097C33.7439 29.3269 33.7595 29.3435 33.7754 29.3594C33.7914 29.3752 33.8077 29.3904 33.8244 29.4048C33.8408 29.4192 33.8578 29.4329 33.875 29.4458C33.8922 29.4587 33.9098 29.4708 33.9275 29.4822C33.9804 29.4822 34.02 29.5939 34.064 29.6498C34.1252 29.7163 34.1808 29.7907 34.2313 29.8731C34.284 29.9786 34.372 29.9972 34.4337 30.0655C34.5184 30.1716 34.5975 30.2853 34.6713 30.4068C34.6739 30.4085 34.6765 30.4101 34.6791 30.4115C34.6818 30.4128 34.6846 30.4139 34.6874 30.4148C34.6902 30.4158 34.6929 30.4164 34.6957 30.4169C34.6985 30.4173 34.7014 30.4176 34.7042 30.4176C34.7072 30.4176 34.7101 30.4173 34.7129 30.4169C34.7157 30.4164 34.7184 30.4158 34.7212 30.4148C34.724 30.4139 34.7268 30.4128 34.7294 30.4115C34.7321 30.4101 34.7347 30.4085 34.7373 30.4068C34.8137 30.2975 34.8826 30.1796 34.9442 30.0531C34.9749 29.9848 34.9442 29.898 35.0366 29.8545C35.1289 29.8111 35.1113 29.6994 35.1466 29.6187L35.2258 29.4512C35.2679 29.3786 35.306 29.3021 35.3402 29.2216C35.357 29.1655 35.3761 29.111 35.3975 29.0581C35.4188 29.0052 35.4423 28.9542 35.4678 28.9051C35.5471 28.7935 35.6307 28.7066 35.6438 28.539C35.6438 28.539 35.6438 28.5018 35.6791 28.477L35.8376 28.1667L35.8376 28.0736C35.8435 28.0688 35.8494 28.0638 35.8551 28.0585C35.8608 28.0532 35.8666 28.0477 35.8721 28.0419C35.8779 28.0362 35.8832 28.0302 35.8886 28.0241C35.8939 28.0179 35.8991 28.0115 35.9041 28.0049C35.9091 27.9983 35.9141 27.9915 35.9189 27.9845C35.9237 27.9776 35.9283 27.9704 35.9329 27.963C35.9374 27.9557 35.9418 27.9481 35.9461 27.9404C35.9503 27.9327 35.9542 27.9248 35.9581 27.9168C35.962 27.9088 35.9659 27.9006 35.9694 27.8923C35.9729 27.884 35.9764 27.8755 35.9795 27.8669C35.9827 27.8583 35.9858 27.8496 35.9886 27.8407C35.9916 27.8319 35.9943 27.8229 35.9967 27.8139C35.9991 27.8048 36.0015 27.7957 36.0038 27.7864C36.0058 27.7772 36.0078 27.7679 36.0095 27.7585C36.0113 27.749 36.013 27.7396 36.0143 27.7301C36.0156 27.7205 36.0169 27.711 36.018 27.7014C36.0171 27.6979 36.0163 27.6943 36.0158 27.6907C36.0154 27.687 36.0152 27.6833 36.0152 27.6796C36.0152 27.6759 36.0154 27.6722 36.0158 27.6686C36.0163 27.6649 36.0171 27.6614 36.018 27.6579C36.0971 27.5586 36.1896 27.4718 36.194 27.298C36.194 27.298 36.216 27.2546 36.2291 27.236L36.3876 26.9133L36.3876 26.8326L36.656 26.3548C36.6919 26.2978 36.7228 26.2357 36.7485 26.1687C36.7925 26.0632 36.8276 25.9515 36.876 25.846C36.9282 25.7181 36.9883 25.5981 37.0565 25.4861C37.1138 25.3931 37.1269 25.2627 37.1754 25.1883C37.2238 25.1138 37.3469 24.9649 37.3601 24.7788C37.3601 24.7788 37.3954 24.7788 37.4085 24.7415L37.6065 24.5057Z"   fill="#E80000" >
</path>
</svg>
