<svg xmlns="http://www.w3.org/2000/svg" xmlns:xlink="http://www.w3.org/1999/xlink" width="84.33332824707031" height="63.10238603923631" viewBox="0 0 84.33332824707031 63.10238603923631" fill="none">
<path d="M29.523 38.4799L54.8104 38.4799L67.454 47.0703L54.8104 55L29.523 55L16.8793 47.0703L29.523 38.4799Z" stroke="url(#linear_border_10_491)" stroke-width="0.4583333151927888"   >
</path>
<path d="M29.523 37.1583L54.8104 37.1583L67.454 45.7487L54.8104 53.6784L29.523 53.6784L16.8793 45.7487L29.523 37.1583Z" stroke="url(#linear_border_10_492)" stroke-width="0.4583333151927888"   >
</path>
<g filter="url(#filter_10_493)">
<path d="M30.1554 31.8717L54.1784 31.8717L66.1898 39.1406L54.1784 46.4094L30.1554 46.4094L18.1439 39.1406L30.1554 31.8717Z" stroke="rgba(77, 193, 247, 1)" stroke-width="0.4583333151927888"      fill="#1E84B3" fill-opacity="0.16">
</path>
<path d="M31.4196 33.8544L52.9138 33.8544L61.7644 39.1408L52.9138 44.4273L31.4196 44.4273L22.569 39.1408L31.4196 33.8544Z" stroke="url(#linear_border_10_495)" stroke-width="0.9166666303855776"   >
</path>
<rect x="30.15533447265625" y="46.40960693359375" width="24.022979736328125" height="5.286442756652832" stroke="rgba(77, 193, 247, 1)" stroke-width="0.4583333151927888"      fill="#4DC1F7" fill-opacity="0.21">
</rect>
<path d="M36.4772 51.0352L35.845 51.696L49.1209 51.696L48.4887 51.0352L36.4772 51.0352Z" stroke="rgba(10, 250, 251, 1)" stroke-width="0.4583333151927888"      fill="#0AFAFB" >
</path>
<path d="M66.1897 39.1405L66.1897 44.427L54.1782 51.6958L54.1782 46.4094L66.1897 39.1405Z" stroke="rgba(77, 193, 247, 1)" stroke-width="0.4583333151927888"      fill="url(#linear_fill_10_498)" >
</path>
<path d="M66.1895 42.4447L66.1895 44.4271L61.7642 47.0703L62.3964 45.7487L65.2412 44.0365L65.2412 43.4359L66.1895 42.4447Z" stroke="rgba(10, 250, 251, 1)" stroke-width="0.4583333151927888"      fill="#0AFAFB" >
</path>
<path d="M30.1554 46.4094L30.1554 51.6958L18.1439 44.427L18.1439 39.1405L30.1554 46.4094Z" stroke="rgba(77, 193, 247, 1)" stroke-width="0.4583333151927888"      fill="url(#linear_fill_10_500)" >
</path>
<path d="M23.8335 47.0703L24.1496 48.0616L18.1439 44.4271L18.1439 42.4447L19.0922 43.4359L19.0922 44.0967L23.8335 47.0703Z" stroke="rgba(10, 250, 251, 1)" stroke-width="0.4583333151927888"      fill="#0AFAFB" >
</path>
</g>
<path d="M0 0L84.3333 0L66.1897 39.1406L54.1782 46.4095L30.1552 46.4095L18.1438 39.1406L0 0Z"   fill="url(#linear_fill_10_502)" >
</path>
<path d="M4.42545 0.000377029L79.9082 0.000366211L61.7645 39.1408L52.9139 44.4273L31.4197 44.4273L22.5691 39.1408L4.42545 0.000377029Z"   fill="url(#linear_fill_10_503)" >
</path>
<path d="M51.1368 35.9774C50.9146 35.7553 50.6286 35.597 50.3094 35.5331C50.1179 35.4948 49.98 35.3314 49.98 35.1373L49.98 25.7504C49.98 21.6903 46.6578 18.3247 42.5977 18.34C38.5503 18.3553 35.2715 21.6418 35.2715 25.6943L35.2715 35.1373C35.2715 35.3314 35.1336 35.4948 34.9421 35.5331C34.1965 35.6863 33.6372 36.3451 33.6372 37.1342L51.6143 37.1342C51.6143 36.6822 51.4304 36.2736 51.1368 35.9774ZM44.0379 22.8343L43.5425 27.2596L45.4857 27.2596L41.2162 33.4571L41.7116 29.0318L39.7658 29.0318L44.0379 22.8343ZM42.6258 16.2972C42.1738 16.2972 41.8086 15.932 41.8086 15.48L41.8086 11.8029C41.8086 11.3509 42.1738 10.9857 42.6258 10.9857C43.0777 10.9857 43.4429 11.3509 43.4429 11.8029L43.4429 15.48C43.4429 15.932 43.0777 16.2972 42.6258 16.2972ZM36.7015 18.5468C36.3108 18.7716 35.8103 18.6388 35.5856 18.2481L33.747 15.0638C33.5223 14.6731 33.6551 14.1726 34.0458 13.9479C34.4365 13.7232 34.937 13.8559 35.1617 14.2466L37.0003 17.4309C37.225 17.8216 37.0922 18.3196 36.7015 18.5468ZM48.55 18.5468C48.9407 18.7716 49.4412 18.6388 49.6659 18.2481L51.5045 15.0638C51.7292 14.6731 51.5964 14.1726 51.2057 13.9479C50.815 13.7232 50.3145 13.8559 50.0898 14.2466L48.2513 17.4309C48.0265 17.8216 48.1593 18.3196 48.55 18.5468ZM34.7225 22.3465C34.605 22.7832 34.1582 23.0411 33.7215 22.9236L30.1695 21.9737C29.7328 21.8563 29.4749 21.4094 29.5898 20.9727C29.7073 20.5361 30.1542 20.2782 30.5908 20.3956L34.1428 21.3481C34.5795 21.463 34.8374 21.9099 34.7225 22.3465ZM50.529 22.3465C50.6465 22.7832 51.0934 23.0411 51.53 22.9236L55.082 21.9712C55.5187 21.8537 55.7766 21.4068 55.6591 20.9702C55.5417 20.5335 55.0948 20.2756 54.6581 20.3931L51.1061 21.3455C50.672 21.463 50.4141 21.9099 50.529 22.3465Z"   fill="url(#linear_fill_10_505)" >
</path>
<defs>
<linearGradient id="linear_border_10_491" x1="41.28516387939453" y1="55" x2="41.28516387939453" y2="37.173431396484375" gradientUnits="userSpaceOnUse">
<stop offset="0" stop-color="#2FB6F5"  />
<stop offset="1" stop-color="#2FB6F5" stop-opacity="0" />
</linearGradient>
<linearGradient id="linear_border_10_492" x1="43.74713897705078" y1="53.67840576171875" x2="43.74713897705078" y2="35.962371826171875" gradientUnits="userSpaceOnUse">
<stop offset="0" stop-color="#0AFAFB"  />
<stop offset="1" stop-color="#0AFAFB" stop-opacity="0" />
</linearGradient>
<linearGradient id="linear_border_10_495" x1="22.569000244140625" y1="39.14080810546875" x2="61.764381408691406" y2="39.14080810546875" gradientUnits="userSpaceOnUse">
<stop offset="0" stop-color="#00BFFF"  />
<stop offset="0.1214" stop-color="#2BCAFF" stop-opacity="0.62" />
<stop offset="0.2583" stop-color="#2BCAFF" stop-opacity="0.2" />
<stop offset="0.7439" stop-color="#2BCAFF" stop-opacity="0.2" />
<stop offset="0.8546" stop-color="#2BCAFF" stop-opacity="0.55" />
<stop offset="1" stop-color="#00BFFF"  />
</linearGradient>
<linearGradient id="linear_fill_10_498" x1="54.178192138671875" y1="49.216796875" x2="66.18968200683594" y2="43.098968505859375" gradientUnits="userSpaceOnUse">
<stop offset="0" stop-color="#4DC1F7" stop-opacity="0.38" />
<stop offset="1" stop-color="#4DC1F7" stop-opacity="0" />
</linearGradient>
<linearGradient id="linear_fill_10_500" x1="18.457149505615234" y1="41.78619384765625" x2="30.155380249023438" y2="48.81201171875" gradientUnits="userSpaceOnUse">
<stop offset="0" stop-color="#4DC1F7" stop-opacity="0.08" />
<stop offset="1" stop-color="#4DC1F7" stop-opacity="0.3" />
</linearGradient>
<filter id="filter_10_493" x="10.367926569952488" y="27.97585056830144" width="63.59788327977276" height="35.12653547093487" filterUnits="userSpaceOnUse" color-interpolation-filters="sRGB">
<feFlood flood-opacity="0" result="feFloodId_10_493"/>
<feColorMatrix in="SourceAlpha" type="matrix" values="0 0 0 0 0 0 0 0 0 0 0 0 0 0 0 0 0 0 127 0" result="hardAlpha_10_493"/>
<feOffset dx="0" dy="3.6666665215423104"/>
<feGaussianBlur stdDeviation="3.6666665215423104"/>
<feComposite in2="hardAlpha_10_493" operator="out"/>
<feColorMatrix type="matrix" values="0 0 0 0 0.16862745098039217 0 0 0 0 0.792156862745098 0 0 0 0 1 0 0 0 0.2 0"/>
<feBlend mode="normal" in2="feFloodId_10_493" result="dropShadow_1_10_493"/>
<feBlend mode="normal" in="SourceGraphic" in2="dropShadow_1_10_493" result="shape_10_493"/>
</filter>
<linearGradient id="linear_fill_10_502" x1="39.05877685546875" y1="46.40948486328125" x2="39.05877685546875" y2="0" gradientUnits="userSpaceOnUse">
<stop offset="0" stop-color="#1E84B3" stop-opacity="0.2" />
<stop offset="1" stop-color="#1E84B3" stop-opacity="0" />
</linearGradient>
<linearGradient id="linear_fill_10_503" x1="39.43403625488281" y1="44.427276611328125" x2="39.434043884277344" y2="2.4495849609375" gradientUnits="userSpaceOnUse">
<stop offset="0" stop-color="#1E84B3" stop-opacity="0.3" />
<stop offset="1" stop-color="#1E84B3" stop-opacity="0" />
</linearGradient>
<linearGradient id="linear_fill_10_505" x1="55.68749237060547" y1="37.134185791015625" x2="34.51136779785156" y2="16.02325439453125" gradientUnits="userSpaceOnUse">
<stop offset="0" stop-color="#FF5242"  />
<stop offset="1" stop-color="#FF5242" stop-opacity="0.35" />
</linearGradient>
</defs>
</svg>
