<svg xmlns="http://www.w3.org/2000/svg" xmlns:xlink="http://www.w3.org/1999/xlink" width="28" height="28" viewBox="0 0 28 28" fill="none">
<path   fill-rule="evenodd"  fill="url(#linear_fill_6_1393_0)"  d="M14 4C8.47715 4 4 8.47715 4 14C4 19.5228 8.47715 24 14 24C19.5228 24 24 19.5228 24 14C24 8.47715 19.5228 4 14 4ZM20.7417 14.472C20.7417 14.7511 20.5154 14.9773 20.2364 14.9773L14.9773 14.9773L14.9773 20.2364C14.9773 20.5154 14.7511 20.7417 14.472 20.7417L13.528 20.7417C13.2489 20.7417 13.0227 20.5154 13.0227 20.2364L13.0227 14.9773L7.76362 14.9773C7.48455 14.9773 7.2583 14.7511 7.2583 14.472L7.2583 13.528C7.2583 13.2489 7.48455 13.0227 7.76362 13.0227L13.0226 13.0227L13.0226 7.76364C13.0226 7.48457 13.2489 7.25832 13.528 7.25832L14.472 7.25832C14.7511 7.25832 14.9773 7.48457 14.9773 7.76364L14.9773 13.0227L20.2363 13.0227C20.5154 13.0227 20.7416 13.2489 20.7416 13.528L20.7417 14.472Z">
</path>
<defs>
<linearGradient id="linear_fill_6_1393_0" x1="14" y1="4" x2="14" y2="24" gradientUnits="userSpaceOnUse">
<stop offset="0" stop-color="#0AFAFB"  />
<stop offset="1" stop-color="#0D76FF"  />
</linearGradient>
</defs>
</svg>
