<?xml version="1.0" standalone="no"?><!DOCTYPE svg PUBLIC "-//W3C//DTD SVG 1.1//EN" "http://www.w3.org/Graphics/SVG/1.1/DTD/svg11.dtd"><svg t="1721010620429" class="icon" viewBox="0 0 1024 1024" version="1.1" xmlns="http://www.w3.org/2000/svg" p-id="33707" xmlns:xlink="http://www.w3.org/1999/xlink" width="200" height="200"><path d="M512 973.7216c-26.624 0-49.2032-9.216-67.6864-27.8016a89.344 89.344 0 0 1-27.8016-65.4848h188.672c0 26.624-8.8576 48.896-26.6752 66.56-17.664 17.664-39.936 26.7264-66.5088 26.7264z m284.16-519.4752v235.3152l95.488 95.488v46.592H132.4032v-46.7968l95.5392-95.488V454.2464c0-73.984 18.944-138.4448 56.576-193.2288 37.6832-54.784 89.856-90.3168 156.5696-106.496V121.344c0-19.3024 6.656-35.9424 19.968-49.9712s30.3616-21.1456 51.0464-21.0432c20.6848 0 37.6832 7.1168 51.0464 21.0432 13.4144 13.9776 20.0704 30.5664 20.0704 49.9712v33.3312c66.56 16.384 118.784 51.8144 156.5184 106.496 37.6832 54.6816 56.5248 119.1424 56.4224 193.1264z m93.2864-24.4736c-7.2704-127.3856-62.8736-228.6592-166.6048-304.128l66.56-66.56c122.9824 94.72 188.16 218.368 195.4304 370.688h-95.3856zM303.36 125.6448C198.2464 199.6288 142.0288 301.056 134.656 429.7728H39.168C46.4384 277.4016 111.616 153.7024 234.496 59.0848l68.8128 66.56z"  p-id="33708"></path></svg>
