<svg xmlns="http://www.w3.org/2000/svg" xmlns:xlink="http://www.w3.org/1999/xlink" width="29" height="12" viewBox="0 0 29 12" fill="none">
<path d="M3.64875 11.6667C3.44972 11.6667 3.31704 11.6 3.18437 11.4667C2.919 11.2 2.98535 10.8 3.25071 10.5334L7.49645 6.6667C7.62913 6.53336 7.69547 6.40003 7.69547 6.26669C7.69547 6.13337 7.62913 6.00003 7.49645 5.86669L3.18437 2.20003C2.919 1.93337 2.85266 1.53336 3.11803 1.2667C3.38338 1.00003 3.78143 0.933366 4.04678 1.20003L8.29253 4.8667C8.69056 5.20003 8.95593 5.73336 8.95593 6.2667C8.95593 6.80003 8.7569 7.2667 8.35887 7.66669L4.11312 11.5334C3.98044 11.6 3.78143 11.6667 3.64875 11.6667Z"   fill="#33A3FF" >
</path>
<path d="M12.1782 11.6667C11.9791 11.6667 11.8465 11.6 11.7138 11.4667C11.4484 11.2 11.5148 10.8 11.7801 10.5334L16.0259 6.6667C16.1585 6.53336 16.2249 6.40003 16.2249 6.26669C16.2249 6.13337 16.1585 6.00003 16.0259 5.86669L11.7138 2.20003C11.4484 1.93337 11.3821 1.53336 11.6474 1.2667C11.9128 1.00003 12.3108 0.933366 12.5762 1.20003L16.8219 4.8667C17.22 5.20003 17.4853 5.73336 17.4853 6.2667C17.4853 6.80003 17.2863 7.2667 16.8883 7.66669L12.6425 11.5334C12.5099 11.6 12.3108 11.6667 12.1782 11.6667Z"   fill="#33A3FF" >
</path>
<path d="M20.7076 11.6667C20.5086 11.6667 20.3759 11.6 20.2432 11.4667C19.9778 11.2 20.0442 10.8 20.3095 10.5334L24.5553 6.6667C24.688 6.53336 24.7543 6.40003 24.7543 6.26669C24.7543 6.13337 24.688 6.00003 24.5553 5.86669L20.2432 2.20003C19.9778 1.93337 19.9115 1.53336 20.1769 1.2667C20.4422 1.00003 20.8403 0.933366 21.1056 1.20003L25.3514 4.8667C25.7494 5.20003 26.0148 5.73336 26.0148 6.2667C26.0148 6.80003 25.8157 7.2667 25.4177 7.66669L21.172 11.5334C21.0393 11.6 20.8403 11.6667 20.7076 11.6667Z"   fill="#33A3FF" >
</path>
</svg>
