<svg xmlns="http://www.w3.org/2000/svg" xmlns:xlink="http://www.w3.org/1999/xlink" width="89.322509765625" height="64" viewBox="0 0 89.322509765625 64" fill="none">
<g opacity="0.3">
<path   fill-rule="evenodd"  fill="url(#linear_fill_2_816_0)"  d="M19.7783 48.7458ZM24.5983 51.6658L37.8983 59.6958C42.0983 62.2358 47.3783 62.2158 51.5583 59.6358L64.4983 51.6458C65.4783 51.0358 66.0683 49.9558 66.0483 48.8058C66.0283 47.6458 65.3983 46.5858 64.3983 46.0158L51.1783 38.4558C47.1883 36.1758 42.2983 36.1558 38.2883 38.3958L24.6983 46.0058C23.6783 46.5758 23.0383 47.6458 23.0183 48.8058C22.9983 49.9758 23.5983 51.0658 24.5983 51.6658Z">
</path>
<path fill-rule="evenodd"  fill="url(#linear_border_2_816_0)"  d="M37.8983 59.6958L24.5983 51.6658C23.6009 51.0673 23.0015 49.9814 23.0182 48.8149L23.0183 48.8058L23.0185 48.7947C23.0424 47.639 23.6816 46.574 24.6983 46.0058L38.2883 38.3958C42.2983 36.1558 47.1883 36.1758 51.1783 38.4558L64.3983 46.0158C65.3983 46.5858 66.0283 47.6458 66.0483 48.8058C66.0683 49.9558 65.4783 51.0358 64.4983 51.6458L51.5583 59.6358C47.3783 62.2158 42.0983 62.2358 37.8983 59.6958ZM23.0357 48.8051L39.0845 39.8297Q40.3902 39.0995 41.8368 38.7293Q43.2609 38.3648 44.7323 38.3716Q46.2036 38.3784 47.6243 38.756Q49.0675 39.1395 50.3663 39.8817L63.5888 47.4372C64.6676 48.0537 64.6938 49.5999 63.6364 50.2525L50.6952 58.2388Q49.3361 59.0775 47.8033 59.5122Q46.2974 59.9392 44.7302 59.9467Q43.163 59.9542 41.653 59.5416Q40.1162 59.1216 38.7492 58.296L23.0357 48.8051Z">
</path>
</g>
<path   fill-rule="evenodd"  fill="url(#linear_fill_2_817_0)"  d="M9.60583 36.9599ZM38.7958 21.9299L15.0458 34.1599C13.9658 34.7099 13.2858 35.8099 13.2658 37.0199C13.2458 38.2299 13.8958 39.3499 14.9558 39.9399L38.4258 52.9899C42.4258 55.2099 47.2858 55.1899 51.2658 52.9299L74.1558 39.9199C75.1958 39.3299 75.8258 38.2199 75.8058 37.0199C75.7858 35.8299 75.1258 34.7399 74.0658 34.1799L50.8958 21.9899C47.1158 19.9999 42.5958 19.9699 38.7958 21.9299Z">
</path>
<path fill-rule="evenodd"  fill="url(#linear_border_2_817_0)"  d="M15.0458 34.1599L38.7958 21.9299C42.5958 19.9699 47.1158 19.9999 50.8958 21.9899L74.0658 34.1799C75.1258 34.7399 75.7858 35.8299 75.8058 37.0199C75.8258 38.2199 75.1958 39.3299 74.1558 39.9199L51.2658 52.9299C47.2858 55.1899 42.4258 55.2099 38.4258 52.9899L14.9558 39.9399C13.9269 39.3672 13.2843 38.2952 13.2658 37.1262L39.2178 51.5601Q40.5189 52.2838 41.9592 52.6507Q43.3772 53.0119 44.8419 53.0051Q46.3065 52.9984 47.7212 52.6242Q49.158 52.2441 50.4525 51.5085L73.3465 38.4985C74.4718 37.859 74.4454 36.2284 73.3 35.6257L50.1307 23.4345Q47.6485 22.1285 44.8437 22.1161Q42.0389 22.1038 39.5452 23.3879L13.269 36.9197C13.3238 35.7495 13.9957 34.6947 15.0458 34.1599Z">
</path>
<path d="M14.1832 37.7367L0 0.0853271L88.645 0.0853271L74.9051 37.7367C74.9051 37.7367 51.4141 54.1262 44.3225 54.1262C39.0038 54.1262 14.1832 37.7367 14.1832 37.7367Z"   fill="url(#linear_fill_2_818)" >
</path>
<path d="M28.9195 8.6102L31.3096 5L34.6849 8.09045L40.0641 8.86446L45.4096 12.8927L28.3429 19.373L28.9195 8.6102ZM57.5905 9.64927C55.5252 9.64927 53.628 10.3718 52.1334 11.5804L29.1924 19.9546C25.9 20.2633 23.3226 23.0593 23.3226 26.4631C23.3226 30.0733 26.2221 33 29.7989 33C30.1049 33 30.4059 32.9785 30.7006 32.9371L30.7045 32.9567L58.7463 27.2003C59.1499 27.1464 59.5447 27.0648 59.929 26.9575L59.9503 26.953L59.9501 26.9516C63.6276 25.9133 66.3224 22.5076 66.3224 18.4629C66.3224 13.5928 62.41 9.64927 57.5905 9.64927ZM57.5905 24.1467C54.4839 24.1467 51.9594 21.6042 51.9594 18.4629C51.9594 15.3217 54.4783 12.7792 57.5905 12.7792C60.6972 12.7792 63.2216 15.3217 63.2216 18.4629C63.2216 21.6042 60.6972 24.1467 57.5905 24.1467ZM32.9832 20.7697L49.7076 14.6647C49.1632 15.8147 48.8584 17.1027 48.8584 18.4629C48.8584 21.7942 50.6864 24.6919 53.3858 26.1906L35.3078 29.9018C35.9211 28.9029 36.2752 27.7247 36.2752 26.4631C36.2752 24.0212 34.9487 21.892 32.9832 20.7697ZM54.9251 18.4631C54.9251 18.5072 54.9262 18.5511 54.9283 18.5951C54.9305 18.639 54.9336 18.6829 54.9379 18.7267C54.9423 18.7705 54.9476 18.8142 54.954 18.8577C54.9603 18.9012 54.9678 18.9446 54.9762 18.9877C54.9848 19.0309 54.9944 19.0738 55.0049 19.1165C55.0155 19.1592 55.0272 19.2017 55.0399 19.2438C55.0525 19.2859 55.0661 19.3277 55.0808 19.3691C55.0956 19.4105 55.1113 19.4516 55.1279 19.4923C55.1446 19.5329 55.1623 19.5731 55.1809 19.6129C55.1995 19.6527 55.2191 19.692 55.2397 19.7308C55.2603 19.7696 55.2818 19.8079 55.3042 19.8456C55.3266 19.8834 55.3499 19.9206 55.3742 19.9571C55.3984 19.9938 55.4234 20.0298 55.4495 20.0651C55.4755 20.1005 55.5023 20.1351 55.5299 20.1691C55.5576 20.2032 55.586 20.2365 55.6153 20.2691C55.6446 20.3017 55.6746 20.3336 55.7055 20.3647C55.7364 20.3958 55.7679 20.4262 55.8002 20.4557C55.8326 20.4853 55.8655 20.514 55.8992 20.5419C55.933 20.5699 55.9673 20.5969 56.0023 20.6231C56.0373 20.6493 56.073 20.6747 56.1092 20.6991C56.1455 20.7236 56.1824 20.7471 56.2197 20.7697C56.2571 20.7924 56.295 20.8141 56.3336 20.8349C56.372 20.8555 56.4109 20.8753 56.4503 20.8942C56.4897 20.913 56.5296 20.9307 56.5699 20.9476C56.6102 20.9645 56.6508 20.9803 56.6919 20.9952C56.7329 21.0099 56.7743 21.0238 56.8161 21.0365C56.8578 21.0494 56.8997 21.061 56.9421 21.0717C56.9844 21.0825 57.0269 21.0921 57.0697 21.1007C57.1124 21.1093 57.1553 21.1168 57.1985 21.1232C57.2417 21.1297 57.285 21.1351 57.3284 21.1394C57.3717 21.1437 57.4152 21.1469 57.4587 21.1492C57.5022 21.1513 57.5459 21.1524 57.5895 21.1524C57.6331 21.1524 57.6767 21.1513 57.7202 21.1492C57.7638 21.1469 57.8072 21.1437 57.8506 21.1394C57.894 21.1351 57.9373 21.1297 57.9804 21.1232C58.0235 21.1168 58.0664 21.1093 58.1093 21.1007C58.152 21.0921 58.1945 21.0825 58.2369 21.0717C58.2792 21.061 58.3212 21.0494 58.3629 21.0365C58.4046 21.0238 58.446 21.0099 58.4871 20.9952C58.5281 20.9803 58.5688 20.9645 58.6091 20.9476C58.6494 20.9307 58.6892 20.913 58.7286 20.8942C58.768 20.8753 58.807 20.8555 58.8454 20.8349C58.8839 20.8141 58.9218 20.7924 58.9592 20.7697C58.9966 20.7471 59.0335 20.7236 59.0698 20.6991C59.106 20.6747 59.1416 20.6493 59.1766 20.6231C59.2117 20.5969 59.246 20.5699 59.2797 20.5419C59.3134 20.514 59.3465 20.4853 59.3787 20.4557C59.411 20.4262 59.4426 20.3958 59.4735 20.3647C59.5042 20.3336 59.5343 20.3017 59.5637 20.2691C59.5929 20.2365 59.6213 20.2032 59.649 20.1691C59.6767 20.1351 59.7035 20.1005 59.7295 20.0651C59.7555 20.0298 59.7805 19.9938 59.8048 19.9571C59.829 19.9206 59.8524 19.8834 59.8748 19.8456C59.8972 19.8079 59.9187 19.7696 59.9393 19.7308C59.9597 19.692 59.9793 19.6527 59.998 19.6129C60.0166 19.5731 60.0343 19.5329 60.0511 19.4923C60.0677 19.4516 60.0834 19.4105 60.0981 19.3691C60.1127 19.3277 60.1264 19.2859 60.1391 19.2438C60.1518 19.2017 60.1634 19.1592 60.174 19.1165C60.1846 19.0738 60.1941 19.0309 60.2026 18.9877C60.2111 18.9446 60.2186 18.9012 60.225 18.8577C60.2314 18.8142 60.2367 18.7705 60.241 18.7267C60.2453 18.6829 60.2485 18.639 60.2506 18.5951C60.2527 18.5511 60.2538 18.5072 60.2538 18.4631C60.2538 18.4191 60.2527 18.3751 60.2506 18.3312C60.2485 18.2872 60.2453 18.2433 60.241 18.1995C60.2367 18.1558 60.2314 18.1121 60.225 18.0685C60.2186 18.025 60.2111 17.9816 60.2026 17.9385C60.1941 17.8954 60.1846 17.8523 60.174 17.8097C60.1634 17.767 60.1518 17.7246 60.1391 17.6824C60.1264 17.6404 60.1127 17.5986 60.0981 17.5572C60.0834 17.5157 60.0677 17.4746 60.0511 17.434C60.0343 17.3934 60.0166 17.3531 59.998 17.3134C59.9793 17.2735 59.9597 17.2343 59.9393 17.1954C59.9187 17.1566 59.8972 17.1183 59.8748 17.0805C59.8524 17.0428 59.829 17.0057 59.8048 16.969C59.7805 16.9325 59.7555 16.8965 59.7295 16.8611C59.7035 16.8258 59.6767 16.7912 59.649 16.7571C59.6213 16.7231 59.5929 16.6897 59.5637 16.6571C59.5343 16.6246 59.5042 16.5926 59.4735 16.5616C59.4426 16.5304 59.411 16.5001 59.3787 16.4705C59.3465 16.441 59.3134 16.4123 59.2797 16.3844C59.246 16.3564 59.2117 16.3293 59.1766 16.3031C59.1416 16.2769 59.106 16.2515 59.0698 16.2272C59.0335 16.2027 58.9966 16.1791 58.9592 16.1565C58.9218 16.1339 58.8839 16.1122 58.8454 16.0914C58.807 16.0707 58.768 16.0509 58.7286 16.0321C58.6892 16.0133 58.6494 15.9954 58.6091 15.9786C58.5688 15.9617 58.5281 15.9459 58.4871 15.9311C58.446 15.9163 58.4046 15.9024 58.3629 15.8897C58.3212 15.8769 58.2792 15.8652 58.2369 15.8545C58.1945 15.8438 58.152 15.8341 58.1093 15.8256C58.0664 15.817 58.0235 15.8095 57.9804 15.803C57.9373 15.7965 57.894 15.7912 57.8506 15.7868C57.8072 15.7825 57.7638 15.7793 57.7202 15.7771C57.6767 15.775 57.6331 15.7739 57.5895 15.7739C57.5459 15.7739 57.5022 15.775 57.4587 15.7771C57.4152 15.7793 57.3717 15.7825 57.3284 15.7868C57.285 15.7912 57.2417 15.7965 57.1985 15.803C57.1553 15.8095 57.1124 15.817 57.0697 15.8256C57.0269 15.8341 56.9844 15.8438 56.9421 15.8545C56.8997 15.8652 56.8578 15.8769 56.8161 15.8897C56.7743 15.9024 56.7329 15.9163 56.6919 15.9311C56.6508 15.9459 56.6102 15.9617 56.5699 15.9786C56.5296 15.9954 56.4897 16.0133 56.4503 16.0321C56.4109 16.0509 56.372 16.0707 56.3336 16.0914C56.295 16.1122 56.2571 16.1339 56.2197 16.1565C56.1824 16.1791 56.1455 16.2027 56.1092 16.2272C56.073 16.2515 56.0373 16.2769 56.0023 16.3031C55.9673 16.3293 55.933 16.3564 55.8992 16.3844C55.8655 16.4123 55.8326 16.441 55.8002 16.4705C55.7679 16.5001 55.7364 16.5304 55.7055 16.5616C55.6746 16.5927 55.6446 16.6245 55.6153 16.6571C55.586 16.6897 55.5576 16.7231 55.5299 16.7571C55.5023 16.7912 55.4755 16.8258 55.4495 16.8611C55.4234 16.8965 55.3984 16.9325 55.3742 16.969C55.3499 17.0057 55.3266 17.0428 55.3042 17.0805C55.2818 17.1183 55.2603 17.1566 55.2397 17.1954C55.2191 17.2343 55.1995 17.2735 55.1809 17.3134C55.1623 17.3531 55.1446 17.3934 55.1279 17.434C55.1113 17.4746 55.0956 17.5157 55.0808 17.5572C55.0661 17.5986 55.0525 17.6404 55.0399 17.6825C55.0272 17.7246 55.0155 17.767 55.0049 17.8097C54.9944 17.8523 54.9849 17.8954 54.9762 17.9385C54.9678 17.9816 54.9603 18.025 54.954 18.0685C54.9476 18.1121 54.9423 18.1558 54.9379 18.1995C54.9336 18.2433 54.9305 18.2872 54.9283 18.3312C54.9262 18.3751 54.9251 18.4191 54.9251 18.4631ZM29.7989 30.6779C27.4928 30.6779 25.6232 28.7908 25.6232 26.4631C25.6232 24.1354 27.4928 22.2484 29.7989 22.2484C32.1051 22.2484 33.9747 24.1354 33.9747 26.4631C33.9747 28.7908 32.1051 30.6779 29.7989 30.6779ZM27.8225 26.4626C27.8225 26.4953 27.8232 26.5279 27.8248 26.5605C27.8264 26.5931 27.8287 26.6257 27.8319 26.6582C27.8351 26.6907 27.839 26.7231 27.8438 26.7554C27.8485 26.7877 27.854 26.8198 27.8603 26.8519C27.8666 26.8839 27.8737 26.9157 27.8815 26.9474C27.8894 26.9791 27.898 27.0106 27.9073 27.0418C27.9167 27.0731 27.9269 27.1041 27.9377 27.1348C27.9486 27.1655 27.9602 27.196 27.9726 27.2262C27.985 27.2563 27.9981 27.2862 28.0119 27.3157C28.0257 27.3452 28.0403 27.3743 28.0555 27.4032C28.0707 27.432 28.0867 27.4604 28.1033 27.4884C28.1199 27.5164 28.1372 27.5439 28.1552 27.5711C28.1731 27.5982 28.1917 27.6249 28.211 27.6512C28.2302 27.6774 28.2501 27.7031 28.2707 27.7284C28.2912 27.7536 28.3123 27.7783 28.334 27.8026C28.3557 27.8268 28.378 27.8504 28.4009 27.8735C28.4237 27.8967 28.4472 27.9191 28.4711 27.941C28.4951 27.963 28.5196 27.9844 28.5446 28.005C28.5696 28.0257 28.5951 28.0458 28.621 28.0652C28.647 28.0847 28.6734 28.1036 28.7003 28.1217C28.7272 28.1399 28.7546 28.1573 28.7823 28.1741C28.81 28.1909 28.8382 28.207 28.8667 28.2223C28.8952 28.2378 28.9241 28.2524 28.9533 28.2664C28.9826 28.2803 29.0121 28.2936 29.042 28.306C29.0719 28.3185 29.1021 28.3304 29.1325 28.3413C29.163 28.3524 29.1937 28.3626 29.2247 28.372C29.2556 28.3815 29.2868 28.3903 29.3181 28.3982C29.3495 28.4061 29.3811 28.4133 29.4128 28.4196C29.4445 28.426 29.4764 28.4316 29.5084 28.4364C29.5404 28.4412 29.5725 28.4452 29.6047 28.4484C29.6369 28.4516 29.6691 28.4539 29.7014 28.4556C29.7337 28.4572 29.766 28.458 29.7984 28.458C29.8307 28.458 29.8631 28.4572 29.8954 28.4556C29.9277 28.4539 29.9599 28.4516 29.9921 28.4484C30.0243 28.4452 30.0564 28.4412 30.0884 28.4364C30.1204 28.4316 30.1523 28.426 30.184 28.4196C30.2157 28.4133 30.2473 28.4061 30.2786 28.3982C30.31 28.3903 30.3412 28.3815 30.3721 28.372C30.4031 28.3626 30.4338 28.3524 30.4643 28.3413C30.4947 28.3304 30.5249 28.3185 30.5548 28.306C30.5847 28.2936 30.6142 28.2803 30.6435 28.2664C30.6727 28.2524 30.7016 28.2378 30.7301 28.2223C30.7586 28.207 30.7867 28.1909 30.8145 28.1741C30.8422 28.1573 30.8696 28.1399 30.8964 28.1217C30.9233 28.1036 30.9498 28.0847 30.9757 28.0652C31.0017 28.0458 31.0272 28.0257 31.0522 28.005C31.0772 27.9844 31.1017 27.963 31.1257 27.941C31.1496 27.9191 31.1731 27.8967 31.1959 27.8735C31.2188 27.8504 31.2411 27.8268 31.2628 27.8026C31.2845 27.7783 31.3056 27.7536 31.3262 27.7284C31.3467 27.7031 31.3665 27.6774 31.3858 27.6512C31.4051 27.625 31.4237 27.5983 31.4416 27.5711C31.4596 27.5439 31.4769 27.5164 31.4935 27.4884C31.5101 27.4604 31.5261 27.432 31.5413 27.4032C31.5565 27.3743 31.5711 27.3452 31.5849 27.3157C31.5987 27.2862 31.6118 27.2563 31.6242 27.2262C31.6365 27.196 31.6482 27.1655 31.6591 27.1348C31.67 27.1041 31.6801 27.0731 31.6895 27.0418C31.6988 27.0106 31.7074 26.9791 31.7153 26.9474C31.7231 26.9157 31.7302 26.8839 31.7365 26.8519C31.7428 26.8198 31.7483 26.7877 31.7531 26.7554C31.7578 26.7231 31.7617 26.6907 31.7649 26.6582C31.768 26.6257 31.7704 26.5931 31.772 26.5605C31.7735 26.5279 31.7743 26.4953 31.7743 26.4626C31.7743 26.43 31.7735 26.3974 31.772 26.3648C31.7704 26.3321 31.768 26.2996 31.7649 26.2671C31.7617 26.2346 31.7578 26.2022 31.7531 26.1699C31.7483 26.1376 31.7428 26.1055 31.7365 26.0734C31.7302 26.0414 31.7231 26.0096 31.7153 25.9779C31.7074 25.9462 31.6988 25.9147 31.6895 25.8835C31.6801 25.8523 31.67 25.8212 31.6591 25.7905C31.6482 25.7598 31.6365 25.7293 31.6242 25.6991C31.6118 25.6689 31.5987 25.6391 31.5849 25.6096C31.5711 25.5801 31.5565 25.551 31.5413 25.5221C31.5261 25.4933 31.5101 25.4649 31.4935 25.437C31.4769 25.409 31.4596 25.3814 31.4416 25.3542C31.4237 25.3271 31.4051 25.3004 31.3858 25.2741C31.3665 25.2478 31.3467 25.2221 31.3262 25.1969C31.3056 25.1716 31.2845 25.147 31.2628 25.1227C31.2411 25.0986 31.2188 25.0749 31.1959 25.0518C31.1731 25.0287 31.1496 25.0062 31.1257 24.9843C31.1017 24.9624 31.0772 24.941 31.0522 24.9203C31.0272 24.8996 31.0017 24.8795 30.9757 24.86C30.9498 24.8406 30.9233 24.8218 30.8964 24.8036C30.8696 24.7855 30.8422 24.768 30.8145 24.7512C30.7867 24.7345 30.7586 24.7184 30.7301 24.703C30.7016 24.6875 30.6727 24.6729 30.6435 24.6589C30.6142 24.645 30.5847 24.6318 30.5548 24.6193C30.5249 24.6068 30.4947 24.595 30.4643 24.584C30.4338 24.573 30.4031 24.5627 30.3721 24.5532C30.3412 24.5437 30.31 24.535 30.2786 24.5271C30.2473 24.5192 30.2157 24.512 30.184 24.5056C30.1523 24.4993 30.1204 24.4937 30.0884 24.4889C30.0564 24.4841 30.0243 24.4802 29.9921 24.4769C29.9599 24.4737 29.9277 24.4713 29.8954 24.4697C29.8631 24.4681 29.8307 24.4673 29.7984 24.4673C29.766 24.4673 29.7337 24.4681 29.7014 24.4697C29.6691 24.4713 29.6369 24.4737 29.6047 24.4769C29.5725 24.4802 29.5404 24.4841 29.5084 24.4889C29.4764 24.4937 29.4445 24.4993 29.4128 24.5056C29.3811 24.512 29.3495 24.5192 29.3181 24.5271C29.2868 24.535 29.2556 24.5437 29.2247 24.5532C29.1937 24.5627 29.163 24.573 29.1325 24.584C29.1021 24.595 29.0719 24.6068 29.042 24.6193C29.0121 24.6318 28.9826 24.645 28.9533 24.6589C28.9241 24.6729 28.8952 24.6875 28.8667 24.703C28.8382 24.7184 28.81 24.7345 28.7823 24.7512C28.7546 24.768 28.7272 24.7854 28.7003 24.8036C28.6734 24.8218 28.647 24.8406 28.621 24.86C28.5951 24.8795 28.5696 24.8996 28.5446 24.9203C28.5196 24.941 28.4951 24.9624 28.4711 24.9843C28.4472 25.0062 28.4237 25.0287 28.4009 25.0518C28.378 25.0749 28.3557 25.0986 28.334 25.1227C28.3123 25.147 28.2912 25.1716 28.2707 25.1969C28.2501 25.2221 28.2302 25.2478 28.211 25.2741C28.1917 25.3004 28.1731 25.3271 28.1552 25.3542C28.1372 25.3814 28.1199 25.409 28.1033 25.437C28.0867 25.4649 28.0707 25.4933 28.0555 25.5221C28.0403 25.551 28.0257 25.5801 28.0119 25.6096C27.9981 25.6391 27.985 25.6689 27.9726 25.6991C27.9602 25.7293 27.9486 25.7598 27.9377 25.7905C27.9269 25.8212 27.9167 25.8523 27.9073 25.8835C27.898 25.9147 27.8893 25.9462 27.8815 25.9779C27.8737 26.0096 27.8666 26.0414 27.8603 26.0734C27.854 26.1055 27.8485 26.1376 27.8438 26.1699C27.839 26.2022 27.8351 26.2346 27.8319 26.2671C27.8287 26.2996 27.8264 26.3321 27.8248 26.3648C27.8232 26.3974 27.8225 26.43 27.8225 26.4626Z" fill-rule="evenodd"  fill="url(#linear_fill_2_827)" >
</path>
<defs>
<linearGradient id="linear_fill_2_816_0" x1="44.483123779296875" y1="34.7857666015625" x2="44.483123779296875" y2="63.832763671875" gradientUnits="userSpaceOnUse">
<stop offset="0" stop-color="#235EB8"  />
<stop offset="1" stop-color="#5A99F2"  />
</linearGradient>
<linearGradient id="linear_border_2_816_0" x1="44.483123779296875" y1="34.7857666015625" x2="44.483123779296875" y2="63.832763671875" gradientUnits="userSpaceOnUse">
<stop offset="0" stop-color="#2866AD"  />
<stop offset="1" stop-color="#148DDE"  />
</linearGradient>
<linearGradient id="linear_fill_2_817_0" x1="44.48321533203125" y1="18.8099365234375" x2="44.48321533203125" y2="56.5709228515625" gradientUnits="userSpaceOnUse">
<stop offset="0" stop-color="#0E7FC9"  />
<stop offset="1" stop-color="#4A89E0"  />
</linearGradient>
<linearGradient id="linear_border_2_817_0" x1="44.48321533203125" y1="18.8099365234375" x2="44.48321533203125" y2="56.5709228515625" gradientUnits="userSpaceOnUse">
<stop offset="0" stop-color="#0A6ABF"  />
<stop offset="1" stop-color="#61A5FF"  />
</linearGradient>
<linearGradient id="linear_fill_2_818" x1="44.322509765625" y1="50.7095947265625" x2="44.322509765625" y2="5.0865478515625" gradientUnits="userSpaceOnUse">
<stop offset="0" stop-color="#296DCC" stop-opacity="0.47" />
<stop offset="1" stop-color="#82B0FF" stop-opacity="0.01" />
</linearGradient>
<linearGradient id="linear_fill_2_827" x1="23.322509765625" y1="19" x2="66.32260131835938" y2="19" gradientUnits="userSpaceOnUse">
<stop offset="0" stop-color="#579EF9"  />
<stop offset="1" stop-color="#4BF7FA"  />
</linearGradient>
</defs>
</svg>
