<?xml version="1.0" standalone="no"?><!DOCTYPE svg PUBLIC "-//W3C//DTD SVG 1.1//EN" "http://www.w3.org/Graphics/SVG/1.1/DTD/svg11.dtd"><svg t="1706597552097" class="icon" viewBox="0 0 1024 1024" version="1.1" xmlns="http://www.w3.org/2000/svg" p-id="5366" xmlns:xlink="http://www.w3.org/1999/xlink" width="200" height="200"><path d="M186.671 561.842c-85.86 85.86-85.87 225.208 0.025 311.102 85.924 85.925 225.194 85.933 311.102 0.025l91.948-91.948c15.621-15.621 15.621-40.948 0-56.569-15.62-15.621-40.947-15.621-56.568 0L441.229 816.4c-54.664 54.665-143.28 54.66-197.965-0.024-54.651-54.651-54.645-143.345-0.024-197.965l91.948-91.949c15.62-15.62 15.62-40.947 0-56.568-15.621-15.621-40.948-15.621-56.569 0l-91.948 91.948z m466.74-353.602c54.664-54.665 143.28-54.66 197.965 0.024 54.65 54.651 54.645 143.345 0.024 197.965l-91.948 91.949c-15.621 15.62-15.621 40.947 0 56.568 15.621 15.621 40.948 15.621 56.569 0l91.948-91.948c85.86-85.86 85.87-225.208-0.025-311.102-85.924-85.925-225.194-85.933-311.102-0.025l-91.948 91.948c-15.621 15.621-15.621 40.948 0 56.569 15.62 15.62 40.947 15.62 56.568 0l91.949-91.948zM285.69 293.117c11.716 11.716 30.711 11.716 42.427 0 11.716-11.716 11.716-30.71 0-42.427L222.05 144.624c-11.716-11.715-30.71-11.715-42.427 0-11.715 11.716-11.715 30.711 0 42.427L285.69 293.117z m109.119-73.525c1.444 16.505 15.995 28.715 32.5 27.27 16.506-1.443 28.715-15.994 27.271-32.5L441.507 64.933c-1.444-16.505-15.995-28.715-32.5-27.271-16.506 1.444-28.716 15.995-27.272 32.5l13.074 149.43zM249.362 419.58c16.506 1.444 31.057-10.765 32.5-27.271 1.445-16.505-10.765-31.056-27.27-32.5l-149.43-13.074c-16.505-1.444-31.056 10.766-32.5 27.271-1.444 16.506 10.766 31.057 27.271 32.5l149.43 13.074zM801.994 724.567c-11.716-11.715-30.711-11.715-42.427 0-11.715 11.716-11.715 30.711 0 42.427L865.633 873.06c11.716 11.715 30.711 11.715 42.427 0 11.715-11.716 11.715-30.71 0-42.427L801.994 724.567z m36.328-126.463c-16.506-1.444-31.057 10.766-32.5 27.271-1.445 16.506 10.765 31.057 27.27 32.5l149.43 13.074c16.505 1.444 31.056-10.766 32.5-27.271 1.444-16.506-10.765-31.057-27.27-32.5l-149.43-13.074zM692.876 798.093c-1.444-16.506-15.995-28.716-32.5-27.272-16.506 1.444-28.716 15.995-27.272 32.5l13.073 149.43c1.444 16.506 15.995 28.715 32.5 27.271 16.506-1.444 28.716-15.995 27.272-32.5l-13.073-149.43z" fill="#d81e06" p-id="5367"></path></svg>