<svg xmlns="http://www.w3.org/2000/svg" xmlns:xlink="http://www.w3.org/1999/xlink" width="40" height="40" viewBox="0 0 40 40" fill="none">
<path   fill-rule="evenodd"  fill="url(#linear_fill_101_3171_0)"  d="M20 0C10.3359 0 2.5 7.83594 2.5 17.5C2.5 27.1641 10.3359 35 20 35C29.6641 35 37.5 27.1641 37.5 17.5C37.5 7.83594 29.6641 0 20 0ZM20 4.375C21.0352 4.375 21.875 5.21484 21.875 6.25C21.875 7.28516 21.0352 8.125 20 8.125C18.9648 8.125 18.125 7.28516 18.125 6.25C18.125 5.21484 18.9648 4.375 20 4.375ZM20 26.25C15.168 26.25 11.25 22.332 11.25 17.5C11.25 12.668 15.168 8.75 20 8.75C24.832 8.75 28.75 12.668 28.75 17.5C28.75 22.332 24.832 26.25 20 26.25ZM26.25 17.5C26.25 19.168 25.6016 20.7383 24.418 21.918C23.2383 23.1016 21.668 23.75 20 23.75C18.332 23.75 16.7617 23.1016 15.582 21.918C14.3984 20.7383 13.75 19.168 13.75 17.5C13.75 15.832 14.3984 14.2617 15.582 13.082C16.7617 11.8984 18.332 11.25 20 11.25C21.668 11.25 23.2383 11.8984 24.418 13.082C25.6016 14.2617 26.25 15.832 26.25 17.5ZM31.9805 34.4883C32.7227 34.9961 32.6992 36.0977 31.9375 36.5781C28.4766 38.7461 24.3867 40 20 40C15.6133 40 11.5234 38.7461 8.0625 36.5742C7.30078 36.0977 7.27734 34.9961 8.01953 34.4844C8.42969 34.2031 8.96875 34.1914 9.39453 34.457C10.293 35.0195 11.2344 35.5117 12.2188 35.9258C14.6797 36.9727 17.2969 37.5 20 37.5C22.7031 37.5 25.3203 36.9727 27.7852 35.9297C28.7695 35.5117 29.7109 35.0234 30.6094 34.4609C31.0312 34.1953 31.5703 34.2031 31.9805 34.4883Z">
</path>
<defs>
<linearGradient id="linear_fill_101_3171_0" x1="20" y1="0" x2="20" y2="40" gradientUnits="userSpaceOnUse">
<stop offset="0" stop-color="#00D7FF"  />
<stop offset="1" stop-color="#00F9AA"  />
</linearGradient>
</defs>
</svg>
