<?xml version="1.0" standalone="no"?><!DOCTYPE svg PUBLIC "-//W3C//DTD SVG 1.1//EN" "http://www.w3.org/Graphics/SVG/1.1/DTD/svg11.dtd"><svg t="1723017574561" class="icon" viewBox="0 0 1024 1024" version="1.1" xmlns="http://www.w3.org/2000/svg" p-id="9003" xmlns:xlink="http://www.w3.org/1999/xlink" width="200" height="200"><path d="M187.392 328.192h361.472c19.968 33.792 56.832 55.808 98.816 55.808s78.848-22.528 98.816-55.808h79.872c27.136 0 49.152-22.016 49.152-49.152s-22.016-49.152-49.152-49.152h-70.144c-15.872-44.544-58.368-76.288-108.544-76.288s-92.672 31.744-108.544 76.288H187.392c-27.136 0-49.152 22.016-49.152 49.152s22.016 49.152 49.152 49.152z m0 238.08h142.336C348.672 604.16 387.584 629.76 432.64 629.76s83.968-26.112 102.912-63.488h290.816c27.136 0 49.152-22.016 49.152-49.152s-22.016-49.152-49.152-49.152h-288.256C520.192 427.52 479.744 399.36 432.64 399.36s-87.552 28.16-105.472 68.608H187.392c-27.136 0-49.152 22.016-49.152 49.152s22.016 49.152 49.152 49.152z m644.096 139.776h-79.872c-18.432-38.912-58.368-66.048-104.448-66.048s-86.016 27.136-104.448 66.048H192.512c-27.136 0-49.152 22.016-49.152 49.152s22.016 49.152 49.152 49.152h351.232c18.432 38.912 58.368 66.048 104.448 66.048s86.016-27.136 104.448-66.048h79.872c27.136 0 49.152-22.016 49.152-49.152-1.024-27.136-23.04-49.152-50.176-49.152z" p-id="9004" fill="#CCCCCC"></path></svg>