<svg xmlns="http://www.w3.org/2000/svg" xmlns:xlink="http://www.w3.org/1999/xlink" width="28" height="28" viewBox="0 0 28 28" fill="none">
<path   fill-rule="evenodd"  fill="url(#linear_fill_6_1397_0)"  d="M22.549 7.67163C22.3802 7.44361 22.1528 7.25354 21.8668 7.10147C21.5807 6.94948 21.2176 6.87345 20.7775 6.87345L19.7653 6.87345C19.4132 6.87345 19.0831 6.86586 18.7751 6.8506L18.7751 5.43676C18.7751 5.04142 18.6761 4.7031 18.4781 4.42192C18.28 4.14064 17.9243 4 17.4107 4L10.5233 4C10.1417 4 9.81907 4.14064 9.55494 4.42192C9.29091 4.7031 9.15888 5.04142 9.15888 5.43676L9.15888 6.82793L7.20048 6.82793C6.81898 6.82793 6.48903 6.89629 6.21024 7.03311C5.93154 7.16992 5.70413 7.3409 5.52809 7.54623C5.35203 7.75141 5.22002 7.97567 5.13193 8.21893C5.04396 8.46219 5 8.68271 5 8.88028C5 9.27552 5.00732 9.51122 5.02198 9.58723C5.02198 9.64801 5.0294 9.68603 5.04396 9.70129L6.40828 9.70129L6.40828 21.4459C6.40828 21.8412 6.47796 22.1947 6.6173 22.5064C6.75665 22.818 6.94745 23.0841 7.1895 23.3045C7.43158 23.525 7.72132 23.696 8.05862 23.8177C8.39608 23.9392 8.75543 24 9.13683 24L18.951 24C19.3618 24 19.7249 23.9355 20.0403 23.8063C20.3557 23.6769 20.6235 23.5059 20.8435 23.2931C21.0636 23.0803 21.2323 22.8332 21.3496 22.5519C21.467 22.2707 21.5257 21.9779 21.5257 21.6739L21.5257 9.70131L22.9779 9.70131L22.9779 9.5645C22.9779 9.51889 22.9816 9.46571 22.9889 9.40484C22.9963 9.34397 23 9.26035 23 9.15399C23 8.92591 22.9669 8.67896 22.9009 8.41285C22.8349 8.14676 22.7177 7.89965 22.549 7.67163ZM10.5233 5.4368L17.4107 5.4368L17.4107 6.87349L10.5233 6.87349L10.5233 5.4368ZM10.5452 20.3741C10.5452 20.9975 10.3104 21.3091 9.84105 21.3091C9.59165 21.3091 9.41928 21.2331 9.32396 21.0811C9.22858 20.9291 9.18095 20.6934 9.18095 20.3741L9.18095 9.79261L10.5452 9.79261L10.5452 20.3741ZM14.6381 20.3741C14.6381 20.6934 14.5941 20.9253 14.5061 21.0697C14.418 21.214 14.2493 21.2863 14 21.2863C13.5159 21.2863 13.2738 20.9823 13.2738 20.3741L13.2738 9.79261L14.6381 9.79261L14.6381 20.3741ZM18.797 20.3284C18.797 20.6477 18.7531 20.8796 18.665 21.024C18.577 21.1685 18.4011 21.2407 18.1369 21.2407C17.6528 21.2407 17.4107 20.9366 17.4107 20.3284L17.4107 9.79261L18.797 9.79261L18.797 20.3284Z">
</path>
<defs>
<linearGradient id="linear_fill_6_1397_0" x1="14" y1="4" x2="14" y2="24" gradientUnits="userSpaceOnUse">
<stop offset="0" stop-color="#0AFAFB"  />
<stop offset="1" stop-color="#0D76FF"  />
</linearGradient>
</defs>
</svg>
