<?xml version="1.0" standalone="no"?><!DOCTYPE svg PUBLIC "-//W3C//DTD SVG 1.1//EN" "http://www.w3.org/Graphics/SVG/1.1/DTD/svg11.dtd"><svg t="1697766819682" class="icon" viewBox="0 0 1024 1024" version="1.1" xmlns="http://www.w3.org/2000/svg" p-id="1894" xmlns:xlink="http://www.w3.org/1999/xlink" width="200" height="200"><path d="M481.83011067 980.109668C488.23011067 986.509668 501.03011068 986.509668 513.83011068 986.509668s25.6 0 31.99999999-6.40000001c12.8-6.4 19.2-19.2 25.6-25.59999999L987.43011067 224.909668c12.8-19.2 12.8-44.8 1e-8-64-6.4-12.8-12.8-12.8-25.60000001-19.2s-19.2-6.4-32-6.4l-819.19999999 0c-12.8 0-25.6 0-32.00000001 6.4-12.8 6.4-19.2 12.8-25.59999999 19.2-12.8 19.2-12.8 44.8-1e-8 64L456.23011067 954.509668C462.63011067 960.909668 469.03011067 973.709668 481.83011067 980.109668z" fill="#FFFFFF" p-id="1895"></path></svg>