<svg xmlns="http://www.w3.org/2000/svg" xmlns:xlink="http://www.w3.org/1999/xlink" width="17.27001953125" height="15.8299560546875" viewBox="0 0 17.27001953125 15.8299560546875" fill="none"><path id="路径 1" fill-rule="evenodd" style="fill:#FFFFFF" opacity="0.6" d="M0,3.32v-2.32c0,-0.55 0.45,-1 1,-1h15.27c0.55,0 1,0.45 1,1v2.32c0,0.55 -0.45,1 -1,1h-15.27c-0.55,0 -1,-0.45 -1,-1zM15.12,1.44h-5.76c-0.4,0 -0.72,0.32 -0.72,0.72v0c0,0.4 0.32,0.72 0.72,0.72h5.76c0.39,-0.01 0.71,-0.33 0.71,-0.72v0c0,-0.39 -0.32,-0.71 -0.71,-0.72zM0,14.83v-2.31c0,-0.55 0.45,-1 1,-1h15.27c0.55,0 1,0.45 1,1v2.31c0,0.55 -0.45,1 -1,1h-15.27c-0.55,0 -1,-0.45 -1,-1zM15.12,12.96h-4.32c-0.4,0 -0.72,0.32 -0.72,0.72v0c0,0.4 0.32,0.72 0.72,0.72h4.32c0.39,-0.01 0.71,-0.33 0.71,-0.72v0c0,-0.39 -0.32,-0.71 -0.71,-0.72zM0,9.08v-2.32c0,-0.55 0.45,-1 1,-1h15.27c0.55,0 1,0.45 1,1v2.32c0,0.55 -0.45,1 -1,1h-15.27c-0.55,0 -1,-0.45 -1,-1zM15.12,7.2h-8.64c-0.4,0 -0.72,0.32 -0.72,0.72v0c0,0.4 0.32,0.72 0.72,0.72h8.64c0.39,-0.01 0.71,-0.33 0.71,-0.72v0c0,-0.39 -0.32,-0.71 -0.71,-0.72z"></path></svg>