<svg xmlns="http://www.w3.org/2000/svg" xmlns:xlink="http://www.w3.org/1999/xlink" width="14.83001708984375" height="17.7025146484375" viewBox="0 0 14.83001708984375 17.7025146484375" fill="none"><path id="并集" fill-rule="evenodd" style="fill:#FFFFFF" opacity="0.6" d="M11.2265,0.32v1.67c0,0.16 -0.16,0.32 -0.32,0.32h-6.95c-0.19,0 -0.32,-0.13 -0.32,-0.32v-1.67c0,-0.19 0.13,-0.32 0.32,-0.32h6.95c0.19,0 0.32,0.13 0.32,0.32zM13.76,1.6125c0.6,0 1.07,0.6 1.07,1.3v13.5c0,0.73 -0.57,1.29 -1.3,1.29h-12.42c-0.6,0 -1.11,-0.6 -1.11,-1.29v-13.5c0,-0.73 0.51,-1.3 1.11,-1.3h1.74v0.82c0,0.38 0.31,0.67 0.66,0.67h7.91c0.37,0 0.66,-0.32 0.66,-0.67v-0.82zM11.48,7.0225c-0.22,-0.26 -0.67,-0.29 -0.92,-0.03l-4.43,4.14l-1.77,-1.84c-0.25,-0.28 -0.66,-0.28 -0.91,-0.03c-0.29,0.25 -0.29,0.67 -0.03,0.92l1.96,2.05c0.19,0.23 0.47,0.32 0.72,0.32c0.26,0 0.51,-0.09 0.7,-0.28l4.62,-4.34c0.28,-0.25 0.28,-0.66 0.06,-0.91z"></path></svg>