<svg xmlns="http://www.w3.org/2000/svg" xmlns:xlink="http://www.w3.org/1999/xlink" width="46" height="46" viewBox="0 0 46 46" fill="none">
<path fill-rule="evenodd"  fill="url(#linear_border_2_246_0)"  d="M23 46C35.7025 46 46 35.7025 46 23C46 10.2974 35.7025 0 23 0C10.2974 0 0 10.2974 0 23C0 35.7025 10.2974 46 23 46ZM23 2C34.598 2 44 11.402 44 23C44 34.598 34.598 44 23 44C11.402 44 2 34.598 2 23C2 11.402 11.402 2 23 2Z">
</path>
<g opacity="0.2">
<path fill-rule="evenodd"  fill="url(#linear_border_2_247_0)"  d="M23 40.9999C32.9411 40.9999 41 32.9411 41 23C41 13.0589 32.9411 5 23 5C13.0589 5 5 13.0589 5 23C5 32.9411 13.0589 40.9999 23 40.9999ZM23 5.6C32.6097 5.6 40.4 13.3902 40.4 23C40.4 32.6097 32.6097 40.3999 23 40.3999C13.3902 40.3999 5.6 32.6097 5.6 23C5.6 13.3902 13.3902 5.6 23 5.6Z">
</path>
</g>
<path d="M16.8781 19.3178C16.8714 19.3056 16.8645 19.2935 16.8573 19.2815C16.8501 19.2695 16.8428 19.2577 16.8351 19.246C16.8275 19.2342 16.8197 19.2227 16.8117 19.2113C16.8037 19.1998 16.7955 19.1885 16.787 19.1774C16.7786 19.1663 16.77 19.1553 16.7611 19.1445C16.7523 19.1337 16.7433 19.123 16.734 19.1125C16.7248 19.102 16.7154 19.0917 16.7058 19.0816C16.6962 19.0714 16.6865 19.0615 16.6765 19.0517C16.6665 19.0419 16.6564 19.0323 16.6461 19.0229C16.6358 19.0134 16.6253 19.0042 16.6146 18.9952C16.604 18.9861 16.5932 18.9773 16.5822 18.9687C16.5713 18.96 16.5602 18.9515 16.5489 18.9433C16.5376 18.9351 16.5262 18.927 16.5146 18.9192C16.5031 18.9114 16.4913 18.9038 16.4795 18.8964C16.4677 18.889 16.4557 18.8818 16.4436 18.8748C16.4315 18.8679 16.4192 18.8611 16.4069 18.8546C16.3945 18.8481 16.3821 18.8418 16.3695 18.8357C16.3569 18.8297 16.3442 18.8238 16.3314 18.8182C16.3187 18.8126 16.3058 18.8072 16.2928 18.8021C16.2798 18.797 16.2667 18.7921 16.2536 18.7874C16.2404 18.7828 16.2271 18.7783 16.2138 18.7742C16.2005 18.77 16.1871 18.7661 16.1736 18.7624C16.1601 18.7587 16.1466 18.7552 16.133 18.752C16.1194 18.7488 16.1058 18.7459 16.0921 18.7432C16.0784 18.7405 16.0647 18.7381 16.0509 18.7358C16.037 18.7336 16.0232 18.7317 16.0094 18.73C15.9955 18.7283 15.9816 18.7269 15.9677 18.7257C15.9538 18.7245 15.9399 18.7235 15.9259 18.7229C15.912 18.7222 15.898 18.7217 15.884 18.7216C15.8701 18.7214 15.8561 18.7215 15.8422 18.7218C15.8282 18.7221 15.8143 18.7227 15.8003 18.7236C15.7864 18.7244 15.7725 18.7255 15.7586 18.7268C15.7421 18.7262 15.7257 18.7259 15.7092 18.726C15.6927 18.7261 15.6763 18.7265 15.6598 18.7273C15.6434 18.7281 15.627 18.7293 15.6106 18.7308C15.5942 18.7323 15.5779 18.7342 15.5616 18.7365C15.5453 18.7387 15.529 18.7413 15.5128 18.7443C15.4966 18.7472 15.4805 18.7506 15.4645 18.7542C15.4484 18.7579 15.4325 18.7619 15.4166 18.7663C15.4008 18.7707 15.385 18.7754 15.3693 18.7805C15.3537 18.7856 15.3381 18.791 15.3227 18.7967C15.3073 18.8025 15.292 18.8086 15.2769 18.815C15.2617 18.8215 15.2467 18.8282 15.2319 18.8353C15.217 18.8424 15.2023 18.8498 15.1878 18.8576C15.1733 18.8653 15.159 18.8734 15.1448 18.8818C15.1306 18.8901 15.1167 18.8988 15.1029 18.9078C15.0891 18.9168 15.0755 18.9261 15.0621 18.9357C15.0487 18.9453 15.0356 18.9552 15.0227 18.9653C14.7992 19.1753 14.6408 19.4454 14.5667 19.7427C14.535 19.8576 14.5064 19.9734 14.4811 20.0899C14.4557 20.2064 14.4335 20.3236 14.4144 20.4413C14.3953 20.559 14.3795 20.6772 14.3669 20.7958C14.3543 20.9144 14.3448 21.0332 14.3387 21.1524C14.2973 21.7329 14.2766 22.4447 14.2766 23.2874C14.2693 24.014 14.3006 24.7407 14.3698 25.4642C14.3784 25.5739 14.3907 25.6831 14.4068 25.792C14.4228 25.9008 14.4425 26.0089 14.4659 26.1164C14.4893 26.2239 14.5164 26.3304 14.547 26.4361C14.5777 26.5417 14.612 26.6461 14.6498 26.7494C14.655 26.765 14.6605 26.7806 14.6664 26.796C14.6723 26.8113 14.6785 26.8266 14.685 26.8417C14.6916 26.8568 14.6984 26.8718 14.7056 26.8867C14.7127 26.9015 14.7202 26.9161 14.728 26.9307C14.7358 26.9452 14.7439 26.9595 14.7523 26.9737C14.7607 26.9879 14.7694 27.0019 14.7784 27.0157C14.7874 27.0295 14.7966 27.0431 14.8062 27.0565C14.8158 27.0699 14.8256 27.0831 14.8357 27.0961C14.8459 27.1091 14.8563 27.1219 14.8669 27.1344C14.8776 27.147 14.8885 27.1593 14.8997 27.1714C14.9109 27.1835 14.9223 27.1953 14.934 27.2069C14.9457 27.2185 14.9577 27.2299 14.9698 27.241C14.982 27.2521 14.9944 27.2629 15.007 27.2735C15.0197 27.284 15.0325 27.2944 15.0456 27.3044C15.0587 27.3144 15.0719 27.3241 15.0854 27.3336C15.0989 27.3431 15.1126 27.3522 15.1265 27.3612C15.1523 27.3747 15.1785 27.3873 15.2051 27.3991C15.2318 27.411 15.2587 27.4219 15.2861 27.4321C15.3134 27.4422 15.341 27.4514 15.3689 27.4597C15.3968 27.4681 15.425 27.4755 15.4534 27.4821C15.4818 27.4886 15.5103 27.4943 15.5391 27.499C15.5679 27.5037 15.5967 27.5075 15.6257 27.5104C15.6547 27.5133 15.6838 27.5152 15.7129 27.5163C15.742 27.5173 15.7711 27.5174 15.8003 27.5165C15.8506 27.5175 15.9008 27.5161 15.951 27.5123C16.0012 27.5084 16.051 27.5021 16.1006 27.4934C16.1502 27.4847 16.1992 27.4737 16.2477 27.4602C16.2962 27.4468 16.344 27.4311 16.391 27.413C16.4159 27.4018 16.4404 27.3896 16.4644 27.3764C16.4884 27.3632 16.5118 27.3491 16.5346 27.334C16.5575 27.319 16.5798 27.3031 16.6014 27.2863C16.623 27.2695 16.6439 27.2518 16.6641 27.2334C16.6844 27.2149 16.7038 27.1957 16.7225 27.1757C16.7412 27.1557 16.7591 27.135 16.7762 27.1136C16.7932 27.0922 16.8094 27.0702 16.8247 27.0475C16.8401 27.0248 16.8545 27.0016 16.868 26.9777C16.9067 26.9069 16.9423 26.8345 16.9748 26.7606C17.0073 26.6867 17.0366 26.6115 17.0626 26.5351C17.0887 26.4587 17.1114 26.3813 17.1308 26.3029C17.1502 26.2246 17.1662 26.1455 17.1788 26.0657C17.2651 25.5522 17.3033 25.0317 17.2928 24.5112L19.6768 24.5112C19.679 24.8167 19.6679 25.1218 19.6436 25.4264C19.6194 25.731 19.5821 26.034 19.5316 26.3354C19.521 26.4023 19.5087 26.4688 19.4948 26.535C19.4809 26.6012 19.4653 26.6671 19.4482 26.7326C19.431 26.798 19.4123 26.863 19.3919 26.9276C19.3716 26.9921 19.3497 27.0561 19.3262 27.1196C19.3027 27.1831 19.2777 27.2459 19.2511 27.3081C19.2246 27.3704 19.1965 27.4319 19.1669 27.4928C19.1373 27.5537 19.1063 27.6138 19.0737 27.6731C19.0412 27.7325 19.0073 27.791 18.9718 27.8487C18.9548 27.8764 18.9373 27.9038 18.9193 27.9309C18.9013 27.958 18.8829 27.9848 18.8639 28.0112C18.845 28.0377 18.8256 28.0638 18.8057 28.0896C18.7859 28.1154 18.7655 28.1408 18.7448 28.1658C18.724 28.1909 18.7029 28.2156 18.6812 28.2399C18.6596 28.2642 18.6375 28.2881 18.6151 28.3116C18.5926 28.3352 18.5697 28.3583 18.5464 28.381C18.5231 28.4037 18.4994 28.426 18.4754 28.4479C18.4513 28.4698 18.4268 28.4913 18.402 28.5123C18.3772 28.5333 18.352 28.5539 18.3264 28.574C18.3008 28.5941 18.2749 28.6138 18.2487 28.633C18.2224 28.6523 18.1958 28.671 18.1689 28.6893C18.142 28.7076 18.1148 28.7254 18.0872 28.7427C18.0597 28.76 18.0318 28.7768 18.0037 28.7932C17.9755 28.8095 17.9471 28.8253 17.9184 28.8407C17.8897 28.856 17.8608 28.8708 17.8316 28.8852C17.794 28.9017 17.7562 28.9176 17.7182 28.933C17.6802 28.9485 17.642 28.9633 17.6036 28.9777C17.5652 28.992 17.5265 29.0058 17.4877 29.0191C17.4489 29.0323 17.4099 29.045 17.3708 29.0572C17.3316 29.0693 17.2922 29.0809 17.2528 29.0919C17.2132 29.1029 17.1736 29.1134 17.1338 29.1233C17.094 29.1332 17.054 29.1425 17.014 29.1513C16.9739 29.16 16.9337 29.1682 16.8934 29.1758C16.8531 29.1835 16.8127 29.1905 16.7722 29.197C16.7317 29.2035 16.6912 29.2094 16.6505 29.2147C16.6098 29.22 16.5691 29.2248 16.5283 29.2289C16.4875 29.2331 16.4466 29.2367 16.4057 29.2397C16.3648 29.2427 16.3239 29.2451 16.2829 29.247C16.242 29.2488 16.201 29.2501 16.16 29.2508C16.119 29.2514 16.0779 29.2515 16.0369 29.251C15.9959 29.2505 15.9549 29.2495 15.914 29.2478C15.8681 29.2498 15.8223 29.2511 15.7765 29.2516C15.7306 29.2522 15.6848 29.252 15.6389 29.2512C15.5931 29.2504 15.5473 29.2488 15.5015 29.2466C15.4557 29.2444 15.4099 29.2415 15.3642 29.2378C15.3185 29.2342 15.2728 29.2299 15.2273 29.2249C15.1817 29.2198 15.1362 29.2141 15.0908 29.2077C15.0454 29.2013 15.0001 29.1942 14.9549 29.1864C14.9097 29.1787 14.8647 29.1702 14.8197 29.161C14.7748 29.1518 14.73 29.142 14.6854 29.1315C14.6408 29.121 14.5963 29.1098 14.552 29.0979C14.5077 29.086 14.4636 29.0735 14.4197 29.0602C14.3758 29.047 14.3321 29.0331 14.2887 29.0186C14.2452 29.004 14.2019 28.9888 14.1589 28.9729C14.1159 28.957 14.0731 28.9405 14.0306 28.9233C13.9881 28.9061 13.9459 28.8883 13.9039 28.8699C13.8619 28.8514 13.8202 28.8323 13.7788 28.8125C13.7463 28.7952 13.714 28.7772 13.6821 28.7586C13.6503 28.7401 13.6187 28.7209 13.5876 28.7011C13.5564 28.6813 13.5256 28.6609 13.4952 28.64C13.4648 28.619 13.4349 28.5975 13.4053 28.5754C13.3757 28.5533 13.3466 28.5307 13.3179 28.5075C13.2891 28.4843 13.2609 28.4605 13.2331 28.4363C13.2053 28.412 13.1779 28.3872 13.1511 28.3619C13.1242 28.3366 13.0978 28.3107 13.072 28.2844C13.0461 28.2581 13.0207 28.2313 12.9958 28.204C12.971 28.1767 12.9466 28.149 12.9228 28.1208C12.899 28.0925 12.8758 28.0639 12.8531 28.0348C12.8303 28.0057 12.8082 27.9762 12.7866 27.9462C12.765 27.9163 12.744 27.886 12.7235 27.8552C12.7031 27.8245 12.6832 27.7934 12.664 27.7619C12.6447 27.7304 12.6261 27.6985 12.608 27.6664C12.59 27.6342 12.5726 27.6016 12.5558 27.5687C12.5182 27.4931 12.4824 27.4167 12.4483 27.3394C12.4143 27.2621 12.382 27.1841 12.3516 27.1054C12.3212 27.0266 12.2926 26.9472 12.2658 26.8671C12.239 26.787 12.2141 26.7063 12.1911 26.6251C12.168 26.5438 12.1469 26.4621 12.1276 26.3799C12.1084 26.2977 12.091 26.2151 12.0756 26.132C12.0602 26.049 12.0467 25.9657 12.0351 25.882C12.0235 25.7984 12.0139 25.7145 12.0062 25.6304C11.9648 25.218 11.9337 24.8048 11.913 24.3908C11.8923 23.9768 11.882 23.5626 11.882 23.1481C11.882 22.7336 11.8923 22.3194 11.913 21.9054C11.9337 21.4914 11.9648 21.0782 12.0062 20.6657C12.0137 20.5812 12.0232 20.4969 12.0347 20.4128C12.0462 20.3287 12.0596 20.2449 12.0749 20.1615C12.0903 20.078 12.1076 19.9949 12.1268 19.9123C12.146 19.8296 12.1671 19.7474 12.1902 19.6657C12.2132 19.5841 12.2381 19.503 12.2649 19.4224C12.2918 19.3419 12.3204 19.262 12.3509 19.1828C12.3814 19.1036 12.4138 19.0252 12.4479 18.9475C12.4821 18.8698 12.518 18.793 12.5558 18.7169C12.573 18.684 12.5908 18.6514 12.6092 18.6191C12.6276 18.5868 12.6465 18.5549 12.6661 18.5232C12.6856 18.4916 12.7057 18.4604 12.7264 18.4295C12.747 18.3986 12.7682 18.3681 12.79 18.3379C12.8117 18.3078 12.834 18.2781 12.8568 18.2488C12.8797 18.2194 12.903 18.1905 12.9269 18.162C12.9507 18.1335 12.9751 18.1055 12.9999 18.0779C13.0248 18.0502 13.0501 18.0231 13.076 17.9963C13.1018 17.9696 13.1281 17.9434 13.1549 17.9176C13.1817 17.8919 13.2089 17.8666 13.2366 17.8418C13.2643 17.817 13.2924 17.7927 13.321 17.7689C13.3495 17.7452 13.3785 17.7219 13.4079 17.6991C13.4373 17.6764 13.4671 17.6542 13.4972 17.6325C13.5274 17.6108 13.558 17.5897 13.5889 17.5691C13.6199 17.5486 13.6512 17.5285 13.6828 17.5091C13.7145 17.4896 13.7465 17.4707 13.7788 17.4524C13.8199 17.4317 13.8613 17.4117 13.903 17.3923C13.9447 17.3729 13.9867 17.3542 14.029 17.3362C14.0713 17.3181 14.1139 17.3008 14.1568 17.2841C14.1997 17.2674 14.2428 17.2515 14.2862 17.2362C14.3295 17.2209 14.3732 17.2063 14.417 17.1924C14.4609 17.1785 14.5049 17.1653 14.5492 17.1529C14.5934 17.1404 14.6379 17.1287 14.6825 17.1176C14.7272 17.1066 14.772 17.0962 14.817 17.0866C14.8619 17.077 14.9071 17.0681 14.9523 17.06C14.9976 17.0518 15.043 17.0444 15.0885 17.0377C15.134 17.031 15.1796 17.025 15.2253 17.0198C15.2709 17.0145 15.3167 17.01 15.3626 17.0063C15.4084 17.0025 15.4543 16.9995 15.5002 16.9972C15.5462 16.9949 15.5921 16.9933 15.6381 16.9925C15.6841 16.9917 15.7301 16.9916 15.7761 16.9923C15.8221 16.9929 15.868 16.9943 15.914 16.9964C15.9571 16.9944 16.0003 16.9931 16.0436 16.9924C16.0868 16.9917 16.13 16.9917 16.1732 16.9924C16.2165 16.9931 16.2597 16.9944 16.3028 16.9965C16.346 16.9985 16.3891 17.0012 16.4323 17.0046C16.4754 17.0079 16.5184 17.012 16.5613 17.0167C16.6043 17.0214 16.6472 17.0268 16.69 17.0329C16.7328 17.039 16.7755 17.0457 16.8181 17.0531C16.8607 17.0605 16.9031 17.0686 16.9455 17.0773C16.9878 17.086 17.03 17.0954 17.072 17.1055C17.1141 17.1155 17.156 17.1262 17.1977 17.1376C17.2394 17.1489 17.2809 17.1609 17.3222 17.1736C17.3636 17.1863 17.4047 17.1996 17.4456 17.2135C17.4865 17.2274 17.5272 17.242 17.5677 17.2572C17.6082 17.2724 17.6484 17.2883 17.6883 17.3048C17.7283 17.3212 17.768 17.3383 17.8074 17.3561C17.8469 17.3738 17.886 17.3921 17.9248 17.411C17.953 17.4259 17.981 17.4412 18.0086 17.4571C18.0363 17.4729 18.0636 17.4891 18.0907 17.5059C18.1179 17.5226 18.1447 17.5398 18.1712 17.5575C18.1977 17.5751 18.2239 17.5932 18.2499 17.6117C18.2757 17.6303 18.3013 17.6492 18.3266 17.6686C18.3519 17.688 18.3768 17.7079 18.4014 17.7281C18.426 17.7483 18.4503 17.769 18.4741 17.7901C18.4981 17.8111 18.5216 17.8326 18.5448 17.8545C18.5679 17.8763 18.5907 17.8986 18.6132 17.9212C18.6356 17.9438 18.6576 17.9668 18.6792 17.9902C18.7009 18.0136 18.7221 18.0373 18.743 18.0614C18.7638 18.0855 18.7842 18.11 18.8042 18.1348C18.8242 18.1596 18.8438 18.1847 18.863 18.2101C18.8821 18.2356 18.9009 18.2614 18.9191 18.2874C18.9374 18.3135 18.9552 18.3399 18.9726 18.3666C18.99 18.3933 19.007 18.4203 19.0235 18.4475C19.0536 18.5004 19.0825 18.5541 19.11 18.6084C19.1375 18.6628 19.1637 18.7178 19.1884 18.7734C19.2132 18.8291 19.2366 18.8853 19.2586 18.9421C19.2805 18.9989 19.3011 19.0562 19.3202 19.114C19.3393 19.1719 19.357 19.2301 19.3733 19.2889C19.3895 19.3475 19.4043 19.4066 19.4176 19.4661C19.4308 19.5255 19.4427 19.5853 19.453 19.6453C19.4633 19.7053 19.4721 19.7656 19.4795 19.826C19.5386 20.2874 19.5695 20.7507 19.5725 21.215L17.1886 21.215C17.1938 21.1344 17.1966 21.0537 17.1972 20.9729C17.1978 20.8921 17.1961 20.8113 17.1921 20.7306C17.1882 20.6499 17.1819 20.5693 17.1734 20.489C17.1648 20.4086 17.1541 20.3286 17.141 20.2488C17.1279 20.1691 17.1127 20.0898 17.0951 20.0109C17.0776 19.932 17.0578 19.8537 17.0359 19.7759C17.0139 19.6981 16.9898 19.6211 16.9635 19.5447C16.9372 19.4683 16.9087 19.3926 16.8781 19.3178ZM23.4184 17.2032L23.4184 21.7325L26.2066 21.7325L26.2066 17.2032L28.5907 17.2032L28.5907 29.0399L26.2066 29.0399L26.2066 23.7852L23.4184 23.7852L23.4184 29.0402L21.0346 29.0402L21.0346 17.2032L23.4184 17.2032ZM32.0008 21.7017L33.5452 21.7017L33.5452 26.3555L34.2499 26.3555L34.2499 27.5165L33.5452 27.5165L33.5452 29.0402L32.1769 29.0402L32.1769 27.5165L29.5648 27.5165L29.5648 26.2934L32.0008 21.7017ZM32.1562 23.5674L30.7258 26.3555L32.1769 26.3555L32.1769 23.5674L32.1562 23.5674Z"   fill="url(#linear_fill_ep8LZjZMgGReO-C4a5Pto)" >
</path>
<defs>
<linearGradient id="linear_border_2_246_0" x1="39.40498" y1="40.35534" x2="5.206740000000001" y2="8.421680000000006" gradientUnits="userSpaceOnUse">
<stop offset="0" stop-color="#3B86E2" stop-opacity="0.19" />
<stop offset="1" stop-color="#56CDFC"  />
</linearGradient>
<linearGradient id="linear_border_2_247_0" x1="35.83868" y1="36.582440000000005" x2="9.07484" y2="11.590880000000004" gradientUnits="userSpaceOnUse">
<stop offset="0" stop-color="#3B86E2" stop-opacity="0" />
<stop offset="1" stop-color="#56CDFC"  />
</linearGradient>
<linearGradient id="linear_fill_ep8LZjZMgGReO-C4a5Pto" x1="29.8651123046875" y1="29.251953125" x2="16.719970703125" y2="16.9918212890625" gradientUnits="userSpaceOnUse">
<stop offset="0" stop-color="#007CAD"  />
<stop offset="1" stop-color="#28DAFA"  />
</linearGradient>
</defs>
</svg>
