<svg xmlns="http://www.w3.org/2000/svg" xmlns:xlink="http://www.w3.org/1999/xlink" width="46" height="46" viewBox="0 0 46 46" fill="none">
<path fill-rule="evenodd"  fill="url(#linear_border_2_484_0)"  d="M23 46C35.7025 46 46 35.7025 46 23C46 10.2974 35.7025 0 23 0C10.2974 0 0 10.2974 0 23C0 35.7025 10.2974 46 23 46ZM23 2C34.598 2 44 11.402 44 23C44 34.598 34.598 44 23 44C11.402 44 2 34.598 2 23C2 11.402 11.402 2 23 2Z">
</path>
<g opacity="0.2">
<path fill-rule="evenodd"  fill="url(#linear_border_2_485_0)"  d="M23 40.9999C32.9411 40.9999 41 32.9411 41 23C41 13.0589 32.9411 5 23 5C13.0589 5 5 13.0589 5 23C5 32.9411 13.0589 40.9999 23 40.9999ZM23 5.6C32.6097 5.6 40.4 13.3902 40.4 23C40.4 32.6097 32.6097 40.3999 23 40.3999C13.3902 40.3999 5.6 32.6097 5.6 23C5.6 13.3902 13.3902 5.6 23 5.6Z">
</path>
</g>
<path d="M29.5569 28.7933C29.555 28.6435 29.5618 28.494 29.5772 28.3449C29.5926 28.1959 29.6167 28.0481 29.6492 27.9018C29.6814 27.7643 29.7225 27.6295 29.7723 27.4972C29.8221 27.365 29.8802 27.2364 29.9468 27.1115C30.0175 26.9816 30.0949 26.8557 30.1789 26.7338C30.2629 26.6119 30.3532 26.4947 30.4496 26.3821C30.6691 26.1233 30.9051 25.8802 31.1576 25.6526L31.7528 25.1055C31.8964 24.986 32.0308 24.8533 32.153 24.7104C32.2474 24.6 32.3264 24.4774 32.389 24.3457C32.4159 24.2827 32.438 24.2181 32.4552 24.1519C32.4724 24.0857 32.4845 24.0186 32.4916 23.9506C32.5018 23.7885 32.5018 23.6264 32.4916 23.4643C32.4949 23.451 32.4979 23.4376 32.5004 23.4241C32.5029 23.4107 32.5051 23.3971 32.5069 23.3835C32.5086 23.37 32.51 23.3563 32.511 23.3427C32.512 23.329 32.5126 23.3153 32.5127 23.3016C32.5129 23.2879 32.5127 23.2743 32.5121 23.2605C32.5115 23.2469 32.5105 23.2332 32.5091 23.2196C32.5077 23.206 32.5059 23.1924 32.5037 23.1789C32.5016 23.1653 32.499 23.1519 32.496 23.1385C32.4931 23.1251 32.4897 23.1118 32.486 23.0986C32.4822 23.0854 32.4781 23.0723 32.4737 23.0594C32.4692 23.0464 32.4643 23.0336 32.4591 23.0209C32.4539 23.0082 32.4483 22.9957 32.4423 22.9833C32.4364 22.9709 32.43 22.9587 32.4234 22.9467C32.4167 22.9347 32.4097 22.9229 32.4024 22.9113C32.395 22.8997 32.3874 22.8882 32.3794 22.877C32.3714 22.8659 32.363 22.8549 32.3544 22.8442C32.3458 22.8334 32.3368 22.823 32.3276 22.8128C32.3184 22.8025 32.3088 22.7926 32.299 22.7829C32.2892 22.7733 32.2791 22.7639 32.2687 22.7547C32.2584 22.7456 32.2477 22.7368 32.2369 22.7283C32.226 22.7198 32.2149 22.7116 32.2036 22.7037C32.1922 22.6958 32.1806 22.6883 32.1689 22.681C32.1571 22.6738 32.1451 22.6669 32.1329 22.6604C32.1207 22.6538 32.1084 22.6476 32.0958 22.6417C32.0833 22.6359 32.0706 22.6304 32.0577 22.6253C32.0449 22.6201 32.0318 22.6153 32.0187 22.6109C32.0056 22.6065 31.9923 22.6025 31.979 22.5988C31.9656 22.5952 31.9521 22.5919 31.9386 22.589C31.925 22.5861 31.9114 22.5836 31.8977 22.5814C31.884 22.5793 31.8702 22.5775 31.8564 22.5762C31.8426 22.5748 31.8288 22.5739 31.8149 22.5733C31.801 22.5727 31.7872 22.5725 31.7733 22.5727C31.7643 22.5718 31.7553 22.5711 31.7463 22.5706C31.7373 22.5701 31.7283 22.5698 31.7193 22.5696C31.7103 22.5694 31.7013 22.5694 31.6923 22.5696C31.6832 22.5698 31.6743 22.5702 31.6653 22.5708C31.6562 22.5713 31.6473 22.572 31.6383 22.5729C31.6293 22.5739 31.6204 22.575 31.6115 22.5762C31.6025 22.5775 31.5937 22.579 31.5848 22.5806C31.5759 22.5822 31.5671 22.584 31.5583 22.586C31.5495 22.588 31.5407 22.5902 31.5321 22.5925C31.5234 22.5948 31.5147 22.5973 31.5061 22.6C31.4975 22.6027 31.489 22.6056 31.4805 22.6086C31.472 22.6116 31.4636 22.6148 31.4553 22.6182C31.4469 22.6215 31.4386 22.625 31.4304 22.6287C31.4222 22.6324 31.4141 22.6363 31.406 22.6403C31.398 22.6443 31.39 22.6485 31.3821 22.6528C31.3743 22.6572 31.3665 22.6616 31.3588 22.6663C31.3511 22.6709 31.3435 22.6757 31.336 22.6807C31.3285 22.6856 31.3211 22.6907 31.3138 22.696C31.3066 22.7012 31.2994 22.7066 31.2923 22.7122C31.2853 22.7177 31.2783 22.7234 31.2715 22.7292C31.2647 22.735 31.258 22.7409 31.2514 22.747C31.2448 22.7531 31.2383 22.7593 31.232 22.7656C31.2257 22.772 31.2195 22.7784 31.2134 22.785C31.2073 22.7916 31.2014 22.7983 31.1956 22.8051C31.1898 22.812 31.1842 22.8189 31.1787 22.8259C31.1732 22.833 31.1678 22.8402 31.1626 22.8474C31.1574 22.8547 31.1523 22.8621 31.1474 22.8695C31.1425 22.877 31.1378 22.8846 31.1332 22.8922C31.1286 22.8999 31.1241 22.9076 31.1199 22.9154C31.1156 22.9233 31.1115 22.9312 31.1075 22.9392C31.1036 22.9472 31.0998 22.9553 31.0961 22.9634C31.0925 22.9716 31.0891 22.9798 31.0858 22.9881C31.055 23.0589 31.0302 23.1318 31.0112 23.2065C30.9923 23.2813 30.9795 23.3571 30.9729 23.4339L30.9729 23.9708L29.5569 23.9708L29.5569 23.7277C29.5545 23.6928 29.5531 23.658 29.5525 23.6231C29.552 23.5882 29.5523 23.5533 29.5535 23.5184C29.5547 23.4835 29.5569 23.4486 29.5598 23.4138C29.5628 23.379 29.5667 23.3444 29.5714 23.3098C29.5762 23.2752 29.5818 23.2407 29.5883 23.2064C29.5948 23.1721 29.6022 23.138 29.6104 23.104C29.6187 23.07 29.6278 23.0363 29.6377 23.0028C29.6477 22.9693 29.6585 22.9361 29.6701 22.9031C29.6818 22.8701 29.6942 22.8375 29.7075 22.8051C29.7208 22.7728 29.735 22.7408 29.7499 22.7091C29.7648 22.6775 29.7806 22.6462 29.7971 22.6153C29.8136 22.5845 29.8309 22.554 29.8489 22.524C29.867 22.494 29.8858 22.4645 29.9054 22.4354C29.9249 22.4063 29.9452 22.3777 29.9663 22.3497C29.9873 22.3216 30.009 22.294 30.0314 22.267C30.0539 22.24 30.0769 22.2136 30.1007 22.1877C30.1301 22.1632 30.16 22.1395 30.1906 22.1164C30.2211 22.0934 30.2523 22.0711 30.2839 22.0495C30.3156 22.028 30.3478 22.0073 30.3805 21.9873C30.4132 21.9673 30.4464 21.9482 30.48 21.9298C30.5137 21.9115 30.5478 21.8939 30.5823 21.8772C30.6169 21.8606 30.6518 21.8447 30.6871 21.8297C30.7224 21.8148 30.7581 21.8006 30.7942 21.7874C30.8302 21.7741 30.8665 21.7618 30.9032 21.7503C30.9399 21.7388 30.9768 21.7282 31.014 21.7185C31.0511 21.7088 31.0885 21.7 31.1261 21.6922C31.1637 21.6843 31.2015 21.6773 31.2395 21.6713C31.2775 21.6653 31.3156 21.6602 31.3538 21.656C31.392 21.6519 31.4303 21.6486 31.4687 21.6463C31.5071 21.644 31.5455 21.6426 31.5839 21.6422C31.6224 21.6418 31.6608 21.6423 31.6992 21.6437C31.7377 21.6451 31.776 21.6475 31.8143 21.6508C31.851 21.6479 31.8876 21.6458 31.9243 21.6446C31.961 21.6434 31.9978 21.6431 32.0345 21.6437C32.0712 21.6442 32.1079 21.6457 32.1446 21.6479C32.1812 21.6502 32.2178 21.6534 32.2544 21.6574C32.2909 21.6614 32.3273 21.6663 32.3635 21.6721C32.3998 21.6778 32.4359 21.6844 32.4719 21.6919C32.5078 21.6993 32.5436 21.7076 32.5791 21.7168C32.6147 21.7259 32.65 21.7359 32.685 21.7467C32.7201 21.7575 32.7549 21.7692 32.7894 21.7816C32.8239 21.7941 32.8581 21.8074 32.8919 21.8215C32.9258 21.8356 32.9593 21.8504 32.9924 21.8661C33.0255 21.8818 33.0583 21.8982 33.0906 21.9154C33.1229 21.9326 33.1548 21.9506 33.1863 21.9693C33.2177 21.9881 33.2487 22.0075 33.2792 22.0277C33.3098 22.0479 33.3398 22.0688 33.3693 22.0904C33.3988 22.1121 33.4277 22.1344 33.4561 22.1573C33.8317 22.5454 34.0246 23.0712 33.9897 23.6061C33.9902 23.7132 33.9854 23.8201 33.9751 23.9268C33.9648 24.0334 33.9492 24.1393 33.9282 24.2444C33.9076 24.3425 33.881 24.4391 33.8484 24.534C33.8158 24.6289 33.7774 24.7215 33.7332 24.8117C33.6861 24.9078 33.6334 25.0007 33.575 25.0905C33.5167 25.1804 33.4531 25.2664 33.3843 25.3487C33.2229 25.5369 33.0484 25.7125 32.861 25.8755L32.0401 26.6252C31.9429 26.7088 31.8513 26.7981 31.7655 26.893C31.6797 26.9879 31.6002 27.0878 31.527 27.1926C31.5008 27.2296 31.4762 27.2676 31.4531 27.3066C31.4301 27.3456 31.4087 27.3855 31.3889 27.4262C31.3691 27.4669 31.3511 27.5084 31.3348 27.5506C31.3184 27.5928 31.3038 27.6355 31.291 27.6789L34 27.6789L34 28.7933L29.5261 28.7933L29.5569 28.7933ZM23.2359 24.9941C23.2564 25.4449 23.3313 25.8907 23.4617 26.3213C23.5437 26.6161 23.7151 26.8785 23.9542 27.071C23.97 27.0806 23.986 27.0899 24.0022 27.0989C24.0183 27.1079 24.0346 27.1167 24.0511 27.1251C24.0675 27.1336 24.0841 27.1418 24.1009 27.1497C24.1176 27.1576 24.1345 27.1653 24.1515 27.1726C24.1685 27.1799 24.1856 27.187 24.2029 27.1937C24.2201 27.2005 24.2375 27.207 24.2549 27.2131C24.2724 27.2193 24.29 27.2252 24.3077 27.2307C24.3253 27.2363 24.3431 27.2416 24.361 27.2465C24.3789 27.2515 24.3968 27.2562 24.4148 27.2605C24.4329 27.2649 24.4509 27.2689 24.4691 27.2727C24.4873 27.2764 24.5055 27.2799 24.5238 27.283C24.5421 27.2862 24.5604 27.289 24.5788 27.2915C24.5972 27.294 24.6156 27.2962 24.634 27.2981C24.6525 27.2999 24.671 27.3015 24.6895 27.3028C24.708 27.304 24.7266 27.305 24.7451 27.3056C24.7637 27.3062 24.7822 27.3066 24.8008 27.3066C24.8193 27.3066 24.8379 27.3062 24.8564 27.3056C24.875 27.305 24.8935 27.304 24.912 27.3028C24.9305 27.3015 24.949 27.2999 24.9675 27.2981C24.9859 27.2962 25.0043 27.294 25.0227 27.2915C25.0411 27.289 25.0594 27.2862 25.0777 27.283C25.096 27.2799 25.1142 27.2764 25.1324 27.2727C25.1506 27.2689 25.1687 27.2649 25.1867 27.2605C25.2047 27.2562 25.2227 27.2515 25.2405 27.2465C25.2584 27.2416 25.2762 27.2363 25.2938 27.2307C25.3115 27.2252 25.3291 27.2193 25.3466 27.2131C25.364 27.207 25.3814 27.2005 25.3986 27.1937C25.4159 27.187 25.433 27.1799 25.45 27.1726C25.467 27.1653 25.4839 27.1576 25.5006 27.1497C25.5174 27.1418 25.534 27.1336 25.5504 27.1251C25.5669 27.1167 25.5832 27.1079 25.5993 27.0989C25.6155 27.0899 25.6315 27.0806 25.6473 27.071C25.8864 26.8785 26.0578 26.6161 26.1398 26.3213C26.2691 25.8897 26.3451 25.4449 26.3656 24.9941C26.4066 24.447 26.4272 23.7723 26.4272 22.9678C26.4272 22.1644 26.4066 21.4887 26.3656 20.9416C26.3602 20.8293 26.3515 20.7172 26.3394 20.6054C26.3273 20.4936 26.3118 20.3822 26.2929 20.2713C26.2741 20.1604 26.2519 20.0502 26.2263 19.9406C26.2008 19.831 26.172 19.7223 26.1398 19.6144C26.1297 19.5779 26.1181 19.5419 26.1051 19.5063C26.0922 19.4706 26.0778 19.4356 26.0621 19.401C26.0464 19.3665 26.0294 19.3327 26.0111 19.2994C25.9928 19.2662 25.9732 19.2337 25.9523 19.2019C25.9314 19.1702 25.9094 19.1393 25.8861 19.1092C25.8629 19.0791 25.8385 19.05 25.8129 19.0218C25.7874 18.9935 25.7608 18.9663 25.7332 18.9401C25.7055 18.9139 25.6769 18.8887 25.6473 18.8647C25.6315 18.8551 25.6155 18.8458 25.5993 18.8368C25.5832 18.8278 25.5669 18.819 25.5504 18.8106C25.534 18.8021 25.5174 18.7939 25.5006 18.786C25.4839 18.7781 25.467 18.7704 25.45 18.7631C25.433 18.7558 25.4159 18.7487 25.3986 18.742C25.3814 18.7352 25.364 18.7288 25.3466 18.7226C25.3291 18.7164 25.3115 18.7105 25.2938 18.705C25.2762 18.6994 25.2584 18.6941 25.2405 18.6892C25.2227 18.6842 25.2047 18.6795 25.1867 18.6752C25.1687 18.6708 25.1506 18.6667 25.1324 18.663C25.1142 18.6592 25.096 18.6558 25.0777 18.6527C25.0594 18.6495 25.0411 18.6467 25.0227 18.6442C25.0043 18.6417 24.9859 18.6395 24.9675 18.6376C24.949 18.6357 24.9305 18.6342 24.912 18.6329C24.8935 18.6317 24.875 18.6307 24.8564 18.6301C24.8379 18.6295 24.8193 18.6291 24.8008 18.6291C24.7822 18.6291 24.7637 18.6295 24.7451 18.6301C24.7266 18.6307 24.708 18.6317 24.6895 18.6329C24.671 18.6342 24.6525 18.6357 24.634 18.6376C24.6156 18.6395 24.5972 18.6417 24.5788 18.6442C24.5604 18.6467 24.5421 18.6495 24.5238 18.6527C24.5055 18.6558 24.4873 18.6592 24.4691 18.663C24.4509 18.6667 24.4329 18.6708 24.4148 18.6752C24.3968 18.6795 24.3789 18.6842 24.361 18.6892C24.3431 18.6941 24.3253 18.6994 24.3077 18.705C24.29 18.7105 24.2724 18.7164 24.2549 18.7226C24.2375 18.7288 24.2201 18.7352 24.2029 18.742C24.1856 18.7487 24.1685 18.7558 24.1515 18.7631C24.1345 18.7704 24.1176 18.7781 24.1009 18.786C24.0841 18.7939 24.0675 18.8021 24.0511 18.8106C24.0346 18.819 24.0183 18.8278 24.0022 18.8368C23.986 18.8458 23.97 18.8551 23.9542 18.8647C23.7151 19.0592 23.5437 19.3206 23.4617 19.6144C23.4295 19.7223 23.4006 19.831 23.375 19.9406C23.3494 20.0501 23.3272 20.1604 23.3083 20.2713C23.2895 20.3822 23.274 20.4935 23.2619 20.6054C23.2498 20.7172 23.2412 20.8293 23.2359 20.9416C23.1949 21.4826 23.1743 22.1573 23.1743 22.9678C23.1743 23.7783 23.1949 24.4541 23.2359 24.9941ZM20.9374 20.587C20.9449 20.5044 20.9543 20.422 20.9656 20.3398C20.977 20.2576 20.9903 20.1757 21.0055 20.0941C21.0207 20.0126 21.0378 19.9314 21.0568 19.8506C21.0758 19.7698 21.0967 19.6895 21.1195 19.6097C21.1423 19.5298 21.1669 19.4506 21.1935 19.3719C21.22 19.2931 21.2484 19.2151 21.2785 19.1377C21.3087 19.0603 21.3407 18.9836 21.3745 18.9077C21.4083 18.8317 21.4439 18.7566 21.4812 18.6823C21.4983 18.6501 21.5159 18.6183 21.5341 18.5867C21.5523 18.5551 21.5711 18.5239 21.5904 18.493C21.6098 18.4621 21.6297 18.4316 21.6502 18.4014C21.6706 18.3712 21.6916 18.3413 21.7131 18.3119C21.7346 18.2825 21.7567 18.2534 21.7793 18.2247C21.8019 18.1961 21.825 18.1678 21.8486 18.14C21.8722 18.1121 21.8964 18.0847 21.921 18.0577C21.9456 18.0307 21.9707 18.0041 21.9963 17.978C22.0218 17.9519 22.0479 17.9263 22.0744 17.9011C22.1009 17.8759 22.1278 17.8512 22.1553 17.8269C22.1827 17.8027 22.2105 17.779 22.2388 17.7557C22.267 17.7325 22.2957 17.7097 22.3248 17.6875C22.3539 17.6653 22.3834 17.6435 22.4133 17.6224C22.4432 17.6012 22.4734 17.5805 22.5041 17.5604C22.5347 17.5403 22.5657 17.5207 22.597 17.5017C22.6284 17.4827 22.6601 17.4642 22.6921 17.4463C22.7336 17.428 22.7753 17.4102 22.8173 17.393C22.8593 17.3757 22.9015 17.359 22.9439 17.3429C22.9864 17.3267 23.029 17.3111 23.0719 17.2961C23.1147 17.2811 23.1578 17.2666 23.201 17.2527C23.2442 17.2387 23.2877 17.2254 23.3312 17.2126C23.3748 17.1998 23.4186 17.1876 23.4625 17.1759C23.5064 17.1643 23.5504 17.1532 23.5947 17.1426C23.6389 17.1321 23.6832 17.1222 23.7277 17.1128C23.7722 17.1034 23.8168 17.0946 23.8615 17.0864C23.9062 17.0782 23.951 17.0706 23.9959 17.0635C24.0408 17.0565 24.0858 17.05 24.1309 17.0442C24.176 17.0383 24.2211 17.033 24.2664 17.0283C24.3116 17.0236 24.3569 17.0194 24.4022 17.0159C24.4475 17.0124 24.4929 17.0094 24.5383 17.0071C24.5837 17.0047 24.6292 17.0029 24.6746 17.0017C24.7201 17.0006 24.7655 17 24.811 17C24.8565 17 24.902 17.0006 24.9474 17.0017C24.9929 17.0029 25.0383 17.0047 25.0837 17.0071C25.1291 17.0094 25.1745 17.0124 25.2198 17.0159C25.2652 17.0194 25.3104 17.0236 25.3557 17.0283C25.4009 17.033 25.4461 17.0383 25.4911 17.0442C25.5362 17.05 25.5812 17.0565 25.6261 17.0635C25.671 17.0706 25.7158 17.0782 25.7606 17.0864C25.8053 17.0946 25.8499 17.1034 25.8943 17.1128C25.9388 17.1222 25.9831 17.1321 26.0274 17.1426C26.0716 17.1532 26.1156 17.1643 26.1595 17.1759C26.2034 17.1876 26.2472 17.1998 26.2908 17.2126C26.3344 17.2254 26.3778 17.2387 26.421 17.2527C26.4643 17.2666 26.5073 17.2811 26.5501 17.2961C26.593 17.3111 26.6357 17.3267 26.6781 17.3429C26.7205 17.359 26.7627 17.3757 26.8047 17.393C26.8467 17.4102 26.8884 17.428 26.93 17.4463C26.962 17.4642 26.9937 17.4827 27.025 17.5017C27.0563 17.5207 27.0873 17.5403 27.118 17.5604C27.1486 17.5805 27.1789 17.6012 27.2088 17.6223C27.2386 17.6435 27.2681 17.6653 27.2972 17.6875C27.3263 17.7097 27.355 17.7325 27.3833 17.7557C27.4115 17.779 27.4393 17.8027 27.4668 17.8269C27.4942 17.8512 27.5211 17.8759 27.5476 17.9011C27.5742 17.9263 27.6002 17.9519 27.6258 17.978C27.6513 18.0041 27.6764 18.0307 27.701 18.0577C27.7257 18.0847 27.7498 18.1121 27.7734 18.14C27.797 18.1678 27.8201 18.1961 27.8427 18.2247C27.8653 18.2534 27.8874 18.2825 27.9089 18.3119C27.9304 18.3413 27.9514 18.3712 27.9719 18.4014C27.9923 18.4316 28.0122 18.4621 28.0316 18.493C28.0509 18.5239 28.0697 18.5551 28.0879 18.5867C28.1061 18.6183 28.1237 18.6501 28.1408 18.6823C28.1781 18.7566 28.2137 18.8317 28.2475 18.9077C28.2813 18.9836 28.3133 19.0603 28.3435 19.1377C28.3737 19.2151 28.402 19.2931 28.4286 19.3719C28.4551 19.4506 28.4797 19.5298 28.5025 19.6097C28.5253 19.6895 28.5462 19.7698 28.5653 19.8506C28.5843 19.9314 28.6014 20.0126 28.6166 20.0941C28.6318 20.1757 28.6451 20.2576 28.6564 20.3398C28.6677 20.422 28.6772 20.5044 28.6846 20.587C28.7256 20.9901 28.7563 21.3941 28.7768 21.7987C28.7973 22.2033 28.8076 22.6083 28.8076 23.0134C28.8076 23.4186 28.7973 23.8235 28.7768 24.2282C28.7563 24.6328 28.7256 25.0367 28.6846 25.4399C28.677 25.5221 28.6675 25.604 28.6561 25.6858C28.6446 25.7676 28.6313 25.849 28.616 25.9302C28.6008 26.0113 28.5836 26.092 28.5646 26.1724C28.5455 26.2528 28.5246 26.3327 28.5018 26.4121C28.479 26.4915 28.4543 26.5703 28.4279 26.6486C28.4014 26.7269 28.3731 26.8045 28.3429 26.8815C28.3128 26.9585 28.2809 27.0348 28.2472 27.1103C28.2135 27.1858 28.178 27.2605 28.1408 27.3344C28.1242 27.3666 28.1069 27.3983 28.089 27.4298C28.0712 27.4613 28.0527 27.4924 28.0336 27.5232C28.0146 27.554 27.9949 27.5844 27.9747 27.6144C27.9544 27.6445 27.9336 27.6741 27.9123 27.7034C27.8909 27.7326 27.8689 27.7615 27.8465 27.7899C27.824 27.8184 27.8009 27.8464 27.7774 27.8739C27.7538 27.9015 27.7297 27.9286 27.7051 27.9553C27.6805 27.982 27.6553 28.0081 27.6297 28.0339C27.6041 28.0596 27.578 28.0849 27.5514 28.1096C27.5248 28.1343 27.4978 28.1586 27.4702 28.1823C27.4427 28.2061 27.4147 28.2293 27.3863 28.2519C27.3579 28.2746 27.329 28.2968 27.2998 28.3184C27.2705 28.3399 27.2408 28.361 27.2107 28.3815C27.1806 28.4019 27.1502 28.4218 27.1193 28.4412C27.0885 28.4605 27.0573 28.4793 27.0257 28.4975C26.9941 28.5156 26.9622 28.5332 26.93 28.5502C26.8882 28.5675 26.8462 28.5843 26.8039 28.6006C26.7617 28.6169 26.7193 28.6327 26.6767 28.648C26.6341 28.6633 26.5913 28.678 26.5483 28.6922C26.5053 28.7064 26.4622 28.7201 26.4188 28.7333C26.3755 28.7465 26.332 28.7591 26.2883 28.7712C26.2447 28.7833 26.2009 28.7948 26.157 28.8058C26.113 28.8168 26.069 28.8273 26.0248 28.8373C25.9806 28.8472 25.9363 28.8566 25.8918 28.8654C25.8474 28.8743 25.8028 28.8826 25.7582 28.8903C25.7135 28.8981 25.6688 28.9053 25.624 28.9119C25.5791 28.9186 25.5342 28.9247 25.4892 28.9302C25.4442 28.9358 25.3992 28.9408 25.3541 28.9452C25.309 28.9497 25.2638 28.9536 25.2186 28.9569C25.1734 28.9602 25.1282 28.963 25.0829 28.9652C25.0376 28.9675 24.9923 28.9691 24.947 28.9702C24.9017 28.9713 24.8564 28.9719 24.811 28.9719C24.7657 28.9719 24.7203 28.9713 24.675 28.9702C24.6297 28.9691 24.5844 28.9675 24.5392 28.9652C24.4939 28.963 24.4486 28.9602 24.4034 28.9569C24.3582 28.9536 24.3131 28.9497 24.2679 28.9452C24.2228 28.9408 24.1778 28.9358 24.1328 28.9302C24.0878 28.9247 24.0429 28.9186 23.9981 28.9119C23.9532 28.9053 23.9085 28.8981 23.8639 28.8903C23.8192 28.8826 23.7747 28.8743 23.7302 28.8654C23.6858 28.8566 23.6415 28.8472 23.5973 28.8373C23.553 28.8273 23.509 28.8168 23.4651 28.8058C23.4211 28.7948 23.3773 28.7833 23.3337 28.7712C23.29 28.7591 23.2465 28.7465 23.2032 28.7333C23.1599 28.7201 23.1167 28.7064 23.0737 28.6922C23.0307 28.678 22.9879 28.6633 22.9453 28.648C22.9027 28.6327 22.8603 28.6169 22.8181 28.6006C22.7758 28.5843 22.7338 28.5675 22.6921 28.5502C22.6598 28.5332 22.6279 28.5156 22.5963 28.4975C22.5648 28.4793 22.5336 28.4605 22.5027 28.4412C22.4719 28.4218 22.4414 28.402 22.4113 28.3815C22.3812 28.361 22.3515 28.3399 22.3223 28.3184C22.293 28.2968 22.2641 28.2746 22.2357 28.2519C22.2073 28.2292 22.1793 28.206 22.1518 28.1823C22.1243 28.1586 22.0972 28.1343 22.0706 28.1096C22.044 28.0849 22.0179 28.0596 21.9923 28.0339C21.9667 28.0081 21.9415 27.982 21.9169 27.9553C21.8923 27.9286 21.8682 27.9015 21.8447 27.8739C21.8211 27.8464 21.798 27.8184 21.7756 27.7899C21.7531 27.7615 21.7312 27.7326 21.7098 27.7034C21.6884 27.6741 21.6676 27.6445 21.6474 27.6144C21.6271 27.5844 21.6075 27.554 21.5884 27.5232C21.5693 27.4924 21.5508 27.4613 21.533 27.4298C21.5151 27.3983 21.4979 27.3666 21.4812 27.3344C21.444 27.2605 21.4086 27.1858 21.3749 27.1103C21.3412 27.0348 21.3092 26.9585 21.2791 26.8815C21.249 26.8045 21.2207 26.7269 21.1942 26.6486C21.1677 26.5703 21.1431 26.4915 21.1203 26.4121C21.0975 26.3327 21.0765 26.2528 21.0575 26.1724C21.0384 26.092 21.0213 26.0113 21.006 25.9302C20.9907 25.849 20.9774 25.7676 20.966 25.6858C20.9545 25.604 20.945 25.5221 20.9374 25.4399C20.8964 25.0367 20.8657 24.6328 20.8452 24.2282C20.8247 23.8235 20.8144 23.4186 20.8144 23.0134C20.8144 22.6083 20.8247 22.2033 20.8452 21.7987C20.8657 21.3941 20.8964 20.9901 20.9374 20.587ZM16.9457 19.2902C16.9391 19.2782 16.9322 19.2664 16.9251 19.2547C16.918 19.243 16.9107 19.2314 16.9032 19.2199C16.8957 19.2085 16.8879 19.1972 16.88 19.186C16.8721 19.1748 16.8639 19.1638 16.8555 19.153C16.8472 19.1421 16.8387 19.1313 16.8299 19.1208C16.8212 19.1102 16.8123 19.0998 16.8031 19.0895C16.794 19.0793 16.7847 19.0692 16.7752 19.0593C16.7657 19.0494 16.756 19.0396 16.7461 19.0301C16.7363 19.0205 16.7262 19.0111 16.7161 19.0019C16.7059 18.9927 16.6955 18.9837 16.6849 18.9748C16.6744 18.966 16.6637 18.9574 16.6528 18.9489C16.642 18.9405 16.631 18.9322 16.6198 18.9241C16.6087 18.9161 16.5974 18.9083 16.5859 18.9006C16.5745 18.893 16.5629 18.8855 16.5512 18.8783C16.5395 18.8711 16.5276 18.864 16.5156 18.8572C16.5036 18.8504 16.4915 18.8438 16.4793 18.8375C16.4671 18.8311 16.4547 18.8249 16.4423 18.819C16.4298 18.8131 16.4173 18.8074 16.4046 18.8019C16.392 18.7964 16.3792 18.7912 16.3663 18.7862C16.3535 18.7812 16.3406 18.7764 16.3275 18.7718C16.3145 18.7673 16.3014 18.763 16.2882 18.7589C16.275 18.7548 16.2617 18.751 16.2484 18.7474C16.2351 18.7437 16.2216 18.7404 16.2082 18.7373C16.1947 18.7341 16.1812 18.7313 16.1677 18.7286C16.1541 18.726 16.1405 18.7236 16.1269 18.7215C16.1132 18.7193 16.0995 18.7174 16.0858 18.7158C16.0721 18.7141 16.0583 18.7127 16.0445 18.7115C16.0308 18.7104 16.017 18.7094 16.0032 18.7088C15.9894 18.7081 15.9756 18.7077 15.9618 18.7075C15.9479 18.7074 15.9341 18.7074 15.9203 18.7078C15.9065 18.7081 15.8926 18.7087 15.8789 18.7095C15.8651 18.7103 15.8513 18.7114 15.8375 18.7127C15.8212 18.7121 15.8049 18.7118 15.7887 18.7119C15.7724 18.712 15.7561 18.7124 15.7398 18.7132C15.7236 18.7139 15.7073 18.7151 15.6911 18.7166C15.6749 18.7181 15.6587 18.7199 15.6425 18.7221C15.6264 18.7243 15.6103 18.7268 15.5943 18.7297C15.5782 18.7326 15.5623 18.7359 15.5464 18.7395C15.5306 18.7431 15.5147 18.747 15.499 18.7513C15.4833 18.7555 15.4677 18.7602 15.4522 18.7651C15.4367 18.7701 15.4213 18.7754 15.4061 18.781C15.3908 18.7866 15.3757 18.7926 15.3607 18.7989C15.3457 18.8052 15.3308 18.8118 15.3161 18.8187C15.3014 18.8256 15.2869 18.8329 15.2725 18.8404C15.2581 18.848 15.2439 18.8559 15.2299 18.8641C15.2159 18.8723 15.202 18.8807 15.1884 18.8895C15.1747 18.8983 15.1613 18.9074 15.1481 18.9168C15.1348 18.9261 15.1218 18.9358 15.109 18.9457C15.0815 18.9712 15.055 18.9976 15.0294 19.025C15.0038 19.0524 14.9793 19.0806 14.9558 19.1097C14.9322 19.1388 14.9098 19.1687 14.8884 19.1994C14.8671 19.23 14.8469 19.2614 14.8278 19.2936C14.8087 19.3257 14.7908 19.3584 14.7741 19.3918C14.7574 19.4251 14.7419 19.4591 14.7277 19.4935C14.7134 19.528 14.7005 19.5629 14.6887 19.5983C14.677 19.6337 14.6666 19.6695 14.6575 19.7056C14.5949 19.9306 14.5448 20.1582 14.5071 20.3885C14.4693 20.6188 14.4442 20.8504 14.4317 21.0834C14.3907 21.6508 14.3702 22.3468 14.3702 23.1705C14.3629 23.8813 14.3936 24.5905 14.4625 25.298C14.4964 25.7276 14.5887 26.1511 14.7396 26.5543C14.8237 26.8015 14.9899 27.0122 15.2116 27.1521C15.4168 27.2584 15.6467 27.3111 15.8786 27.304C16.0776 27.3081 16.2767 27.2736 16.4635 27.2027C16.4882 27.1917 16.5124 27.1798 16.5362 27.1669C16.5599 27.154 16.5831 27.1402 16.6057 27.1255C16.6284 27.1108 16.6504 27.0953 16.6718 27.0789C16.6932 27.0624 16.7139 27.0452 16.7339 27.0272C16.7539 27.0091 16.7732 26.9903 16.7917 26.9708C16.8102 26.9513 16.8278 26.931 16.8447 26.9101C16.8616 26.8891 16.8776 26.8676 16.8928 26.8454C16.9079 26.8232 16.9222 26.8005 16.9355 26.7772C16.9739 26.708 17.0092 26.6372 17.0414 26.565C17.0736 26.4927 17.1026 26.4192 17.1284 26.3446C17.1542 26.2698 17.1767 26.1942 17.1959 26.1176C17.2151 26.0409 17.2309 25.9636 17.2433 25.8856C17.2861 25.6346 17.3169 25.3822 17.3357 25.1284C17.3546 24.8746 17.3614 24.6204 17.3562 24.366L19.7163 24.366C19.7182 24.6646 19.7072 24.9628 19.6833 25.2605C19.6593 25.5583 19.6224 25.8545 19.5726 26.1491C19.5621 26.2144 19.5499 26.2794 19.5361 26.3441C19.5223 26.4089 19.5069 26.4732 19.4899 26.5372C19.4729 26.6012 19.4544 26.6647 19.4342 26.7278C19.4141 26.7909 19.3924 26.8535 19.3692 26.9155C19.3459 26.9775 19.3212 27.039 19.2949 27.0998C19.2686 27.1607 19.2408 27.2209 19.2115 27.2803C19.1823 27.3398 19.1515 27.3986 19.1193 27.4566C19.0871 27.5146 19.0535 27.5718 19.0185 27.6282C19.0017 27.6554 18.9844 27.6822 18.9666 27.7087C18.9488 27.7352 18.9305 27.7614 18.9118 27.7873C18.8931 27.8131 18.8739 27.8387 18.8542 27.8639C18.8346 27.8891 18.8145 27.9139 18.794 27.9384C18.7734 27.9629 18.7524 27.9871 18.731 28.0108C18.7097 28.0346 18.6878 28.058 18.6656 28.081C18.6433 28.104 18.6207 28.1266 18.5976 28.1488C18.5746 28.171 18.5511 28.1928 18.5273 28.2142C18.5035 28.2356 18.4793 28.2566 18.4547 28.2771C18.4301 28.2977 18.4051 28.3178 18.3798 28.3375C18.3545 28.3571 18.3289 28.3764 18.3029 28.3952C18.2769 28.4139 18.2505 28.4322 18.2239 28.4501C18.1972 28.468 18.1703 28.4854 18.143 28.5023C18.1157 28.5192 18.0881 28.5356 18.0602 28.5516C18.0324 28.5675 18.0043 28.583 17.9758 28.5979C17.9474 28.6129 17.9187 28.6274 17.8898 28.6413C17.8154 28.6736 17.7402 28.7038 17.6641 28.7318C17.588 28.7599 17.5112 28.7858 17.4336 28.8095C17.3561 28.8332 17.2779 28.8548 17.199 28.8741C17.1202 28.8935 17.0409 28.9106 16.9611 28.9256C16.8813 28.9405 16.8011 28.9531 16.7206 28.9635C16.6401 28.9739 16.5593 28.9821 16.4783 28.988C16.3973 28.9938 16.3162 28.9974 16.235 28.9988C16.1538 29.0001 16.0726 28.9992 15.9914 28.9959C15.9461 28.9979 15.9007 28.9991 15.8553 28.9996C15.8099 29.0002 15.7645 29.0001 15.7191 28.9993C15.6738 28.9985 15.6284 28.997 15.583 28.9948C15.5377 28.9926 15.4924 28.9898 15.4471 28.9862C15.4019 28.9827 15.3567 28.9785 15.3116 28.9736C15.2665 28.9687 15.2214 28.9631 15.1765 28.9568C15.1315 28.9506 15.0867 28.9436 15.0419 28.936C14.9972 28.9284 14.9526 28.9201 14.9081 28.9112C14.8636 28.9022 14.8193 28.8926 14.7751 28.8823C14.7309 28.872 14.6869 28.8611 14.643 28.8495C14.5992 28.8378 14.5555 28.8255 14.5121 28.8126C14.4686 28.7997 14.4254 28.7861 14.3823 28.7719C14.3393 28.7576 14.2964 28.7428 14.2539 28.7272C14.2113 28.7117 14.1689 28.6956 14.1268 28.6788C14.0848 28.662 14.043 28.6445 14.0014 28.6265C13.9599 28.6084 13.9186 28.5897 13.8776 28.5704C13.8454 28.5535 13.8135 28.5359 13.7819 28.5177C13.7503 28.4996 13.7191 28.4808 13.6883 28.4615C13.6574 28.4421 13.6269 28.4222 13.5968 28.4017C13.5668 28.3812 13.5371 28.3602 13.5078 28.3386C13.4785 28.317 13.4497 28.2949 13.4213 28.2722C13.3928 28.2495 13.3649 28.2263 13.3374 28.2026C13.3098 28.1789 13.2828 28.1546 13.2562 28.1298C13.2296 28.1051 13.2035 28.0799 13.1779 28.0541C13.1522 28.0284 13.1271 28.0022 13.1025 27.9756C13.0779 27.9489 13.0538 27.9218 13.0302 27.8942C13.0067 27.8666 12.9836 27.8386 12.9611 27.8102C12.9386 27.7817 12.9167 27.7529 12.8953 27.7236C12.874 27.6944 12.8532 27.6647 12.8329 27.6347C12.8127 27.6046 12.793 27.5742 12.774 27.5434C12.7549 27.5127 12.7364 27.4815 12.7185 27.4501C12.7007 27.4186 12.6834 27.3868 12.6668 27.3547C12.6296 27.2808 12.5941 27.206 12.5604 27.1305C12.5267 27.055 12.4948 26.9787 12.4647 26.9017C12.4345 26.8248 12.4062 26.7472 12.3797 26.6689C12.3532 26.5906 12.3286 26.5117 12.3058 26.4323C12.283 26.3529 12.2621 26.273 12.243 26.1927C12.224 26.1123 12.2068 26.0316 12.1916 25.9504C12.1763 25.8693 12.163 25.7878 12.1515 25.7061C12.1401 25.6243 12.1306 25.5423 12.1229 25.4601C12.082 25.057 12.0513 24.6531 12.0308 24.2484C12.0103 23.8438 12 23.4389 12 23.0337C12 22.6285 12.0103 22.2236 12.0308 21.819C12.0513 21.4143 12.082 21.0104 12.1229 20.6073C12.1304 20.5247 12.1398 20.4423 12.1512 20.3601C12.1625 20.2779 12.1758 20.196 12.191 20.1144C12.2062 20.0328 12.2233 19.9516 12.2423 19.8708C12.2614 19.7901 12.2823 19.7098 12.305 19.6299C12.3279 19.5501 12.3525 19.4708 12.379 19.3921C12.4056 19.3134 12.4339 19.2354 12.4641 19.158C12.4943 19.0806 12.5263 19.0039 12.5601 18.9279C12.5939 18.852 12.6295 18.7769 12.6668 18.7026C12.6839 18.6704 12.7015 18.6385 12.7197 18.607C12.7379 18.5754 12.7567 18.5442 12.776 18.5133C12.7954 18.4824 12.8153 18.4518 12.8357 18.4216C12.8562 18.3914 12.8771 18.3616 12.8987 18.3322C12.9202 18.3027 12.9423 18.2737 12.9649 18.245C12.9875 18.2163 13.0106 18.1881 13.0342 18.1602C13.0578 18.1324 13.0819 18.1049 13.1066 18.0779C13.1312 18.0509 13.1562 18.0244 13.1818 17.9983C13.2074 17.9722 13.2334 17.9465 13.26 17.9213C13.2865 17.8961 13.3134 17.8714 13.3408 17.8472C13.3682 17.823 13.3961 17.7992 13.4243 17.776C13.4526 17.7527 13.4813 17.73 13.5104 17.7078C13.5395 17.6855 13.569 17.6638 13.5988 17.6426C13.6287 17.6214 13.659 17.6008 13.6896 17.5806C13.7202 17.5605 13.7512 17.541 13.7826 17.5219C13.8139 17.5029 13.8456 17.4845 13.8776 17.4666C13.9183 17.4463 13.9593 17.4267 14.0005 17.4078C14.0418 17.3888 14.0834 17.3706 14.1253 17.3529C14.1672 17.3353 14.2094 17.3184 14.2518 17.3021C14.2942 17.2858 14.3369 17.2702 14.3799 17.2552C14.4228 17.2403 14.466 17.226 14.5094 17.2125C14.5528 17.1989 14.5964 17.186 14.6403 17.1738C14.6841 17.1616 14.7281 17.1501 14.7723 17.1393C14.8165 17.1286 14.8609 17.1185 14.9054 17.1091C14.9499 17.0997 14.9946 17.091 15.0394 17.083C15.0842 17.075 15.1292 17.0678 15.1742 17.0612C15.2193 17.0547 15.2644 17.0488 15.3096 17.0437C15.3549 17.0386 15.4002 17.0342 15.4455 17.0305C15.4909 17.0268 15.5364 17.0238 15.5818 17.0216C15.6273 17.0193 15.6728 17.0178 15.7183 17.017C15.7639 17.0162 15.8094 17.0161 15.8549 17.0167C15.9004 17.0174 15.9459 17.0187 15.9914 17.0208C16.0342 17.0188 16.077 17.0175 16.1197 17.0168C16.1626 17.0162 16.2053 17.0162 16.2481 17.0168C16.2909 17.0175 16.3337 17.0188 16.3764 17.0208C16.4191 17.0228 16.4619 17.0254 16.5045 17.0287C16.5472 17.032 16.5898 17.036 16.6323 17.0406C16.6749 17.0452 16.7173 17.0505 16.7597 17.0564C16.8021 17.0624 16.8443 17.069 16.8865 17.0762C16.9287 17.0834 16.9707 17.0913 17.0126 17.0998C17.0545 17.1084 17.0963 17.1176 17.1379 17.1274C17.1795 17.1372 17.221 17.1476 17.2623 17.1587C17.3035 17.1698 17.3447 17.1816 17.3856 17.194C17.4265 17.2063 17.4672 17.2193 17.5077 17.233C17.5482 17.2466 17.5885 17.2608 17.6286 17.2757C17.6686 17.2906 17.7084 17.3061 17.748 17.3222C17.7876 17.3383 17.8269 17.355 17.8659 17.3723C17.9049 17.3896 17.9437 17.4075 17.9821 17.4261C18.4316 17.6601 18.8071 18.0106 19.0698 18.4392C19.3099 18.8546 19.4639 19.3125 19.5213 19.7866C19.5798 20.2375 19.6106 20.6903 19.6137 21.1442L17.2536 21.1442C17.2586 21.0654 17.2614 20.9865 17.2619 20.9076C17.2624 20.8286 17.2607 20.7496 17.2567 20.6708C17.2527 20.5919 17.2465 20.5132 17.238 20.4347C17.2295 20.3562 17.2188 20.2779 17.2059 20.2C17.1929 20.1221 17.1778 20.0446 17.1604 19.9675C17.1431 19.8904 17.1235 19.8139 17.1018 19.7379C17.0801 19.6619 17.0562 19.5865 17.0301 19.5119C17.0041 19.4372 16.976 19.3633 16.9457 19.2902Z"   fill="url(#linear_fill_hEWI4cffboiVdzfix-edZ)" >
</path>
<defs>
<linearGradient id="linear_border_2_484_0" x1="39.40498" y1="40.35534" x2="5.206740000000001" y2="8.421680000000006" gradientUnits="userSpaceOnUse">
<stop offset="0" stop-color="#3B86E2" stop-opacity="0.19" />
<stop offset="1" stop-color="#56CDFC"  />
</linearGradient>
<linearGradient id="linear_border_2_485_0" x1="35.83868" y1="36.582440000000005" x2="9.07484" y2="11.590880000000004" gradientUnits="userSpaceOnUse">
<stop offset="0" stop-color="#3B86E2" stop-opacity="0" />
<stop offset="1" stop-color="#56CDFC"  />
</linearGradient>
<linearGradient id="linear_fill_hEWI4cffboiVdzfix-edZ" x1="29.6873779296875" y1="29" x2="16.7584228515625" y2="17" gradientUnits="userSpaceOnUse">
<stop offset="0" stop-color="#007CAD"  />
<stop offset="1" stop-color="#28DAFA"  />
</linearGradient>
</defs>
</svg>
