<svg xmlns="http://www.w3.org/2000/svg" xmlns:xlink="http://www.w3.org/1999/xlink" width="46" height="46" viewBox="0 0 46 46" fill="none">
<path fill-rule="evenodd"  fill="url(#linear_border_2_476_0)"  d="M23 46C35.7025 46 46 35.7025 46 23C46 10.2974 35.7025 0 23 0C10.2974 0 0 10.2974 0 23C0 35.7025 10.2974 46 23 46ZM23 2C34.598 2 44 11.402 44 23C44 34.598 34.598 44 23 44C11.402 44 2 34.598 2 23C2 11.402 11.402 2 23 2Z">
</path>
<g opacity="0.2">
<path fill-rule="evenodd"  fill="url(#linear_border_2_477_0)"  d="M23 40.9999C32.9411 40.9999 41 32.9411 41 23C41 13.0589 32.9411 5 23 5C13.0589 5 5 13.0589 5 23C5 32.9411 13.0589 40.9999 23 40.9999ZM23 5.6C32.6097 5.6 40.4 13.3902 40.4 23C40.4 32.6097 32.6097 40.3999 23 40.3999C13.3902 40.3999 5.6 32.6097 5.6 23C5.6 13.3902 13.3902 5.6 23 5.6Z">
</path>
</g>
<path d="M19.5909 18.6719C19.5833 18.6579 19.5755 18.6441 19.5675 18.6305C19.5595 18.6168 19.5513 18.6033 19.5428 18.5899C19.5343 18.5766 19.5255 18.5634 19.5165 18.5503C19.5076 18.5373 19.4984 18.5245 19.4889 18.5118C19.4795 18.4991 19.4698 18.4866 19.4599 18.4742C19.45 18.4619 19.44 18.4498 19.4296 18.4378C19.4193 18.4258 19.4088 18.4141 19.3981 18.4025C19.3873 18.3909 19.3764 18.3796 19.3652 18.3684C19.3541 18.3572 19.3427 18.3463 19.3312 18.3356C19.3197 18.3248 19.308 18.3143 19.2961 18.304C19.2841 18.2937 19.2721 18.2836 19.2598 18.2737C19.2475 18.2639 19.2351 18.2542 19.2224 18.2448C19.2098 18.2355 19.1971 18.2263 19.1841 18.2174C19.1712 18.2084 19.1581 18.1998 19.1448 18.1914C19.1316 18.1829 19.1182 18.1747 19.1046 18.1667C19.0911 18.1588 19.0774 18.1511 19.0636 18.1437C19.0498 18.1363 19.0358 18.1291 19.0217 18.1222C19.0077 18.1153 18.9935 18.1086 18.9792 18.1022C18.9648 18.0958 18.9504 18.0897 18.9359 18.0839C18.9213 18.078 18.9067 18.0725 18.892 18.0671C18.8773 18.0618 18.8624 18.0568 18.8475 18.052C18.8326 18.0473 18.8176 18.0428 18.8026 18.0386C18.7875 18.0344 18.7723 18.0304 18.7571 18.0268C18.7419 18.0232 18.7267 18.0198 18.7113 18.0168C18.696 18.0137 18.6806 18.0109 18.6652 18.0084C18.6497 18.0059 18.6343 18.0036 18.6187 18.0017C18.6033 17.9998 18.5877 17.9981 18.5721 17.9968C18.5566 17.9954 18.541 17.9944 18.5254 17.9936C18.5097 17.9928 18.4942 17.9923 18.4785 17.9921C18.4629 17.9919 18.4473 17.992 18.4317 17.9924C18.416 17.9928 18.4004 17.9934 18.3848 17.9944C18.3692 17.9954 18.3536 17.9966 18.3381 17.9982C18.3197 17.9974 18.3013 17.9971 18.2829 17.9972C18.2644 17.9973 18.246 17.9978 18.2276 17.9987C18.2093 17.9996 18.1909 18.0009 18.1725 18.0027C18.1542 18.0044 18.1359 18.0065 18.1177 18.0091C18.0994 18.0117 18.0812 18.0146 18.0631 18.018C18.045 18.0214 18.0269 18.0252 18.009 18.0294C17.991 18.0336 17.9732 18.0382 17.9555 18.0432C17.9377 18.0481 17.92 18.0535 17.9025 18.0593C17.885 18.0651 17.8676 18.0713 17.8504 18.0778C17.8331 18.0844 17.816 18.0913 17.799 18.0987C17.7821 18.106 17.7653 18.1137 17.7487 18.1218C17.732 18.1299 17.7156 18.1384 17.6994 18.1472C17.6831 18.156 17.667 18.1652 17.6512 18.1748C17.6354 18.1843 17.6197 18.1942 17.6043 18.2045C17.5889 18.2147 17.5737 18.2253 17.5587 18.2362C17.5437 18.2472 17.529 18.2584 17.5145 18.27C17.4834 18.2997 17.4534 18.3306 17.4245 18.3625C17.3956 18.3944 17.3679 18.4274 17.3413 18.4613C17.3147 18.4953 17.2893 18.5301 17.2652 18.5659C17.241 18.6017 17.2182 18.6383 17.1966 18.6758C17.1751 18.7133 17.1548 18.7515 17.136 18.7904C17.1171 18.8293 17.0996 18.8689 17.0835 18.9091C17.0674 18.9493 17.0527 18.9901 17.0395 19.0314C17.0262 19.0727 17.0144 19.1144 17.0041 19.1565C16.9332 19.419 16.8765 19.6845 16.8338 19.9532C16.7912 20.2219 16.7629 20.4922 16.7489 20.764C16.7025 21.4259 16.6793 22.2379 16.6793 23.1989C16.6714 24.0281 16.7062 24.8555 16.7837 25.681C16.822 26.1822 16.9276 26.6751 17.0969 27.1467C17.192 27.4351 17.38 27.6809 17.6305 27.844C17.8625 27.9682 18.1223 28.0296 18.3845 28.0213C18.6095 28.0261 18.8346 27.9859 19.0457 27.9031C19.0736 27.8903 19.101 27.8764 19.1279 27.8614C19.1547 27.8463 19.1809 27.8303 19.2065 27.8131C19.2321 27.796 19.257 27.7778 19.2812 27.7586C19.3053 27.7395 19.3288 27.7194 19.3514 27.6983C19.374 27.6773 19.3958 27.6554 19.4167 27.6326C19.4376 27.6098 19.4576 27.5862 19.4767 27.5617C19.4958 27.5373 19.5138 27.5122 19.531 27.4863C19.5481 27.4604 19.5642 27.4339 19.5793 27.4067C19.6226 27.3259 19.6625 27.2434 19.6989 27.1591C19.7353 27.0748 19.768 26.9891 19.7972 26.9019C19.8264 26.8148 19.8518 26.7265 19.8735 26.6371C19.8952 26.5477 19.9132 26.4576 19.9273 26.3666C19.9756 26.0738 20.0104 25.7793 20.0317 25.4831C20.0531 25.187 20.0608 24.8905 20.0549 24.5936L22.7228 24.5936C22.7252 24.9421 22.7128 25.29 22.6857 25.6373C22.6586 25.9847 22.6168 26.3302 22.5604 26.6739C22.5485 26.7501 22.5347 26.826 22.5191 26.9015C22.5035 26.977 22.4861 27.0521 22.4669 27.1267C22.4477 27.2014 22.4267 27.2755 22.404 27.3491C22.3812 27.4227 22.3567 27.4957 22.3304 27.5681C22.3041 27.6405 22.2761 27.7121 22.2464 27.7831C22.2167 27.8541 22.1853 27.9243 22.1522 27.9937C22.1191 28.0631 22.0844 28.1317 22.048 28.1994C22.0116 28.2671 21.9736 28.3338 21.934 28.3996C21.915 28.4312 21.8953 28.4624 21.8752 28.4934C21.8551 28.5243 21.8344 28.5548 21.8132 28.585C21.792 28.6151 21.7703 28.6449 21.7481 28.6743C21.7259 28.7037 21.7031 28.7327 21.6799 28.7612C21.6566 28.7898 21.6329 28.8179 21.6088 28.8457C21.5845 28.8734 21.5599 28.9006 21.5347 28.9275C21.5096 28.9543 21.484 28.9807 21.4579 29.0066C21.4318 29.0325 21.4053 29.0579 21.3784 29.0829C21.3515 29.1078 21.3241 29.1323 21.2963 29.1563C21.2685 29.1803 21.2403 29.2037 21.2117 29.2267C21.1831 29.2496 21.1541 29.2721 21.1248 29.294C21.0954 29.3159 21.0656 29.3373 21.0355 29.3582C21.0054 29.379 20.9749 29.3993 20.9441 29.4191C20.9133 29.4388 20.8821 29.458 20.8506 29.4767C20.8191 29.4953 20.7874 29.5133 20.7553 29.5308C20.7232 29.5483 20.6907 29.5652 20.6581 29.5816C20.574 29.6192 20.489 29.6544 20.403 29.6871C20.3169 29.7198 20.2301 29.7501 20.1424 29.7778C20.0547 29.8054 19.9663 29.8306 19.8772 29.8532C19.7881 29.8757 19.6985 29.8957 19.6082 29.9131C19.518 29.9305 19.4274 29.9453 19.3364 29.9574C19.2453 29.9696 19.154 29.9791 19.0625 29.9859C18.9709 29.9928 18.8792 29.997 18.7874 29.9986C18.6956 30.0001 18.6038 29.999 18.5121 29.9952C18.4608 29.9975 18.4095 29.9989 18.3582 29.9996C18.3069 30.0002 18.2556 30.0001 18.2043 29.9992C18.153 29.9982 18.1017 29.9965 18.0504 29.9939C17.9992 29.9914 17.9479 29.988 17.8968 29.9839C17.8456 29.9798 17.7945 29.9749 17.7435 29.9691C17.6925 29.9634 17.6416 29.9569 17.5908 29.9496C17.54 29.9423 17.4893 29.9342 17.4387 29.9253C17.3882 29.9165 17.3377 29.9068 17.2874 29.8963C17.2372 29.8859 17.187 29.8747 17.1371 29.8627C17.0871 29.8507 17.0374 29.8379 16.9878 29.8243C16.9382 29.8108 16.8889 29.7965 16.8398 29.7814C16.7906 29.7663 16.7417 29.7504 16.6931 29.7338C16.6444 29.7172 16.596 29.6999 16.5479 29.6818C16.4997 29.6636 16.4519 29.6448 16.4043 29.6252C16.3567 29.6056 16.3094 29.5853 16.2625 29.5642C16.2155 29.5431 16.1689 29.5213 16.1225 29.4988C16.0861 29.479 16.05 29.4585 16.0143 29.4373C15.9786 29.4162 15.9434 29.3942 15.9085 29.3717C15.8736 29.3491 15.8391 29.3259 15.8051 29.302C15.7711 29.2781 15.7376 29.2536 15.7045 29.2284C15.6714 29.2032 15.6388 29.1774 15.6067 29.1509C15.5745 29.1244 15.5429 29.0974 15.5118 29.0696C15.4807 29.042 15.4501 29.0137 15.42 28.9848C15.39 28.956 15.3605 28.9265 15.3315 28.8965C15.3025 28.8665 15.2741 28.8359 15.2463 28.8048C15.2185 28.7737 15.1912 28.7421 15.1646 28.7099C15.138 28.6777 15.1119 28.6451 15.0865 28.6119C15.0611 28.5787 15.0363 28.545 15.0121 28.5109C14.9879 28.4767 14.9644 28.4422 14.9415 28.4071C14.9187 28.3721 14.8965 28.3366 14.8749 28.3007C14.8534 28.2648 14.8325 28.2284 14.8123 28.1917C14.7921 28.155 14.7726 28.1179 14.7538 28.0804C14.7117 27.9942 14.6716 27.907 14.6335 27.8189C14.5954 27.7308 14.5593 27.6419 14.5253 27.552C14.4912 27.4622 14.4592 27.3717 14.4293 27.2803C14.3993 27.189 14.3715 27.097 14.3457 27.0044C14.3199 26.9117 14.2963 26.8185 14.2747 26.7248C14.2532 26.631 14.2338 26.5368 14.2166 26.4421C14.1993 26.3475 14.1842 26.2524 14.1713 26.1571C14.1583 26.0617 14.1476 25.966 14.139 25.8701C14.0927 25.3998 14.0579 24.9286 14.0348 24.4565C14.0116 23.9844 14 23.512 14 23.0393C14 22.5666 14.0116 22.0942 14.0348 21.6221C14.0579 21.15 14.0927 20.6788 14.139 20.2085C14.1474 20.1121 14.1581 20.016 14.1709 19.9201C14.1837 19.8242 14.1987 19.7287 14.2159 19.6335C14.2331 19.5383 14.2525 19.4436 14.2739 19.3494C14.2954 19.2551 14.3191 19.1614 14.3448 19.0682C14.3706 18.9751 14.3985 18.8826 14.4285 18.7908C14.4585 18.699 14.4905 18.6079 14.5246 18.5176C14.5588 18.4273 14.595 18.3379 14.6332 18.2493C14.6714 18.1607 14.7116 18.0731 14.7538 17.9864C14.7731 17.9488 14.793 17.9116 14.8135 17.8748C14.8341 17.838 14.8554 17.8015 14.8772 17.7655C14.8991 17.7294 14.9216 17.6938 14.9447 17.6586C14.9678 17.6234 14.9916 17.5886 15.0159 17.5542C15.0403 17.5198 15.0652 17.4859 15.0907 17.4525C15.1163 17.419 15.1424 17.3861 15.1691 17.3536C15.1958 17.3211 15.2231 17.2891 15.2509 17.2576C15.2787 17.2261 15.3071 17.1951 15.336 17.1647C15.3649 17.1342 15.3943 17.1043 15.4243 17.0749C15.4543 17.0455 15.4847 17.0167 15.5157 16.9884C15.5467 16.9601 15.5782 16.9324 15.6101 16.9053C15.6421 16.8782 15.6745 16.8517 15.7074 16.8257C15.7403 16.7998 15.7736 16.7744 15.8074 16.7497C15.8412 16.725 15.8754 16.7009 15.91 16.6774C15.9446 16.654 15.9797 16.6311 16.0151 16.6089C16.0505 16.5868 16.0863 16.5652 16.1225 16.5443C16.1685 16.5207 16.2148 16.4979 16.2615 16.4758C16.3082 16.4537 16.3552 16.4323 16.4025 16.4118C16.4499 16.3912 16.4976 16.3714 16.5455 16.3524C16.5935 16.3334 16.6418 16.3152 16.6903 16.2977C16.7389 16.2803 16.7877 16.2637 16.8368 16.2479C16.8858 16.232 16.9351 16.217 16.9847 16.2028C17.0342 16.1886 17.084 16.1752 17.1339 16.1626C17.1839 16.15 17.2341 16.1382 17.2844 16.1272C17.3347 16.1163 17.3852 16.1062 17.4359 16.0968C17.4865 16.0875 17.5373 16.0791 17.5882 16.0714C17.6392 16.0638 17.6902 16.057 17.7413 16.051C17.7925 16.045 17.8437 16.0399 17.895 16.0356C17.9463 16.0313 17.9976 16.0278 18.049 16.0252C18.1005 16.0226 18.1519 16.0208 18.2034 16.0198C18.2548 16.0189 18.3063 16.0188 18.3578 16.0195C18.4092 16.0203 18.4607 16.0219 18.5121 16.0243C18.5604 16.022 18.6088 16.0204 18.6571 16.0197C18.7055 16.0189 18.7539 16.0189 18.8022 16.0197C18.8506 16.0204 18.8989 16.022 18.9473 16.0243C18.9956 16.0266 19.0439 16.0297 19.0921 16.0335C19.1403 16.0374 19.1885 16.042 19.2366 16.0474C19.2847 16.0528 19.3327 16.0589 19.3806 16.0659C19.4284 16.0728 19.4762 16.0804 19.5239 16.0889C19.5716 16.0973 19.6191 16.1065 19.6665 16.1165C19.7138 16.1264 19.761 16.1371 19.8081 16.1486C19.8551 16.16 19.902 16.1722 19.9487 16.1852C19.9953 16.1982 20.0418 16.2118 20.0881 16.2263C20.1343 16.2407 20.1804 16.2559 20.2261 16.2718C20.2719 16.2877 20.3175 16.3043 20.3628 16.3217C20.408 16.339 20.453 16.3571 20.4978 16.3759C20.5425 16.3947 20.5869 16.4142 20.631 16.4344C20.6752 16.4546 20.719 16.4755 20.7624 16.4971C21.2705 16.7701 21.6951 17.1791 21.992 17.679C22.2635 18.1636 22.4363 18.6979 22.5024 19.2511C22.5685 19.777 22.6033 20.3054 22.6068 20.8349L19.9389 20.8349C19.9446 20.743 19.9477 20.6509 19.9483 20.5588C19.9489 20.4667 19.9469 20.3746 19.9424 20.2826C19.9379 20.1906 19.9309 20.0988 19.9212 20.0071C19.9117 19.9155 19.8996 19.8243 19.885 19.7334C19.8703 19.6424 19.8532 19.552 19.8336 19.4621C19.8139 19.3721 19.7918 19.2828 19.7673 19.1942C19.7427 19.1055 19.7157 19.0176 19.6863 18.9305C19.6569 18.8434 19.6251 18.7572 19.5909 18.6719ZM24.1032 20.1848C24.1116 20.0885 24.1223 19.9923 24.1351 19.8964C24.1479 19.8005 24.1629 19.705 24.1801 19.6098C24.1973 19.5147 24.2166 19.42 24.2381 19.3257C24.2596 19.2315 24.2833 19.1377 24.309 19.0446C24.3348 18.9515 24.3627 18.859 24.3927 18.7672C24.4226 18.6753 24.4547 18.5843 24.4888 18.494C24.523 18.4037 24.5592 18.3142 24.5974 18.2256C24.6356 18.1371 24.6758 18.0494 24.718 17.9627C24.7373 17.9252 24.7572 17.888 24.7777 17.8512C24.7983 17.8143 24.8196 17.7779 24.8414 17.7418C24.8633 17.7058 24.8858 17.6702 24.9089 17.6349C24.932 17.5997 24.9558 17.5649 24.9801 17.5306C25.0044 17.4962 25.0294 17.4623 25.0549 17.4289C25.0805 17.3954 25.1066 17.3624 25.1333 17.3299C25.16 17.2974 25.1873 17.2654 25.2151 17.2339C25.2429 17.2025 25.2713 17.1715 25.3002 17.141C25.3291 17.1106 25.3585 17.0806 25.3885 17.0513C25.4185 17.0219 25.4489 16.993 25.4799 16.9648C25.5109 16.9365 25.5424 16.9088 25.5743 16.8817C25.6063 16.8545 25.6387 16.828 25.6716 16.8021C25.7045 16.7761 25.7378 16.7508 25.7716 16.7261C25.8054 16.7014 25.8396 16.6773 25.8742 16.6538C25.9088 16.6303 25.9439 16.6075 25.9793 16.5853C26.0148 16.5631 26.0506 16.5416 26.0867 16.5207C26.1337 16.4993 26.1809 16.4786 26.2283 16.4585C26.2758 16.4383 26.3235 16.4189 26.3715 16.4C26.4194 16.3812 26.4677 16.363 26.5161 16.3455C26.5645 16.3279 26.6132 16.311 26.6621 16.2948C26.711 16.2785 26.76 16.263 26.8093 16.248C26.8586 16.2331 26.908 16.2188 26.9577 16.2052C27.0073 16.1916 27.0571 16.1787 27.1071 16.1664C27.1571 16.1541 27.2072 16.1425 27.2575 16.1316C27.3078 16.1207 27.3582 16.1104 27.4087 16.1008C27.4593 16.0913 27.5099 16.0824 27.5606 16.0741C27.6114 16.0659 27.6623 16.0584 27.7132 16.0515C27.7642 16.0447 27.8153 16.0385 27.8664 16.033C27.9175 16.0275 27.9687 16.0227 28.02 16.0185C28.0712 16.0144 28.1225 16.011 28.1738 16.0082C28.2252 16.0055 28.2765 16.0034 28.3279 16.002C28.3793 16.0007 28.4307 16 28.4821 16C28.5335 16 28.5849 16.0007 28.6363 16.002C28.6877 16.0034 28.739 16.0055 28.7904 16.0082C28.8417 16.011 28.893 16.0144 28.9442 16.0185C28.9955 16.0227 29.0467 16.0275 29.0978 16.033C29.1489 16.0385 29.2 16.0447 29.2509 16.0515C29.3019 16.0584 29.3528 16.0659 29.4036 16.0741C29.4543 16.0824 29.5049 16.0913 29.5555 16.1008C29.606 16.1104 29.6565 16.1207 29.7067 16.1316C29.757 16.1425 29.8071 16.1541 29.8571 16.1664C29.9071 16.1787 29.9569 16.1916 30.0065 16.2052C30.0561 16.2188 30.1056 16.2331 30.1549 16.248C30.2042 16.263 30.2532 16.2785 30.3021 16.2948C30.351 16.311 30.3996 16.3279 30.4481 16.3455C30.4965 16.363 30.5448 16.3812 30.5927 16.4C30.6407 16.4189 30.6884 16.4383 30.7359 16.4585C30.7833 16.4786 30.8305 16.4993 30.8774 16.5207C30.9137 16.5416 30.9495 16.5631 30.9849 16.5853C31.0203 16.6075 31.0554 16.6303 31.09 16.6538C31.1246 16.6773 31.1588 16.7014 31.1926 16.7261C31.2263 16.7508 31.2597 16.7761 31.2926 16.8021C31.3255 16.828 31.3579 16.8545 31.3899 16.8817C31.4218 16.9088 31.4533 16.9365 31.4843 16.9648C31.5153 16.993 31.5457 17.0219 31.5757 17.0513C31.6057 17.0806 31.6351 17.1106 31.664 17.141C31.6929 17.1715 31.7213 17.2025 31.7491 17.2339C31.7769 17.2654 31.8042 17.2974 31.8309 17.3299C31.8576 17.3624 31.8837 17.3954 31.9092 17.4289C31.9348 17.4623 31.9597 17.4962 31.9841 17.5306C32.0084 17.5649 32.0321 17.5997 32.0553 17.6349C32.0784 17.6702 32.1009 17.7058 32.1228 17.7418C32.1446 17.7779 32.1659 17.8143 32.1864 17.8512C32.207 17.888 32.2269 17.9252 32.2462 17.9627C32.2884 18.0494 32.3285 18.1371 32.3667 18.2257C32.4049 18.3143 32.441 18.4038 32.4751 18.4941C32.5092 18.5844 32.5412 18.6754 32.5712 18.7673C32.6011 18.8591 32.629 18.9516 32.6548 19.0447C32.6805 19.1379 32.7042 19.2316 32.7257 19.3258C32.7472 19.4201 32.7665 19.5148 32.7838 19.6099C32.801 19.7051 32.8161 19.8006 32.8289 19.8965C32.8418 19.9923 32.8525 20.0885 32.861 20.1848C32.9073 20.6551 32.9421 21.1264 32.9652 21.5985C32.9884 22.0706 33 22.543 33 23.0157C33 23.4883 32.9884 23.9608 32.9652 24.4329C32.9421 24.9049 32.9073 25.3762 32.861 25.8465C32.8523 25.9424 32.8415 26.038 32.8285 26.1334C32.8156 26.2288 32.8004 26.3238 32.7831 26.4184C32.7658 26.5131 32.7464 26.6073 32.7249 26.701C32.7033 26.7948 32.6797 26.888 32.6539 26.9806C32.6281 27.0732 32.6003 27.1652 32.5704 27.2566C32.5404 27.3479 32.5084 27.4385 32.4744 27.5283C32.4404 27.6181 32.4043 27.7071 32.3663 27.7952C32.3283 27.8833 32.2882 27.9706 32.2462 28.0568C32.2274 28.0943 32.208 28.1314 32.1878 28.1682C32.1676 28.2049 32.1468 28.2412 32.1253 28.2772C32.1038 28.3131 32.0816 28.3486 32.0587 28.3837C32.0358 28.4187 32.0123 28.4534 31.9882 28.4875C31.964 28.5217 31.9393 28.5553 31.9139 28.5885C31.8884 28.6218 31.8624 28.6544 31.8358 28.6866C31.8091 28.7188 31.7819 28.7504 31.7541 28.7815C31.7263 28.8127 31.6978 28.8432 31.6689 28.8733C31.6399 28.9033 31.6104 28.9327 31.5803 28.9616C31.5503 28.9905 31.5197 29.0187 31.4885 29.0464C31.4574 29.0741 31.4258 29.1012 31.3936 29.1276C31.3615 29.154 31.3289 29.1799 31.2958 29.2051C31.2627 29.2302 31.2291 29.2547 31.1951 29.2786C31.161 29.3025 31.1266 29.3257 31.0916 29.3483C31.0567 29.3708 31.0215 29.3926 30.9858 29.4138C30.9501 29.435 30.914 29.4554 30.8774 29.4752C30.8302 29.4954 30.7827 29.515 30.735 29.5341C30.6872 29.5531 30.6393 29.5715 30.5912 29.5893C30.543 29.6072 30.4946 29.6243 30.446 29.6409C30.3974 29.6575 30.3486 29.6735 30.2996 29.6888C30.2507 29.7042 30.2015 29.7189 30.1521 29.733C30.1028 29.7471 30.0533 29.7606 30.0036 29.7734C29.954 29.7863 29.9042 29.7985 29.8542 29.8101C29.8042 29.8217 29.7541 29.8327 29.7039 29.843C29.6536 29.8533 29.6033 29.863 29.5528 29.872C29.5023 29.8811 29.4518 29.8895 29.4011 29.8972C29.3504 29.905 29.2996 29.9121 29.2488 29.9186C29.1979 29.925 29.147 29.9309 29.096 29.9361C29.045 29.9413 28.994 29.9458 28.9429 29.9497C28.8918 29.9536 28.8406 29.9568 28.7894 29.9594C28.7382 29.962 28.687 29.964 28.6358 29.9653C28.5846 29.9665 28.5334 29.9672 28.4821 29.9672C28.4308 29.9672 28.3796 29.9665 28.3284 29.9653C28.2771 29.964 28.2259 29.962 28.1747 29.9594C28.1236 29.9568 28.0724 29.9536 28.0213 29.9497C27.9702 29.9458 27.9192 29.9413 27.8682 29.9361C27.8172 29.9309 27.7663 29.925 27.7154 29.9186C27.6646 29.9121 27.6138 29.905 27.5631 29.8972C27.5124 29.8895 27.4619 29.8811 27.4114 29.872C27.3609 29.863 27.3106 29.8533 27.2603 29.843C27.2101 29.8327 27.16 29.8217 27.11 29.8101C27.06 29.7985 27.0102 29.7863 26.9606 29.7734C26.9109 29.7606 26.8614 29.7471 26.812 29.733C26.7627 29.7189 26.7135 29.7042 26.6646 29.6888C26.6156 29.6735 26.5668 29.6575 26.5182 29.6409C26.4696 29.6243 26.4212 29.6072 26.373 29.5893C26.3249 29.5715 26.2769 29.5531 26.2292 29.5341C26.1815 29.515 26.134 29.4954 26.0867 29.4752C26.0503 29.4554 26.0142 29.4349 25.9785 29.4137C25.9428 29.3925 25.9076 29.3706 25.8727 29.348C25.8378 29.3255 25.8034 29.3023 25.7693 29.2784C25.7353 29.2545 25.7018 29.2299 25.6687 29.2047C25.6356 29.1795 25.603 29.1537 25.5709 29.1272C25.5387 29.1008 25.5071 29.0737 25.476 29.046C25.4449 29.0183 25.4143 28.99 25.3842 28.9612C25.3542 28.9323 25.3247 28.9029 25.2957 28.8728C25.2668 28.8429 25.2383 28.8123 25.2105 28.7812C25.1827 28.75 25.1555 28.7184 25.1288 28.6862C25.1022 28.6541 25.0761 28.6214 25.0507 28.5882C25.0253 28.555 25.0005 28.5214 24.9763 28.4873C24.9521 28.4531 24.9287 28.4185 24.9058 28.3835C24.8829 28.3484 24.8607 28.313 24.8391 28.277C24.8175 28.2411 24.7967 28.2048 24.7765 28.1681C24.7563 28.1314 24.7368 28.0943 24.718 28.0568C24.6759 27.9706 24.6358 27.8834 24.5977 27.7953C24.5596 27.7072 24.5235 27.6182 24.4895 27.5284C24.4554 27.4386 24.4234 27.348 24.3935 27.2567C24.3635 27.1653 24.3357 27.0734 24.3099 26.9807C24.2841 26.8881 24.2605 26.7949 24.2389 26.7011C24.2174 26.6074 24.198 26.5132 24.1808 26.4185C24.1635 26.3238 24.1484 26.2288 24.1355 26.1334C24.1225 26.038 24.1118 25.9424 24.1032 25.8465C24.0569 25.3762 24.0221 24.9049 23.999 24.4329C23.9758 23.9608 23.9642 23.4883 23.9642 23.0157C23.9642 22.543 23.9758 22.0706 23.999 21.5985C24.0221 21.1264 24.0569 20.6551 24.1032 20.1848ZM26.7015 25.3264C26.7247 25.8524 26.8106 26.3713 26.9567 26.8748C27.0495 27.2176 27.2432 27.5249 27.5135 27.7495C27.5314 27.7606 27.5495 27.7715 27.5677 27.782C27.586 27.7926 27.6044 27.8028 27.623 27.8127C27.6416 27.8225 27.6604 27.8321 27.6793 27.8413C27.6982 27.8505 27.7173 27.8594 27.7365 27.868C27.7558 27.8766 27.7751 27.8848 27.7946 27.8927C27.8141 27.9005 27.8337 27.9081 27.8535 27.9153C27.8733 27.9225 27.8931 27.9293 27.9131 27.9358C27.9331 27.9423 27.9532 27.9485 27.9734 27.9543C27.9936 27.9601 28.0138 27.9655 28.0342 27.9706C28.0546 27.9757 28.0751 27.9804 28.0956 27.9848C28.1161 27.9892 28.1367 27.9932 28.1574 27.9968C28.1781 28.0005 28.1988 28.0038 28.2196 28.0067C28.2403 28.0096 28.2612 28.0122 28.282 28.0144C28.3029 28.0166 28.3238 28.0184 28.3447 28.0199C28.3657 28.0213 28.3866 28.0225 28.4076 28.0232C28.4286 28.0239 28.4495 28.0243 28.4705 28.0243C28.4915 28.0243 28.5124 28.0239 28.5334 28.0232C28.5544 28.0225 28.5753 28.0213 28.5962 28.0199C28.6172 28.0184 28.6381 28.0166 28.659 28.0144C28.6798 28.0122 28.7006 28.0096 28.7214 28.0067C28.7422 28.0038 28.7629 28.0005 28.7836 27.9968C28.8043 27.9932 28.8249 27.9892 28.8454 27.9848C28.8659 27.9804 28.8864 27.9757 28.9068 27.9706C28.9271 27.9655 28.9474 27.9601 28.9676 27.9543C28.9878 27.9485 29.0079 27.9423 29.0279 27.9358C29.0479 27.9293 29.0677 27.9225 29.0875 27.9153C29.1073 27.9081 29.1269 27.9005 29.1464 27.8927C29.1659 27.8848 29.1852 27.8766 29.2045 27.868C29.2237 27.8594 29.2428 27.8505 29.2617 27.8413C29.2806 27.8321 29.2994 27.8225 29.318 27.8127C29.3366 27.8028 29.355 27.7926 29.3732 27.782C29.3915 27.7715 29.4096 27.7606 29.4275 27.7495C29.6966 27.5249 29.8915 27.2176 29.9843 26.8748C30.1316 26.3725 30.2163 25.8524 30.2395 25.3264C30.2859 24.6882 30.3091 23.901 30.3091 22.9625C30.3091 22.0252 30.2859 21.2368 30.2395 20.5985C30.2336 20.4675 30.2238 20.3367 30.2102 20.2063C30.1965 20.0758 30.1791 19.9458 30.1577 19.8165C30.1364 19.6871 30.1113 19.5585 30.0824 19.4307C30.0534 19.3028 30.0207 19.176 29.9843 19.0501C29.9728 19.0076 29.9597 18.9655 29.945 18.924C29.9304 18.8824 29.9142 18.8415 29.8964 18.8012C29.8787 18.761 29.8594 18.7214 29.8387 18.6826C29.818 18.6439 29.7958 18.606 29.7722 18.5689C29.7486 18.5319 29.7237 18.4958 29.6974 18.4607C29.6711 18.4256 29.6436 18.3916 29.6147 18.3587C29.5858 18.3258 29.5558 18.294 29.5246 18.2634C29.4933 18.2328 29.4609 18.2035 29.4275 18.1755C29.4096 18.1643 29.3915 18.1535 29.3732 18.1429C29.355 18.1324 29.3366 18.1222 29.318 18.1123C29.2994 18.1024 29.2806 18.0929 29.2617 18.0836C29.2428 18.0744 29.2237 18.0655 29.2045 18.057C29.1852 18.0484 29.1659 18.0402 29.1464 18.0323C29.1269 18.0244 29.1073 18.0169 29.0875 18.0097C29.0677 18.0025 29.0479 17.9956 29.0279 17.9891C29.0079 17.9826 28.9878 17.9765 28.9676 17.9707C28.9474 17.9649 28.9271 17.9594 28.9068 17.9544C28.8864 17.9493 28.8659 17.9445 28.8454 17.9401C28.8249 17.9358 28.8043 17.9318 28.7836 17.9281C28.7629 17.9245 28.7422 17.9212 28.7214 17.9182C28.7006 17.9153 28.6798 17.9127 28.659 17.9106C28.6381 17.9084 28.6172 17.9065 28.5962 17.9051C28.5753 17.9036 28.5544 17.9025 28.5334 17.9018C28.5124 17.901 28.4915 17.9007 28.4705 17.9007C28.4495 17.9007 28.4286 17.901 28.4076 17.9018C28.3866 17.9025 28.3657 17.9036 28.3447 17.9051C28.3238 17.9065 28.3029 17.9084 28.282 17.9106C28.2612 17.9127 28.2403 17.9153 28.2196 17.9182C28.1988 17.9212 28.1781 17.9245 28.1574 17.9281C28.1367 17.9318 28.1161 17.9358 28.0956 17.9401C28.0751 17.9445 28.0546 17.9493 28.0342 17.9544C28.0138 17.9594 27.9936 17.9649 27.9734 17.9707C27.9532 17.9765 27.9331 17.9826 27.9131 17.9891C27.8931 17.9956 27.8733 18.0025 27.8535 18.0097C27.8337 18.0169 27.8141 18.0244 27.7946 18.0323C27.7751 18.0402 27.7558 18.0484 27.7365 18.057C27.7173 18.0655 27.6982 18.0744 27.6793 18.0836C27.6604 18.0929 27.6416 18.1024 27.623 18.1123C27.6044 18.1222 27.586 18.1324 27.5677 18.1429C27.5495 18.1535 27.5314 18.1643 27.5135 18.1755C27.2432 18.4024 27.0495 18.7074 26.9567 19.0501C26.9204 19.176 26.8878 19.3028 26.859 19.4307C26.8301 19.5585 26.805 19.6872 26.7837 19.8165C26.7623 19.9459 26.7448 20.0758 26.7311 20.2063C26.7174 20.3367 26.7076 20.4675 26.7015 20.5985C26.6551 21.2297 26.6319 22.0169 26.6319 22.9625C26.6319 23.9081 26.6551 24.6964 26.7015 25.3264Z"   fill="url(#linear_fill_u_DAeNy7e6x1oYDEdzVBt)" >
</path>
<defs>
<linearGradient id="linear_border_2_476_0" x1="39.40498" y1="40.35534" x2="5.206740000000001" y2="8.421680000000006" gradientUnits="userSpaceOnUse">
<stop offset="0" stop-color="#3B86E2" stop-opacity="0.19" />
<stop offset="1" stop-color="#56CDFC"  />
</linearGradient>
<linearGradient id="linear_border_2_477_0" x1="35.83868" y1="36.582440000000005" x2="9.07484" y2="11.590880000000004" gradientUnits="userSpaceOnUse">
<stop offset="0" stop-color="#3B86E2" stop-opacity="0" />
<stop offset="1" stop-color="#56CDFC"  />
</linearGradient>
<linearGradient id="linear_fill_u_DAeNy7e6x1oYDEdzVBt" x1="29.275390625" y1="30" x2="18.1094970703125" y2="16" gradientUnits="userSpaceOnUse">
<stop offset="0" stop-color="#007CAD"  />
<stop offset="1" stop-color="#28DAFA"  />
</linearGradient>
</defs>
</svg>
