<svg xmlns="http://www.w3.org/2000/svg" xmlns:xlink="http://www.w3.org/1999/xlink" width="46" height="46" viewBox="0 0 46 46" fill="none">
<path fill-rule="evenodd"  fill="url(#linear_border_2_459_0)"  d="M23 46C35.7025 46 46 35.7025 46 23C46 10.2974 35.7025 0 23 0C10.2974 0 0 10.2974 0 23C0 35.7025 10.2974 46 23 46ZM23 2C34.598 2 44 11.402 44 23C44 34.598 34.598 44 23 44C11.402 44 2 34.598 2 23C2 11.402 11.402 2 23 2Z">
</path>
<g opacity="0.2">
<path fill-rule="evenodd"  fill="url(#linear_border_2_460_0)"  d="M23 40.9999C32.9411 40.9999 41 32.9411 41 23C41 13.0589 32.9411 5 23 5C13.0589 5 5 13.0589 5 23C5 32.9411 13.0589 40.9999 23 40.9999ZM23 5.6C32.6097 5.6 40.4 13.3902 40.4 23C40.4 32.6097 32.6097 40.3999 23 40.3999C13.3902 40.3999 5.6 32.6097 5.6 23C5.6 13.3902 13.3902 5.6 23 5.6Z">
</path>
</g>
<g  clip-path="url(#clip-path-eAwtGrmvVYV15-hbZ1iJ7)">
<path d="M32.5806 13.2662C32.5796 13.2465 32.5791 13.2267 32.5791 13.207C32.5791 13.1872 32.5796 13.1675 32.5806 13.1477C32.5816 13.128 32.583 13.1083 32.585 13.0887C32.5869 13.069 32.5893 13.0494 32.5922 13.0298C32.5951 13.0103 32.5985 12.9908 32.6024 12.9715C32.6063 12.9521 32.6106 12.9328 32.6154 12.9137C32.6202 12.8945 32.6255 12.8755 32.6312 12.8566C32.637 12.8377 32.6432 12.8189 32.6499 12.8003C32.6566 12.7817 32.6637 12.7633 32.6713 12.745C32.6789 12.7268 32.6869 12.7087 32.6953 12.6909C32.7038 12.673 32.7127 12.6554 32.7221 12.6379C32.7314 12.6205 32.7412 12.6033 32.7513 12.5864C32.7615 12.5694 32.7721 12.5528 32.7831 12.5363C32.7941 12.5199 32.8055 12.5038 32.8174 12.4879C32.8291 12.472 32.8413 12.4565 32.8539 12.4412Q32.8727 12.4183 32.8927 12.3963C32.906 12.3817 32.9196 12.3674 32.9337 12.3534C32.9477 12.3394 32.962 12.3258 32.9767 12.3126C32.9914 12.2993 33.0064 12.2864 33.0217 12.2739C33.037 12.2613 33.0526 12.2492 33.0685 12.2374C33.0844 12.2256 33.1006 12.2143 33.1171 12.2033C33.1336 12.1923 33.1503 12.1817 33.1673 12.1716C33.1843 12.1614 33.2015 12.1517 33.219 12.1424C33.2365 12.1331 33.2541 12.1242 33.272 12.1158C33.29 12.1073 33.3081 12.0993 33.3264 12.0917C33.3447 12.0842 33.3631 12.0771 33.3818 12.0704C33.4004 12.0638 33.4193 12.0576 33.4382 12.0518C33.4572 12.0461 33.4762 12.0408 33.4955 12.036C33.5147 12.0312 33.534 12.0269 33.5534 12.0231C33.5729 12.0192 33.5924 12.0158 33.612 12.0129C33.6316 12.01 33.6512 12.0076 33.671 12.0057C33.6907 12.0037 33.7104 12.0023 33.7302 12.0013C33.75 12.0003 33.7698 11.9999 33.7896 11.9999C33.8094 11.9999 33.8292 12.0003 33.849 12.0013C33.8688 12.0023 33.8885 12.0037 33.9082 12.0057C33.928 12.0076 33.9476 12.01 33.9672 12.0129C33.9868 12.0158 34.0063 12.0192 34.0257 12.0231C34.0452 12.0269 34.0645 12.0312 34.0837 12.036C34.1029 12.0408 34.122 12.0461 34.141 12.0518C34.1599 12.0576 34.1787 12.0638 34.1974 12.0704C34.216 12.0771 34.2345 12.0842 34.2528 12.0917C34.2711 12.0993 34.2892 12.1073 34.3071 12.1158C34.325 12.1242 34.3428 12.1331 34.3603 12.1424C34.3777 12.1517 34.3949 12.1614 34.4119 12.1716C34.4289 12.1817 34.4456 12.1923 34.4621 12.2033C34.4786 12.2143 34.4948 12.2256 34.5107 12.2374C34.5266 12.2492 34.5421 12.2613 34.5574 12.2739C34.5728 12.2864 34.5878 12.2993 34.6024 12.3126C34.6171 12.3258 34.6314 12.3394 34.6454 12.3534C34.6594 12.3674 34.6731 12.3817 34.6865 12.3963C34.6997 12.411 34.7127 12.4259 34.7253 12.4412C34.7379 12.4565 34.7501 12.472 34.7619 12.4879C34.7736 12.5038 34.785 12.5199 34.796 12.5363C34.8071 12.5528 34.8177 12.5694 34.8278 12.5864C34.8381 12.6033 34.8479 12.6205 34.8572 12.6379C34.8665 12.6554 34.8754 12.673 34.8838 12.6909C34.8922 12.7087 34.9002 12.7268 34.9079 12.745C34.9155 12.7633 34.9226 12.7817 34.9293 12.8003C34.9361 12.8189 34.9423 12.8377 34.948 12.8566C34.9538 12.8755 34.959 12.8945 34.9637 12.9137C34.9685 12.9328 34.9728 12.9521 34.9767 12.9715C34.9806 12.9908 34.9841 13.0103 34.987 13.0298C34.9898 13.0494 34.9922 13.069 34.9943 13.0887C34.9961 13.1083 34.9976 13.128 34.9987 13.1477C34.9996 13.1675 35.0001 13.1872 35.0001 13.207C35.0001 13.2267 34.9996 13.2465 34.9987 13.2662C34.9976 13.2859 34.9961 13.3056 34.9943 13.3253C34.9922 13.3449 34.9898 13.3645 34.987 13.3841C34.9841 13.4036 34.9806 13.4231 34.9767 13.4425C34.9728 13.4618 34.9685 13.4811 34.9637 13.5003C34.959 13.5194 34.9538 13.5385 34.948 13.5574C34.9423 13.5763 34.9361 13.595 34.9293 13.6136C34.9226 13.6322 34.9155 13.6507 34.9079 13.6689C34.9002 13.6872 34.8922 13.7052 34.8838 13.7231C34.8754 13.7409 34.8665 13.7586 34.8572 13.776Q34.8432 13.8021 34.8278 13.8275C34.8177 13.8445 34.8071 13.8612 34.796 13.8776C34.785 13.894 34.7736 13.9102 34.7619 13.926C34.7501 13.9419 34.7379 13.9575 34.7253 13.9728C34.7127 13.988 34.6997 14.003 34.6865 14.0176C34.6731 14.0323 34.6594 14.0466 34.6454 14.0605C34.6314 14.0745 34.6171 14.0881 34.6024 14.1014C34.5878 14.1147 34.5728 14.1276 34.5574 14.1401C34.5421 14.1526 34.5266 14.1648 34.5107 14.1765C34.4948 14.1883 34.4786 14.1997 34.4621 14.2106C34.4456 14.2216 34.4289 14.2322 34.4119 14.2424C34.3949 14.2525 34.3777 14.2622 34.3603 14.2716C34.3428 14.2809 34.325 14.2897 34.3071 14.2982C34.2892 14.3066 34.2711 14.3146 34.2528 14.3222C34.2345 14.3298 34.216 14.3369 34.1974 14.3435C34.1787 14.3502 34.1599 14.3564 34.141 14.3621C34.122 14.3678 34.1029 14.3731 34.0837 14.3779C34.0645 14.3827 34.0452 14.387 34.0257 14.3909C34.0063 14.3947 33.9868 14.3981 33.9672 14.401C33.9476 14.4039 33.928 14.4063 33.9082 14.4083C33.8885 14.4102 33.8688 14.4117 33.849 14.4126C33.8292 14.4136 33.8094 14.4141 33.7896 14.4141C33.7698 14.4141 33.75 14.4136 33.7302 14.4126C33.7104 14.4117 33.6907 14.4102 33.671 14.4083C33.6512 14.4063 33.6316 14.4039 33.612 14.401C33.5924 14.3981 33.5729 14.3947 33.5534 14.3909C33.534 14.387 33.5147 14.3827 33.4955 14.3779C33.4762 14.3731 33.4572 14.3678 33.4382 14.3621C33.4193 14.3564 33.4004 14.3502 33.3818 14.3435C33.3631 14.3369 33.3447 14.3298 33.3264 14.3222C33.3081 14.3146 33.29 14.3066 33.272 14.2982C33.2541 14.2897 33.2365 14.2809 33.219 14.2716C33.2015 14.2622 33.1843 14.2525 33.1673 14.2424C33.1503 14.2322 33.1336 14.2216 33.1171 14.2106C33.1006 14.1997 33.0844 14.1883 33.0685 14.1765C33.0526 14.1648 33.037 14.1526 33.0217 14.1401C33.0064 14.1276 32.9914 14.1147 32.9767 14.1014C32.962 14.0881 32.9477 14.0745 32.9337 14.0605C32.9197 14.0466 32.906 14.0323 32.8927 14.0176C32.8794 14.003 32.8665 13.988 32.8539 13.9728C32.8413 13.9575 32.8291 13.9419 32.8174 13.926C32.8055 13.9102 32.7941 13.894 32.7831 13.8776C32.7721 13.8612 32.7615 13.8445 32.7513 13.8275Q32.7361 13.8021 32.7221 13.776C32.7127 13.7586 32.7038 13.7409 32.6953 13.7231C32.6869 13.7052 32.6789 13.6872 32.6713 13.6689C32.6637 13.6507 32.6566 13.6322 32.6499 13.6136C32.6432 13.595 32.637 13.5763 32.6312 13.5574C32.6255 13.5385 32.6202 13.5194 32.6154 13.5003C32.6106 13.4811 32.6063 13.4618 32.6024 13.4425C32.5985 13.4231 32.5951 13.4036 32.5922 13.3841C32.5893 13.3645 32.5869 13.3449 32.585 13.3253C32.583 13.3056 32.5816 13.2859 32.5806 13.2662ZM17.316 13.6794C17.316 13.6948 17.3164 13.7103 17.3172 13.7257C17.3179 13.7412 17.3191 13.7566 17.3206 13.772C17.3221 13.7874 17.324 13.8027 17.3263 13.818C17.3286 13.8333 17.3312 13.8485 17.3343 13.8637C17.3373 13.8789 17.3407 13.894 17.3444 13.909C17.3482 13.9239 17.3523 13.9389 17.3568 13.9537C17.3613 13.9685 17.3662 13.9831 17.3714 13.9977C17.3766 14.0122 17.3822 14.0267 17.3882 14.041C17.3941 14.0552 17.4004 14.0694 17.407 14.0833C17.4136 14.0973 17.4206 14.1111 17.4279 14.1248C17.4352 14.1384 17.4429 14.1519 17.4508 14.1651C17.4588 14.1784 17.4671 14.1915 17.4757 14.2043C17.4843 14.2172 17.4933 14.2298 17.5025 14.2422C17.5117 14.2546 17.5213 14.2668 17.5311 14.2788C17.5409 14.2907 17.5511 14.3024 17.5615 14.3139C17.5719 14.3253 17.5826 14.3365 17.5935 14.3475C17.6045 14.3584 17.6157 14.3691 17.6272 14.3795C17.6387 14.3898 17.6505 14.3999 17.6624 14.4098C17.6744 14.4196 17.6866 14.4291 17.6991 14.4383C17.7116 14.4475 17.7242 14.4564 17.7371 14.465C17.75 14.4736 17.7631 14.4818 17.7764 14.4898C17.7897 14.4977 17.8032 14.5054 17.8169 14.5126C17.8305 14.5199 17.8444 14.5269 17.8584 14.5335C17.8724 14.5401 17.8866 14.5464 17.9009 14.5523C17.9152 14.5582 17.9297 14.5638 17.9443 14.569C17.9589 14.5742 17.9736 14.579 17.9884 14.5835C18.0033 14.588 18.0182 14.5921 18.0333 14.5959C18.0483 14.5996 18.0634 14.603 18.0786 14.606C18.0939 14.6091 18.1091 14.6117 18.1245 14.614C18.1398 14.6163 18.1552 14.6181 18.1706 14.6197C18.1861 14.6212 18.2015 14.6223 18.217 14.6231C18.2325 14.6238 18.248 14.6242 18.2635 14.6242C18.279 14.6242 18.2945 14.6238 18.31 14.6231C18.3255 14.6223 18.3409 14.6212 18.3563 14.6197C18.3718 14.6181 18.3872 14.6163 18.4025 14.614C18.4178 14.6117 18.4331 14.6091 18.4483 14.606C18.4635 14.603 18.4787 14.5996 18.4937 14.5959C18.5087 14.5921 18.5237 14.588 18.5385 14.5835C18.5534 14.579 18.5681 14.5742 18.5827 14.569C18.5973 14.5638 18.6117 14.5582 18.6261 14.5523C18.6404 14.5464 18.6546 14.5401 18.6686 14.5335C18.6826 14.5269 18.6964 14.5199 18.7101 14.5126C18.7238 14.5054 18.7373 14.4977 18.7506 14.4898C18.7639 14.4818 18.777 14.4736 18.7899 14.465C18.8028 14.4564 18.8154 14.4475 18.8279 14.4383C18.8403 14.4291 18.8526 14.4196 18.8645 14.4098C18.8765 14.3999 18.8883 14.3898 18.8997 14.3795C18.9112 14.3691 18.9225 14.3584 18.9334 14.3475C18.9444 14.3365 18.9551 14.3253 18.9655 14.3139C18.9759 14.3024 18.986 14.2907 18.9959 14.2788C19.0057 14.2668 19.0153 14.2546 19.0245 14.2422C19.0337 14.2298 19.0426 14.2172 19.0513 14.2043C19.0599 14.1915 19.0682 14.1784 19.0761 14.1651C19.0841 14.1519 19.0917 14.1384 19.0991 14.1248C19.1064 14.1111 19.1133 14.0973 19.12 14.0833C19.1266 14.0694 19.1329 14.0552 19.1388 14.041C19.1448 14.0267 19.1503 14.0122 19.1555 13.9977C19.1608 13.9831 19.1656 13.9685 19.1701 13.9537C19.1746 13.9389 19.1788 13.9239 19.1825 13.909C19.1863 13.894 19.1897 13.8789 19.1927 13.8637C19.1958 13.8485 19.1984 13.8333 19.2007 13.818C19.203 13.8027 19.2049 13.7874 19.2064 13.772C19.2079 13.7566 19.209 13.7412 19.2098 13.7257C19.2106 13.7103 19.2109 13.6948 19.2109 13.6794C19.2109 13.6639 19.2106 13.6485 19.2098 13.633C19.209 13.6176 19.2079 13.6022 19.2064 13.5868C19.2049 13.5714 19.203 13.556 19.2007 13.5407C19.1984 13.5255 19.1958 13.5102 19.1927 13.4951C19.1897 13.4799 19.1863 13.4648 19.1825 13.4498C19.1788 13.4348 19.1746 13.4199 19.1701 13.4051C19.1656 13.3903 19.1608 13.3756 19.1555 13.3611C19.1503 13.3465 19.1448 13.3321 19.1388 13.3178C19.1329 13.3035 19.1266 13.2894 19.12 13.2754C19.1133 13.2614 19.1064 13.2476 19.0991 13.234C19.0917 13.2204 19.0841 13.2069 19.0761 13.1936C19.0682 13.1804 19.0599 13.1673 19.0513 13.1545C19.0426 13.1416 19.0337 13.129 19.0245 13.1165C19.0153 13.1041 19.0057 13.0919 18.9959 13.08C18.986 13.068 18.9759 13.0563 18.9655 13.0449C18.9551 13.0334 18.9444 13.0222 18.9334 13.0113C18.9225 13.0004 18.9112 12.9897 18.8997 12.9793C18.8883 12.9689 18.8765 12.9588 18.8645 12.949C18.8526 12.9392 18.8403 12.9297 18.8279 12.9205C18.8154 12.9113 18.8028 12.9024 18.7899 12.8938C18.777 12.8852 18.7639 12.8769 18.7506 12.869C18.7373 12.861 18.7238 12.8534 18.7101 12.8461C18.6964 12.8388 18.6826 12.8319 18.6686 12.8253C18.6546 12.8187 18.6404 12.8124 18.6261 12.8065C18.6117 12.8006 18.5973 12.795 18.5827 12.7898C18.5681 12.7846 18.5534 12.7797 18.5385 12.7752C18.5237 12.7708 18.5087 12.7666 18.4937 12.7629C18.4787 12.7591 18.4635 12.7557 18.4483 12.7527C18.4331 12.7497 18.4178 12.7471 18.4025 12.7448C18.3872 12.7425 18.3718 12.7406 18.3563 12.7391C18.3409 12.7376 18.3255 12.7365 18.31 12.7357C18.2945 12.7349 18.279 12.7346 18.2635 12.7346C18.248 12.7346 18.2325 12.7349 18.217 12.7357C18.2015 12.7365 18.1861 12.7376 18.1706 12.7391C18.1552 12.7406 18.1398 12.7425 18.1245 12.7448C18.1091 12.7471 18.0939 12.7497 18.0786 12.7527C18.0634 12.7557 18.0483 12.7591 18.0333 12.7629C18.0182 12.7666 18.0033 12.7708 17.9884 12.7752C17.9736 12.7797 17.9589 12.7846 17.9443 12.7898C17.9297 12.795 17.9152 12.8006 17.9009 12.8065C17.8866 12.8124 17.8724 12.8187 17.8584 12.8253C17.8444 12.8319 17.8305 12.8388 17.8169 12.8461C17.8032 12.8534 17.7897 12.861 17.7764 12.869C17.7631 12.8769 17.75 12.8852 17.7371 12.8938C17.7242 12.9024 17.7116 12.9113 17.6991 12.9205C17.6866 12.9297 17.6744 12.9392 17.6624 12.949C17.6505 12.9588 17.6387 12.9689 17.6272 12.9793C17.6157 12.9897 17.6045 13.0004 17.5935 13.0113C17.5826 13.0222 17.5719 13.0334 17.5615 13.0449C17.5511 13.0563 17.5409 13.068 17.5311 13.08C17.5213 13.0919 17.5117 13.1041 17.5025 13.1165C17.4933 13.129 17.4843 13.1416 17.4757 13.1545C17.4671 13.1673 17.4588 13.1804 17.4508 13.1936C17.4429 13.2069 17.4352 13.2204 17.4279 13.234C17.4206 13.2476 17.4136 13.2614 17.407 13.2754C17.4004 13.2894 17.3941 13.3035 17.3882 13.3178C17.3822 13.3321 17.3767 13.3465 17.3714 13.3611C17.3662 13.3756 17.3613 13.3903 17.3568 13.4051C17.3523 13.4199 17.3482 13.4348 17.3444 13.4498C17.3407 13.4648 17.3373 13.4799 17.3343 13.4951C17.3312 13.5102 17.3286 13.5255 17.3263 13.5407C17.324 13.556 17.3221 13.5714 17.3206 13.5868C17.3191 13.6022 17.3179 13.6176 17.3172 13.633C17.3164 13.6485 17.316 13.6639 17.316 13.6794ZM11.0031 17.2663C11.0011 17.2251 11.0001 17.1838 11.0001 17.1426C11.0001 17.1014 11.0011 17.0602 11.0031 17.019C11.0052 16.9778 11.0082 16.9367 11.0122 16.8956C11.0163 16.8546 11.0213 16.8137 11.0274 16.7729C11.0334 16.7321 11.0405 16.6914 11.0485 16.651C11.0566 16.6105 11.0656 16.5703 11.0757 16.5303C11.0857 16.4903 11.0967 16.4506 11.1087 16.4111C11.1207 16.3716 11.1337 16.3325 11.1476 16.2936C11.1615 16.2548 11.1764 16.2164 11.1922 16.1782C11.208 16.1401 11.2248 16.1025 11.2424 16.0652C11.2601 16.0279 11.2787 15.9911 11.2982 15.9547C11.3176 15.9183 11.338 15.8824 11.3593 15.8471C11.3805 15.8117 11.4026 15.7768 11.4256 15.7426C11.4486 15.7083 11.4724 15.6746 11.497 15.6414C11.5216 15.6083 11.547 15.5758 11.5733 15.5439Q11.6126 15.4961 11.6543 15.4502C11.682 15.4197 11.7105 15.3898 11.7398 15.3606C11.769 15.3315 11.7989 15.303 11.8296 15.2753C11.8602 15.2476 11.8915 15.2207 11.9235 15.1945C11.9554 15.1684 11.988 15.143 12.0212 15.1184C12.0544 15.0939 12.0882 15.0701 12.1226 15.0472C12.157 15.0243 12.1919 15.0022 12.2274 14.981C12.2629 14.9598 12.2988 14.9395 12.3353 14.92C12.3718 14.9006 12.4087 14.8821 12.4461 14.8644C12.4835 14.8468 12.5212 14.8301 12.5595 14.8143C12.5977 14.7985 12.6362 14.7837 12.6752 14.7698C12.7141 14.7559 12.7533 14.7429 12.7929 14.731C12.8325 14.719 12.8723 14.708 12.9124 14.698C12.9526 14.688 12.9929 14.6789 13.0335 14.6709C13.074 14.6628 13.1147 14.6558 13.1557 14.6497C13.1966 14.6437 13.2376 14.6386 13.2787 14.6346C13.3199 14.6305 13.3611 14.6275 13.4024 14.6255C13.4437 14.6235 13.4851 14.6225 13.5264 14.6225C13.5678 14.6225 13.6091 14.6235 13.6504 14.6255C13.6917 14.6275 13.7329 14.6305 13.7741 14.6346C13.8153 14.6386 13.8563 14.6437 13.8972 14.6497C13.9381 14.6558 13.9788 14.6628 14.0194 14.6709C14.0599 14.6789 14.1003 14.688 14.1404 14.698C14.1805 14.708 14.2203 14.719 14.2599 14.731C14.2995 14.7429 14.3387 14.7559 14.3777 14.7698C14.4166 14.7837 14.4552 14.7985 14.4934 14.8143C14.5316 14.8301 14.5694 14.8468 14.6068 14.8644C14.6442 14.8821 14.6811 14.9006 14.7175 14.92C14.754 14.9395 14.79 14.9598 14.8254 14.981C14.8609 15.0022 14.8958 15.0243 14.9302 15.0472C14.9646 15.0701 14.9984 15.0939 15.0316 15.1184C15.0648 15.143 15.0974 15.1684 15.1294 15.1945C15.1613 15.2207 15.1926 15.2476 15.2233 15.2753C15.2539 15.303 15.2838 15.3315 15.3131 15.3606C15.3423 15.3898 15.3708 15.4197 15.3986 15.4502C15.4263 15.4808 15.4533 15.512 15.4796 15.5439C15.5058 15.5758 15.5312 15.6083 15.5558 15.6414C15.5805 15.6746 15.6043 15.7083 15.6272 15.7426C15.6502 15.7768 15.6723 15.8117 15.6936 15.8471C15.7148 15.8824 15.7352 15.9183 15.7547 15.9547C15.7742 15.9911 15.7927 16.0279 15.8104 16.0652C15.8281 16.1025 15.8448 16.1401 15.8606 16.1782C15.8764 16.2164 15.8913 16.2548 15.9052 16.2936C15.9192 16.3325 15.9321 16.3716 15.9441 16.4111C15.9561 16.4506 15.9671 16.4903 15.9771 16.5303C15.9872 16.5703 15.9963 16.6105 16.0043 16.651C16.0124 16.6914 16.0194 16.7321 16.0255 16.7729C16.0315 16.8137 16.0366 16.8546 16.0406 16.8956C16.0446 16.9367 16.0477 16.9778 16.0497 17.019C16.0517 17.0602 16.0527 17.1014 16.0527 17.1426C16.0527 17.1838 16.0517 17.2251 16.0497 17.2663C16.0477 17.3074 16.0446 17.3485 16.0406 17.3896C16.0366 17.4306 16.0315 17.4716 16.0255 17.5124C16.0194 17.5532 16.0123 17.5938 16.0043 17.6342C15.9962 17.6747 15.9872 17.7149 15.9771 17.7549C15.9671 17.7949 15.9561 17.8346 15.9441 17.8741C15.9321 17.9136 15.9192 17.9527 15.9052 17.9916C15.8913 18.0304 15.8764 18.0689 15.8606 18.107C15.8448 18.1451 15.8281 18.1828 15.8104 18.22C15.7927 18.2573 15.7742 18.2942 15.7547 18.3305C15.7352 18.3669 15.7148 18.4028 15.6936 18.4382Q15.6617 18.4912 15.6272 18.5427C15.6043 18.577 15.5805 18.6107 15.5558 18.6438C15.5312 18.6769 15.5058 18.7094 15.4796 18.7413C15.4533 18.7732 15.4263 18.8044 15.3986 18.835C15.3708 18.8656 15.3423 18.8954 15.3131 18.9246C15.2838 18.9537 15.2539 18.9822 15.2233 19.0099C15.1926 19.0376 15.1613 19.0645 15.1294 19.0907C15.0974 19.1168 15.0648 19.1422 15.0316 19.1668C14.9984 19.1913 14.9646 19.2151 14.9302 19.238C14.8958 19.2609 14.8609 19.283 14.8254 19.3042C14.79 19.3254 14.754 19.3457 14.7175 19.3652C14.6811 19.3846 14.6442 19.4031 14.6068 19.4208C14.5694 19.4384 14.5316 19.4551 14.4934 19.4709C14.4552 19.4867 14.4166 19.5015 14.3777 19.5154C14.3387 19.5293 14.2995 19.5423 14.2599 19.5542C14.2203 19.5662 14.1805 19.5772 14.1404 19.5872C14.1003 19.5973 14.0599 19.6063 14.0194 19.6143C13.9788 19.6224 13.9381 19.6294 13.8972 19.6355C13.8563 19.6415 13.8153 19.6466 13.7741 19.6506C13.7329 19.6547 13.6917 19.6577 13.6504 19.6597C13.6091 19.6618 13.5678 19.6628 13.5264 19.6628C13.4851 19.6628 13.4437 19.6618 13.4024 19.6597C13.3611 19.6577 13.3199 19.6547 13.2787 19.6506C13.2376 19.6466 13.1966 19.6415 13.1557 19.6355C13.1147 19.6294 13.074 19.6224 13.0335 19.6143C12.9929 19.6063 12.9526 19.5973 12.9124 19.5872C12.8723 19.5772 12.8325 19.5662 12.7929 19.5542C12.7533 19.5423 12.7141 19.5293 12.6752 19.5154C12.6362 19.5015 12.5977 19.4867 12.5595 19.4709C12.5212 19.4551 12.4835 19.4384 12.4461 19.4208C12.4087 19.4031 12.3718 19.3846 12.3353 19.3652C12.2988 19.3457 12.2629 19.3254 12.2274 19.3042C12.1919 19.283 12.157 19.2609 12.1226 19.238C12.0882 19.2151 12.0544 19.1913 12.0212 19.1668C11.988 19.1422 11.9554 19.1168 11.9235 19.0907C11.8915 19.0645 11.8602 19.0376 11.8296 19.0099C11.7989 18.9822 11.769 18.9537 11.7398 18.9246C11.7105 18.8954 11.682 18.8656 11.6543 18.835C11.6265 18.8044 11.5995 18.7732 11.5733 18.7413C11.547 18.7094 11.5216 18.6769 11.497 18.6438C11.4724 18.6107 11.4486 18.577 11.4256 18.5427Q11.3911 18.4912 11.3593 18.4382C11.338 18.4028 11.3176 18.3669 11.2982 18.3305C11.2787 18.2942 11.2601 18.2573 11.2424 18.22C11.2248 18.1828 11.208 18.1451 11.1922 18.107C11.1764 18.0689 11.1615 18.0304 11.1476 17.9916C11.1337 17.9527 11.1207 17.9136 11.1087 17.8741C11.0967 17.8346 11.0857 17.7949 11.0757 17.7549C11.0656 17.7149 11.0566 17.6747 11.0485 17.6342C11.0405 17.5938 11.0334 17.5532 11.0274 17.5124C11.0213 17.4716 11.0163 17.4306 11.0122 17.3896C11.0082 17.3485 11.0052 17.3074 11.0031 17.2663ZM28.9935 16.644C28.9919 16.6126 28.9911 16.581 28.9911 16.5495C28.9911 16.518 28.9919 16.4865 28.9935 16.455C28.995 16.4235 28.9973 16.3921 29.0004 16.3607C29.0035 16.3293 29.0074 16.2981 29.012 16.2669C29.0167 16.2357 29.0221 16.2047 29.0282 16.1737C29.0344 16.1428 29.0413 16.1121 29.049 16.0815C29.0567 16.0509 29.0651 16.0206 29.0743 15.9904C29.0835 15.9602 29.0934 15.9303 29.104 15.9006C29.1147 15.8709 29.1261 15.8415 29.1382 15.8124C29.1503 15.7833 29.1631 15.7545 29.1766 15.726C29.1901 15.6975 29.2043 15.6693 29.2192 15.6415C29.2341 15.6137 29.2497 15.5863 29.2659 15.5593C29.2822 15.5322 29.2991 15.5056 29.3167 15.4794C29.3342 15.4532 29.3524 15.4274 29.3712 15.4021C29.3901 15.3768 29.4095 15.3519 29.4296 15.3276C29.4496 15.3032 29.4703 15.2793 29.4915 15.256C29.5127 15.2326 29.5345 15.2098 29.5569 15.1875C29.5792 15.1652 29.6021 15.1435 29.6255 15.1223C29.6489 15.1012 29.6729 15.0806 29.6973 15.0606C29.7217 15.0406 29.7467 15.0212 29.772 15.0024C29.7974 14.9836 29.8233 14.9655 29.8495 14.948C29.8758 14.9305 29.9025 14.9136 29.9296 14.8974C29.9568 14.8812 29.9843 14.8657 30.0121 14.8508C30.04 14.8359 30.0682 14.8218 30.0968 14.8083C30.1254 14.7948 30.1543 14.782 30.1835 14.77C30.2127 14.7579 30.2422 14.7466 30.2719 14.7359C30.3017 14.7253 30.3317 14.7154 30.362 14.7063C30.3922 14.6971 30.4227 14.6887 30.4533 14.6811C30.484 14.6734 30.5148 14.6665 30.5458 14.6604C30.5768 14.6542 30.608 14.6488 30.6392 14.6442C30.6705 14.6396 30.7019 14.6357 30.7333 14.6326C30.7648 14.6295 30.7963 14.6272 30.8279 14.6257C30.8594 14.6241 30.891 14.6234 30.9226 14.6234C30.9543 14.6234 30.9858 14.6241 31.0174 14.6257C31.049 14.6272 31.0805 14.6295 31.112 14.6326C31.1434 14.6357 31.1748 14.6396 31.2061 14.6442C31.2373 14.6488 31.2685 14.6542 31.2995 14.6604C31.3305 14.6665 31.3613 14.6734 31.3919 14.6811C31.4226 14.6887 31.4531 14.6971 31.4833 14.7063C31.5136 14.7154 31.5436 14.7253 31.5734 14.7359C31.6031 14.7466 31.6326 14.7579 31.6618 14.77C31.691 14.782 31.7199 14.7948 31.7485 14.8083C31.777 14.8218 31.8053 14.8359 31.8331 14.8508C31.861 14.8657 31.8885 14.8812 31.9156 14.8974C31.9427 14.9136 31.9694 14.9305 31.9957 14.948C32.022 14.9655 32.0478 14.9836 32.0732 15.0024C32.0986 15.0212 32.1235 15.0406 32.148 15.0606C32.1724 15.0806 32.1963 15.1012 32.2197 15.1223C32.2432 15.1435 32.2661 15.1652 32.2884 15.1875C32.3108 15.2098 32.3326 15.2326 32.3538 15.256C32.375 15.2793 32.3956 15.3032 32.4157 15.3276C32.4358 15.3519 32.4552 15.3768 32.474 15.4021C32.4929 15.4274 32.5111 15.4532 32.5286 15.4794C32.5462 15.5056 32.5631 15.5322 32.5793 15.5593C32.5956 15.5863 32.6112 15.6137 32.6261 15.6415C32.641 15.6693 32.6552 15.6975 32.6687 15.726C32.6822 15.7545 32.695 15.7833 32.7071 15.8124C32.7192 15.8415 32.7306 15.8709 32.7412 15.9006C32.7519 15.9303 32.7618 15.9602 32.771 15.9904C32.7801 16.0206 32.7886 16.0509 32.7963 16.0815C32.8039 16.1121 32.8109 16.1428 32.817 16.1737C32.8232 16.2047 32.8286 16.2357 32.8332 16.2669C32.8379 16.2981 32.8417 16.3293 32.8448 16.3607C32.848 16.3921 32.8503 16.4235 32.8518 16.455C32.8534 16.4865 32.8541 16.518 32.8541 16.5495C32.8541 16.581 32.8534 16.6126 32.8518 16.644C32.8503 16.6755 32.848 16.7069 32.8448 16.7383C32.8417 16.7697 32.8379 16.801 32.8332 16.8322C32.8286 16.8633 32.8232 16.8944 32.817 16.9253C32.8109 16.9562 32.8039 16.987 32.7963 17.0175C32.7886 17.0481 32.7801 17.0785 32.771 17.1086C32.7618 17.1388 32.7519 17.1687 32.7412 17.1984C32.7306 17.2281 32.7192 17.2575 32.7071 17.2866C32.695 17.3158 32.6822 17.3446 32.6687 17.3731C32.6552 17.4016 32.641 17.4297 32.6261 17.4575C32.6112 17.4853 32.5956 17.5127 32.5793 17.5398C32.5631 17.5668 32.5462 17.5934 32.5286 17.6196C32.5111 17.6458 32.4929 17.6716 32.474 17.6969C32.4552 17.7222 32.4358 17.7471 32.4157 17.7715C32.3956 17.7958 32.375 17.8197 32.3538 17.843C32.3326 17.8664 32.3108 17.8892 32.2884 17.9115C32.2661 17.9338 32.2432 17.9555 32.2197 17.9767C32.1963 17.9979 32.1724 18.0185 32.148 18.0385C32.1235 18.0585 32.0986 18.0779 32.0732 18.0966C32.0478 18.1154 32.022 18.1336 31.9957 18.1511C31.9694 18.1686 31.9427 18.1854 31.9156 18.2016C31.8885 18.2178 31.861 18.2334 31.8331 18.2483C31.8053 18.2631 31.777 18.2773 31.7485 18.2908C31.7199 18.3042 31.691 18.317 31.6618 18.3291C31.6326 18.3411 31.6031 18.3525 31.5733 18.3631C31.5436 18.3737 31.5136 18.3836 31.4833 18.3927C31.4531 18.4019 31.4226 18.4103 31.3919 18.418C31.3613 18.4256 31.3304 18.4325 31.2995 18.4387C31.2685 18.4448 31.2373 18.4502 31.2061 18.4548C31.1748 18.4595 31.1434 18.4633 31.112 18.4664C31.0805 18.4695 31.049 18.4718 31.0174 18.4734C30.9858 18.4749 30.9543 18.4757 30.9226 18.4757C30.891 18.4757 30.8594 18.4749 30.8279 18.4734C30.7963 18.4718 30.7648 18.4695 30.7333 18.4664C30.7019 18.4633 30.6705 18.4595 30.6392 18.4548C30.608 18.4502 30.5768 18.4448 30.5458 18.4387C30.5148 18.4325 30.484 18.4256 30.4533 18.418C30.4227 18.4103 30.3922 18.4019 30.362 18.3927C30.3317 18.3836 30.3017 18.3737 30.2719 18.3631C30.2422 18.3525 30.2127 18.3411 30.1835 18.3291C30.1543 18.317 30.1254 18.3042 30.0968 18.2908C30.0682 18.2773 30.04 18.2631 30.0121 18.2483C29.9843 18.2334 29.9568 18.2178 29.9296 18.2016C29.9025 18.1854 29.8758 18.1686 29.8495 18.1511C29.8233 18.1336 29.7974 18.1154 29.772 18.0966C29.7467 18.0779 29.7217 18.0585 29.6973 18.0385C29.6729 18.0185 29.6489 17.9979 29.6255 17.9767C29.6021 17.9555 29.5792 17.9338 29.5569 17.9115C29.5345 17.8892 29.5127 17.8664 29.4915 17.843C29.4703 17.8197 29.4496 17.7958 29.4296 17.7715C29.4095 17.7471 29.3901 17.7222 29.3712 17.6969C29.3524 17.6716 29.3342 17.6458 29.3167 17.6196C29.2991 17.5934 29.2822 17.5668 29.2659 17.5398C29.2497 17.5127 29.2341 17.4853 29.2192 17.4575C29.2043 17.4297 29.1901 17.4016 29.1766 17.3731Q29.1563 17.3303 29.1382 17.2866C29.1261 17.2575 29.1147 17.2281 29.104 17.1984C29.0934 17.1687 29.0835 17.1388 29.0743 17.1086C29.0651 17.0785 29.0567 17.0481 29.049 17.0175C29.0413 16.987 29.0344 16.9562 29.0282 16.9253C29.0221 16.8944 29.0167 16.8633 29.012 16.8322C29.0074 16.801 29.0035 16.7697 29.0004 16.7383C28.9973 16.7069 28.995 16.6755 28.9935 16.644ZM13.105 25.6402C13.105 20.4794 17.3147 16.2821 22.4898 16.2821C27.6642 16.2821 31.8746 20.4801 31.8746 25.6402C31.8746 30.8002 27.6642 34.9998 22.4898 34.9998C17.3147 34.9998 13.105 30.8009 13.105 25.6402ZM14.7892 25.6394C14.7892 29.8747 18.2435 33.3195 22.4898 33.3195C26.7369 33.3195 30.1904 29.8747 30.1904 25.6394C30.1904 21.4063 26.7361 17.9608 22.4898 17.9608C18.2435 17.9608 14.7892 21.4056 14.7892 25.6394ZM20.8368 22Q19.027 22 18.0139 23.0549C17.3377 23.759 17 24.7412 17 26.0047C17 26.9086 17.1704 27.6623 17.512 28.2633C17.8527 28.8659 18.2979 29.3054 18.8474 29.5836C19.3962 29.8601 20.09 30 20.9282 30C21.7525 30 22.4409 29.8393 22.9935 29.5172C23.0271 29.4979 23.0603 29.478 23.0931 29.4575C23.126 29.4369 23.1584 29.4157 23.1905 29.3939C23.2227 29.3721 23.2544 29.3497 23.2857 29.3267C23.317 29.3037 23.3479 29.2801 23.3784 29.256C23.4089 29.2318 23.439 29.207 23.4686 29.1817C23.4982 29.1564 23.5274 29.1305 23.5561 29.1041C23.5848 29.0777 23.613 29.0507 23.6408 29.0232C23.6686 28.9957 23.6958 28.9676 23.7226 28.9391C23.7494 28.9105 23.7757 28.8815 23.8014 28.8519C23.8272 28.8224 23.8524 28.7924 23.8771 28.7619C23.9019 28.7314 23.926 28.7004 23.9496 28.669C23.9733 28.6375 23.9963 28.6056 24.0188 28.5734C24.0413 28.5411 24.0633 28.5083 24.0846 28.4752C24.1059 28.442 24.1267 28.4085 24.1469 28.3746C24.1671 28.3406 24.1866 28.3063 24.2056 28.2717C24.2246 28.237 24.2429 28.202 24.2607 28.1666C24.5523 27.5872 24.6989 26.8463 24.6989 25.9416C24.6989 24.6957 24.3643 23.727 23.695 23.0365C23.0265 22.3444 22.0733 22 20.8368 22ZM21.9973 27.7102C21.7264 28.0443 21.3449 28.2113 20.8522 28.2113C20.3717 28.2113 19.9933 28.0411 19.7147 27.6991C19.4353 27.357 19.2964 26.7968 19.2964 26.0151C19.2964 25.2279 19.4369 24.6629 19.7178 24.3216C19.9979 23.9804 20.3694 23.8093 20.833 23.8093C21.315 23.8093 21.698 23.9772 21.9812 24.3136C22.2628 24.6493 22.4048 25.1816 22.4048 25.9104C22.4033 26.7752 22.2675 27.3754 21.9973 27.7102ZM27.2271 28.4623C27.32 28.384 27.5042 28.2129 27.7789 28.0139C28.2417 27.6743 28.561 27.3466 28.7368 27.0629C28.9118 26.7784 29 26.4723 29 26.1614C29 25.8673 28.9233 25.5988 28.7706 25.363C28.7514 25.3334 28.7313 25.3047 28.7101 25.2767C28.6889 25.2487 28.6667 25.2216 28.6436 25.1954C28.6204 25.1691 28.5964 25.1439 28.5714 25.1195C28.5464 25.0952 28.5206 25.0718 28.4939 25.0495C28.4672 25.0272 28.4398 25.0059 28.4116 24.9857C28.3834 24.9656 28.3545 24.9465 28.3249 24.9286C28.2953 24.9107 28.2651 24.894 28.2344 24.8784C28.2036 24.8629 28.1723 24.8486 28.1404 24.8355C27.8726 24.7212 27.4988 24.6629 27.0183 24.6629C26.5571 24.6629 26.1971 24.722 25.9361 24.8419C25.9056 24.8551 25.8755 24.8695 25.846 24.8851C25.8165 24.9006 25.7875 24.9172 25.7592 24.935C25.7308 24.9528 25.7031 24.9715 25.676 24.9914C25.649 25.0112 25.6227 25.0321 25.5971 25.054C25.5715 25.0759 25.5468 25.0987 25.5228 25.1224C25.4988 25.1462 25.4757 25.1708 25.4535 25.1963C25.4312 25.2219 25.4099 25.2482 25.3896 25.2753C25.3692 25.3025 25.3498 25.3304 25.3313 25.359C25.1886 25.5828 25.0903 25.8953 25.0366 26.2965L26.4051 26.4123C26.4427 26.1238 26.5171 25.9216 26.6277 25.8073C26.6347 25.8002 26.6419 25.7933 26.6493 25.7866C26.6567 25.7798 26.6642 25.7733 26.6719 25.767C26.6796 25.7606 26.6874 25.7545 26.6954 25.7486C26.7034 25.7427 26.7115 25.7369 26.7198 25.7314C26.728 25.726 26.7364 25.7207 26.745 25.7156C26.7535 25.7106 26.7621 25.7057 26.7709 25.7011C26.7796 25.6965 26.7885 25.6922 26.7975 25.688C26.8064 25.6839 26.8155 25.68 26.8246 25.6763C26.8338 25.6727 26.843 25.6692 26.8523 25.6661C26.8617 25.6629 26.871 25.6599 26.8805 25.6573C26.89 25.6546 26.8995 25.6521 26.9091 25.65C26.9186 25.6478 26.9283 25.6458 26.938 25.6442C26.9476 25.6425 26.9573 25.6411 26.9671 25.6399C26.9768 25.6387 26.9866 25.6378 26.9964 25.6372C27.0061 25.6365 27.016 25.6361 27.0258 25.636C27.0356 25.6358 27.0454 25.6359 27.0552 25.6363C27.2233 25.6363 27.3622 25.6915 27.4735 25.8018C27.4801 25.8081 27.4865 25.8146 27.4928 25.8213C27.4991 25.828 27.5052 25.8349 27.5111 25.8419C27.517 25.8489 27.5228 25.8561 27.5284 25.8634C27.534 25.8708 27.5393 25.8783 27.5446 25.8859C27.5498 25.8935 27.5547 25.9013 27.5595 25.9092C27.5644 25.9171 27.569 25.9251 27.5734 25.9333C27.5778 25.9415 27.582 25.9497 27.5859 25.9581C27.5899 25.9665 27.5937 25.975 27.5973 25.9836C27.6008 25.9922 27.6042 26.0009 27.6073 26.0096C27.6104 26.0184 27.6133 26.0273 27.616 26.0362C27.6186 26.0451 27.6211 26.0541 27.6233 26.0632C27.6255 26.0723 27.6275 26.0814 27.6293 26.0906C27.631 26.0997 27.6326 26.1089 27.6339 26.1182C27.6352 26.1275 27.6362 26.1368 27.6371 26.1461C27.6379 26.1554 27.6385 26.1647 27.6389 26.1741C27.6392 26.1834 27.6394 26.1928 27.6392 26.2022C27.6392 26.346 27.5832 26.4995 27.4719 26.6593C27.3591 26.8199 27.1035 27.0541 26.7036 27.3634C26.0482 27.8701 25.6023 28.2441 25.3636 28.6133C25.1257 28.9858 24.9829 29.7394 24.9361 29.7394L28.6792 29.7394L28.6792 28.8387L26.9017 28.8387C27.0252 28.8387 27.1342 28.5406 27.2271 28.4623Z" fill-rule="evenodd"  fill="url(#linear_fill_2_471)" >
</path>
</g>
<defs>
<linearGradient id="linear_border_2_459_0" x1="39.40498" y1="40.35534" x2="5.206740000000001" y2="8.421680000000006" gradientUnits="userSpaceOnUse">
<stop offset="0" stop-color="#3B86E2" stop-opacity="0.19" />
<stop offset="1" stop-color="#56CDFC"  />
</linearGradient>
<linearGradient id="linear_border_2_460_0" x1="35.83868" y1="36.582440000000005" x2="9.07484" y2="11.590880000000004" gradientUnits="userSpaceOnUse">
<stop offset="0" stop-color="#3B86E2" stop-opacity="0" />
<stop offset="1" stop-color="#56CDFC"  />
</linearGradient>
<clipPath id="clip-path-eAwtGrmvVYV15-hbZ1iJ7">
<path d="M11 35L35 35L35 11L11 11L11 35Z" fill="white"/>
</clipPath>
<linearGradient id="linear_fill_2_471" x1="30.2955322265625" y1="34.999755859375" x2="16.191162109375" y2="11.999755859375" gradientUnits="userSpaceOnUse">
<stop offset="0" stop-color="#007CAD"  />
<stop offset="1" stop-color="#28DAFA"  />
</linearGradient>
</defs>
</svg>
