<svg xmlns="http://www.w3.org/2000/svg" xmlns:xlink="http://www.w3.org/1999/xlink" width="46" height="46" viewBox="0 0 46 46" fill="none">
<path fill-rule="evenodd"  fill="url(#linear_border_2_369_0)"  d="M23 46C35.7025 46 46 35.7025 46 23C46 10.2974 35.7025 0 23 0C10.2974 0 0 10.2974 0 23C0 35.7025 10.2974 46 23 46ZM23 2C34.598 2 44 11.402 44 23C44 34.598 34.598 44 23 44C11.402 44 2 34.598 2 23C2 11.402 11.402 2 23 2Z">
</path>
<g opacity="0.2">
<path fill-rule="evenodd"  fill="url(#linear_border_2_370_0)"  d="M23 40.9999C32.9411 40.9999 41 32.9411 41 23C41 13.0589 32.9411 5 23 5C13.0589 5 5 13.0589 5 23C5 32.9411 13.0589 40.9999 23 40.9999ZM23 5.6C32.6097 5.6 40.4 13.3902 40.4 23C40.4 32.6097 32.6097 40.3999 23 40.3999C13.3902 40.3999 5.6 32.6097 5.6 23C5.6 13.3902 13.3902 5.6 23 5.6Z">
</path>
</g>
<path d="M20.7087 16.6428Q20.7057 16.581 20.7057 16.5192C20.7057 16.4779 20.7067 16.4367 20.7087 16.3955C20.7107 16.3544 20.7136 16.3133 20.7176 16.2722C20.7216 16.2312 20.7265 16.1903 20.7325 16.1495C20.7384 16.1087 20.7454 16.0681 20.7533 16.0277C20.7612 15.9872 20.7701 15.947 20.7799 15.907C20.7897 15.867 20.8005 15.8273 20.8123 15.7879C20.8241 15.7484 20.8368 15.7093 20.8504 15.6704C20.8641 15.6316 20.8786 15.5932 20.8941 15.5551C20.9096 15.517 20.9261 15.4793 20.9434 15.442C20.9607 15.4048 20.9789 15.368 20.998 15.3316C21.0171 15.2952 21.0371 15.2594 21.0579 15.224C21.0787 15.1886 21.1004 15.1538 21.1229 15.1195C21.1454 15.0853 21.1687 15.0516 21.1929 15.0184C21.217 14.9853 21.2419 14.9528 21.2676 14.921C21.2933 14.8891 21.3198 14.8579 21.347 14.8273C21.3742 14.7968 21.4021 14.7669 21.4308 14.7378C21.4594 14.7086 21.4888 14.6802 21.5188 14.6525C21.5488 14.6248 21.5795 14.5979 21.6108 14.5718C21.6421 14.5456 21.6741 14.5202 21.7066 14.4957C21.7391 14.4711 21.7723 14.4474 21.8059 14.4245C21.8396 14.4016 21.8738 14.3795 21.9086 14.3583C21.9433 14.3371 21.9786 14.3168 22.0143 14.2974C22.05 14.2779 22.0862 14.2594 22.1229 14.2418C22.1595 14.2241 22.1965 14.2074 22.2339 14.1917C22.2714 14.1759 22.3092 14.1611 22.3473 14.1472C22.3855 14.1333 22.4239 14.1203 22.4627 14.1084C22.5014 14.0964 22.5405 14.0854 22.5798 14.0754C22.6191 14.0654 22.6586 14.0564 22.6983 14.0483C22.7381 14.0403 22.778 14.0332 22.8181 14.0272C22.8581 14.0211 22.8983 14.0161 22.9387 14.012C22.979 14.008 23.0194 14.005 23.0598 14.0029C23.1003 14.0009 23.1408 13.9999 23.1813 13.9999C23.2218 13.9999 23.2623 14.0009 23.3028 14.0029C23.3433 14.005 23.3836 14.008 23.424 14.012C23.4643 14.0161 23.5045 14.0211 23.5446 14.0272C23.5846 14.0332 23.6245 14.0403 23.6643 14.0483C23.704 14.0564 23.7435 14.0654 23.7828 14.0754C23.8221 14.0854 23.8612 14.0964 23.9 14.1084C23.9387 14.1203 23.9772 14.1333 24.0153 14.1472C24.0535 14.1611 24.0913 14.1759 24.1287 14.1917C24.1661 14.2074 24.2032 14.2241 24.2398 14.2418C24.2764 14.2594 24.3126 14.2779 24.3483 14.2974Q24.4019 14.3265 24.454 14.3583C24.4888 14.3795 24.523 14.4016 24.5567 14.4245C24.5904 14.4474 24.6235 14.4711 24.656 14.4957C24.6886 14.5202 24.7205 14.5456 24.7518 14.5718C24.7832 14.5979 24.8138 14.6248 24.8438 14.6525C24.8739 14.6802 24.9032 14.7086 24.9318 14.7378C24.9605 14.7669 24.9884 14.7968 25.0156 14.8273C25.0429 14.8579 25.0693 14.8891 25.095 14.921C25.1207 14.9528 25.1456 14.9853 25.1697 15.0184C25.1939 15.0516 25.2172 15.0853 25.2397 15.1195C25.2622 15.1538 25.2839 15.1886 25.3047 15.224C25.3256 15.2594 25.3455 15.2952 25.3646 15.3316C25.3837 15.368 25.4019 15.4048 25.4192 15.442C25.4366 15.4793 25.453 15.517 25.4685 15.5551C25.484 15.5932 25.4986 15.6316 25.5122 15.6704C25.5259 15.7093 25.5386 15.7484 25.5503 15.7879C25.5621 15.8273 25.5729 15.867 25.5828 15.907C25.5926 15.947 25.6015 15.9872 25.6094 16.0277C25.6173 16.0681 25.6242 16.1087 25.6301 16.1495C25.6361 16.1903 25.641 16.2312 25.645 16.2722C25.649 16.3133 25.652 16.3544 25.654 16.3955C25.6559 16.4367 25.6569 16.4779 25.6569 16.5192C25.6569 16.5604 25.6559 16.6016 25.654 16.6428C25.652 16.6839 25.649 16.7251 25.645 16.7661C25.641 16.8071 25.6361 16.848 25.6301 16.8888C25.6242 16.9296 25.6173 16.9702 25.6094 17.0106C25.6015 17.0511 25.5926 17.0913 25.5828 17.1313C25.5729 17.1713 25.5621 17.211 25.5503 17.2505C25.5386 17.2899 25.5259 17.3291 25.5122 17.3679C25.4986 17.4067 25.484 17.4451 25.4685 17.4832C25.453 17.5213 25.4366 17.559 25.4192 17.5963C25.4019 17.6336 25.3837 17.6704 25.3646 17.7067C25.3455 17.7431 25.3256 17.779 25.3047 17.8143C25.2839 17.8497 25.2622 17.8845 25.2397 17.9188C25.2172 17.9531 25.1939 17.9868 25.1697 18.0199C25.1456 18.053 25.1207 18.0855 25.095 18.1174C25.0693 18.1492 25.0429 18.1804 25.0156 18.211C24.9884 18.2415 24.9605 18.2714 24.9318 18.3005C24.9032 18.3297 24.8739 18.3581 24.8438 18.3858C24.8138 18.4135 24.7832 18.4404 24.7518 18.4666C24.7205 18.4927 24.6886 18.5181 24.656 18.5426C24.6235 18.5672 24.5904 18.591 24.5567 18.6138C24.523 18.6368 24.4888 18.6588 24.454 18.68C24.4193 18.7012 24.384 18.7215 24.3483 18.7409C24.3126 18.7604 24.2764 18.7789 24.2398 18.7965C24.2032 18.8142 24.1661 18.8309 24.1287 18.8466C24.0913 18.8624 24.0535 18.8773 24.0153 18.8912C23.9772 18.905 23.9387 18.918 23.9 18.9299C23.8612 18.9419 23.8221 18.9529 23.7828 18.9629C23.7435 18.9729 23.704 18.982 23.6643 18.99C23.6245 18.9981 23.5846 19.0051 23.5446 19.0112C23.5045 19.0172 23.4643 19.0222 23.424 19.0263C23.3836 19.0303 23.3433 19.0334 23.3028 19.0354C23.2623 19.0374 23.2218 19.0384 23.1813 19.0384C23.1408 19.0384 23.1003 19.0374 23.0598 19.0354C23.0194 19.0334 22.979 19.0303 22.9387 19.0263C22.8983 19.0222 22.8581 19.0172 22.8181 19.0112C22.778 19.0051 22.7381 18.9981 22.6983 18.99C22.6586 18.982 22.6191 18.9729 22.5798 18.9629C22.5405 18.9529 22.5014 18.9419 22.4627 18.9299C22.4239 18.918 22.3855 18.905 22.3473 18.8912C22.3092 18.8773 22.2714 18.8624 22.2339 18.8466C22.1965 18.8309 22.1595 18.8142 22.1229 18.7965C22.0862 18.7789 22.05 18.7604 22.0143 18.7409C21.9786 18.7215 21.9433 18.7012 21.9086 18.68C21.8738 18.6588 21.8396 18.6368 21.8059 18.6138C21.7723 18.591 21.7391 18.5672 21.7066 18.5426C21.6741 18.5181 21.6421 18.4927 21.6108 18.4666C21.5795 18.4404 21.5488 18.4135 21.5188 18.3858C21.4888 18.3581 21.4594 18.3297 21.4308 18.3005C21.4021 18.2714 21.3742 18.2415 21.347 18.211C21.3198 18.1804 21.2933 18.1492 21.2676 18.1174C21.2419 18.0855 21.217 18.053 21.1929 18.0199C21.1687 17.9868 21.1454 17.9531 21.1229 17.9188C21.1004 17.8845 21.0787 17.8497 21.0579 17.8143C21.0371 17.779 21.0171 17.7431 20.998 17.7067C20.9789 17.6704 20.9607 17.6336 20.9434 17.5963C20.9261 17.559 20.9096 17.5213 20.8941 17.4832C20.8786 17.4451 20.8641 17.4067 20.8504 17.3679C20.8368 17.3291 20.8241 17.2899 20.8123 17.2505C20.8005 17.211 20.7897 17.1713 20.7799 17.1313C20.7701 17.0913 20.7612 17.0511 20.7533 17.0106C20.7454 16.9702 20.7384 16.9296 20.7325 16.8888C20.7265 16.848 20.7216 16.8071 20.7176 16.7661C20.7136 16.7251 20.7107 16.6839 20.7087 16.6428ZM13.2527 18.3513C13.2527 18.3782 13.2533 18.4051 13.2546 18.432C13.2559 18.4589 13.2579 18.4857 13.2605 18.5125C13.2631 18.5393 13.2663 18.566 13.2702 18.5927C13.2741 18.6193 13.2786 18.6459 13.2838 18.6723C13.2889 18.6987 13.2947 18.7249 13.3012 18.7511C13.3076 18.7772 13.3146 18.8031 13.3223 18.8289C13.33 18.8547 13.3383 18.8802 13.3472 18.9056C13.3561 18.9309 13.3656 18.956 13.3758 18.9809C13.3859 19.0058 13.3966 19.0304 13.4079 19.0547C13.4192 19.0791 13.4311 19.1031 13.4436 19.1269C13.4561 19.1506 13.4691 19.174 13.4827 19.1972C13.4963 19.2202 13.5105 19.243 13.5252 19.2654C13.5399 19.2878 13.5551 19.3098 13.5709 19.3314C13.5866 19.353 13.6029 19.3743 13.6197 19.3951C13.6365 19.4159 13.6538 19.4363 13.6715 19.4562C13.6893 19.4762 13.7076 19.4957 13.7263 19.5147C13.745 19.5337 13.7641 19.5523 13.7837 19.5704C13.8033 19.5885 13.8234 19.6061 13.8438 19.6231C13.8643 19.6402 13.8851 19.6568 13.9064 19.6728C13.9277 19.6889 13.9493 19.7044 13.9713 19.7193C13.9933 19.7343 14.0156 19.7487 14.0383 19.7625C14.061 19.7764 14.084 19.7896 14.1074 19.8023C14.1307 19.815 14.1543 19.8271 14.1783 19.8387C14.2022 19.8502 14.2264 19.8611 14.2508 19.8714C14.2753 19.8817 14.2999 19.8914 14.3249 19.9004C14.3498 19.9095 14.3749 19.918 14.4002 19.9258C14.4255 19.9336 14.451 19.9408 14.4767 19.9473C14.5024 19.9538 14.5282 19.9597 14.5541 19.965C14.5801 19.9703 14.6061 19.9749 14.6323 19.9788C14.6585 19.9828 14.6847 19.986 14.7111 19.9887C14.7374 19.9913 14.7638 19.9933 14.7902 19.9947C14.8167 19.996 14.8431 19.9966 14.8696 19.9966C14.896 19.9966 14.9225 19.996 14.9489 19.9947C14.9753 19.9933 15.0017 19.9913 15.028 19.9887C15.0544 19.986 15.0806 19.9828 15.1068 19.9788C15.133 19.9749 15.159 19.9703 15.185 19.965C15.2109 19.9597 15.2368 19.9538 15.2624 19.9473C15.2881 19.9408 15.3136 19.9336 15.3389 19.9258C15.3642 19.918 15.3894 19.9095 15.4143 19.9004C15.4392 19.8914 15.4639 19.8817 15.4883 19.8714C15.5127 19.8611 15.5369 19.8502 15.5609 19.8386C15.5848 19.8271 15.6084 19.815 15.6318 19.8023C15.6551 19.7896 15.6781 19.7764 15.7008 19.7625C15.7235 19.7487 15.7458 19.7343 15.7678 19.7193C15.7898 19.7044 15.8115 19.6889 15.8327 19.6728C15.854 19.6568 15.8748 19.6402 15.8953 19.6231C15.9157 19.6061 15.9358 19.5885 15.9554 19.5704C15.975 19.5523 15.9941 19.5337 16.0129 19.5147C16.0316 19.4957 16.0498 19.4762 16.0676 19.4562C16.0854 19.4363 16.1026 19.4159 16.1194 19.3951C16.1362 19.3743 16.1525 19.353 16.1682 19.3314C16.184 19.3098 16.1992 19.2878 16.2139 19.2654C16.2286 19.243 16.2428 19.2202 16.2564 19.1972C16.27 19.174 16.283 19.1506 16.2955 19.1269C16.308 19.1031 16.3199 19.0791 16.3312 19.0547C16.3425 19.0304 16.3532 19.0058 16.3633 18.9809C16.3735 18.956 16.383 18.9309 16.3919 18.9056C16.4008 18.8802 16.4091 18.8547 16.4168 18.8289C16.4245 18.8031 16.4315 18.7772 16.438 18.7511C16.4444 18.7249 16.4502 18.6987 16.4554 18.6723C16.4605 18.6459 16.465 18.6193 16.4689 18.5927C16.4728 18.566 16.476 18.5393 16.4786 18.5125C16.4812 18.4857 16.4832 18.4589 16.4845 18.432C16.4858 18.4051 16.4864 18.3782 16.4864 18.3513C16.4864 18.3243 16.4858 18.2974 16.4845 18.2705C16.4832 18.2436 16.4812 18.2168 16.4786 18.19C16.476 18.1632 16.4728 18.1365 16.4689 18.1098C16.465 18.0832 16.4605 18.0567 16.4554 18.0303C16.4502 18.0039 16.4444 17.9776 16.438 17.9515C16.4315 17.9254 16.4245 17.8994 16.4168 17.8736C16.4091 17.8479 16.4008 17.8223 16.3919 17.797C16.383 17.7716 16.3735 17.7465 16.3633 17.7216C16.3532 17.6967 16.3425 17.6721 16.3312 17.6478C16.3199 17.6234 16.308 17.5994 16.2955 17.5756C16.283 17.5519 16.27 17.5285 16.2564 17.5054C16.2428 17.4823 16.2286 17.4595 16.2139 17.4372C16.1992 17.4148 16.184 17.3927 16.1682 17.3711C16.1525 17.3495 16.1362 17.3283 16.1194 17.3075C16.1026 17.2866 16.0854 17.2662 16.0676 17.2463C16.0498 17.2263 16.0316 17.2068 16.0129 17.1878C15.9941 17.1688 15.975 17.1502 15.9554 17.1321C15.9358 17.114 15.9157 17.0965 15.8953 17.0794C15.8748 17.0623 15.854 17.0457 15.8327 17.0297C15.8115 17.0137 15.7898 16.9981 15.7678 16.9832C15.7458 16.9682 15.7235 16.9538 15.7008 16.94C15.6781 16.9261 15.6551 16.9129 15.6318 16.9002C15.6084 16.8875 15.5848 16.8754 15.5609 16.8639C15.5369 16.8524 15.5127 16.8414 15.4883 16.8312C15.4639 16.8208 15.4392 16.8112 15.4143 16.8021C15.3894 16.793 15.3642 16.7846 15.3389 16.7767C15.3136 16.7689 15.2881 16.7618 15.2624 16.7552C15.2368 16.7487 15.2109 16.7428 15.185 16.7375C15.159 16.7323 15.133 16.7277 15.1068 16.7237Q15.0675 16.7178 15.028 16.7138C15.0017 16.7112 14.9753 16.7092 14.9489 16.7079C14.9225 16.7066 14.896 16.7059 14.8696 16.7059C14.8431 16.7059 14.8167 16.7066 14.7902 16.7079C14.7638 16.7092 14.7374 16.7112 14.7111 16.7138C14.6847 16.7165 14.6585 16.7198 14.6323 16.7237C14.6061 16.7277 14.5801 16.7323 14.5541 16.7375C14.5282 16.7428 14.5024 16.7487 14.4767 16.7552C14.451 16.7618 14.4255 16.7689 14.4002 16.7767C14.3749 16.7846 14.3498 16.793 14.3249 16.8021C14.2999 16.8112 14.2753 16.8208 14.2508 16.8312C14.2264 16.8414 14.2022 16.8524 14.1783 16.8639C14.1543 16.8754 14.1307 16.8875 14.1074 16.9002C14.084 16.9129 14.061 16.9261 14.0383 16.94C14.0156 16.9538 13.9933 16.9682 13.9713 16.9832C13.9493 16.9981 13.9277 17.0137 13.9064 17.0297C13.8851 17.0457 13.8643 17.0623 13.8438 17.0794C13.8234 17.0965 13.8033 17.114 13.7837 17.1321C13.7641 17.1502 13.745 17.1688 13.7263 17.1878C13.7076 17.2068 13.6893 17.2263 13.6715 17.2463C13.6538 17.2662 13.6365 17.2866 13.6197 17.3075C13.6029 17.3283 13.5866 17.3495 13.5709 17.3711C13.5551 17.3927 13.5399 17.4148 13.5252 17.4372C13.5105 17.4595 13.4963 17.4823 13.4827 17.5054C13.4691 17.5285 13.4561 17.5519 13.4436 17.5756C13.4311 17.5994 13.4192 17.6234 13.4079 17.6478C13.3966 17.6721 13.3859 17.6967 13.3758 17.7216C13.3657 17.7465 13.3561 17.7716 13.3472 17.797C13.3383 17.8223 13.33 17.8479 13.3223 17.8736C13.3146 17.8994 13.3076 17.9254 13.3012 17.9515C13.2947 17.9776 13.2889 18.0039 13.2838 18.0303C13.2786 18.0567 13.2741 18.0832 13.2702 18.1098C13.2663 18.1365 13.2631 18.1632 13.2605 18.19C13.2579 18.2168 13.2559 18.2436 13.2546 18.2705C13.2533 18.2974 13.2527 18.3243 13.2527 18.3513ZM29.7681 20.946C29.7668 20.9191 29.7662 20.8922 29.7662 20.8653C29.7662 20.8383 29.7668 20.8114 29.7681 20.7845Q29.7701 20.7442 29.774 20.704C29.7766 20.6772 29.7798 20.6505 29.7837 20.6238C29.7876 20.5972 29.7921 20.5707 29.7973 20.5443C29.8024 20.5179 29.8082 20.4916 29.8146 20.4655C29.8211 20.4394 29.8281 20.4134 29.8358 20.3876C29.8435 20.3619 29.8518 20.3363 29.8607 20.311C29.8696 20.2856 29.8791 20.2605 29.8893 20.2356C29.8994 20.2107 29.9101 20.1861 29.9214 20.1618C29.9327 20.1374 29.9446 20.1134 29.9571 20.0896C29.9696 20.0659 29.9826 20.0425 29.9962 20.0194C30.0098 19.9963 30.024 19.9735 30.0387 19.9511C30.0534 19.9288 30.0686 19.9067 30.0844 19.8851C30.1001 19.8635 30.1164 19.8423 30.1332 19.8215C30.15 19.8006 30.1673 19.7803 30.185 19.7603C30.2028 19.7403 30.2211 19.7208 30.2398 19.7018C30.2585 19.6828 30.2776 19.6642 30.2972 19.6461C30.3168 19.628 30.3369 19.6105 30.3573 19.5934C30.3778 19.5763 30.3986 19.5597 30.4199 19.5437C30.4412 19.5277 30.4628 19.5122 30.4848 19.4972C30.5068 19.4822 30.5291 19.4678 30.5518 19.454C30.5745 19.4401 30.5975 19.4269 30.6209 19.4142C30.6442 19.4015 30.6678 19.3894 30.6918 19.3779C30.7157 19.3664 30.7399 19.3554 30.7643 19.3451C30.7888 19.3348 30.8134 19.3251 30.8384 19.3161C30.8633 19.307 30.8884 19.2986 30.9137 19.2908C30.939 19.2829 30.9645 19.2758 30.9902 19.2692C31.0159 19.2627 31.0417 19.2568 31.0676 19.2515C31.0936 19.2463 31.1196 19.2417 31.1458 19.2377C31.172 19.2338 31.1982 19.2305 31.2246 19.2278C31.2509 19.2252 31.2773 19.2232 31.3037 19.2219C31.3301 19.2206 31.3566 19.2199 31.3831 19.2199C31.4095 19.2199 31.436 19.2206 31.4624 19.2219C31.4888 19.2232 31.5152 19.2252 31.5415 19.2278C31.5679 19.2305 31.5941 19.2338 31.6203 19.2377C31.6465 19.2417 31.6725 19.2463 31.6985 19.2515C31.7244 19.2568 31.7502 19.2627 31.7759 19.2692C31.8016 19.2758 31.8271 19.2829 31.8524 19.2908C31.8777 19.2986 31.9028 19.307 31.9278 19.3161C31.9527 19.3251 31.9774 19.3348 32.0018 19.3451C32.0262 19.3554 32.0504 19.3664 32.0743 19.3779C32.0983 19.3894 32.1219 19.4015 32.1452 19.4142C32.1686 19.4269 32.1916 19.4401 32.2143 19.454C32.237 19.4678 32.2593 19.4822 32.2813 19.4972C32.3033 19.5121 32.325 19.5277 32.3462 19.5437C32.3675 19.5597 32.3883 19.5763 32.4088 19.5934C32.4292 19.6105 32.4493 19.628 32.4689 19.6461C32.4885 19.6642 32.5076 19.6828 32.5263 19.7018C32.545 19.7208 32.5633 19.7403 32.5811 19.7603C32.5988 19.7803 32.6161 19.8006 32.6329 19.8215C32.6497 19.8423 32.666 19.8635 32.6817 19.8851C32.6975 19.9067 32.7127 19.9288 32.7274 19.9511C32.7421 19.9735 32.7563 19.9963 32.7699 20.0194C32.7835 20.0425 32.7965 20.0659 32.809 20.0896C32.8215 20.1134 32.8334 20.1374 32.8447 20.1618C32.856 20.1861 32.8667 20.2107 32.8768 20.2356C32.887 20.2605 32.8965 20.2856 32.9054 20.311C32.9143 20.3363 32.9226 20.3619 32.9303 20.3876C32.938 20.4134 32.945 20.4394 32.9515 20.4655C32.9579 20.4916 32.9637 20.5179 32.9688 20.5443C32.974 20.5707 32.9785 20.5972 32.9824 20.6238C32.9863 20.6505 32.9895 20.6772 32.9921 20.704Q32.996 20.7442 32.998 20.7845C32.9993 20.8114 32.9999 20.8383 32.9999 20.8653C32.9999 20.8922 32.9993 20.9191 32.998 20.946C32.9967 20.9729 32.9947 20.9997 32.9921 21.0265C32.9895 21.0533 32.9863 21.0801 32.9824 21.1067C32.9785 21.1333 32.974 21.1599 32.9688 21.1863C32.9637 21.2127 32.9579 21.2389 32.9515 21.2651C32.945 21.2912 32.938 21.3171 32.9303 21.3429C32.9226 21.3687 32.9143 21.3942 32.9054 21.4196C32.8965 21.4449 32.887 21.47 32.8768 21.4949C32.8667 21.5198 32.856 21.5444 32.8447 21.5687C32.8334 21.5931 32.8215 21.6171 32.809 21.6409C32.7965 21.6646 32.7835 21.6881 32.7699 21.7111C32.7563 21.7342 32.7421 21.757 32.7274 21.7794C32.7127 21.8018 32.6975 21.8238 32.6817 21.8454C32.666 21.867 32.6497 21.8883 32.6329 21.9091C32.6161 21.9299 32.5988 21.9503 32.5811 21.9702C32.5633 21.9902 32.545 22.0097 32.5263 22.0287C32.5076 22.0477 32.4885 22.0663 32.4689 22.0844C32.4493 22.1025 32.4292 22.1201 32.4088 22.1371C32.3883 22.1542 32.3675 22.1708 32.3462 22.1868C32.325 22.2029 32.3033 22.2184 32.2813 22.2333C32.2593 22.2483 32.237 22.2627 32.2143 22.2765C32.1916 22.2904 32.1686 22.3036 32.1452 22.3163C32.1219 22.329 32.0983 22.3411 32.0743 22.3527C32.0504 22.3642 32.0262 22.3751 32.0018 22.3854C31.9774 22.3957 31.9527 22.4054 31.9278 22.4145C31.9028 22.4235 31.8777 22.432 31.8524 22.4398C31.8271 22.4476 31.8016 22.4548 31.7759 22.4613C31.7502 22.4679 31.7244 22.4738 31.6985 22.479C31.6725 22.4843 31.6465 22.4889 31.6203 22.4928C31.5941 22.4968 31.5679 22.5001 31.5415 22.5027C31.5152 22.5054 31.4888 22.5073 31.4624 22.5087C31.436 22.51 31.4095 22.5106 31.3831 22.5106C31.3566 22.5106 31.3301 22.51 31.3037 22.5087Q31.2641 22.5067 31.2246 22.5027C31.1982 22.5001 31.172 22.4968 31.1458 22.4928C31.1196 22.4889 31.0936 22.4843 31.0676 22.479C31.0417 22.4738 31.0159 22.4679 30.9902 22.4613C30.9645 22.4548 30.939 22.4476 30.9137 22.4398C30.8884 22.432 30.8633 22.4235 30.8384 22.4145C30.8134 22.4054 30.7888 22.3957 30.7643 22.3854C30.7399 22.3751 30.7157 22.3642 30.6918 22.3527C30.6678 22.3411 30.6442 22.329 30.6209 22.3163C30.5975 22.3036 30.5745 22.2904 30.5518 22.2765C30.5291 22.2627 30.5068 22.2483 30.4848 22.2333C30.4628 22.2184 30.4412 22.2029 30.4199 22.1868C30.3986 22.1708 30.3778 22.1542 30.3573 22.1371C30.3369 22.1201 30.3168 22.1025 30.2972 22.0844C30.2776 22.0663 30.2585 22.0477 30.2398 22.0287C30.2211 22.0097 30.2028 21.9902 30.185 21.9702C30.1673 21.9503 30.15 21.9299 30.1332 21.9091C30.1164 21.8883 30.1001 21.867 30.0844 21.8454C30.0686 21.8238 30.0534 21.8018 30.0387 21.7794C30.024 21.757 30.0098 21.7342 29.9962 21.7111Q29.9758 21.6765 29.9571 21.6409C29.9446 21.6171 29.9327 21.5931 29.9214 21.5687C29.9101 21.5444 29.8994 21.5198 29.8893 21.4949C29.8791 21.47 29.8696 21.4449 29.8607 21.4196C29.8518 21.3942 29.8435 21.3687 29.8358 21.3429C29.8281 21.3171 29.8211 21.2912 29.8146 21.2651C29.8082 21.2389 29.8024 21.2127 29.7973 21.1863C29.7921 21.1599 29.7876 21.1333 29.7837 21.1067C29.7798 21.0801 29.7766 21.0533 29.774 21.0265C29.7714 20.9997 29.7694 20.9729 29.7681 20.946ZM18.5728 21.9105C18.5715 21.8836 18.5709 21.8567 18.5709 21.8298C18.5709 21.8028 18.5715 21.7759 18.5728 21.749C18.5741 21.7221 18.5761 21.6953 18.5787 21.6685C18.5813 21.6417 18.5845 21.615 18.5884 21.5883C18.5923 21.5617 18.5968 21.5352 18.602 21.5088C18.6071 21.4824 18.6129 21.4561 18.6194 21.43C18.6258 21.4039 18.6328 21.3779 18.6405 21.3521C18.6482 21.3264 18.6565 21.3008 18.6654 21.2755C18.6743 21.2501 18.6838 21.225 18.694 21.2001C18.7041 21.1752 18.7148 21.1506 18.7261 21.1263C18.7374 21.1019 18.7493 21.0779 18.7618 21.0541C18.7743 21.0304 18.7873 21.007 18.8009 20.9839C18.8145 20.9608 18.8287 20.938 18.8434 20.9156C18.8581 20.8933 18.8733 20.8712 18.8891 20.8496C18.9048 20.828 18.9211 20.8068 18.9379 20.786C18.9547 20.7651 18.972 20.7447 18.9897 20.7248C19.0075 20.7048 19.0257 20.6854 19.0445 20.6663C19.0632 20.6473 19.0823 20.6287 19.1019 20.6106C19.1215 20.5925 19.1416 20.575 19.162 20.5579C19.1825 20.5408 19.2033 20.5242 19.2246 20.5082C19.2458 20.4921 19.2675 20.4766 19.2895 20.4617C19.3115 20.4467 19.3338 20.4323 19.3565 20.4185C19.3792 20.4046 19.4022 20.3914 19.4256 20.3787C19.4489 20.366 19.4725 20.3539 19.4964 20.3424C19.5204 20.3309 19.5446 20.3199 19.569 20.3097C19.5935 20.2993 19.6181 20.2896 19.6431 20.2806C19.668 20.2715 19.6931 20.2631 19.7184 20.2552C19.7437 20.2474 19.7692 20.2403 19.7949 20.2337C19.8206 20.2272 19.8464 20.2213 19.8723 20.216C19.8983 20.2108 19.9243 20.2062 19.9505 20.2022C19.9767 20.1982 20.0029 20.195 20.0293 20.1923C20.0556 20.1897 20.082 20.1877 20.1084 20.1864C20.1348 20.1851 20.1613 20.1844 20.1877 20.1844C20.2142 20.1844 20.2407 20.1851 20.2671 20.1864C20.2935 20.1877 20.3199 20.1897 20.3462 20.1923C20.3726 20.195 20.3988 20.1982 20.425 20.2022C20.4512 20.2062 20.4772 20.2108 20.5032 20.216C20.5291 20.2213 20.5549 20.2272 20.5806 20.2337C20.6063 20.2403 20.6318 20.2474 20.6571 20.2552C20.6824 20.2631 20.7075 20.2715 20.7325 20.2806Q20.7698 20.2942 20.8065 20.3097C20.8309 20.3199 20.8551 20.3309 20.8791 20.3424C20.903 20.3539 20.9266 20.366 20.9499 20.3787C20.9733 20.3914 20.9963 20.4046 21.019 20.4185C21.0417 20.4323 21.064 20.4467 21.086 20.4617C21.108 20.4766 21.1297 20.4921 21.1509 20.5082C21.1722 20.5242 21.193 20.5408 21.2135 20.5579C21.2339 20.575 21.254 20.5925 21.2736 20.6106C21.2932 20.6287 21.3123 20.6473 21.3311 20.6663C21.3498 20.6854 21.368 20.7048 21.3858 20.7248C21.4035 20.7447 21.4208 20.7651 21.4376 20.786C21.4544 20.8068 21.4707 20.828 21.4864 20.8496C21.5022 20.8712 21.5174 20.8933 21.5321 20.9156C21.5468 20.938 21.561 20.9608 21.5746 20.9839C21.5882 21.007 21.6012 21.0304 21.6137 21.0541C21.6262 21.0779 21.6381 21.1019 21.6494 21.1263C21.6607 21.1506 21.6714 21.1752 21.6815 21.2001C21.6917 21.225 21.7012 21.2501 21.7101 21.2755C21.719 21.3008 21.7273 21.3264 21.735 21.3521C21.7427 21.3779 21.7497 21.4039 21.7562 21.43C21.7626 21.4561 21.7684 21.4824 21.7736 21.5088C21.7787 21.5352 21.7832 21.5617 21.7871 21.5883C21.791 21.615 21.7942 21.6417 21.7968 21.6685C21.7994 21.6953 21.8014 21.7221 21.8027 21.749C21.804 21.7759 21.8046 21.8028 21.8046 21.8298C21.8046 21.8567 21.804 21.8836 21.8027 21.9105C21.8014 21.9374 21.7994 21.9642 21.7968 21.991C21.7942 22.0178 21.791 22.0445 21.7871 22.0712C21.7832 22.0978 21.7787 22.1243 21.7736 22.1508C21.7684 22.1772 21.7626 22.2034 21.7562 22.2296C21.7497 22.2557 21.7427 22.2816 21.735 22.3074C21.7273 22.3332 21.719 22.3587 21.7101 22.3841C21.7012 22.4094 21.6917 22.4345 21.6815 22.4594C21.6714 22.4843 21.6607 22.5089 21.6494 22.5332C21.6381 22.5576 21.6262 22.5816 21.6137 22.6054C21.6012 22.6291 21.5882 22.6525 21.5746 22.6756C21.561 22.6987 21.5468 22.7215 21.5321 22.7439C21.5174 22.7663 21.5022 22.7883 21.4864 22.8099C21.4707 22.8315 21.4544 22.8528 21.4376 22.8736C21.4208 22.8944 21.4035 22.9148 21.3858 22.9347C21.368 22.9547 21.3498 22.9742 21.3311 22.9932C21.3123 23.0122 21.2932 23.0308 21.2736 23.0489C21.254 23.067 21.2339 23.0846 21.2135 23.1017C21.193 23.1187 21.1722 23.1353 21.1509 23.1513C21.1297 23.1674 21.108 23.1829 21.086 23.1978C21.064 23.2128 21.0417 23.2272 21.019 23.241C20.9963 23.2549 20.9733 23.2681 20.9499 23.2808C20.9266 23.2935 20.903 23.3056 20.8791 23.3171C20.8551 23.3287 20.8309 23.3396 20.8065 23.3499C20.7821 23.3602 20.7574 23.3699 20.7325 23.3789C20.7075 23.388 20.6824 23.3965 20.6571 23.4043C20.6318 23.4121 20.6063 23.4193 20.5806 23.4258C20.5549 23.4323 20.5291 23.4382 20.5032 23.4435C20.4772 23.4488 20.4512 23.4534 20.425 23.4573C20.3988 23.4613 20.3726 23.4645 20.3462 23.4672C20.3199 23.4698 20.2935 23.4718 20.2671 23.4731C20.2407 23.4745 20.2142 23.4751 20.1877 23.4751C20.1613 23.4751 20.1348 23.4745 20.1084 23.4731C20.082 23.4718 20.0556 23.4698 20.0293 23.4672C20.0029 23.4645 19.9767 23.4613 19.9505 23.4573C19.9243 23.4534 19.8983 23.4488 19.8723 23.4435C19.8464 23.4382 19.8206 23.4323 19.7949 23.4258C19.7692 23.4193 19.7437 23.4121 19.7184 23.4043C19.6931 23.3965 19.668 23.388 19.6431 23.3789C19.6181 23.3699 19.5935 23.3602 19.569 23.3499C19.5446 23.3396 19.5204 23.3287 19.4964 23.3172C19.4725 23.3056 19.4489 23.2935 19.4256 23.2808C19.4022 23.2681 19.3792 23.2549 19.3565 23.241C19.3338 23.2272 19.3115 23.2128 19.2895 23.1978C19.2675 23.1829 19.2458 23.1674 19.2246 23.1513C19.2033 23.1353 19.1825 23.1187 19.162 23.1017C19.1416 23.0846 19.1215 23.067 19.1019 23.0489C19.0823 23.0308 19.0632 23.0122 19.0445 22.9932C19.0257 22.9742 19.0075 22.9547 18.9897 22.9347C18.972 22.9148 18.9547 22.8944 18.9379 22.8736C18.9211 22.8528 18.9048 22.8315 18.8891 22.8099C18.8733 22.7883 18.8581 22.7663 18.8434 22.7439C18.8287 22.7215 18.8145 22.6987 18.8009 22.6756C18.7873 22.6525 18.7743 22.6291 18.7618 22.6054C18.7493 22.5816 18.7374 22.5576 18.7261 22.5332C18.7148 22.5089 18.7041 22.4843 18.694 22.4594C18.6838 22.4345 18.6743 22.4094 18.6654 22.3841C18.6565 22.3587 18.6482 22.3332 18.6405 22.3074C18.6328 22.2816 18.6258 22.2557 18.6194 22.2296C18.6129 22.2034 18.6071 22.1772 18.602 22.1508C18.5968 22.1243 18.5923 22.0978 18.5884 22.0712C18.5845 22.0445 18.5813 22.0178 18.5787 21.991C18.5761 21.9642 18.5741 21.9374 18.5728 21.9105ZM13.003 26.8159C13.001 26.7747 13 26.7335 13 26.6922Q13 26.6304 13.003 26.5686C13.005 26.5274 13.008 26.4862 13.0119 26.4452C13.0159 26.4041 13.0209 26.3632 13.0268 26.3224C13.0328 26.2816 13.0397 26.241 13.0476 26.2005C13.0555 26.1601 13.0644 26.1199 13.0742 26.0798C13.0841 26.0398 13.0949 26.0001 13.1066 25.9606C13.1184 25.9211 13.1311 25.882 13.1448 25.8432C13.1584 25.8043 13.173 25.7659 13.1885 25.7277C13.204 25.6896 13.2205 25.6519 13.2378 25.6146C13.2551 25.5774 13.2733 25.5405 13.2924 25.5041C13.3115 25.4678 13.3315 25.4319 13.3524 25.3965C13.3732 25.3611 13.3949 25.3263 13.4174 25.292C13.4399 25.2577 13.4632 25.224 13.4874 25.1909C13.5115 25.1577 13.5365 25.1252 13.5622 25.0934C13.5879 25.0615 13.6144 25.0302 13.6416 24.9997C13.6688 24.9691 13.6967 24.9393 13.7254 24.9101C13.7541 24.8809 13.7834 24.8525 13.8134 24.8248C13.8435 24.7971 13.8742 24.7702 13.9055 24.744C13.9368 24.7178 13.9688 24.6925 14.0013 24.6679C14.0339 24.6433 14.067 24.6196 14.1007 24.5966C14.1344 24.5737 14.1686 24.5517 14.2034 24.5305C14.2382 24.5093 14.2734 24.4889 14.3092 24.4695C14.3449 24.45 14.3811 24.4315 14.4178 24.4139C14.4544 24.3962 14.4914 24.3795 14.5289 24.3638C14.5663 24.348 14.6041 24.3331 14.6423 24.3192C14.6805 24.3053 14.7189 24.2924 14.7577 24.2804C14.7965 24.2685 14.8356 24.2575 14.8749 24.2474C14.9142 24.2374 14.9537 24.2284 14.9935 24.2203C15.0332 24.2123 15.0732 24.2052 15.1133 24.1992C15.1534 24.1931 15.1936 24.1881 15.2339 24.184C15.2742 24.18 15.3146 24.177 15.3552 24.1749C15.3956 24.1729 15.4361 24.1719 15.4767 24.1719Q15.5374 24.1719 15.5982 24.1749C15.6387 24.177 15.6791 24.18 15.7194 24.184C15.7598 24.1881 15.8 24.1931 15.8401 24.1992C15.8802 24.2052 15.9201 24.2123 15.9599 24.2203C15.9996 24.2284 16.0391 24.2374 16.0784 24.2474C16.1178 24.2575 16.1568 24.2685 16.1956 24.2804C16.2344 24.2924 16.2729 24.3053 16.311 24.3192C16.3492 24.3331 16.387 24.348 16.4244 24.3638C16.4619 24.3795 16.4989 24.3962 16.5356 24.4139C16.5722 24.4315 16.6084 24.45 16.6442 24.4695C16.6799 24.4889 16.7152 24.5093 16.7499 24.5305C16.7847 24.5517 16.8189 24.5737 16.8526 24.5966C16.8863 24.6196 16.9195 24.6433 16.952 24.6679C16.9846 24.6925 17.0165 24.7178 17.0479 24.744C17.0792 24.7702 17.1099 24.7971 17.1399 24.8248C17.1699 24.8525 17.1993 24.8809 17.2279 24.9101C17.2566 24.9393 17.2845 24.9691 17.3118 24.9997C17.339 25.0302 17.3654 25.0615 17.3912 25.0934C17.4169 25.1252 17.4418 25.1577 17.466 25.1909C17.4901 25.224 17.5134 25.2577 17.5359 25.292C17.5585 25.3263 17.5801 25.3611 17.601 25.3965C17.6218 25.4319 17.6418 25.4678 17.6609 25.5041C17.68 25.5405 17.6982 25.5774 17.7156 25.6146C17.7329 25.6519 17.7493 25.6896 17.7648 25.7277C17.7803 25.7659 17.7949 25.8043 17.8086 25.8432C17.8222 25.882 17.8349 25.9211 17.8467 25.9606C17.8585 26.0001 17.8693 26.0398 17.8791 26.0798C17.889 26.1199 17.8978 26.1601 17.9057 26.2005C17.9137 26.241 17.9206 26.2816 17.9265 26.3224C17.9325 26.3632 17.9374 26.4041 17.9414 26.4452C17.9454 26.4862 17.9484 26.5274 17.9503 26.5686C17.9523 26.6098 17.9533 26.651 17.9533 26.6922C17.9533 26.7335 17.9523 26.7747 17.9503 26.8159C17.9484 26.8571 17.9454 26.8982 17.9414 26.9393C17.9374 26.9803 17.9325 27.0213 17.9265 27.062C17.9206 27.1028 17.9137 27.1435 17.9057 27.1839C17.8978 27.2244 17.889 27.2646 17.8791 27.3046C17.8693 27.3446 17.8585 27.3844 17.8467 27.4238C17.8349 27.4633 17.8222 27.5025 17.8086 27.5413C17.7949 27.5801 17.7803 27.6186 17.7648 27.6567C17.7493 27.6948 17.7329 27.7325 17.7156 27.7698C17.6982 27.8071 17.68 27.8439 17.6609 27.8803C17.6418 27.9167 17.6218 27.9526 17.601 27.9879C17.5801 28.0233 17.5585 28.0582 17.5359 28.0925C17.5134 28.1268 17.4901 28.1605 17.466 28.1936C17.4418 28.2267 17.4169 28.2592 17.3912 28.2911C17.3654 28.323 17.339 28.3542 17.3118 28.3848C17.2845 28.4154 17.2566 28.4452 17.2279 28.4744C17.1993 28.5035 17.1699 28.532 17.1399 28.5597C17.1099 28.5874 17.0792 28.6143 17.0479 28.6405C17.0165 28.6666 16.9846 28.692 16.952 28.7166C16.9195 28.7412 16.8863 28.7649 16.8526 28.7878C16.8189 28.8107 16.7847 28.8328 16.7499 28.854C16.7152 28.8752 16.6799 28.8955 16.6442 28.915C16.6084 28.9344 16.5722 28.953 16.5356 28.9706C16.4989 28.9882 16.4619 29.0049 16.4244 29.0207C16.387 29.0365 16.3492 29.0513 16.311 29.0652C16.2729 29.0791 16.2344 29.0921 16.1956 29.104C16.1568 29.116 16.1178 29.127 16.0784 29.137C16.0391 29.1471 15.9996 29.1561 15.9599 29.1641C15.9201 29.1722 15.8802 29.1792 15.8401 29.1853C15.8 29.1913 15.7598 29.1964 15.7194 29.2004C15.6791 29.2045 15.6387 29.2075 15.5982 29.2095C15.5577 29.2115 15.5172 29.2126 15.4767 29.2126C15.4361 29.2126 15.3956 29.2115 15.3552 29.2095C15.3146 29.2075 15.2742 29.2045 15.2339 29.2004C15.1936 29.1964 15.1534 29.1913 15.1133 29.1853C15.0732 29.1792 15.0332 29.1722 14.9935 29.1641C14.9537 29.1561 14.9142 29.1471 14.8749 29.137C14.8356 29.127 14.7965 29.116 14.7577 29.104C14.7189 29.0921 14.6805 29.0791 14.6423 29.0652C14.6041 29.0513 14.5663 29.0365 14.5289 29.0207C14.4914 29.0049 14.4544 28.9882 14.4178 28.9706C14.3811 28.953 14.3449 28.9344 14.3092 28.915C14.2734 28.8955 14.2382 28.8752 14.2034 28.854C14.1686 28.8328 14.1344 28.8107 14.1007 28.7878C14.067 28.7649 14.0339 28.7412 14.0013 28.7166C13.9688 28.692 13.9368 28.6666 13.9055 28.6405C13.8742 28.6143 13.8435 28.5874 13.8134 28.5597C13.7834 28.532 13.7541 28.5035 13.7254 28.4744C13.6967 28.4452 13.6688 28.4154 13.6416 28.3848C13.6144 28.3542 13.5879 28.323 13.5622 28.2911C13.5365 28.2592 13.5115 28.2267 13.4874 28.1936C13.4632 28.1605 13.4399 28.1268 13.4174 28.0925C13.3949 28.0582 13.3732 28.0233 13.3524 27.9879C13.3315 27.9526 13.3115 27.9167 13.2924 27.8803C13.2733 27.8439 13.2551 27.8071 13.2378 27.7698Q13.2118 27.7139 13.1885 27.6567C13.173 27.6186 13.1584 27.5801 13.1448 27.5413C13.1311 27.5025 13.1184 27.4633 13.1066 27.4238C13.0949 27.3844 13.0841 27.3446 13.0742 27.3046C13.0644 27.2646 13.0555 27.2244 13.0476 27.1839C13.0397 27.1435 13.0328 27.1028 13.0268 27.062C13.0209 27.0213 13.0159 26.9803 13.0119 26.9393C13.008 26.8982 13.005 26.8571 13.003 26.8159ZM25.66 26.9834Q25.657 26.9216 25.657 26.8597Q25.657 26.7979 25.66 26.7361C25.662 26.6949 25.665 26.6537 25.6689 26.6127C25.6729 26.5716 25.6779 26.5307 25.6838 26.4899C25.6898 26.4491 25.6967 26.4085 25.7046 26.368C25.7125 26.3276 25.7214 26.2873 25.7312 26.2473C25.7411 26.2073 25.7519 26.1676 25.7637 26.1281C25.7754 26.0886 25.7881 26.0495 25.8018 26.0106C25.8154 25.9718 25.83 25.9333 25.8455 25.8952C25.861 25.8571 25.8775 25.8194 25.8948 25.7821C25.9121 25.7449 25.9303 25.708 25.9494 25.6716C25.9686 25.6353 25.9885 25.5994 26.0094 25.564C26.0302 25.5286 26.0519 25.4938 26.0744 25.4595C26.0969 25.4252 26.1202 25.3915 26.1444 25.3584C26.1685 25.3252 26.1935 25.2927 26.2192 25.2608C26.2449 25.229 26.2714 25.1977 26.2986 25.1672C26.3258 25.1366 26.3537 25.1068 26.3824 25.0776C26.4111 25.0484 26.4404 25.02 26.4704 24.9923C26.5005 24.9646 26.5312 24.9377 26.5625 24.9115C26.5938 24.8853 26.6258 24.8599 26.6583 24.8354C26.6909 24.8108 26.724 24.7871 26.7577 24.7641C26.7914 24.7412 26.8256 24.7192 26.8604 24.698C26.8952 24.6768 26.9304 24.6564 26.9662 24.637C27.0019 24.6175 27.0381 24.599 27.0748 24.5814C27.1114 24.5637 27.1484 24.547 27.1859 24.5312C27.2233 24.5155 27.2611 24.5006 27.2993 24.4867C27.3375 24.4728 27.3759 24.4599 27.4147 24.4479C27.4535 24.4359 27.4926 24.4249 27.5319 24.4149C27.5712 24.4049 27.6107 24.3959 27.6505 24.3878C27.6902 24.3798 27.7302 24.3727 27.7703 24.3667C27.8104 24.3606 27.8506 24.3556 27.8909 24.3515C27.9313 24.3475 27.9717 24.3444 28.0121 24.3424C28.0526 24.3404 28.0931 24.3394 28.1337 24.3394Q28.1945 24.3394 28.2552 24.3424C28.2957 24.3444 28.3361 24.3475 28.3764 24.3515C28.4168 24.3556 28.457 24.3606 28.4971 24.3667C28.5372 24.3727 28.5771 24.3798 28.6168 24.3878C28.6566 24.3959 28.6961 24.4049 28.7355 24.4149C28.7748 24.4249 28.8138 24.4359 28.8526 24.4479C28.8914 24.4599 28.9299 24.4728 28.968 24.4867C29.0062 24.5006 29.044 24.5155 29.0814 24.5312C29.1189 24.547 29.1559 24.5637 29.1926 24.5814C29.2292 24.599 29.2654 24.6175 29.3012 24.637C29.3369 24.6564 29.3722 24.6768 29.4069 24.698C29.4417 24.7192 29.4759 24.7412 29.5096 24.7641C29.5433 24.7871 29.5765 24.8108 29.609 24.8354C29.6416 24.8599 29.6735 24.8853 29.7049 24.9115C29.7362 24.9377 29.7669 24.9646 29.7969 24.9923C29.8269 25.02 29.8563 25.0484 29.8849 25.0776C29.9136 25.1068 29.9415 25.1366 29.9688 25.1672C29.996 25.1977 30.0225 25.229 30.0482 25.2608C30.0739 25.2927 30.0988 25.3252 30.1229 25.3584C30.1471 25.3915 30.1704 25.4252 30.1929 25.4595C30.2155 25.4938 30.2371 25.5286 30.258 25.564C30.2788 25.5994 30.2988 25.6353 30.3179 25.6716C30.337 25.708 30.3552 25.7449 30.3725 25.7821C30.3899 25.8194 30.4063 25.8571 30.4218 25.8952C30.4373 25.9333 30.4519 25.9718 30.4656 26.0106C30.4792 26.0495 30.4919 26.0886 30.5037 26.1281C30.5155 26.1676 30.5263 26.2073 30.5361 26.2473C30.546 26.2873 30.5548 26.3276 30.5628 26.368C30.5707 26.4085 30.5776 26.4491 30.5835 26.4899C30.5895 26.5307 30.5944 26.5716 30.5984 26.6127C30.6024 26.6537 30.6054 26.6949 30.6074 26.7361C30.6094 26.7773 30.6103 26.8185 30.6103 26.8597C30.6103 26.901 30.6094 26.9422 30.6074 26.9834C30.6054 27.0246 30.6024 27.0657 30.5984 27.1068C30.5944 27.1478 30.5895 27.1887 30.5835 27.2295C30.5776 27.2703 30.5707 27.311 30.5628 27.3514C30.5548 27.3919 30.546 27.4321 30.5361 27.4721C30.5263 27.5121 30.5155 27.5519 30.5037 27.5913C30.4919 27.6308 30.4792 27.67 30.4656 27.7088C30.4519 27.7476 30.4373 27.7861 30.4218 27.8242C30.4063 27.8623 30.3899 27.9 30.3725 27.9373C30.3552 27.9746 30.337 28.0114 30.3179 28.0478C30.2988 28.0842 30.2788 28.12 30.258 28.1554C30.2371 28.1908 30.2155 28.2256 30.1929 28.26C30.1704 28.2942 30.1471 28.328 30.1229 28.3611C30.0988 28.3942 30.0739 28.4267 30.0482 28.4586C30.0225 28.4905 29.996 28.5217 29.9688 28.5523C29.9415 28.5828 29.9136 28.6127 29.8849 28.6419C29.8563 28.671 29.8269 28.6995 29.7969 28.7272C29.7669 28.7549 29.7362 28.7818 29.7049 28.808C29.6735 28.8341 29.6416 28.8595 29.609 28.8841C29.5765 28.9086 29.5433 28.9324 29.5096 28.9553C29.4759 28.9782 29.4417 29.0003 29.4069 29.0215C29.3722 29.0427 29.3369 29.063 29.3012 29.0825C29.2654 29.1019 29.2292 29.1204 29.1926 29.1381C29.1559 29.1557 29.1189 29.1724 29.0814 29.1882C29.044 29.204 29.0062 29.2188 28.968 29.2327C28.9299 29.2466 28.8914 29.2595 28.8526 29.2715C28.8138 29.2835 28.7748 29.2945 28.7355 29.3045C28.6961 29.3145 28.6566 29.3236 28.6168 29.3316C28.5771 29.3397 28.5372 29.3467 28.4971 29.3528C28.457 29.3588 28.4168 29.3639 28.3764 29.3679C28.3361 29.372 28.2957 29.375 28.2552 29.377C28.2147 29.379 28.1742 29.38 28.1337 29.38C28.0931 29.38 28.0526 29.379 28.0121 29.377C27.9717 29.375 27.9313 29.372 27.8909 29.3679C27.8506 29.3639 27.8104 29.3588 27.7703 29.3528C27.7302 29.3467 27.6902 29.3397 27.6505 29.3316C27.6107 29.3236 27.5712 29.3145 27.5319 29.3045C27.4926 29.2945 27.4535 29.2835 27.4147 29.2715C27.3759 29.2595 27.3375 29.2466 27.2993 29.2327C27.2611 29.2188 27.2233 29.204 27.1859 29.1882C27.1484 29.1724 27.1114 29.1557 27.0748 29.1381C27.0381 29.1204 27.0019 29.1019 26.9662 29.0825C26.9304 29.063 26.8952 29.0427 26.8604 29.0215C26.8256 29.0003 26.7914 28.9782 26.7577 28.9553C26.724 28.9324 26.6909 28.9086 26.6583 28.8841C26.6258 28.8595 26.5938 28.8341 26.5625 28.808C26.5312 28.7818 26.5005 28.7549 26.4704 28.7272C26.4404 28.6995 26.4111 28.671 26.3824 28.6419C26.3537 28.6127 26.3258 28.5828 26.2986 28.5523C26.2714 28.5217 26.2449 28.4905 26.2192 28.4586C26.1935 28.4267 26.1685 28.3942 26.1444 28.3611C26.1202 28.328 26.0969 28.2942 26.0744 28.26C26.0519 28.2256 26.0302 28.1908 26.0094 28.1554C25.9885 28.12 25.9686 28.0842 25.9494 28.0478C25.9303 28.0114 25.9121 27.9746 25.8948 27.9373C25.8775 27.9 25.861 27.8623 25.8455 27.8242C25.83 27.7861 25.8154 27.7476 25.8018 27.7088C25.7881 27.67 25.7754 27.6308 25.7637 27.5913C25.7519 27.5519 25.7411 27.5121 25.7312 27.4721C25.7214 27.4321 25.7125 27.3919 25.7046 27.3514C25.6967 27.311 25.6898 27.2703 25.6838 27.2295C25.6779 27.1887 25.6729 27.1478 25.6689 27.1068C25.665 27.0657 25.662 27.0246 25.66 26.9834ZM20.7065 30.4341C20.7052 30.4072 20.7046 30.3803 20.7046 30.3534C20.7046 30.3264 20.7052 30.2995 20.7065 30.2726C20.7078 30.2457 20.7098 30.2189 20.7124 30.1921C20.715 30.1653 20.7182 30.1386 20.7221 30.1119C20.726 30.0853 20.7305 30.0588 20.7357 30.0324C20.7408 30.006 20.7466 29.9797 20.7531 29.9536C20.7595 29.9275 20.7665 29.9015 20.7742 29.8758C20.7819 29.85 20.7902 29.8244 20.7991 29.7991C20.808 29.7737 20.8175 29.7486 20.8277 29.7237C20.8378 29.6988 20.8485 29.6742 20.8598 29.6499C20.8711 29.6255 20.883 29.6015 20.8955 29.5778C20.908 29.554 20.921 29.5306 20.9346 29.5075C20.9482 29.4844 20.9624 29.4616 20.9771 29.4392C20.9918 29.4169 21.007 29.3949 21.0228 29.3732C21.0385 29.3516 21.0548 29.3304 21.0716 29.3096C21.0884 29.2887 21.1057 29.2684 21.1234 29.2484Q21.1501 29.2185 21.1782 29.1899C21.1969 29.1709 21.216 29.1523 21.2356 29.1342C21.2552 29.1161 21.2753 29.0986 21.2957 29.0815C21.3162 29.0644 21.337 29.0478 21.3583 29.0318C21.3795 29.0158 21.4012 29.0003 21.4232 28.9853C21.4452 28.9703 21.4675 28.9559 21.4902 28.9421C21.5129 28.9282 21.5359 28.915 21.5593 28.9023C21.5826 28.8896 21.6062 28.8775 21.6301 28.866C21.6541 28.8545 21.6782 28.8436 21.7027 28.8332C21.7272 28.8229 21.7518 28.8132 21.7768 28.8042C21.8017 28.7951 21.8268 28.7867 21.8521 28.7789C21.8774 28.771 21.9029 28.7638 21.9286 28.7573C21.9543 28.7508 21.9801 28.7449 22.006 28.7396C22.032 28.7344 22.058 28.7298 22.0842 28.7258C22.1104 28.7219 22.1366 28.7186 22.163 28.7159C22.1893 28.7133 22.2157 28.7113 22.2421 28.71C22.2685 28.7087 22.295 28.708 22.3214 28.708C22.3479 28.708 22.3744 28.7087 22.4008 28.71C22.4272 28.7113 22.4536 28.7133 22.4799 28.7159C22.5063 28.7186 22.5325 28.7219 22.5587 28.7258C22.5849 28.7298 22.6109 28.7344 22.6369 28.7396C22.6628 28.7449 22.6886 28.7508 22.7143 28.7573C22.74 28.7638 22.7655 28.771 22.7908 28.7789C22.8161 28.7867 22.8412 28.7951 22.8662 28.8042C22.8911 28.8132 22.9157 28.8229 22.9402 28.8332C22.9646 28.8436 22.9888 28.8545 23.0128 28.866C23.0367 28.8775 23.0603 28.8896 23.0836 28.9023C23.107 28.915 23.13 28.9282 23.1527 28.9421C23.1754 28.9559 23.1977 28.9703 23.2197 28.9853C23.2417 29.0003 23.2634 29.0158 23.2846 29.0318C23.3059 29.0478 23.3267 29.0644 23.3472 29.0815C23.3676 29.0986 23.3877 29.1161 23.4073 29.1342C23.4269 29.1523 23.446 29.1709 23.4647 29.1899C23.4835 29.209 23.5017 29.2285 23.5195 29.2484C23.5372 29.2684 23.5545 29.2887 23.5713 29.3096C23.5881 29.3304 23.6044 29.3516 23.6201 29.3732C23.6359 29.3949 23.6511 29.4169 23.6658 29.4392C23.6805 29.4616 23.6947 29.4844 23.7083 29.5075C23.7219 29.5306 23.7349 29.554 23.7474 29.5778C23.7599 29.6015 23.7718 29.6255 23.7831 29.6499C23.7944 29.6742 23.8051 29.6988 23.8152 29.7237C23.8254 29.7486 23.8349 29.7737 23.8438 29.7991C23.8527 29.8244 23.861 29.85 23.8687 29.8758C23.8764 29.9015 23.8834 29.9275 23.8898 29.9536C23.8963 29.9797 23.9021 30.006 23.9072 30.0324C23.9124 30.0588 23.9169 30.0853 23.9208 30.1119C23.9247 30.1386 23.9279 30.1653 23.9305 30.1921C23.9331 30.2189 23.9351 30.2457 23.9364 30.2726C23.9377 30.2995 23.9383 30.3264 23.9383 30.3534C23.9383 30.3803 23.9377 30.4072 23.9364 30.4341C23.9351 30.461 23.9332 30.4879 23.9306 30.5147C23.9281 30.5415 23.9248 30.5683 23.921 30.5949C23.9171 30.6216 23.9126 30.6481 23.9074 30.6745C23.9023 30.701 23.8965 30.7272 23.8901 30.7534C23.8837 30.7795 23.8766 30.8055 23.869 30.8312C23.8613 30.857 23.853 30.8826 23.8441 30.908C23.8352 30.9333 23.8257 30.9585 23.8155 30.9834C23.8054 31.0083 23.7947 31.0329 23.7834 31.0572C23.7721 31.0816 23.7602 31.1057 23.7478 31.1294C23.7353 31.1532 23.7223 31.1766 23.7087 31.1997C23.6951 31.2229 23.6809 31.2456 23.6662 31.268C23.6515 31.2904 23.6363 31.3125 23.6205 31.3341C23.6048 31.3558 23.5885 31.377 23.5717 31.3978C23.5549 31.4186 23.5376 31.439 23.5199 31.459C23.5021 31.479 23.4838 31.4985 23.4651 31.5175C23.4464 31.5366 23.4273 31.5552 23.4077 31.5733C23.3881 31.5914 23.368 31.609 23.3475 31.6261C23.3271 31.6432 23.3062 31.6597 23.285 31.6758C23.2637 31.6919 23.2421 31.7074 23.2201 31.7223C23.1981 31.7373 23.1757 31.7517 23.153 31.7656C23.1303 31.7794 23.1073 31.7927 23.0839 31.8054C23.0606 31.8181 23.037 31.8302 23.013 31.8418C22.9891 31.8533 22.9649 31.8642 22.9405 31.8745C22.916 31.8848 22.8913 31.8945 22.8664 31.9036C22.8415 31.9127 22.8163 31.9211 22.791 31.929C22.7657 31.9368 22.7402 31.944 22.7145 31.9505C22.6888 31.9571 22.663 31.963 22.637 31.9682C22.6111 31.9735 22.585 31.9781 22.5588 31.982C22.5326 31.986 22.5063 31.9893 22.48 31.9919C22.4537 31.9946 22.4273 31.9966 22.4008 31.9979C22.3744 31.9992 22.3479 31.9999 22.3214 31.9999C22.295 31.9999 22.2685 31.9992 22.2421 31.9979C22.2156 31.9966 22.1892 31.9946 22.1629 31.9919C22.1366 31.9893 22.1103 31.986 22.0841 31.982C22.0579 31.9781 22.0318 31.9735 22.0059 31.9682C21.9799 31.963 21.9541 31.9571 21.9284 31.9505C21.9027 31.944 21.8772 31.9368 21.8519 31.929C21.8266 31.9211 21.8014 31.9127 21.7765 31.9036C21.7516 31.8945 21.7269 31.8848 21.7025 31.8745C21.678 31.8642 21.6538 31.8533 21.6299 31.8418C21.6059 31.8302 21.5823 31.8181 21.559 31.8054C21.5356 31.7927 21.5126 31.7794 21.4899 31.7656C21.4672 31.7517 21.4448 31.7373 21.4228 31.7223C21.4008 31.7074 21.3792 31.6919 21.3579 31.6758C21.3367 31.6597 21.3158 31.6432 21.2953 31.6261C21.2749 31.609 21.2549 31.5914 21.2352 31.5733C21.2156 31.5552 21.1965 31.5366 21.1778 31.5175C21.1591 31.4985 21.1408 31.479 21.123 31.459C21.1053 31.439 21.088 31.4186 21.0712 31.3978C21.0544 31.377 21.0381 31.3558 21.0224 31.3341C21.0066 31.3125 20.9914 31.2904 20.9767 31.268C20.962 31.2456 20.9479 31.2229 20.9343 31.1997C20.9207 31.1766 20.9076 31.1532 20.8951 31.1294C20.8827 31.1057 20.8708 31.0816 20.8595 31.0572C20.8482 31.0329 20.8375 31.0083 20.8274 30.9834C20.8172 30.9585 20.8077 30.9333 20.7988 30.908C20.7899 30.8826 20.7816 30.857 20.7739 30.8312C20.7663 30.8055 20.7592 30.7795 20.7528 30.7534C20.7464 30.7272 20.7406 30.701 20.7355 30.6745Q20.7277 30.6349 20.7219 30.5949C20.7181 30.5683 20.7149 30.5415 20.7123 30.5147C20.7097 30.4879 20.7078 30.461 20.7065 30.4341Z" fill-rule="evenodd"  fill="url(#linear_fill_2_454)" >
</path>
<defs>
<linearGradient id="linear_border_2_369_0" x1="39.40498" y1="40.35534" x2="5.206740000000001" y2="8.421680000000006" gradientUnits="userSpaceOnUse">
<stop offset="0" stop-color="#3B86E2" stop-opacity="0.19" />
<stop offset="1" stop-color="#56CDFC"  />
</linearGradient>
<linearGradient id="linear_border_2_370_0" x1="35.83868" y1="36.582440000000005" x2="9.07484" y2="11.590880000000004" gradientUnits="userSpaceOnUse">
<stop offset="0" stop-color="#3B86E2" stop-opacity="0" />
<stop offset="1" stop-color="#56CDFC"  />
</linearGradient>
<linearGradient id="linear_fill_2_454" x1="29.079345703125" y1="31.9998779296875" x2="17.3258056640625" y2="14" gradientUnits="userSpaceOnUse">
<stop offset="0" stop-color="#007CAD"  />
<stop offset="1" stop-color="#28DAFA"  />
</linearGradient>
</defs>
</svg>
