<svg xmlns="http://www.w3.org/2000/svg" xmlns:xlink="http://www.w3.org/1999/xlink" width="46" height="46" viewBox="0 0 46 46" fill="none">
<path fill-rule="evenodd"  fill="url(#linear_border_2_500_0)"  d="M23 46C35.7025 46 46 35.7025 46 23C46 10.2974 35.7025 0 23 0C10.2974 0 0 10.2974 0 23C0 35.7025 10.2974 46 23 46ZM23 2C34.598 2 44 11.402 44 23C44 34.598 34.598 44 23 44C11.402 44 2 34.598 2 23C2 11.402 11.402 2 23 2Z">
</path>
<g opacity="0.2">
<path fill-rule="evenodd"  fill="url(#linear_border_2_501_0)"  d="M23 40.9999C32.9411 40.9999 41 32.9411 41 23C41 13.0589 32.9411 5 23 5C13.0589 5 5 13.0589 5 23C5 32.9411 13.0589 40.9999 23 40.9999ZM23 5.6C32.6097 5.6 40.4 13.3902 40.4 23C40.4 32.6097 32.6097 40.3999 23 40.3999C13.3902 40.3999 5.6 32.6097 5.6 23C5.6 13.3902 13.3902 5.6 23 5.6Z">
</path>
</g>
<path d="M23.6221 25.9268L23.6221 20.2939C23.6221 19.9515 23.3492 19.6726 23.014 19.6726L22.9659 19.6726C22.6388 19.6726 22.3759 19.9433 22.3759 20.2755L22.3759 25.9268C21.4689 26.1955 20.8047 27.0239 20.8047 28.0123C20.8047 29.2201 21.786 30.1982 23 30.1982C24.212 30.1982 25.1933 29.218 25.1933 28.0123C25.1913 27.0239 24.5271 26.1975 23.6221 25.9268ZM26.8508 23.4313C26.7144 23.3165 26.6341 23.1606 26.6341 23.0007L26.6341 16.6316C26.6341 14.6282 25.0027 13 22.998 13C20.9933 13 19.3619 14.6282 19.3619 16.6316L19.3619 22.8202C19.3619 23.0889 19.2535 23.337 19.0669 23.499C17.7525 24.6329 17 26.2796 17 28.0144C17 31.3137 19.691 34 23 34C26.309 34 29 31.3158 29 28.0144C28.998 26.2385 28.2154 24.5673 26.8508 23.4313ZM22.998 32.0991C20.7304 32.0991 18.8883 30.2659 18.8883 28.0123C18.8883 26.6076 19.6067 25.3158 20.8087 24.5591L21.0997 24.3766C21.194 24.3172 21.2522 24.2105 21.2522 24.0977L21.2522 16.6316C21.2522 15.676 22.0368 14.8988 23 14.8988C23.9632 14.8988 24.7478 15.676 24.7478 16.6316L24.7478 24.0977C24.7478 24.2105 24.806 24.3172 24.9003 24.3766L25.1913 24.5591C26.3933 25.3158 27.1097 26.6056 27.1097 28.0123C27.1077 30.2659 25.2635 32.0991 22.998 32.0991Z"   fill="url(#linear_fill_Ka06yi0x_bZnDPukaMCww)" >
</path>
<defs>
<linearGradient id="linear_border_2_500_0" x1="39.40498" y1="40.35534" x2="5.206740000000001" y2="8.421680000000006" gradientUnits="userSpaceOnUse">
<stop offset="0" stop-color="#3B86E2" stop-opacity="0.19" />
<stop offset="1" stop-color="#56CDFC"  />
</linearGradient>
<linearGradient id="linear_border_2_501_0" x1="35.83868" y1="36.582440000000005" x2="9.07484" y2="11.590880000000004" gradientUnits="userSpaceOnUse">
<stop offset="0" stop-color="#3B86E2" stop-opacity="0" />
<stop offset="1" stop-color="#56CDFC"  />
</linearGradient>
<linearGradient id="linear_fill_Ka06yi0x_bZnDPukaMCww" x1="26.6475830078125" y1="34" x2="19.595458984375" y2="13" gradientUnits="userSpaceOnUse">
<stop offset="0" stop-color="#007CAD"  />
<stop offset="1" stop-color="#28DAFA"  />
</linearGradient>
</defs>
</svg>
