<svg xmlns="http://www.w3.org/2000/svg" xmlns:xlink="http://www.w3.org/1999/xlink" width="28" height="28" viewBox="0 0 28 28" fill="none">
<path d="M15.7745 14.9695C16.2837 14.9695 16.6985 14.77 17.0187 14.3972L16.604 13.9142C16.3993 14.14 16.142 14.2975 15.806 14.2975C15.1917 14.2975 14.798 13.7882 14.798 12.943C14.798 12.1082 15.2337 11.6042 15.8217 11.6042C16.1157 11.6042 16.3415 11.7408 16.541 11.9298L16.9452 11.4362C16.6932 11.1737 16.3047 10.9375 15.806 10.9375C14.8242 10.9375 14 11.6882 14 12.9692C14 14.266 14.798 14.9695 15.7745 14.9695Z"   fill="url(#linear_fill_95_1512)" >
</path>
<path d="M13.125 11.375C13.6083 11.375 14 10.9833 14 10.5C14 10.0167 13.6083 9.625 13.125 9.625C12.6417 9.625 12.25 10.0167 12.25 10.5C12.25 10.9833 12.6417 11.375 13.125 11.375Z"   fill="url(#linear_fill_95_1513)" >
</path>
<path d="" fill-rule="evenodd"  fill="url(#linear_fill_95_1515)" >
</path>
<path d="" fill-rule="evenodd"  fill="url(#linear_fill_95_1518)" >
</path>
<path     fill="#69C9B9"  d="M8.73729 9.35992L8.73729 9.35992C9.54683 9.35992 10.2031 10.0162 10.2031 10.8257L10.2031 18.088L7.27148 18.088L7.27148 10.8257C7.27148 10.0162 7.92775 9.35992 8.73729 9.35992Z">
</path>
<path     fill="url(#linear_fill_95_1522_0)"  d="M7.27637 12.8845L8.80762 12.8845C8.92843 12.8845 9.02637 12.9825 9.02637 13.1033L9.02637 13.1033C9.02637 13.2241 8.92843 13.322 8.80762 13.322L7.27637 13.322L7.27637 12.8845Z">
</path>
<path     fill="url(#linear_fill_95_1523_0)"  d="M7.27637 11.572L8.80762 11.572C8.92843 11.572 9.02637 11.67 9.02637 11.7908L9.02637 11.7908C9.02637 11.9116 8.92843 12.0095 8.80762 12.0095L7.27637 12.0095L7.27637 11.572Z">
</path>
<path     fill="url(#linear_fill_95_1524_0)"  d="M7.27637 14.197L8.80762 14.197C8.92843 14.197 9.02637 14.295 9.02637 14.4158L9.02637 14.4158C9.02637 14.5366 8.92843 14.6345 8.80762 14.6345L7.27637 14.6345L7.27637 14.197Z">
</path>
<path     fill="url(#linear_fill_95_1525_0)"  d="M7.27637 15.5095L8.80762 15.5095C8.92843 15.5095 9.02637 15.6075 9.02637 15.7283L9.02637 15.7283C9.02637 15.8491 8.92843 15.947 8.80762 15.947L7.27637 15.947L7.27637 15.5095Z">
</path>
<path d="M25.6814 5.42318C25.8167 5.57556 25.8167 5.79943 25.6814 5.95181C24.8974 6.83449 22.1616 9.625 18.9071 9.625C15.6525 9.625 12.9167 6.83449 12.1328 5.95181C11.9974 5.79943 11.9974 5.57556 12.1328 5.42318C12.9167 4.54051 15.6525 1.75 18.9071 1.75C22.1616 1.75 24.8974 4.54051 25.6814 5.42318Z"   fill="url(#linear_fill_95_1527)" >
</path>
<circle cx="18.90576171875" cy="5.6875" r="2.625"   fill="url(#linear_fill_95_1528)" >
</circle>
<path d="M18.9058 7.4375C17.9393 7.4375 17.1558 6.654 17.1558 5.6875C17.1558 5.59875 17.1744 5.48161 17.1972 5.37119C17.2297 5.21417 17.4213 5.15782 17.5605 5.23744C17.6569 5.29257 17.7637 5.3375 17.8558 5.3375C18.2424 5.3375 18.5558 5.0241 18.5558 4.6375C18.5558 4.54466 18.5377 4.45605 18.5049 4.37498C18.4395 4.21361 18.4736 3.98232 18.6458 3.95668C18.7306 3.94404 18.8174 3.9375 18.9058 3.9375C19.8723 3.9375 20.6558 4.721 20.6558 5.6875C20.6558 6.654 19.8723 7.4375 18.9058 7.4375Z"   fill="#3C9BE8" >
</path>
<path d="M25.9001 5.42318C26.0355 5.57556 26.0355 5.79943 25.9001 5.95181C25.1162 6.83449 22.3804 9.625 19.1258 9.625C15.8713 9.625 13.1355 6.83449 12.3515 5.95181C12.2162 5.79943 12.2162 5.57556 12.3515 5.42318C13.1355 4.54051 15.8713 1.75 19.1258 1.75C22.3804 1.75 25.1162 4.54051 25.9001 5.42318Z"   fill="url(#linear_fill_95_1531)" >
</path>
<circle cx="19.12451171875" cy="5.6875" r="2.625"   fill="#FFFFFF" >
</circle>
<path d="M19.1245 7.4375C18.158 7.4375 17.3745 6.654 17.3745 5.6875C17.3745 5.59875 17.3931 5.48161 17.416 5.37119C17.4485 5.21417 17.64 5.15782 17.7792 5.23744C17.8756 5.29257 17.9824 5.3375 18.0745 5.3375C18.4611 5.3375 18.7745 5.0241 18.7745 4.6375C18.7745 4.54466 18.7564 4.45605 18.7236 4.37498C18.6583 4.21361 18.6923 3.98232 18.8645 3.95668C18.9493 3.94404 19.0362 3.9375 19.1245 3.9375C20.091 3.9375 20.8745 4.721 20.8745 5.6875C20.8745 6.654 20.091 7.4375 19.1245 7.4375Z"   fill="#3C9BE8" >
</path>
<defs>
<linearGradient id="linear_fill_95_1512" x1="15.50927734375" y1="14.969512939453125" x2="15.50927734375" y2="10.9375" gradientUnits="userSpaceOnUse">
<stop offset="0" stop-color="#96C6FF"  />
<stop offset="0.4948" stop-color="#B9D9FF"  />
<stop offset="1" stop-color="#F3F8FF"  />
</linearGradient>
<linearGradient id="linear_fill_95_1513" x1="13.125" y1="11.375" x2="13.125" y2="9.625" gradientUnits="userSpaceOnUse">
<stop offset="0" stop-color="#96C6FF"  />
<stop offset="0.4948" stop-color="#B9D9FF"  />
<stop offset="1" stop-color="#F3F8FF"  />
</linearGradient>
<linearGradient id="linear_fill_95_1515" x1="8.740234375" y1="26.641571044921875" x2="8.740234375" y2="8.3125" gradientUnits="userSpaceOnUse">
<stop offset="0" stop-color="#96C6FF"  />
<stop offset="0.4948" stop-color="#B9D9FF"  />
<stop offset="1" stop-color="#F3F8FF"  />
</linearGradient>
<linearGradient id="linear_fill_95_1518" x1="8.73828125" y1="22.813446044921875" x2="8.73828125" y2="9.35992431640625" gradientUnits="userSpaceOnUse">
<stop offset="0" stop-color="#F3F8FF"  />
<stop offset="0.505208" stop-color="#B9D9FF"  />
<stop offset="1" stop-color="#96C6FF"  />
</linearGradient>
<linearGradient id="linear_fill_95_1522_0" x1="7.39111328125" y1="13.120697021484375" x2="9.27294921875" y2="13.120697021484375" gradientUnits="userSpaceOnUse">
<stop offset="0" stop-color="#F3F8FF"  />
<stop offset="1" stop-color="#A8D0FF"  />
</linearGradient>
<linearGradient id="linear_fill_95_1523_0" x1="7.39111328125" y1="11.808197021484375" x2="9.27294921875" y2="11.808197021484375" gradientUnits="userSpaceOnUse">
<stop offset="0" stop-color="#F3F8FF"  />
<stop offset="1" stop-color="#A8D0FF"  />
</linearGradient>
<linearGradient id="linear_fill_95_1524_0" x1="7.39111328125" y1="14.433197021484375" x2="9.27294921875" y2="14.433197021484375" gradientUnits="userSpaceOnUse">
<stop offset="0" stop-color="#F3F8FF"  />
<stop offset="1" stop-color="#A8D0FF"  />
</linearGradient>
<linearGradient id="linear_fill_95_1525_0" x1="7.39111328125" y1="15.745697021484375" x2="9.27294921875" y2="15.745697021484375" gradientUnits="userSpaceOnUse">
<stop offset="0" stop-color="#F3F8FF"  />
<stop offset="1" stop-color="#A8D0FF"  />
</linearGradient>
<linearGradient id="linear_fill_95_1527" x1="18.9072265625" y1="1.75" x2="18.9072265625" y2="9.84375" gradientUnits="userSpaceOnUse">
<stop offset="0" stop-color="#BFDCFF"  />
<stop offset="0.395833" stop-color="#B3D5FF"  />
<stop offset="1" stop-color="#79B6FF"  />
</linearGradient>
<linearGradient id="linear_fill_95_1528" x1="21.53076171875" y1="5.6875" x2="16.28076171875" y2="5.6875" gradientUnits="userSpaceOnUse">
<stop offset="0" stop-color="#EAF3FF"  />
<stop offset="0.505208" stop-color="#EAF3FF"  />
<stop offset="1" stop-color="#E3F0FF"  />
</linearGradient>
<linearGradient id="linear_fill_95_1531" x1="19.1259765625" y1="1.75" x2="19.1259765625" y2="9.84375" gradientUnits="userSpaceOnUse">
<stop offset="0" stop-color="#BFDCFF"  />
<stop offset="0.395833" stop-color="#B3D5FF"  />
<stop offset="1" stop-color="#79B6FF"  />
</linearGradient>
</defs>
</svg>
