<?xml version="1.0" standalone="no"?><!DOCTYPE svg PUBLIC "-//W3C//DTD SVG 1.1//EN" "http://www.w3.org/Graphics/SVG/1.1/DTD/svg11.dtd"><svg t="1730866855191" class="icon" viewBox="0 0 1093 1024" version="1.1" xmlns="http://www.w3.org/2000/svg" p-id="10015" xmlns:xlink="http://www.w3.org/1999/xlink" width="213.4765625" height="200"><path d="M1049.44793 0.628682l-2.455182-0.180909C789.276228-6.400891 644.782338 65.600536 578.905943 196.810602a383.99038 383.99038 0 0 0-28.428417 78.617494c-1.679861 6.486848-3.178814 12.922008-4.703611 19.925736l-3.773226 18.426783c-1.576485 8.089177-4.212574 21.967413-4.755299 24.629347a28.428417 28.428417 0 0 0 16.230042 32.098267 30.44425 30.44425 0 0 0 9.898258 2.868685l2.739465 0.310129 6.228408 0.180908-2.300117-0.387661-1.214669-0.361816 10.337606 1.912457 5.840748-0.878696 3.876602-1.318045 2.584402-1.240513 8.37346-6.900352c0.904541-0.801164 0.904541-0.878697 0.878697-1.085448l9.200469-13.154604-2.325961 4.858675A580.327364 580.327364 0 0 0 578.078935 431.603481l-0.775321 3.075438c-6.6936 34.191632 18.866131 54.530872 51.688031 47.449612l10.337606-2.222585 6.383472-8.244241c8.916185-11.474743 14.084988-16.307574 16.255885-17.418867l0.491037-0.206752a26.490116 26.490116 0 0 1 3.359722 0.801165l3.256346 0.956228c1.447265 0.439348 25.249603 8.838653 35.509677 11.914091a380.217153 380.217153 0 0 0 88.644972 15.015373c70.114814 4.212574 124.387246-32.382551 161.861068-95.493636 25.637263-43.237038 42.099901-98.207258 45.924815-138.368858 3.592318-38.094079 36.698502-108.105516 64.248222-143.796102l3.28219-4.135042c36.827722-44.968587 35.277081-94.175592-19.098727-100.300623zM1027.919865 59.44966l-1.834925 2.403494-2.015833 2.584401c-33.59722 40.885232-72.621683 120.87246-79.728787 173.490875l-0.646101 5.530619c-8.761121 92.702483-64.610038 186.903919-147.155823 181.916024a322.171495 322.171495 0 0 1-75.490369-12.741099l-9.381377-3.02375c-10.337606-3.437254-23.466366-8.063333-25.611419-8.735277l-4.471015-1.292201a65.462891 65.462891 0 0 0-28.040757-2.351805l-1.938301 0.335972 0.25844-0.568569c42.823533-100.79166 106.348123-154.185395 191.426622-163.799369l23.905714-2.584401 1.524797-24.034934c2.403493-37.887326-30.70269-54.918533-72.078959-53.445424-32.821899 1.162981-71.484546 13.568108-105.391894 34.656824l-7.262169 4.677767a389.262559 389.262559 0 0 0-64.81679 56.57255L617.671966 250.695374l0.38766-1.007917c3.385566-8.502681 7.288012-16.901986 12.405128-27.03284 52.515039-104.771638 167.520907-165.401698 384.714012-165.117414h14.240052z" p-id="10016"></path><path d="M790.542585 561.211218a304.959381 304.959381 0 1 1-319.199434-328.218995 285.111177 285.111177 0 0 1 101.851265-174.188663 489.149678 489.149678 0 0 0-86.706672-7.753205C217.813361 51.024511 0 268.786184 0 537.563944s217.813361 486.436056 486.487744 486.436056S972.975489 806.186639 972.975489 537.563944a489.22721 489.22721 0 0 0-9.71735-97.173498c-39.231215 61.431224-100.869192 105.986307-172.715554 120.820772z" p-id="10017"></path><path d="M239.806618 537.124595a247.533979 247.533979 0 0 0 493.362252 29.02283c-144.726486-3.02375-261.593123-124.697374-265.211285-275.807332a247.559823 247.559823 0 0 0-228.150967 246.784502z m167.314155 0a80.116447 80.116447 0 0 1 160.413803 0 80.116447 80.116447 0 1 1-160.413803 0z" p-id="10018"></path></svg>
