<?xml version="1.0" standalone="no"?><!DOCTYPE svg PUBLIC "-//W3C//DTD SVG 1.1//EN" "http://www.w3.org/Graphics/SVG/1.1/DTD/svg11.dtd"><svg t="1730439064241" class="icon" viewBox="0 0 1024 1024" version="1.1" xmlns="http://www.w3.org/2000/svg" p-id="17309" id="mx_n_1730439064241" xmlns:xlink="http://www.w3.org/1999/xlink" width="200" height="200"><path d="M819.2 665.6a51.2 51.2 0 0 1 51.2 51.2v102.4a51.2 51.2 0 0 1-51.2 51.2H204.8a51.2 51.2 0 0 1-51.2-51.2v-102.4a51.2 51.2 0 0 1 51.2-51.2h614.4z m-25.6 102.4h-204.8a25.6 25.6 0 0 0-4.608 50.7904l4.608 0.4096h204.8a25.6 25.6 0 1 0 0-51.2z m25.6-358.4a51.2 51.2 0 0 1 51.2 51.2v102.4a51.2 51.2 0 0 1-51.2 51.2H204.8a51.2 51.2 0 0 1-51.2-51.2V460.8a51.2 51.2 0 0 1 51.2-51.2h614.4zM281.6 512h-51.2a25.6 25.6 0 0 0-4.608 50.7904L230.4 563.2h51.2a25.6 25.6 0 1 0 0-51.2z m256 0h-153.6a25.6 25.6 0 0 0-4.608 50.7904L384 563.2h153.6a25.6 25.6 0 1 0 0-51.2zM819.2 153.6a51.2 51.2 0 0 1 51.2 51.2v102.4a51.2 51.2 0 0 1-51.2 51.2H204.8a51.2 51.2 0 0 1-51.2-51.2V204.8a51.2 51.2 0 0 1 51.2-51.2h614.4zM230.4 256a25.6 25.6 0 1 0 0 51.2 25.6 25.6 0 0 0 0-51.2z m102.4 0a25.6 25.6 0 1 0 0 51.2 25.6 25.6 0 0 0 0-51.2z"  p-id="17310"></path></svg>
