<?xml version="1.0" standalone="no"?><!DOCTYPE svg PUBLIC "-//W3C//DTD SVG 1.1//EN" "http://www.w3.org/Graphics/SVG/1.1/DTD/svg11.dtd"><svg t="1736321908314" class="icon" viewBox="0 0 1024 1024" version="1.1" xmlns="http://www.w3.org/2000/svg" p-id="3280" xmlns:xlink="http://www.w3.org/1999/xlink" width="200" height="200"><path d="M509.34878562 29.47898279a479.86980283 479.86980283 0 1 0 479.86980283 479.86980283A479.86980283 479.86980283 0 0 0 509.34878562 29.47898279zM348.52612131 339.45896813a234.89759408 234.89759408 0 0 0-39.92728855 292.74709187 23.4897594 23.4897594 0 0 1-39.82124 24.92141518 281.87711291 281.87711291 0 0 1 47.72185883-351.92219683 23.54278369 23.54278369 0 0 1 34.7309084 2.5451658 23.54278369 23.54278369 0 0 1-2.70423868 31.70852398zM522.60485751 548.79885561c-18.34640351 6.30989022-38.86680282-8.00666743-42.94967296-30.0117468l-81.12716003-248.31273886 139.45387641 228.00443672c10.49880895 20.04318071 3.12843297 43.95713443-15.37704342 50.32004894z m195.07635411 112.25241685a23.4897594 23.4897594 0 0 1-6.36291451-31.07223255 234.89759408 234.89759408 0 0 0-41.62406577-290.8382175 23.4897594 23.4897594 0 1 1 31.81457256-34.30671409 281.87711291 281.87711291 0 0 1 49.73678177 349.43005533 23.38371084 23.38371084 0 0 1-33.40530119 6.73408451z m104.19272514 103.71550656a35.26115125 35.26115125 0 0 1-52.01682614 2.75726294 35.20812698 35.20812698 0 0 1-2.5451658-47.35068883 330.2882875 330.2882875 0 0 0 74.23400265-209.49896033 332.56833185 332.56833185 0 1 0-598.16698847 199.47736997 35.20812698 35.20812698 0 0 1-4.2949673 47.19161598 35.20812698 35.20812698 0 0 1-51.85775328-4.71916161A402.98458579 402.98458579 0 0 1 522.07461465 107.68980702c201.17414718 6.25686594 379.0176078 179.91140784 389.67548961 380.87345785a400.91663858 400.91663858 0 0 1-89.71709463 276.15048986z" p-id="3281"></path></svg>