<svg xmlns="http://www.w3.org/2000/svg" xmlns:xlink="http://www.w3.org/1999/xlink" width="20" height="20" viewBox="0 0 20 20" fill="none">
<path d="M17.7975 8.523L11.0098 3.33633C10.43 2.88789 9.52027 2.88789 8.9405 3.33633L2.20277 8.52648C1.97086 8.70551 1.9334 9.03054 2.11357 9.25303C2.29374 9.47551 2.6309 9.51549 2.85924 9.33993L3.07687 9.17307L3.07687 15.4461C3.07687 16.3343 4.02234 17 4.86789 17L15.4981 17C16.333 17 16.8949 16.376 16.8949 15.4461L16.8949 9.15569L17.1357 9.33993C17.232 9.41467 17.348 9.45118 17.4639 9.45118C17.6209 9.45118 17.7779 9.38513 17.8831 9.25303C18.0704 9.02707 18.0258 8.70203 17.7975 8.523ZM11.5842 14.8794L11.5842 15.9588L8.39463 15.9588L8.39463 13.0613C8.39463 12.4599 8.89412 11.8116 9.98943 11.8116C11.0865 11.8116 11.5842 12.4599 11.5842 13.0613L11.5842 14.8794Z"   fill="#FFFFFF" >
</path>
</svg>
