<svg xmlns="http://www.w3.org/2000/svg" xmlns:xlink="http://www.w3.org/1999/xlink" width="17" height="16" viewBox="0 0 17 16" fill="none">
<path d="M10.1652 10.955L9.34172 10.1103C9.26369 10.0302 9.24709 9.90761 9.29856 9.80542C9.39983 9.60275 9.48449 9.38986 9.55422 9.16845C9.58742 9.05945 9.68371 8.98281 9.79494 8.98281L10.9587 8.98281C11.1878 8.98281 11.3721 8.79376 11.3721 8.55873L11.3721 7.2354C11.3721 7.00037 11.1878 6.81132 10.9587 6.81132L9.7883 6.81132C9.67707 6.81132 9.58244 6.73639 9.54758 6.62739C9.47785 6.40768 9.39318 6.1982 9.29025 5.99553C9.23879 5.89334 9.25373 5.77071 9.33176 5.68896L10.1585 4.84081C10.3196 4.6756 10.3196 4.40651 10.1585 4.24131L9.24543 3.30459C9.08439 3.13938 8.82209 3.13938 8.66105 3.30459L7.82765 4.15955C7.74963 4.2396 7.6301 4.25663 7.53049 4.20384C7.33459 4.10165 7.13039 4.01649 6.91955 3.94837C6.8133 3.9143 6.73859 3.81723 6.73859 3.70141L6.73859 2.49219C6.73859 2.25716 6.55265 2.06812 6.32521 2.06812L5.03526 2.06812C4.80616 2.06812 4.62188 2.25887 4.62188 2.49219L4.62188 3.70823C4.62188 3.82234 4.54884 3.91941 4.44259 3.95518C4.23341 4.02501 4.03253 4.11016 3.83995 4.21235C3.74034 4.26515 3.62081 4.24982 3.54278 4.16807L2.70606 3.30969C2.54503 3.14449 2.28272 3.14449 2.12168 3.30969L1.2086 4.24471C1.04756 4.40991 1.0459 4.67901 1.2086 4.84421L2.04532 5.70429C2.12334 5.78604 2.13995 5.90867 2.08848 6.00915C1.98887 6.20842 1.90586 6.4162 1.8378 6.63079C1.80293 6.73979 1.7083 6.81643 1.59707 6.81473C1.31817 6.81473 0.786916 6.81473 0.41338 6.81303C0.184278 6.81303 0 7.00207 0 7.2371L0 8.56214C0 8.79717 0.184278 8.98622 0.41338 8.98622L1.59375 8.98792C1.70498 8.98792 1.80127 9.06456 1.83448 9.17356C1.90254 9.39156 1.98555 9.60105 2.08516 9.80031C2.13663 9.9025 2.12168 10.0234 2.042 10.1052L1.21026 10.9584C1.04922 11.1236 1.04922 11.3927 1.21026 11.5579L2.12168 12.4947C2.28272 12.6599 2.54503 12.6599 2.70606 12.4947L3.53448 11.6448C3.61417 11.563 3.7337 11.5477 3.83331 11.6005C4.02921 11.7044 4.23507 11.793 4.44923 11.8628C4.55548 11.8986 4.62853 11.9956 4.62853 12.1098L4.62853 13.3088C4.62853 13.5438 4.8128 13.7328 5.04191 13.7328L6.33185 13.7328C6.56095 13.7328 6.74523 13.5438 6.74523 13.3088L6.74523 12.1132C6.74523 11.999 6.81994 11.9003 6.92619 11.8662C7.14201 11.7964 7.34787 11.7078 7.54709 11.6039C7.6467 11.5511 7.76623 11.5665 7.84426 11.6482L8.66603 12.4913C8.82707 12.6565 9.08938 12.6565 9.25041 12.4913L10.1635 11.5545C10.3279 11.3893 10.3279 11.1202 10.1652 10.955ZM7.65666 8.30837C7.50724 9.11565 6.87306 9.76625 6.08615 9.91953C4.67833 10.1937 3.46641 8.95045 3.73204 7.5045C3.88145 6.69721 4.51563 6.04662 5.30255 5.89334C6.71203 5.62084 7.92394 6.86412 7.65666 8.30837Z"   fill="#FFFFFF" >
</path>
<path d="M10.1203 3.55667L11.0782 3.88367C11.2757 3.9518 11.3272 4.21238 11.1728 4.35374L10.4174 5.0418C10.3062 5.14399 10.2962 5.31771 10.3942 5.43352L11.3455 6.53374C11.4451 6.64785 11.6144 6.65807 11.7273 6.55758L12.4827 5.86952C12.6387 5.72816 12.8844 5.81161 12.9259 6.0211L13.1285 7.03616C13.1584 7.18604 13.3011 7.28312 13.4472 7.25246L14.8517 6.95612C14.9978 6.92546 15.0924 6.77899 15.0626 6.62912L14.86 5.61405C14.8185 5.40457 15.0128 5.22744 15.2103 5.29557L16.1682 5.62257C16.3093 5.67025 16.4621 5.59191 16.5102 5.44714L16.9634 4.05228C17.0099 3.90752 16.9336 3.75083 16.7924 3.70144L15.8329 3.37274C15.6353 3.30461 15.5839 3.04403 15.7382 2.90267L16.4936 2.21461C16.6049 2.11242 16.6148 1.9387 16.5169 1.82289L15.5656 0.722671C15.466 0.608561 15.2966 0.598343 15.1838 0.698827L14.4284 1.38689C14.2723 1.52825 14.0266 1.4448 13.9851 1.23531L13.7826 0.221951C13.7527 0.072077 13.6099 -0.0250012 13.4638 0.00565498L12.0593 0.301998C11.9132 0.332655 11.8186 0.479124 11.8485 0.628999L12.051 1.64406C12.0925 1.85355 11.8983 2.03067 11.7007 1.96255L10.7445 1.63555C10.6034 1.58786 10.4506 1.6662 10.4025 1.81097L9.94927 3.20583C9.90279 3.3506 9.97915 3.50728 10.1203 3.55667ZM12.5209 3.0798C12.73 2.69489 13.165 2.47178 13.59 2.52969C14.3553 2.63528 14.7687 3.48174 14.3919 4.17321C14.1827 4.55811 13.7477 4.78122 13.3227 4.72161C12.5574 4.61943 12.144 3.77297 12.5209 3.0798ZM16.9883 12.0229L16.5683 10.6093C16.5252 10.4629 16.3724 10.3794 16.2297 10.4237L15.2585 10.7268C15.0592 10.7899 14.8683 10.6059 14.9148 10.3981L15.1439 9.38477C15.1771 9.2349 15.0875 9.08502 14.9414 9.05096L13.5385 8.71715C13.3924 8.68309 13.2463 8.77505 13.2131 8.92493L12.984 9.93829C12.9376 10.1478 12.6869 10.2244 12.5341 10.0796L11.792 9.36945C11.6825 9.26385 11.5115 9.27067 11.4086 9.38307L10.4257 10.4629C10.3228 10.5753 10.3294 10.7507 10.439 10.8563L11.1811 11.5665C11.3338 11.7129 11.2741 11.9735 11.0749 12.0365L10.1037 12.3397C9.96089 12.384 9.87954 12.5407 9.92271 12.6871L10.3427 14.1007C10.3859 14.2472 10.5386 14.3307 10.6814 14.2864L11.6526 13.9832C11.8518 13.9202 12.0427 14.1041 11.9962 14.3119L11.7671 15.3253C11.7339 15.4752 11.8236 15.625 11.9697 15.6591L13.3725 15.9929C13.5186 16.027 13.6647 15.935 13.6979 15.7851L13.927 14.7718C13.9735 14.5623 14.2242 14.4856 14.3769 14.6304L15.119 15.3406C15.2286 15.4462 15.3996 15.4394 15.5025 15.327L16.4853 14.2472C16.5882 14.1348 16.5816 13.9594 16.472 13.8538L15.7299 13.1436C15.5772 12.9971 15.637 12.7365 15.8362 12.6735L16.8074 12.3704C16.9502 12.3261 17.0315 12.1711 16.9883 12.0229ZM13.9685 13.3343C13.2812 13.7039 12.4644 13.256 12.3797 12.4657C12.3333 12.0263 12.564 11.5835 12.9442 11.3774C13.6315 11.0079 14.45 11.4558 14.533 12.246C14.5795 12.6854 14.3487 13.1282 13.9685 13.3343Z"   fill="#FFFFFF" >
</path>
</svg>
