<svg xmlns="http://www.w3.org/2000/svg" xmlns:xlink="http://www.w3.org/1999/xlink" width="10" height="10" viewBox="0 0 10 10" fill="none"><g opacity="1"  transform="translate(0 0)  rotate(0)"><mask id="bg-mask-0" fill="white"><use xlink:href="#path_0"></use></mask><g mask="url(#bg-mask-0)" ><g opacity="1"  transform="translate(0.00079345703125 0.00146484375)  rotate(0)"><g opacity="1"  transform="translate(-0.00054931640625 -0.000732421875)  rotate(0)"><path id="路径 1" fill-rule="evenodd" style="fill:#FFFFFF" opacity="0" d="M-0.000244141 9.99927L9.99976 9.99927L9.99976 -0.000732422L-0.000244141 -0.000732422L-0.000244141 9.99927Z"></path><path id="路径 2" fill-rule="evenodd" style="fill:#FFFFFF" opacity="1" d="M3.86731 5.53756C3.78731 5.61756 3.74731 5.71756 3.74731 5.82756C3.74731 5.94756 3.78731 6.04756 3.86731 6.12756C3.94731 6.20756 4.05731 6.24756 4.16731 6.24756C4.27731 6.24756 4.38731 6.20756 4.45731 6.12756L6.12731 4.45756C6.28731 4.29756 6.28731 4.03756 6.12731 3.86756C5.96731 3.70756 5.69731 3.70756 5.53731 3.86756L3.86731 5.53756Z"></path><path id="路径 3" fill-rule="evenodd" style="fill:#FFFFFF" opacity="1" d="M4.58649 7.77357C3.96649 8.41357 2.96649 8.49357 2.25649 7.94357C1.89649 7.64357 1.67649 7.20357 1.65649 6.73357C1.63649 6.26357 1.80649 5.80357 2.14649 5.47357L2.73649 4.87357C2.81649 4.80357 2.85649 4.69357 2.85649 4.58357C2.85649 4.47357 2.81649 4.36357 2.73649 4.28357C2.65649 4.20357 2.55649 4.16357 2.43649 4.16357C2.32649 4.16357 2.22649 4.20357 2.14649 4.28357L1.61649 4.82357C0.696487 5.71357 0.576487 7.15357 1.33649 8.18357C1.77649 8.75357 2.44649 9.11357 3.16649 9.16357C3.89649 9.20357 4.60649 8.94357 5.11649 8.43357L5.70649 7.84357C5.86649 7.67357 5.86649 7.41357 5.70649 7.25357C5.54649 7.08357 5.27649 7.08357 5.11649 7.25357L4.58649 7.77357Z"></path><path id="路径 4" fill-rule="evenodd" style="fill:#FFFFFF" opacity="1" d="M4.80681 1.62521L4.35681 2.08521C4.24681 2.15521 4.18681 2.27521 4.16681 2.40521C4.15681 2.52521 4.19681 2.65521 4.28681 2.75521C4.35681 2.83521 4.46681 2.87521 4.57681 2.87521C4.68681 2.87521 4.79681 2.83521 4.87681 2.75521L5.41681 2.2052C6.03681 1.56521 7.03681 1.49521 7.73681 2.04521C8.10681 2.34521 8.32681 2.78521 8.34681 3.25521C8.36681 3.72521 8.18681 4.1852 7.84681 4.51521L7.25681 5.11521C7.17681 5.19521 7.13681 5.3052 7.13681 5.41521C7.13681 5.52521 7.17681 5.62521 7.25681 5.7052C7.33681 5.7852 7.44681 5.83521 7.55681 5.83521C7.66681 5.83521 7.76681 5.7852 7.84681 5.7052L8.43681 5.11521C8.94681 4.60521 9.21681 3.89521 9.16681 3.1752C9.11681 2.44521 8.76681 1.78521 8.18681 1.34521C7.14681 0.575205 5.69681 0.695205 4.80681 1.62521Z"></path></g></g></g></g><defs><rect id="path_0" x="0" y="0" width="10" height="10" /></defs></svg>