<svg xmlns="http://www.w3.org/2000/svg" xmlns:xlink="http://www.w3.org/1999/xlink" width="17.66998291015625" height="17.669921875" viewBox="0 0 17.66998291015625 17.669921875" fill="none"><path id="路径 1" fill-rule="evenodd" style="fill:#FFFFFF" opacity="0.6" d="M8.84,17.67c-4.88,0 -8.84,-3.95 -8.84,-8.83c0,-4.88 3.96,-8.84 8.84,-8.84c4.88,0 8.83,3.96 8.83,8.84c0,4.88 -3.95,8.83 -8.83,8.83zM9.57,5.15c0,-0.4 -0.33,-0.73 -0.73,-0.73c-0.41,0 -0.74,0.33 -0.74,0.73v4.43c0,0.19 0.08,0.37 0.21,0.51l2.09,2.09c0.14,0.14 0.33,0.22 0.52,0.22c0.2,0 0.38,-0.08 0.52,-0.22c0.29,-0.29 0.29,-0.75 0.01,-1.04l-1.88,-1.87z"></path></svg>