<svg xmlns="http://www.w3.org/2000/svg" xmlns:xlink="http://www.w3.org/1999/xlink" width="16" height="16" viewBox="0 0 16 16" fill="none"><g opacity="1"  transform="translate(0 0)  rotate(0)"><mask id="bg-mask-0" fill="white"><use transform="translate(0 0)  rotate(NaN)" xlink:href="#path_0"></use></mask><g mask="url(#bg-mask-0)" ><path id="路径 1" fill-rule="evenodd" style="fill:#00CC00" opacity="1" d="M8,0c4.42,0 8,3.58 8,8c0,4.42 -3.58,8 -8,8c-4.42,0 -8,-3.58 -8,-8c0,-4.42 3.58,-8 8,-8zM1.21,8c0,3.75 3.04,6.79 6.79,6.79c3.75,0 6.79,-3.04 6.79,-6.79c0,-3.75 -3.04,-6.79 -6.79,-6.79c-3.75,0 -6.79,3.04 -6.79,6.79zM6,5.14c0.32,0 0.57,0.26 0.57,0.57v4.58c0,0.31 -0.25,0.57 -0.57,0.57c-0.32,0 -0.57,-0.26 -0.57,-0.57v-4.58c0,-0.31 0.25,-0.57 0.57,-0.57zM10.02,5.14c0.31,0 0.57,0.26 0.57,0.57v4.58c0,0.31 -0.26,0.57 -0.57,0.57c-0.32,0 -0.57,-0.26 -0.57,-0.57v-4.58c0,-0.31 0.25,-0.57 0.57,-0.57z"></path></g></g><defs><rect id="path_0" x="0" y="0" width="16" height="16" /></defs></svg>