<svg xmlns="http://www.w3.org/2000/svg" xmlns:xlink="http://www.w3.org/1999/xlink" width="18" height="18" viewBox="0 0 18 18" fill="none">
<path d="M9.05273 1.74023C10.9371 1.74023 12.4875 3.12188 12.6738 4.89199L12.6914 5.2207L12.4137 5.13984C11.4539 4.88496 10.2973 4.7373 9.05273 4.7373C7.8082 4.7373 6.65156 4.88672 5.6918 5.13984L5.41406 5.2207L5.43164 4.89199C5.61797 3.12188 7.16836 1.74023 9.05273 1.74023Z"   fill="#FFC95C" >
</path>
<path d="M11.1709 11.0215L11.7211 11.2184L14.8254 12.3346C15.968 12.7477 16.7344 13.8357 16.7344 15.0557L16.7344 16.9629L10.633 16.9629L10.633 16.9594L7.46894 16.9594L7.46894 16.9629L1.37109 16.9629L1.37109 15.0943C1.37109 13.8744 2.1375 12.7828 3.28008 12.3732L6.38262 11.257L6.38613 11.2535L6.91875 11.0619L6.91875 11.0584L6.92754 11.0584L6.93457 11.0566L6.93633 11.0584L11.1656 11.0584L11.1674 11.0303L11.1709 11.0215Z"   fill="#8891AC" >
</path>
<path d="M11.1797 9.70312L11.1797 11.0566L9.05273 12.252L6.96094 11.0566L6.92578 9.70312L11.1797 9.70312Z"   fill="#FFDF9D" >
</path>
<path d="M7.89258 12.3891L11.1797 12.3891L7.89258 12.3891ZM7.89258 12.3891L11.1797 12.3891L11.1797 12.3891L7.89258 12.3891L7.89258 12.3891ZM7.89258 12.3891L11.1797 12.3891L11.1797 12.3891L7.89258 12.3891L7.89258 12.3891Z"   fill="#FFC95C" >
</path>
<path d="M7.89258 12.375L11.1797 12.375L11.1797 12.375L7.89258 12.375L7.89258 12.375ZM7.89258 12.375L11.1797 12.375L11.1797 12.375L7.89258 12.375L7.89258 12.375Z"   fill="#FFC95B" >
</path>
<path d="M7.89258 12.3539L11.1797 12.3539L11.1797 12.3539L7.89258 12.3539L7.89258 12.3539ZM7.89258 12.3539L11.1797 12.3539L11.1797 12.3539L7.89258 12.3539L7.89258 12.3539Z"   fill="#FFC95C" >
</path>
<path d="M7.89258 12.3416L11.1797 12.3416L11.1797 12.3557L7.89258 12.3557L7.89258 12.3416ZM7.89258 12.3275L11.1797 12.3275L11.1797 12.3416L7.89258 12.3416L7.89258 12.3275ZM7.89258 12.3135L11.1797 12.3135L11.1797 12.3275L7.89258 12.3275L7.89258 12.3135ZM7.89258 12.2994L11.1797 12.2994L11.1797 12.3135L7.89258 12.3135L7.89258 12.2994ZM7.89258 12.2854L11.1797 12.2854L11.1797 12.2994L7.89258 12.2994L7.89258 12.2854ZM7.89258 12.2713L11.1797 12.2713L11.1797 12.2854L7.89258 12.2854L7.89258 12.2713ZM7.89258 12.2572L11.1797 12.2572L11.1797 12.2713L7.89258 12.2713L7.89258 12.2572ZM7.89258 12.2432L11.1797 12.2432L11.1797 12.2572L7.89258 12.2572L7.89258 12.2432ZM7.89258 12.2291L11.1797 12.2291L11.1797 12.2432L7.89258 12.2432L7.89258 12.2291ZM7.89258 12.215L11.1797 12.215L11.1797 12.2291L7.89258 12.2291L7.89258 12.215Z"   fill="#FFC95C" >
</path>
<path d="M7.89258 12.2027L11.1797 12.2027L11.1797 12.2168L7.89258 12.2168L7.89258 12.2027ZM7.89258 12.1887L11.1797 12.1887L11.1797 12.2027L7.89258 12.2027L7.89258 12.1887ZM7.89258 12.1746L11.1797 12.1746L11.1797 12.1887L7.89258 12.1887L7.89258 12.1746ZM7.89258 12.1605L11.1797 12.1605L11.1797 12.1746L7.89258 12.1746L7.89258 12.1605ZM7.89258 12.1465L11.1797 12.1465L11.1797 12.1605L7.89258 12.1605L7.89258 12.1465ZM7.89258 12.1324L11.1797 12.1324L11.1797 12.1465L7.89258 12.1465L7.89258 12.1324ZM7.89258 12.1184L11.1797 12.1184L11.1797 12.1324L7.89258 12.1324L7.89258 12.1184ZM7.89258 12.1043L11.1797 12.1043L11.1797 12.1184L7.89258 12.1184L7.89258 12.1043ZM7.89258 12.0902L11.1797 12.0902L11.1797 12.1043L7.89258 12.1043L7.89258 12.0902ZM7.89258 12.0762L11.1797 12.0762L11.1797 12.0902L7.89258 12.0902L7.89258 12.0762Z"   fill="#FFC95C" >
</path>
<path d="M7.89258 12.0568L11.1797 12.0568L11.1797 12.0568L7.89258 12.0568L7.89258 12.0568ZM7.89258 12.0568L11.1797 12.0568L11.1797 12.0568L7.89258 12.0568L7.89258 12.0568Z"   fill="#FFC95C" >
</path>
<path d="M7.89258 12.0428L11.1797 12.0428L11.1797 12.0428L7.89258 12.0428L7.89258 12.0428ZM7.89258 12.0428L11.1797 12.0428L11.1797 12.0428L7.89258 12.0428L7.89258 12.0428Z"   fill="#FFC95B" >
</path>
<path d="M7.89258 11.9865L11.1797 11.9865L11.1797 11.9865L7.89258 11.9865L7.89258 11.9865ZM7.89258 11.9865L11.1797 11.9865L11.1797 11.9865L7.89258 11.9865L7.89258 11.9865ZM7.89258 11.9865L11.1797 11.9865L11.1797 11.9865L7.89258 11.9865L7.89258 11.9865ZM7.89258 11.9865L11.1797 11.9865L11.1797 11.9865L7.89258 11.9865L7.89258 11.9865ZM7.89258 11.9865L11.1797 11.9865L11.1797 11.9865L7.89258 11.9865L7.89258 11.9865Z"   fill="#FFC95C" >
</path>
<path d="M7.89258 11.9725L11.1797 11.9725L11.1797 11.9725L7.89258 11.9725L7.89258 11.9725ZM7.89258 11.9725L11.1797 11.9725L11.1797 11.9725L7.89258 11.9725L7.89258 11.9725Z"   fill="#FFC95B" >
</path>
<path d="M7.89258 11.9443L11.1797 11.9443L11.1797 11.9443L7.89258 11.9443L7.89258 11.9443ZM7.89258 11.9443L11.1797 11.9443L11.1797 11.9443L7.89258 11.9443L7.89258 11.9443ZM7.89258 11.9443L11.1797 11.9443L11.1797 11.9443L7.89258 11.9443L7.89258 11.9443Z"   fill="#FFC95C" >
</path>
<path d="M7.89258 11.9373L11.1797 11.9373L11.1797 11.9373L7.89258 11.9373L7.89258 11.9373Z"   fill="#FFC95B" >
</path>
<path d="M7.89258 11.932L11.1797 11.932L11.1797 11.932L7.89258 11.932L7.89258 11.932Z"   fill="#FFC95B" >
</path>
<path d="M7.89258 11.925L11.1797 11.925L11.1797 11.932L7.89258 11.932L7.89258 11.925ZM7.89258 11.9109L11.1797 11.9109L11.1797 11.925L7.89258 11.925L7.89258 11.9109ZM7.89258 11.8969L11.1797 11.8969L11.1797 11.9109L7.89258 11.9109L7.89258 11.8969ZM7.89258 11.8828L11.1797 11.8828L11.1797 11.8969L7.89258 11.8969L7.89258 11.8828ZM7.89258 11.8688L11.1797 11.8688L11.1797 11.8828L7.89258 11.8828L7.89258 11.8688ZM7.89258 11.8547L11.1797 11.8547L11.1797 11.8688L7.89258 11.8688L7.89258 11.8547ZM7.89258 11.8406L11.1797 11.8406L11.1797 11.8547L7.89258 11.8547L7.89258 11.8406ZM7.89258 11.8266L11.1797 11.8266L11.1797 11.8406L7.89258 11.8406L7.89258 11.8266ZM7.89258 11.8125L11.1797 11.8125L11.1797 11.8266L7.89258 11.8266L7.89258 11.8125Z"   fill="#FFC95C" >
</path>
<path d="M7.89258 11.8002L11.1797 11.8002L11.1797 11.8143L7.89258 11.8143L7.89258 11.8002ZM7.89258 11.7861L11.1797 11.7861L11.1797 11.8002L7.89258 11.8002L7.89258 11.7861ZM7.89258 11.7721L11.1797 11.7721L11.1797 11.7861L7.89258 11.7861L7.89258 11.7721ZM7.89258 11.758L11.1797 11.758L11.1797 11.7721L7.89258 11.7721L7.89258 11.758ZM7.89258 11.744L11.1797 11.744L11.1797 11.758L7.89258 11.758L7.89258 11.744ZM7.89258 11.7299L11.1797 11.7299L11.1797 11.744L7.89258 11.744L7.89258 11.7299ZM7.89258 11.7158L11.1797 11.7158L11.1797 11.7299L7.89258 11.7299L7.89258 11.7158ZM7.89258 11.7018L11.1797 11.7018L11.1797 11.7158L7.89258 11.7158L7.89258 11.7018ZM7.89258 11.6947L11.1797 11.6947L11.1797 11.7018L7.89258 11.7018L7.89258 11.6947Z"   fill="#FFC95C" >
</path>
<path d="M7.89258 11.6807L11.1797 11.6807L11.1797 11.6807L7.89258 11.6807L7.89258 11.6807ZM7.89258 11.6807L11.1797 11.6807L11.1797 11.6807L7.89258 11.6807L7.89258 11.6807Z"   fill="#FFC85C" >
</path>
<path d="M7.89258 11.6666L11.1797 11.6666L11.1797 11.6666L7.89258 11.6666L7.89258 11.6666ZM7.89258 11.6666L11.1797 11.6666L11.1797 11.6666L7.89258 11.6666L7.89258 11.6666Z"   fill="#FFC95C" >
</path>
<path d="M7.89258 11.6543L11.1797 11.6543L11.1797 11.6543L7.89258 11.6543L7.89258 11.6543ZM7.89258 11.6543L11.1797 11.6543L11.1797 11.6543L7.89258 11.6543L7.89258 11.6543Z"   fill="#FFC85C" >
</path>
<path d="M7.89258 11.6473L11.1797 11.6473L11.1797 11.6543L7.89258 11.6543L7.89258 11.6473ZM7.89258 11.6332L11.1797 11.6332L11.1797 11.6473L7.89258 11.6473L7.89258 11.6332ZM7.89258 11.6191L11.1797 11.6191L11.1797 11.6332L7.89258 11.6332L7.89258 11.6191ZM7.89258 11.6051L11.1797 11.6051L11.1797 11.6191L7.89258 11.6191L7.89258 11.6051ZM7.89258 11.591L11.1797 11.591L11.1797 11.6051L7.89258 11.6051L7.89258 11.591ZM7.89258 11.5769L11.1797 11.5769L11.1797 11.591L7.89258 11.591L7.89258 11.5769ZM7.89258 11.5629L11.1797 11.5629L11.1797 11.5769L7.89258 11.5769L7.89258 11.5629ZM7.89258 11.5488L11.1797 11.5488L11.1797 11.5629L7.89258 11.5629L7.89258 11.5488ZM7.89258 11.5348L11.1797 11.5348L11.1797 11.5488L7.89258 11.5488L7.89258 11.5348Z"   fill="#FFC95C" >
</path>
<path d="M7.89258 11.5225L11.1797 11.5225L11.1797 11.5365L7.89258 11.5365L7.89258 11.5225ZM7.89258 11.5084L11.1797 11.5084L11.1797 11.5225L7.89258 11.5225L7.89258 11.5084ZM7.89258 11.4943L11.1797 11.4943L11.1797 11.5084L7.89258 11.5084L7.89258 11.4943ZM7.89258 11.4803L11.1797 11.4803L11.1797 11.4943L7.89258 11.4943L7.89258 11.4803ZM7.89258 11.4662L11.1797 11.4662L11.1797 11.4803L7.89258 11.4803L7.89258 11.4662ZM7.89258 11.4522L11.1797 11.4522L11.1797 11.4662L7.89258 11.4662L7.89258 11.4522ZM7.89258 11.4381L11.1797 11.4381L11.1797 11.4522L7.89258 11.4522L7.89258 11.4381ZM7.89258 11.424L11.1797 11.424L11.1797 11.4381L7.89258 11.4381L7.89258 11.424ZM7.89258 11.41L11.1797 11.41L11.1797 11.424L7.89258 11.424L7.89258 11.41ZM7.89258 11.3959L11.1797 11.3959L11.1797 11.41L7.89258 11.41L7.89258 11.3959Z"   fill="#FFC95C" >
</path>
<path d="M7.89258 11.3766L11.1797 11.3766L11.1797 11.3766L7.89258 11.3766L7.89258 11.3766ZM7.89258 11.3766L11.1797 11.3766L11.1797 11.3766L7.89258 11.3766L7.89258 11.3766Z"   fill="#FFC95C" >
</path>
<path d="M7.89258 11.3625L11.1797 11.3625L11.1797 11.3625L7.89258 11.3625L7.89258 11.3625ZM7.89258 11.3625L11.1797 11.3625L11.1797 11.3625L7.89258 11.3625L7.89258 11.3625Z"   fill="#FFC95B" >
</path>
<path d="M7.89258 11.3484L11.1797 11.3484L11.1797 11.3484L7.89258 11.3484L7.89258 11.3484ZM7.89258 11.3484L11.1797 11.3484L11.1797 11.3484L7.89258 11.3484L7.89258 11.3484Z"   fill="#FFC95C" >
</path>
<path d="M7.89258 11.3344L11.1797 11.3344L11.1797 11.3344L7.89258 11.3344L7.89258 11.3344ZM7.89258 11.3344L11.1797 11.3344L11.1797 11.3344L7.89258 11.3344L7.89258 11.3344Z"   fill="#FFC95B" >
</path>
<path d="M7.89258 11.3062L11.1797 11.3062L11.1797 11.3062L7.89258 11.3062L7.89258 11.3062ZM7.89258 11.3062L11.1797 11.3062L11.1797 11.3062L7.89258 11.3062L7.89258 11.3062ZM7.89258 11.3062L11.1797 11.3062L11.1797 11.3062L7.89258 11.3062L7.89258 11.3062Z"   fill="#FFC95C" >
</path>
<path d="M7.89258 11.2922L11.1797 11.2922L11.1797 11.2922L7.89258 11.2922L7.89258 11.2922ZM7.89258 11.2922L11.1797 11.2922L11.1797 11.2922L7.89258 11.2922L7.89258 11.2922Z"   fill="#FFC85B" >
</path>
<path d="M7.89258 11.2711L11.1797 11.2711L11.1797 11.2711L7.89258 11.2711L7.89258 11.2711ZM7.89258 11.2711L11.1797 11.2711L11.1797 11.2711L7.89258 11.2711L7.89258 11.2711Z"   fill="#FFC95C" >
</path>
<path d="M7.89258 11.2377L11.1797 11.2377L11.1797 11.2377L7.89258 11.2377L7.89258 11.2377ZM7.89258 11.2377L11.1797 11.2377L11.1797 11.2377L7.89258 11.2377L7.89258 11.2377ZM7.89258 11.2377L11.1797 11.2377L11.1797 11.2377L7.89258 11.2377L7.89258 11.2377Z"   fill="#FFC95C" >
</path>
<path d="M7.89258 11.2236L11.1797 11.2236L11.1797 11.2236L7.89258 11.2236L7.89258 11.2236ZM7.89258 11.2236L11.1797 11.2236L11.1797 11.2236L7.89258 11.2236L7.89258 11.2236Z"   fill="#FFC95B" >
</path>
<path d="M7.89258 11.1814L11.1797 11.1814L11.1797 11.1814L7.89258 11.1814L7.89258 11.1814ZM7.89258 11.1814L11.1797 11.1814L11.1797 11.1814L7.89258 11.1814L7.89258 11.1814ZM7.89258 11.1814L11.1797 11.1814L11.1797 11.1814L7.89258 11.1814L7.89258 11.1814ZM7.89258 11.1814L11.1797 11.1814L11.1797 11.1814L7.89258 11.1814L7.89258 11.1814Z"   fill="#FFC95C" >
</path>
<path d="M7.89258 11.1674L11.1797 11.1674L11.1797 11.1674L7.89258 11.1674L7.89258 11.1674ZM7.89258 11.1674L11.1797 11.1674L11.1797 11.1674L7.89258 11.1674L7.89258 11.1674Z"   fill="#FFC85C" >
</path>
<path d="M7.89258 11.1322L11.1797 11.1322L11.1797 11.1322L7.89258 11.1322L7.89258 11.1322ZM7.89258 11.1322L11.1797 11.1322L11.1797 11.1322L7.89258 11.1322L7.89258 11.1322ZM7.89258 11.1322L11.1797 11.1322L11.1797 11.1322L7.89258 11.1322L7.89258 11.1322Z"   fill="#FFC95C" >
</path>
<path d="M7.89258 11.0848L11.1797 11.0848L11.1797 11.0848L7.89258 11.0848L7.89258 11.0848ZM7.89258 11.0848L11.1797 11.0848L11.1797 11.0848L7.89258 11.0848L7.89258 11.0848ZM7.89258 11.0848L11.1797 11.0848L11.1797 11.0848L7.89258 11.0848L7.89258 11.0848ZM7.89258 11.0848L11.1797 11.0848L11.1797 11.0848L7.89258 11.0848L7.89258 11.0848Z"   fill="#FFC95C" >
</path>
<path d="M7.89258 11.0566L11.1797 11.0566L11.1797 11.0566L7.89258 11.0566L7.89258 11.0566ZM7.89258 11.0566L11.1797 11.0566L11.1797 11.0566L7.89258 11.0566L7.89258 11.0566ZM7.89258 11.0566L11.1797 11.0566L11.1797 11.0566L7.89258 11.0566L7.89258 11.0566Z"   fill="#FFC95B" >
</path>
<path d="M7.89258 11.0285L11.1797 11.0285L11.1797 11.0285L7.89258 11.0285L7.89258 11.0285ZM7.89258 11.0285L11.1797 11.0285L11.1797 11.0285L7.89258 11.0285L7.89258 11.0285ZM7.89258 11.0285L11.1797 11.0285L11.1797 11.0285L7.89258 11.0285L7.89258 11.0285Z"   fill="#FFC95C" >
</path>
<path d="M7.89258 11.0145L11.1797 11.0145L11.1797 11.0145L7.89258 11.0145L7.89258 11.0145ZM7.89258 11.0145L11.1797 11.0145L11.1797 11.0145L7.89258 11.0145L7.89258 11.0145Z"   fill="#FFC95B" >
</path>
<path d="M7.89258 11.0004L11.1797 11.0004L11.1797 11.0004L7.89258 11.0004L7.89258 11.0004ZM7.89258 11.0004L11.1797 11.0004L11.1797 11.0004L7.89258 11.0004L7.89258 11.0004Z"   fill="#FFC85B" >
</path>
<path d="M7.89258 10.9934L11.1797 10.9934L11.1797 10.9934L7.89258 10.9934L7.89258 10.9934Z"   fill="#FFC95C" >
</path>
<path d="M7.89258 10.9881L11.1797 10.9881L11.1797 10.9881L7.89258 10.9881L7.89258 10.9881Z"   fill="#FFC95C" >
</path>
<path d="M7.89258 10.974L11.1797 10.974L11.1797 10.974L7.89258 10.974L7.89258 10.974ZM7.89258 10.974L11.1797 10.974L11.1797 10.974L7.89258 10.974L7.89258 10.974Z"   fill="#FFC85C" >
</path>
<path d="M7.89258 10.96L11.1797 10.96L11.1797 10.96L7.89258 10.96L7.89258 10.96ZM7.89258 10.96L11.1797 10.96L11.1797 10.96L7.89258 10.96L7.89258 10.96Z"   fill="#FFC95C" >
</path>
<path d="M7.89258 10.9459L11.1797 10.9459L11.1797 10.9459L7.89258 10.9459L7.89258 10.9459ZM7.89258 10.9459L11.1797 10.9459L11.1797 10.9459L7.89258 10.9459L7.89258 10.9459Z"   fill="#FFC95B" >
</path>
<path d="M7.89258 10.9389L11.1797 10.9389L11.1797 10.9459L7.89258 10.9459L7.89258 10.9389ZM7.89258 10.9248L11.1797 10.9248L11.1797 10.9389L7.89258 10.9389L7.89258 10.9248ZM7.89258 10.9107L11.1797 10.9107L11.1797 10.9248L7.89258 10.9248L7.89258 10.9107ZM7.89258 10.8967L11.1797 10.8967L11.1797 10.9107L7.89258 10.9107L7.89258 10.8967ZM7.89258 10.8826L11.1797 10.8826L11.1797 10.8967L7.89258 10.8967L7.89258 10.8826ZM7.89258 10.8686L11.1797 10.8686L11.1797 10.8826L7.89258 10.8826L7.89258 10.8686ZM7.89258 10.8545L11.1797 10.8545L11.1797 10.8686L7.89258 10.8686L7.89258 10.8545Z"   fill="#FFC95C" >
</path>
<path d="M7.89258 10.8422L11.1797 10.8422L11.1797 10.8563L7.89258 10.8563L7.89258 10.8422ZM7.89258 10.8281L11.1797 10.8281L11.1797 10.8422L7.89258 10.8422L7.89258 10.8281ZM7.89258 10.8141L11.1797 10.8141L11.1797 10.8281L7.89258 10.8281L7.89258 10.8141ZM7.89258 10.8L11.1797 10.8L11.1797 10.8141L7.89258 10.8141L7.89258 10.8ZM7.89258 10.7859L11.1797 10.7859L11.1797 10.8L7.89258 10.8L7.89258 10.7859ZM7.89258 10.7719L11.1797 10.7719L11.1797 10.7859L7.89258 10.7859L7.89258 10.7719ZM7.89258 10.7648L11.1797 10.7648L11.1797 10.7719L7.89258 10.7719L7.89258 10.7648Z"   fill="#FFC95C" >
</path>
<path d="M7.89258 10.7508L11.1797 10.7508L11.1797 10.7508L7.89258 10.7508L7.89258 10.7508ZM7.89258 10.7508L11.1797 10.7508L11.1797 10.7508L7.89258 10.7508L7.89258 10.7508Z"   fill="#FFC95B" >
</path>
<path d="M7.89258 10.7297L11.1797 10.7297L11.1797 10.7297L7.89258 10.7297L7.89258 10.7297ZM7.89258 10.7297L11.1797 10.7297L11.1797 10.7297L7.89258 10.7297L7.89258 10.7297Z"   fill="#FFC95C" >
</path>
<path d="M7.89258 10.7104L11.1797 10.7104L11.1797 10.7104L7.89258 10.7104L7.89258 10.7104ZM7.89258 10.7104L11.1797 10.7104L11.1797 10.7104L7.89258 10.7104L7.89258 10.7104Z"   fill="#FFC95C" >
</path>
<path d="M7.89258 10.6963L11.1797 10.6963L11.1797 10.6963L7.89258 10.6963L7.89258 10.6963ZM7.89258 10.6963L11.1797 10.6963L11.1797 10.6963L7.89258 10.6963L7.89258 10.6963Z"   fill="#FFC95B" >
</path>
<path d="M7.89258 10.6822L11.1797 10.6822L11.1797 10.6822L7.89258 10.6822L7.89258 10.6822ZM7.89258 10.6822L11.1797 10.6822L11.1797 10.6822L7.89258 10.6822L7.89258 10.6822Z"   fill="#FFC95C" >
</path>
<path d="M7.89258 10.6682L11.1797 10.6682L11.1797 10.6682L7.89258 10.6682L7.89258 10.6682ZM7.89258 10.6682L11.1797 10.6682L11.1797 10.6682L7.89258 10.6682L7.89258 10.6682Z"   fill="#FFC95B" >
</path>
<path d="M7.89258 10.5969L11.1797 10.5969L11.1797 10.5975L7.89258 10.5975L7.89258 10.5969ZM7.89258 10.5957L11.1797 10.5957L11.1797 10.5969L7.89258 10.5969L7.89258 10.5957ZM7.89258 10.5944L11.1797 10.5944L11.1797 10.5957L7.89258 10.5957L7.89258 10.5944ZM7.89258 10.5932L11.1797 10.5932L11.1797 10.5944L7.89258 10.5944L7.89258 10.5932ZM7.89258 10.592L11.1797 10.592L11.1797 10.5932L7.89258 10.5932L7.89258 10.592ZM7.89258 10.5908L11.1797 10.5908L11.1797 10.592L7.89258 10.592L7.89258 10.5908Z"   fill="#FFC95C" >
</path>
<path d="M7.89258 10.5785L11.1797 10.5785L11.1797 10.5926L7.89258 10.5926L7.89258 10.5785ZM7.89258 10.5645L11.1797 10.5645L11.1797 10.5785L7.89258 10.5785L7.89258 10.5645ZM7.89258 10.5504L11.1797 10.5504L11.1797 10.5645L7.89258 10.5645L7.89258 10.5504ZM7.89258 10.5363L11.1797 10.5363L11.1797 10.5504L7.89258 10.5504L7.89258 10.5363ZM7.89258 10.5223L11.1797 10.5223L11.1797 10.5363L7.89258 10.5363L7.89258 10.5223ZM7.89258 10.5082L11.1797 10.5082L11.1797 10.5223L7.89258 10.5223L7.89258 10.5082ZM7.89258 10.4941L11.1797 10.4941L11.1797 10.5082L7.89258 10.5082L7.89258 10.4941ZM7.89258 10.4801L11.1797 10.4801L11.1797 10.4941L7.89258 10.4941L7.89258 10.4801ZM7.89258 10.466L11.1797 10.466L11.1797 10.4801L7.89258 10.4801L7.89258 10.466ZM7.89258 10.452L11.1797 10.452L11.1797 10.466L7.89258 10.466L7.89258 10.452Z"   fill="#FFC95C" >
</path>
<path d="M7.89258 10.4396L11.1797 10.4396L11.1797 10.4537L7.89258 10.4537L7.89258 10.4396ZM7.89258 10.4256L11.1797 10.4256L11.1797 10.4396L7.89258 10.4396L7.89258 10.4256ZM7.89258 10.4115L11.1797 10.4115L11.1797 10.4256L7.89258 10.4256L7.89258 10.4115ZM7.89258 10.3975L11.1797 10.3975L11.1797 10.4115L7.89258 10.4115L7.89258 10.3975ZM7.89258 10.3834L11.1797 10.3834L11.1797 10.3975L7.89258 10.3975L7.89258 10.3834ZM7.89258 10.3693L11.1797 10.3693L11.1797 10.3834L7.89258 10.3834L7.89258 10.3693ZM7.89258 10.3553L11.1797 10.3553L11.1797 10.3693L7.89258 10.3693L7.89258 10.3553ZM7.89258 10.3412L11.1797 10.3412L11.1797 10.3553L7.89258 10.3553L7.89258 10.3412ZM7.89258 10.3271L11.1797 10.3271L11.1797 10.3412L7.89258 10.3412L7.89258 10.3271ZM7.89258 10.3131L11.1797 10.3131L11.1797 10.3271L7.89258 10.3271L7.89258 10.3131Z"   fill="#FFC95C" >
</path>
<path d="M7.89258 10.3008L11.1797 10.3008L11.1797 10.3148L7.89258 10.3148L7.89258 10.3008ZM7.89258 10.2867L11.1797 10.2867L11.1797 10.3008L7.89258 10.3008L7.89258 10.2867ZM7.89258 10.2727L11.1797 10.2727L11.1797 10.2867L7.89258 10.2867L7.89258 10.2727ZM7.89258 10.2586L11.1797 10.2586L11.1797 10.2727L7.89258 10.2727L7.89258 10.2586ZM7.89258 10.2445L11.1797 10.2445L11.1797 10.2586L7.89258 10.2586L7.89258 10.2445ZM7.89258 10.2305L11.1797 10.2305L11.1797 10.2445L7.89258 10.2445L7.89258 10.2305ZM7.89258 10.2164L11.1797 10.2164L11.1797 10.2305L7.89258 10.2305L7.89258 10.2164ZM7.89258 10.2023L11.1797 10.2023L11.1797 10.2164L7.89258 10.2164L7.89258 10.2023ZM7.89258 10.1883L11.1797 10.1883L11.1797 10.2023L7.89258 10.2023L7.89258 10.1883Z"   fill="#FFC95C" >
</path>
<path d="M7.89258 10.1181L11.1797 10.1181L11.1797 10.1193L7.89258 10.1193L7.89258 10.1181ZM7.89258 10.1169L11.1797 10.1169L11.1797 10.1181L7.89258 10.1181L7.89258 10.1169ZM7.89258 10.1157L11.1797 10.1157L11.1797 10.1169L7.89258 10.1169L7.89258 10.1157ZM7.89258 10.1145L11.1797 10.1145L11.1797 10.1157L7.89258 10.1157L7.89258 10.1145ZM7.89258 10.1133L11.1797 10.1133L11.1797 10.1145L7.89258 10.1145L7.89258 10.1133ZM7.89258 10.1127L11.1797 10.1127L11.1797 10.1133L7.89258 10.1133L7.89258 10.1127Z"   fill="#FFC95C" >
</path>
<path d="M7.89258 10.0986L11.1797 10.0986L11.1797 10.0986L7.89258 10.0986L7.89258 10.0986ZM7.89258 10.0986L11.1797 10.0986L11.1797 10.0986L7.89258 10.0986L7.89258 10.0986Z"   fill="#FFC95B" >
</path>
<path d="M7.89258 10.0494L11.1797 10.0494L11.1797 10.0494L7.89258 10.0494L7.89258 10.0494ZM7.89258 10.0494L11.1797 10.0494L11.1797 10.0494L7.89258 10.0494L7.89258 10.0494ZM7.89258 10.0494L11.1797 10.0494L11.1797 10.0494L7.89258 10.0494L7.89258 10.0494ZM7.89258 10.0494L11.1797 10.0494L11.1797 10.0494L7.89258 10.0494L7.89258 10.0494Z"   fill="#FFC95C" >
</path>
<path d="M7.89258 10.0371L11.1797 10.0371L11.1797 10.0512L7.89258 10.0512L7.89258 10.0371ZM7.89258 10.0231L11.1797 10.0231L11.1797 10.0371L7.89258 10.0371L7.89258 10.0231ZM7.89258 10.009L11.1797 10.009L11.1797 10.0231L7.89258 10.0231L7.89258 10.009ZM7.89258 9.99493L11.1797 9.99493L11.1797 10.009L7.89258 10.009L7.89258 9.99493ZM7.89258 9.98087L11.1797 9.98087L11.1797 9.99493L7.89258 9.99493L7.89258 9.98087ZM7.89258 9.9668L11.1797 9.9668L11.1797 9.98087L7.89258 9.98087L7.89258 9.9668ZM7.89258 9.95274L11.1797 9.95274L11.1797 9.9668L7.89258 9.9668L7.89258 9.95274ZM7.89258 9.93868L11.1797 9.93868L11.1797 9.95274L7.89258 9.95274L7.89258 9.93868ZM7.89258 9.92461L11.1797 9.92461L11.1797 9.93868L7.89258 9.93868L7.89258 9.92461ZM7.89258 9.91055L11.1797 9.91055L11.1797 9.92461L7.89258 9.92461L7.89258 9.91055Z"   fill="#FFC95C" >
</path>
<path d="M7.89258 9.89824L11.1797 9.89824L11.1797 9.91231L7.89258 9.91231L7.89258 9.89824ZM7.89258 9.88418L11.1797 9.88418L11.1797 9.89824L7.89258 9.89824L7.89258 9.88418ZM7.89258 9.87012L11.1797 9.87012L11.1797 9.88418L7.89258 9.88418L7.89258 9.87012ZM7.89258 9.85606L11.1797 9.85606L11.1797 9.87012L7.89258 9.87012L7.89258 9.85606ZM7.89258 9.842L11.1797 9.842L11.1797 9.85606L7.89258 9.85606L7.89258 9.842ZM7.89258 9.82793L11.1797 9.82793L11.1797 9.842L7.89258 9.842L7.89258 9.82793ZM7.89258 9.81387L11.1797 9.81387L11.1797 9.82793L7.89258 9.82793L7.89258 9.81387ZM7.89258 9.79981L11.1797 9.79981L11.1797 9.81387L7.89258 9.81387L7.89258 9.79981ZM7.89258 9.78574L11.1797 9.78574L11.1797 9.79981L7.89258 9.79981L7.89258 9.78574ZM7.89258 9.77168L11.1797 9.77168L11.1797 9.78574L7.89258 9.78574L7.89258 9.77168Z"   fill="#FFC95C" >
</path>
<path d="M7.89258 9.70354L11.1797 9.70354L11.1797 9.70364L7.89258 9.70364L7.89258 9.70354ZM7.89258 9.70343L11.1797 9.70343L11.1797 9.70354L7.89258 9.70354L7.89258 9.70343ZM7.89258 9.70333L11.1797 9.70333L11.1797 9.70343L7.89258 9.70343L7.89258 9.70333ZM7.89258 9.70323L11.1797 9.70323L11.1797 9.70333L7.89258 9.70333L7.89258 9.70323ZM7.89258 9.70312L11.1797 9.70312L11.1797 9.70323L7.89258 9.70323L7.89258 9.70312ZM11.1797 9.70312L7.89258 9.70312L11.1797 9.70312Z"   fill="#FFC95C" >
</path>
<path d="M9.07556 5.53711C10.1707 5.53711 11.2148 5.69004 12.164 5.96777L12.3785 6.03984L12.3908 6.15059C12.4013 6.30352 12.4084 6.4582 12.4084 6.61641L12.4013 6.81504L12.4154 6.81152C12.4506 6.80801 12.4875 6.81152 12.5209 6.82031C12.8004 6.89063 12.9322 7.32481 12.8162 7.79063C12.7142 8.19844 12.4558 8.49551 12.2062 8.5166L12.1095 8.50957L12.0129 8.78906C11.4592 10.2094 10.3799 11.1727 9.1406 11.1727C7.89959 11.1727 6.82029 10.2094 6.26833 8.78906L6.1699 8.50781L6.07322 8.51484C5.82361 8.49375 5.56521 8.19668 5.46326 7.78887C5.34724 7.32305 5.47908 6.88887 5.75857 6.81855C5.79373 6.80977 5.82888 6.80801 5.86404 6.80977L5.8781 6.81328L5.87107 6.61465C5.87107 6.4582 5.87634 6.30176 5.88865 6.14883L5.90622 5.99414L5.98708 5.96777C6.9363 5.6918 7.98045 5.53711 9.07556 5.53711Z"   fill="#FFE9BE" >
</path>
<path d="M6.22266 5.92383L6.20684 6.22969C6.20684 7.1666 6.38965 8.03848 6.7043 8.75918L6.72363 8.79961L6.83613 8.89277C7.52168 9.40957 8.34434 9.66973 9.10019 9.65391C9.85605 9.63809 10.8369 9.50098 11.4785 8.8541L11.5189 8.80488L11.54 8.75918C11.8547 8.03672 12.0375 7.1666 12.0375 6.22969L12.0234 5.95898L12.143 5.98887L12.3486 6.05742L12.3574 6.13652C12.368 6.28945 12.375 6.4459 12.375 6.60234C12.375 9.12129 10.9195 11.1621 9.12305 11.1621C7.32656 11.1621 5.87109 9.12129 5.87109 6.6041C5.87109 6.4459 5.87637 6.29121 5.88867 6.13828L5.90273 6.00996L5.9625 5.99062L6.22266 5.92383Z"   fill="#AD7400" >
</path>
<path d="M8.42871 9.7207C8.60449 9.7207 8.91211 9.63281 9.04394 9.36914C9.17578 9.63281 9.4834 9.7207 9.65918 9.7207C10.2305 9.7207 10.3184 9.3252 10.3184 9.3252C10.2744 9.36914 10.1865 9.41309 10.0547 9.41309C9.83496 9.41309 9.79101 9.01758 9.4834 9.01758C9.17578 9.01758 9.04394 9.2373 9.04394 9.2373C9.04394 9.2373 8.91211 9.01758 8.60449 9.01758C8.29688 9.01758 8.25293 9.41309 8.0332 9.41309C7.90137 9.41309 7.81348 9.36914 7.76953 9.3252C7.76953 9.3252 7.85742 9.7207 8.42871 9.7207Z"   fill="#825700" >
</path>
<path d="M11.3256 5.75859L11.4609 5.7832C11.7105 5.83594 11.9531 5.89922 12.1922 5.96777L12.3662 6.02578L12.3768 6.12598C12.3873 6.27891 12.3943 6.43535 12.3943 6.5918C12.3943 6.90645 12.3715 7.21406 12.3275 7.51113L12.2836 7.7502L12.2432 7.69043C12.2062 7.62187 12.1676 7.54277 12.1219 7.4584C11.9391 7.11914 12.1025 6.26836 11.6754 5.94141C11.6227 5.90098 11.5611 5.8623 11.4943 5.82891L11.3256 5.75859ZM7.41797 5.66016L7.20879 5.72695C7.11738 5.76387 7.03477 5.8043 6.9627 5.85352C6.3791 6.23672 6.22266 7.43379 6.04688 7.79414C6.02578 7.83984 6.0082 7.87852 5.99414 7.91191L5.98887 7.92773L5.91152 7.51113C5.89043 7.36348 5.87285 7.2123 5.8623 7.05762L5.85352 6.81152L5.87988 6.80977L5.89395 6.81328L5.88691 6.61289C5.88691 6.45469 5.89219 6.3 5.90449 6.14707L5.92207 5.99238L6.00293 5.96602C6.24023 5.8957 6.48457 5.83418 6.73418 5.78145L7.41797 5.66016Z"   fill="#825700" >
</path>
<path d="M4.92188 5.7832C4.92188 5.19082 6.81152 4.71094 9.14062 4.71094C11.4697 4.71094 13.3594 5.19082 13.3594 5.7832C13.3594 6.37559 11.4697 6.85547 9.14062 6.85547C6.81152 6.85547 4.92188 6.37559 4.92188 5.7832Z"   fill="#FFAC05" >
</path>
<path d="M8.47803 1.94941L8.58701 1.43965C8.60811 1.33769 8.68721 1.26738 8.77685 1.26738L9.32881 1.26738C9.41846 1.26738 9.4958 1.33945 9.51865 1.43965L9.62764 1.94941C9.65928 2.09355 9.56611 2.23242 9.43779 2.23242L8.66787 2.23242C8.54131 2.23242 8.44814 2.09355 8.47803 1.94941Z"   fill="#FFC95C" >
</path>
<path d="M11.1323 2.51368L11.5665 2.22539C11.6526 2.16739 11.7581 2.1709 11.8214 2.23418L12.2151 2.61915C12.2784 2.68243 12.2854 2.78614 12.2292 2.87403L11.9497 3.31348C11.8706 3.43829 11.7071 3.47344 11.6175 3.38379L11.069 2.84766C10.9776 2.75977 11.0093 2.59629 11.1323 2.51368Z"   fill="#FFC95C" >
</path>
<path d="M6.61475 2.63497L6.18057 2.34669C6.09444 2.28868 5.98897 2.29219 5.92569 2.35548L5.53194 2.74044C5.46866 2.80372 5.46163 2.90743 5.51788 2.99532L5.79737 3.43477C5.87647 3.55958 6.03995 3.59473 6.1296 3.50509L6.67803 2.96895C6.76944 2.88106 6.7378 2.71583 6.61475 2.63497Z"   fill="#FFC95C" >
</path>
<path d="M5.7498 3.83203L12.3732 3.83203L12.5473 4.24687L12.5859 4.42969L5.53711 4.42969L5.57578 4.24687L5.7498 3.83203Z"   fill="#474F66" >
</path>
<path d="M7.76953 3.84961C7.76953 3.14121 8.34434 2.56641 9.05273 2.56641C9.76113 2.56641 10.3359 3.14121 10.3359 3.84961C10.3359 4.55801 9.76113 5.13281 9.05273 5.13281C8.34434 5.13281 7.76953 4.55801 7.76953 3.84961Z"   fill="#474F66" >
</path>
<path d="M8.20898 3.84961C8.20898 3.38379 8.58691 3.00586 9.05273 3.00586C9.51855 3.00586 9.89648 3.38379 9.89648 3.84961C9.89648 4.31543 9.51855 4.69336 9.05273 4.69336C8.58691 4.69336 8.20898 4.31543 8.20898 3.84961Z"   fill="#A8ADC1" >
</path>
<path d="M8.56055 3.66504C8.56055 3.48574 8.70644 3.33984 8.88574 3.33984C9.06504 3.33984 9.21094 3.48574 9.21094 3.66504C9.21094 3.84434 9.06504 3.99023 8.88574 3.99023C8.70644 3.99023 8.56055 3.84434 8.56055 3.66504Z"   fill="#EEEFF3" >
</path>
<path d="M7.26328 10.8281L6.75 11.2799L7.14375 12.4857L8.23184 13.6916L9.04746 13.6916L10.1355 13.1186L11.2236 12.3645L11.4961 11.3695L11.0725 10.8861L8.62383 11.4609L7.26328 10.8281Z"   fill="#FFDF9D" >
</path>
<path d="M7.03465 11.7387C7.21043 11.8336 7.79227 12.5982 8.20887 12.7951C8.62547 12.992 9.04207 13.0412 9.5325 12.9164C10.0247 12.7898 10.9177 12.0814 11.1585 12.041C11.3993 12.0006 11.104 12.2379 10.9774 12.6756C10.8526 13.1133 10.6012 14.0748 10.4061 14.6689C10.211 15.2631 10.0352 15.866 9.80496 16.2387C9.57469 16.6113 9.20379 16.8029 9.02273 16.9031C8.84168 17.0033 8.93308 17.2107 8.72215 16.8434C8.51121 16.476 8.01903 15.4705 7.75887 14.7006C7.49871 13.9307 7.27723 12.6984 7.1577 12.2256C7.03465 11.7492 6.85887 11.6437 7.03465 11.7387Z"   fill="#232733" >
</path>
<path d="M6.90817 10.7402L9.0527 16.9629L8.26696 16.933L6.30348 14.7586L6.99782 13.551L5.36657 12.3732C4.99391 12.0287 5.407 11.083 6.90817 10.7402Z"   fill="#474F66" >
</path>
<path d="M11.1973 10.7402L9.05273 16.9629L9.83848 16.933L11.802 14.7586L11.1076 13.551L12.7389 12.3732C13.1115 12.0287 12.6984 11.083 11.1973 10.7402Z"   fill="#474F66" >
</path>
<path d="M12.7969 15.8607C12.7969 15.8098 12.8391 15.7676 12.89 15.7676L14.8289 15.7676C14.8799 15.7676 14.9221 15.8098 14.9221 15.8607L14.9221 16.2352C14.9221 16.2861 14.8799 16.3283 14.8289 16.3283L12.89 16.3283C12.8391 16.3283 12.7969 16.2861 12.7969 16.2352L12.7969 15.8607Z"   fill="#D7DAE3" >
</path>
</svg>
