<?xml version="1.0" standalone="no"?><!DOCTYPE svg PUBLIC "-//W3C//DTD SVG 1.1//EN" "http://www.w3.org/Graphics/SVG/1.1/DTD/svg11.dtd"><svg t="1730867311228" class="icon" viewBox="0 0 1024 1024" version="1.1" xmlns="http://www.w3.org/2000/svg" p-id="16633" xmlns:xlink="http://www.w3.org/1999/xlink" width="200" height="200"><path d="M516.452174 989.362087a47.771826 47.771826 0 0 0-4.541217-1.825391C412.40487 949.337043 87.752348 798.630957 87.752348 462.447304V172.922435C301.32313 172.877913 514.359652 1.78087 516.452174 0c2.092522 1.736348 211.033043 172.922435 428.744348 172.922435v289.524869a473.444174 473.444174 0 0 1-66.738087 244.825044 592.896 592.896 0 0 1-146.832696 163.038609 783.449043 783.449043 0 0 1-215.218087 119.05113z m-3.116522-740.307478a105.961739 105.961739 0 1 0 0 212.012521 177.686261 177.686261 0 0 0-178.710261 176.61774c0 50.265043 92.338087 73.193739 178.665739 73.193739 86.372174 0 178.710261-22.884174 178.710261-73.193739a178.086957 178.086957 0 0 0-178.086956-176.61774 105.961739 105.961739 0 0 0 0-212.012521h-0.623305z"  p-id="16634"></path></svg>
