<svg xmlns="http://www.w3.org/2000/svg" xmlns:xlink="http://www.w3.org/1999/xlink" width="16" height="16" viewBox="0 0 16 16" fill="none"><g opacity="1"  transform="translate(0 0)  rotate(0)"><mask id="bg-mask-0" fill="white"><use transform="translate(0 0)  rotate(NaN)" xlink:href="#path_0"></use></mask><g mask="url(#bg-mask-0)" ><path id="并集" fill-rule="evenodd" style="fill:#33A3FF" opacity="1" d="M15.11,4.33c0.57,1.1 0.89,2.35 0.89,3.67c0,4.42 -3.58,8 -8,8c-4.42,0 -8,-3.58 -8,-8c0,-4.42 3.58,-8 8,-8c1.3,0 2.53,0.31 3.62,0.86c0.2,0.09 0.34,0.29 0.34,0.53c0,0.31 -0.26,0.57 -0.57,0.57c-0.11,0 -0.2,-0.02 -0.28,-0.07l-0.01,0.01c-0.93,-0.48 -1.98,-0.75 -3.1,-0.75c-3.78,0 -6.85,3.07 -6.85,6.85c0,3.78 3.07,6.85 6.85,6.85c3.78,0 6.85,-3.07 6.85,-6.85c0,-1.12 -0.27,-2.19 -0.75,-3.12c-0.05,-0.09 -0.08,-0.19 -0.08,-0.3c0,-0.31 0.25,-0.57 0.57,-0.57c0.23,0 0.42,0.13 0.52,0.32zM13.5184,3.2339c-0.17,0.1 -0.39,0.1 -0.57,0c-0.18,-0.1 -0.29,-0.29 -0.29,-0.5c0,-0.2 0.11,-0.39 0.29,-0.49c0.18,-0.11 0.4,-0.11 0.57,0c0.18,0.1 0.29,0.29 0.29,0.49c0,0.21 -0.11,0.4 -0.29,0.5zM10.6975,8.5062l-4.13,2.41c-0.08,0.05 -0.18,0.08 -0.29,0.08c-0.31,0 -0.56,-0.26 -0.56,-0.57v-0.06l-0.01,-4.81h0.01v-0.04c0,-0.31 0.25,-0.57 0.56,-0.57c0.17,0 0.33,0.08 0.43,0.19l4.04,2.36c0.17,0.09 0.28,0.28 0.28,0.49c0,0.23 -0.13,0.43 -0.33,0.52z"></path></g></g><defs><rect id="path_0" x="0" y="0" width="16" height="16" /></defs></svg>