<?xml version="1.0" standalone="no"?><!DOCTYPE svg PUBLIC "-//W3C//DTD SVG 1.1//EN" "http://www.w3.org/Graphics/SVG/1.1/DTD/svg11.dtd"><svg t="1696989281462" class="icon" viewBox="0 0 1024 1024" version="1.1" xmlns="http://www.w3.org/2000/svg" p-id="1202" xmlns:xlink="http://www.w3.org/1999/xlink" width="200" height="200"><path d="M1017.6 512C1024 505.6 1024 492.8 1024 480s0-25.6-6.4-32c-6.4-12.8-19.2-19.2-25.6-25.59999999L262.4 6.4c-19.2-12.8-44.8-12.8-64 0-12.8 6.4-12.8 12.8-19.2 25.6s-6.4 19.2-6.4 32l0 819.2c0 12.8 0 25.6 6.40000001 32 6.4 12.8 12.8 19.2 19.19999999 25.6 19.2 12.8 44.8 12.8 64 0L992 537.6C998.4 531.2 1011.2 524.8 1017.6 512z" fill="#FFFFFF" p-id="1203"></path></svg>