<?xml version="1.0" standalone="no"?><!DOCTYPE svg PUBLIC "-//W3C//DTD SVG 1.1//EN" "http://www.w3.org/Graphics/SVG/1.1/DTD/svg11.dtd"><svg t="1696833534959" class="icon" viewBox="0 0 1024 1024" version="1.1" xmlns="http://www.w3.org/2000/svg" p-id="24283" xmlns:xlink="http://www.w3.org/1999/xlink" width="200" height="200"><path d="M640 96v149.333333a53.393333 53.393333 0 0 1-53.333333 53.333334H437.333333a53.393333 53.393333 0 0 1-53.333333-53.333334V96a53.393333 53.393333 0 0 1 53.333333-53.333333h149.333334a53.393333 53.393333 0 0 1 53.333333 53.333333zM245.333333 42.666667H96a53.393333 53.393333 0 0 0-53.333333 53.333333v149.333333a53.393333 53.393333 0 0 0 53.333333 53.333334h149.333333a53.393333 53.393333 0 0 0 53.333334-53.333334V96a53.393333 53.393333 0 0 0-53.333334-53.333333z m682.666667 0h-149.333333a53.393333 53.393333 0 0 0-53.333334 53.333333v149.333333a53.393333 53.393333 0 0 0 53.333334 53.333334h149.333333a53.393333 53.393333 0 0 0 53.333333-53.333334V96a53.393333 53.393333 0 0 0-53.333333-53.333333z m0 341.333333h-149.333333a53.393333 53.393333 0 0 0-53.333334 53.333333v149.333334a53.393333 53.393333 0 0 0 53.333334 53.333333h149.333333a53.393333 53.393333 0 0 0 53.333333-53.333333V437.333333a53.393333 53.393333 0 0 0-53.333333-53.333333z m-682.666667 0H96a53.393333 53.393333 0 0 0-53.333333 53.333333v149.333334a53.393333 53.393333 0 0 0 53.333333 53.333333h149.333333a53.393333 53.393333 0 0 0 53.333334-53.333333V437.333333a53.393333 53.393333 0 0 0-53.333334-53.333333z m341.333334 0H437.333333a53.393333 53.393333 0 0 0-53.333333 53.333333v149.333334a53.393333 53.393333 0 0 0 53.333333 53.333333h149.333334a53.393333 53.393333 0 0 0 53.333333-53.333333V437.333333a53.393333 53.393333 0 0 0-53.333333-53.333333z m-341.333334 341.333333H96a53.393333 53.393333 0 0 0-53.333333 53.333334v149.333333a53.393333 53.393333 0 0 0 53.333333 53.333333h149.333333a53.393333 53.393333 0 0 0 53.333334-53.333333v-149.333333a53.393333 53.393333 0 0 0-53.333334-53.333334z m341.333334 0H437.333333a53.393333 53.393333 0 0 0-53.333333 53.333334v149.333333a53.393333 53.393333 0 0 0 53.333333 53.333333h149.333334a53.393333 53.393333 0 0 0 53.333333-53.333333v-149.333333a53.393333 53.393333 0 0 0-53.333333-53.333334z m341.333333 0h-149.333333a53.393333 53.393333 0 0 0-53.333334 53.333334v149.333333a53.393333 53.393333 0 0 0 53.333334 53.333333h149.333333a53.393333 53.393333 0 0 0 53.333333-53.333333v-149.333333a53.393333 53.393333 0 0 0-53.333333-53.333334z" fill="" p-id="24284"></path></svg>
