<svg xmlns="http://www.w3.org/2000/svg" xmlns:xlink="http://www.w3.org/1999/xlink" width="28" height="28" viewBox="0 0 28 28" fill="none">
<path   fill-rule="evenodd"  fill="url(#linear_fill_6_1418_0)"  d="M22.7458 20.9574C22.6837 20.2666 22.373 19.5129 22.0003 19.0105C21.0064 17.6287 18.0246 16.3726 17.4034 16.3098C16.5958 16.1842 16.5337 15.2421 16.9685 14.2373C17.217 13.672 17.3412 13.1068 17.3412 13.1068C17.3412 13.1068 18.4594 11.9135 18.4594 11.8507L18.4594 7.45429C18.3973 6.70063 18.2109 6.13538 17.9003 5.69574L18.1488 5.94696L18.3973 5.94696C19.8882 5.94696 20.3852 6.70063 20.5094 8.01954C20.6337 9.21284 20.323 10.2805 20.323 10.2805C20.323 10.2805 20.8821 10.6574 20.5094 11.5994C20.1367 12.5415 19.5776 12.6671 19.5776 12.6671C19.5776 12.6671 19.4534 13.1696 19.267 13.6092C18.8943 14.4257 18.9564 15.6818 19.6397 15.8074C20.1367 15.8702 22.6215 16.3726 23.4291 17.5031C24.1124 18.508 24.4852 20.3294 22.7458 20.9574ZM17.1549 11.7879C16.72 12.9812 16.0367 13.044 16.0367 13.044C16.0367 13.044 15.9125 13.672 15.664 14.1745C15.2291 15.1793 15.2912 16.7495 16.0988 16.8751C16.72 16.9379 19.764 17.6287 20.6958 18.9477C21.6897 20.3294 22.1246 22.6532 19.7018 23.344C18.77 23.5953 17.0928 23.8465 15.167 23.9721C13.8625 24.0349 10.6943 23.9721 10.4458 23.9721C8.52004 23.8465 6.78065 23.6581 5.78671 23.344C3.36399 22.6532 3.79884 20.2666 4.79278 18.9477C5.78671 17.5659 8.83065 16.9379 9.45186 16.8751C10.0731 16.8123 10.3837 16.3098 10.57 15.8074C10.6943 15.305 10.1352 14.9909 9.82458 14.4257C9.51398 13.8604 9.32762 13.044 9.32762 13.044C9.32762 13.044 8.7064 12.9812 8.20944 11.7879C7.77459 10.5946 8.45792 10.1549 8.45792 10.1549C8.45792 10.1549 8.08519 8.83601 8.33368 7.39149C8.58216 5.88416 9.94883 4 11.7503 4C13.7382 4 14.2352 4.56525 14.2973 4.81647L14.5458 4.81647C16.4094 4.81647 16.9685 5.75855 17.0928 7.39149C17.217 8.89881 16.8443 10.1549 16.8443 10.1549C16.8443 10.1549 17.5897 10.5946 17.1549 11.7879Z">
</path>
<defs>
<linearGradient id="linear_fill_6_1418_0" x1="13.999755859375" y1="4" x2="13.999755859375" y2="24" gradientUnits="userSpaceOnUse">
<stop offset="0" stop-color="#0AFAFB"  />
<stop offset="1" stop-color="#0D76FF"  />
</linearGradient>
</defs>
</svg>
