<svg xmlns="http://www.w3.org/2000/svg" xmlns:xlink="http://www.w3.org/1999/xlink" width="22" height="20.791748046875" viewBox="0 0 22 20.791748046875" fill="none"><g opacity="1"  transform="translate(0 0.001708984375)  rotate(0)"><path id="路径 1" fill-rule="evenodd" style="fill:#FFFFFF" opacity="1" d="M21.77,8.24999c0.01,0.04 0.23,1.21 0.23,2.15001c0,0.94 -0.22,2.11 -0.23,2.15c-0.13,0.7 -0.56,1.14 -1.08,1.14h-0.11c-1.47,0 -2.66,1.2 -2.66,2.66c0,0.47 0.22,1 0.23,1.02c0.27,0.61 0.06,1.35 -0.48,1.73l-0.05,0.03l-2.79,1.54c-0.18,0.08 -0.38,0.12 -0.58,0.12c-0.44,0 -0.87,-0.19 -1.14,-0.49c-0.31,-0.33 -1.35,-1.28 -2.17,-1.28c-0.75,0 -1.76999,0.85 -2.14999,1.25c-0.4,0.45 -1.16,0.61 -1.72,0.36l-0.04,-0.01l-2.70001,-1.52c-0.54,-0.38 -0.75,-1.12 -0.48,-1.73c0.01,-0.03 0.23,-0.55 0.23,-1.02c0,-1.46 -1.19,-2.66 -2.66,-2.66h-0.09c-0.55,0 -0.97,-0.44 -1.1,-1.14c-0.01,-0.04 -0.23,-1.21 -0.23,-2.15c0,-0.94001 0.22,-2.11001 0.23,-2.15001c0.13,-0.69 0.55,-1.14 1.08,-1.14h0.11c1.47,0 2.66,-1.19 2.66,-2.66c0,-0.46999 -0.22,-0.99999 -0.23,-1.01999c-0.27,-0.6 -0.06,-1.35 0.48,-1.73l0.05,-0.03l2.85001,-1.56c0.55,-0.24 1.3,-0.08 1.71,0.35c0.3,0.32 1.31999,1.21 2.11999,1.21c0.78,0 1.8,-0.88 2.1,-1.18c0.41,-0.43 1.16,-0.58 1.71,-0.34l0.04,0.02l2.76,1.53c0.54,0.38 0.75,1.13 0.48,1.74c-0.01,0.02 -0.23,0.55 -0.23,1.00999c0,1.47 1.19,2.66 2.66,2.66h0.09c0.55,0 0.97,0.45 1.1,1.14zM20.23,8.68999c-2.2,-0.18 -3.91,-2.02 -3.91,-4.24c0,-0.62999 0.2,-1.22999 0.31,-1.50999l-2.36,-1.3c-0.1,0.09 -0.45,0.43 -0.93,0.77c-0.8,0.56 -1.57,0.85 -2.28,0.85c-0.72,0 -1.49999,-0.29 -2.30999,-0.87c-0.48,-0.34 -0.82,-0.68 -0.93,-0.79l-2.45001,1.35c0.11,0.27 0.31,0.87 0.31,1.49999c0,2.22 -1.71,4.06 -3.91,4.24c-0.05,0.33 -0.17,1.1 -0.17,1.71001c0,0.61 0.12,1.39 0.17,1.71c2.2,0.18 3.91,2.02 3.91,4.24c0,0.62 -0.2,1.22 -0.31,1.51l2.30001,1.28c0.12,-0.12 0.46,-0.46 0.93,-0.8c0.82,-0.61 1.60999,-0.92 2.33999,-0.92c0.74,0 1.54,0.32 2.36,0.93c0.48,0.35 0.82,0.7 0.94,0.83l2.39,-1.32c-0.11,-0.28 -0.31,-0.88 -0.31,-1.51c0,-2.22 1.71,-4.06 3.91,-4.24c0.05,-0.32 0.17,-1.1 0.17,-1.71c0,-0.60001 -0.12,-1.38001 -0.17,-1.71001z"></path><path id="路径 2" fill-rule="evenodd" style="fill:#FFFFFF" opacity="1" d="M10.9486,6.47217c2.16,0 3.92,1.75999 3.92,3.91003c0,2.16 -1.76,3.92 -3.92,3.92c-2.15002,0 -3.91003,-1.76 -3.91003,-3.92c0,-2.15004 1.76001,-3.91003 3.91003,-3.91003zM10.9486,8.07216c-1.27001,0 -2.31002,1.04 -2.31002,2.31004c0,1.28 1.04001,2.32 2.31002,2.32c1.28,0 2.32,-1.04 2.32,-2.32c0,-1.27004 -1.04,-2.31004 -2.32,-2.31004z"></path></g></svg>