<svg xmlns="http://www.w3.org/2000/svg" xmlns:xlink="http://www.w3.org/1999/xlink" width="89.322509765625" height="64" viewBox="0 0 89.322509765625 64" fill="none">
<g opacity="0.3">
<path   fill-rule="evenodd"  fill="url(#linear_fill_2_765_0)"  d="M19.7783 48.7458ZM24.5983 51.6658L37.8983 59.6958C42.0983 62.2358 47.3783 62.2158 51.5583 59.6358L64.4983 51.6458C65.4783 51.0358 66.0683 49.9558 66.0483 48.8058C66.0283 47.6458 65.3983 46.5858 64.3983 46.0158L51.1783 38.4558C47.1883 36.1758 42.2983 36.1558 38.2883 38.3958L24.6983 46.0058C23.6783 46.5758 23.0383 47.6458 23.0183 48.8058C22.9983 49.9758 23.5983 51.0658 24.5983 51.6658Z">
</path>
<path fill-rule="evenodd"  fill="url(#linear_border_2_765_0)"  d="M37.8983 59.6958L24.5983 51.6658C23.6009 51.0673 23.0015 49.9814 23.0182 48.8149L23.0183 48.8058L23.0185 48.7947C23.0424 47.639 23.6816 46.574 24.6983 46.0058L38.2883 38.3958C42.2983 36.1558 47.1883 36.1758 51.1783 38.4558L64.3983 46.0158C65.3983 46.5858 66.0283 47.6458 66.0483 48.8058C66.0683 49.9558 65.4783 51.0358 64.4983 51.6458L51.5583 59.6358C47.3783 62.2158 42.0983 62.2358 37.8983 59.6958ZM23.0357 48.8051L39.0845 39.8297Q40.3902 39.0995 41.8368 38.7293Q43.2609 38.3648 44.7323 38.3716Q46.2036 38.3784 47.6243 38.756Q49.0675 39.1395 50.3663 39.8817L63.5888 47.4372C64.6676 48.0537 64.6938 49.5999 63.6364 50.2525L50.6952 58.2388Q49.3361 59.0775 47.8033 59.5122Q46.2974 59.9392 44.7302 59.9467Q43.163 59.9542 41.653 59.5416Q40.1162 59.1216 38.7492 58.296L23.0357 48.8051Z">
</path>
</g>
<path   fill-rule="evenodd"  fill="url(#linear_fill_2_766_0)"  d="M9.60583 36.9599ZM38.7958 21.9299L15.0458 34.1599C13.9658 34.7099 13.2858 35.8099 13.2658 37.0199C13.2458 38.2299 13.8958 39.3499 14.9558 39.9399L38.4258 52.9899C42.4258 55.2099 47.2858 55.1899 51.2658 52.9299L74.1558 39.9199C75.1958 39.3299 75.8258 38.2199 75.8058 37.0199C75.7858 35.8299 75.1258 34.7399 74.0658 34.1799L50.8958 21.9899C47.1158 19.9999 42.5958 19.9699 38.7958 21.9299Z">
</path>
<path fill-rule="evenodd"  fill="url(#linear_border_2_766_0)"  d="M15.0458 34.1599L38.7958 21.9299C42.5958 19.9699 47.1158 19.9999 50.8958 21.9899L74.0658 34.1799C75.1258 34.7399 75.7858 35.8299 75.8058 37.0199C75.8258 38.2199 75.1958 39.3299 74.1558 39.9199L51.2658 52.9299C47.2858 55.1899 42.4258 55.2099 38.4258 52.9899L14.9558 39.9399C13.9269 39.3672 13.2843 38.2952 13.2658 37.1262L39.2178 51.5601Q40.5189 52.2838 41.9592 52.6507Q43.3772 53.0119 44.8419 53.0051Q46.3065 52.9984 47.7212 52.6242Q49.158 52.2441 50.4525 51.5085L73.3465 38.4985C74.4718 37.859 74.4454 36.2284 73.3 35.6257L50.1307 23.4345Q47.6485 22.1285 44.8437 22.1161Q42.0389 22.1038 39.5452 23.3879L13.269 36.9197C13.3238 35.7495 13.9957 34.6947 15.0458 34.1599Z">
</path>
<path d="M14.1832 37.7367L0 0.0853271L88.645 0.0853271L74.9051 37.7367C74.9051 37.7367 51.4141 54.1262 44.3225 54.1262C39.0038 54.1262 14.1832 37.7367 14.1832 37.7367Z"   fill="url(#linear_fill_2_767)" >
</path>
<path d="M23.9293 9.00328L26.386 13.0726L26.4934 13.1486L26.5692 13.2081L28.4133 10.9752L28.6786 15.7118L28.7922 15.9463L28.7796 15.8803L31.4953 14.8761L29.4459 19.1106C29.4459 19.2163 29.4396 19.3253 29.4301 19.4343L29.4838 19.2527L32.3889 19.7382L30.3711 21.109L32.8089 22.5822C33.1057 22.7473 33.4404 22.8068 33.7625 22.7473L33.9962 22.6812L36.3866 21.9017C36.4045 21.8947 36.4227 21.8884 36.441 21.8827C36.4594 21.8771 36.4779 21.8721 36.4966 21.8679C36.5153 21.8636 36.5341 21.8601 36.5531 21.8573C36.572 21.8544 36.591 21.8523 36.6101 21.8509C36.6292 21.8495 36.6483 21.8488 36.6674 21.8489C36.6866 21.8489 36.7057 21.8497 36.7247 21.8512C36.7438 21.8527 36.7628 21.8549 36.7817 21.8578C36.8007 21.8607 36.8195 21.8643 36.8382 21.8687L37.056 21.9546L42.32 25.1321L47.1671 25.2378L51.5658 33L38.136 32.7093L33.6046 29.9314C33.5918 29.9213 33.5791 29.9107 33.5667 29.8999C33.5543 29.8891 33.5421 29.8779 33.5302 29.8664C33.5184 29.8549 33.5068 29.8431 33.4955 29.8311C33.4842 29.819 33.4732 29.8066 33.4624 29.7939C33.4517 29.7813 33.4413 29.7683 33.4312 29.7551C33.4211 29.7419 33.4113 29.7285 33.4019 29.7147C33.3924 29.701 33.3833 29.6871 33.3745 29.6729C33.3657 29.6587 33.3572 29.6443 33.3491 29.6296C33.341 29.615 33.3333 29.6002 33.3258 29.5851C33.3185 29.5701 33.3114 29.5549 33.3047 29.5395C33.2981 29.5241 33.2917 29.5085 33.2858 29.4928C33.2799 29.4771 33.2743 29.4612 33.2691 29.4452C33.264 29.4291 33.2592 29.413 33.2548 29.3967C33.2504 29.3804 33.2464 29.364 33.2427 29.3476C33.2391 29.3311 33.2359 29.3145 33.233 29.2979C33.2302 29.2812 33.2278 29.2645 33.2257 29.2477L33.2225 29.0496L33.2036 28.2535C33.2043 28.2385 33.2049 28.2236 33.2052 28.2086C33.2055 28.1936 33.2056 28.1786 33.2056 28.1636C33.2055 28.1487 33.2053 28.1337 33.2048 28.1187C33.2044 28.1037 33.2037 28.0887 33.2028 28.0738C33.202 28.0588 33.201 28.0439 33.1997 28.029C33.1985 28.0141 33.197 27.9992 33.1954 27.9843C33.1938 27.9694 33.1919 27.9545 33.1899 27.9397C33.1879 27.9248 33.1857 27.9101 33.1832 27.8953C33.1808 27.8805 33.1782 27.8658 33.1754 27.8511C33.1726 27.8364 33.1696 27.8217 33.1664 27.8071C33.1632 27.7925 33.1598 27.778 33.1563 27.7635C33.1527 27.7489 33.149 27.7345 33.145 27.7201C33.1411 27.7057 33.1369 27.6913 33.1326 27.6771C33.1283 27.6628 33.1238 27.6486 33.119 27.6344C33.1144 27.6202 33.1095 27.6062 33.1044 27.5921C33.0993 27.5781 33.0941 27.5642 33.0886 27.5503C33.0832 27.5365 33.0776 27.5227 33.0718 27.509C33.066 27.4953 33.06 27.4817 33.0538 27.4682C33.0477 27.4546 33.0414 27.4412 33.0348 27.4278C33.0284 27.4145 33.0217 27.4012 33.0148 27.3881C33.0079 27.3749 33.0009 27.3619 32.9937 27.3489C32.9865 27.336 32.9791 27.3231 32.9716 27.3104C32.964 27.2976 32.9564 27.285 32.9485 27.2725C32.9406 27.26 32.9326 27.2476 32.9244 27.2353C32.9162 27.223 32.9078 27.2108 32.8993 27.1988C32.8908 27.1867 32.8821 27.1748 32.8733 27.163C32.8645 27.1512 32.8555 27.1395 32.8463 27.128C32.8372 27.1165 32.8279 27.1051 32.8185 27.0938C32.809 27.0825 32.7995 27.0714 32.7897 27.0604C32.78 27.0494 32.7701 27.0385 32.7601 27.0278C32.7501 27.0171 32.7399 27.0065 32.7296 26.9961C32.7194 26.9857 32.7089 26.9754 32.6984 26.9653L32.4742 26.7803L28.1733 24.1808L29.6259 25.8852L24.8735 25.2048L24.9493 25.1685C24.7914 25.2147 24.6335 25.2576 24.4693 25.294L24.8324 25.2906L25.4861 28.2205L21.561 25.2807L21.5989 25.2807L21.4947 25.2642C21.3899 25.2381 21.2857 25.2095 21.1821 25.1784L21.4821 25.3402L20.6769 28.1709L18.5675 23.7349C18.4848 23.662 18.4038 23.5871 18.3244 23.5103L18.4633 23.725L16.395 25.7465L16.616 20.9669L16.5213 20.7027L16.5339 20.848L13.7235 21.5483L16.155 17.6177L16.1866 17.3798L16.1708 17.4261L13.3225 16.6334L17.3328 14.4996L17.4591 14.3245L15.2961 12.237L19.8621 12.4054L20.099 12.3063L19.1517 9.46571L23.162 11.8671L23.4178 11.9001L23.9262 9L23.9293 9.00328ZM65.719 9.14533L66.2241 12.0454L66.4861 12.0124L70.4901 9.61104L69.5459 12.4517L69.7829 12.5508L74.349 12.3823L72.1858 14.4698L72.3121 14.6482L76.3225 16.7787L73.4742 17.5714L73.4617 17.5252L73.4869 17.7663L75.9215 21.6936L73.1111 20.9934L73.127 20.848L73.0259 21.1123L73.2502 25.8918L71.1817 23.8703L71.3208 23.6589C71.2417 23.7349 71.1628 23.8076 71.0776 23.8802L68.9681 28.3163L68.163 25.4855L68.463 25.3237C68.3586 25.3567 68.2545 25.3831 68.1471 25.4096L68.0461 25.4294L68.0839 25.4294L64.159 28.3691L64.8126 25.436L65.1758 25.4426C65.014 25.4049 64.8542 25.3608 64.6957 25.3105L64.7715 25.3501L60.0192 26.0306L61.4716 24.3262L57.1709 26.9257L56.9497 27.1073C56.9391 27.1175 56.9286 27.1278 56.9183 27.1382C56.9081 27.1487 56.8981 27.1593 56.8878 27.17C56.8778 27.1807 56.8678 27.1916 56.8581 27.2026C56.8484 27.2136 56.839 27.2248 56.8295 27.2361C56.8201 27.2474 56.8106 27.2588 56.8015 27.2704C56.7923 27.282 56.7835 27.2937 56.7746 27.3055C56.7657 27.3173 56.7571 27.3293 56.7485 27.3414C56.7399 27.3535 56.7316 27.3657 56.7232 27.378C56.7152 27.3903 56.7071 27.4027 56.6991 27.4153C56.6913 27.4278 56.6835 27.4405 56.676 27.4533C56.6686 27.466 56.6611 27.4789 56.6538 27.4919C56.6466 27.5049 56.6397 27.518 56.6328 27.5312C56.6258 27.5444 56.6192 27.5577 56.6128 27.571C56.6061 27.5844 56.5997 27.5979 56.5936 27.6115C56.5875 27.625 56.5814 27.6387 56.5756 27.6524C56.5697 27.6661 56.5642 27.68 56.5589 27.6939C56.5534 27.7078 56.5481 27.7217 56.5431 27.7358C56.5381 27.7498 56.5331 27.764 56.5284 27.7782C56.5237 27.7924 56.5192 27.8066 56.5148 27.8209C56.5106 27.8353 56.5065 27.8497 56.5026 27.8641C56.4984 27.8785 56.4948 27.893 56.4912 27.9076C56.4876 27.9221 56.4843 27.9367 56.4812 27.9514C56.4782 27.966 56.4751 27.9807 56.4723 27.9954C56.4693 28.0102 56.4668 28.0249 56.4646 28.0397C56.4621 28.0546 56.4598 28.0694 56.4579 28.0842C56.456 28.0991 56.454 28.114 56.4524 28.129C56.4507 28.1439 56.4493 28.1588 56.4482 28.1738C56.4468 28.1887 56.446 28.2037 56.4451 28.2187C56.4443 28.2337 56.4435 28.2487 56.4432 28.2637C56.4426 28.2787 56.4424 28.2938 56.4424 28.3088C56.4424 28.3238 56.4426 28.3388 56.4429 28.3538C56.4432 28.3688 56.4437 28.3838 56.4446 28.3988L56.4224 29.1916L56.4224 29.393C56.4204 29.4098 56.4179 29.4265 56.4152 29.4432C56.4124 29.4598 56.4091 29.4764 56.4054 29.4929C56.4018 29.5094 56.3977 29.5257 56.3935 29.542C56.3891 29.5583 56.3844 29.5745 56.3791 29.5905C56.3738 29.6065 56.3683 29.6224 56.3624 29.6381C56.3566 29.6539 56.3502 29.6694 56.3436 29.6848C56.3369 29.7002 56.33 29.7154 56.3225 29.7305C56.315 29.7455 56.3072 29.7603 56.2992 29.775C56.2911 29.7896 56.2825 29.804 56.2736 29.8182C56.265 29.8324 56.2559 29.8464 56.2464 29.8601C56.237 29.8738 56.2273 29.8872 56.217 29.9004C56.2067 29.9137 56.1965 29.9266 56.1856 29.9393C56.1748 29.9519 56.164 29.9643 56.1526 29.9764C56.1412 29.9885 56.1299 30.0002 56.1179 30.0117C56.106 30.0232 56.0941 30.0344 56.0816 30.0452C56.0691 30.0561 56.0566 30.0666 56.0435 30.0768L51.5092 32.8547L47.325 25.2774L52.5891 22.0999L52.81 22.014C52.8286 22.0098 52.8472 22.0062 52.866 22.0033C52.8849 22.0005 52.9038 21.9983 52.9227 21.9969C52.9415 21.9955 52.9604 21.9947 52.9795 21.9947C52.9987 21.9946 53.0176 21.9953 53.0364 21.9967C53.0556 21.9981 53.0745 22.0002 53.0931 22.003C53.1119 22.0058 53.1305 22.0094 53.1491 22.0136C53.1677 22.0178 53.1863 22.0227 53.2044 22.0283C53.2227 22.0339 53.2407 22.0401 53.2585 22.0471L55.6489 22.8299L55.8826 22.8959C56.2045 22.9521 56.5392 22.8959 56.8362 22.7308L59.2738 21.2576L57.253 19.8835L60.158 19.398L60.2149 19.5797C60.2071 19.4719 60.2019 19.364 60.1991 19.256L58.1561 15.0248L60.8718 16.0256L60.856 16.0916L60.9695 15.8571L61.2348 11.1206L63.0791 13.3534L63.1548 13.2939L63.2622 13.218L65.719 9.14533ZM69.224 17.9579C68.864 16.6466 67.5219 15.9265 66.221 16.3394C64.92 16.7589 64.1495 18.156 64.4967 19.4773C64.502 19.497 64.5075 19.5167 64.5134 19.5363C64.5192 19.5559 64.5253 19.5754 64.5317 19.5948C64.5381 19.6142 64.5445 19.6335 64.5511 19.6528C64.5581 19.672 64.565 19.6912 64.5722 19.7102C64.5794 19.7293 64.5869 19.7483 64.5944 19.7671C64.6022 19.7859 64.6102 19.8047 64.6183 19.8233C64.6263 19.842 64.6349 19.8605 64.6435 19.8789C64.6521 19.8973 64.661 19.9156 64.6702 19.9338C64.6793 19.952 64.6885 19.97 64.6979 19.9879C64.7076 20.0059 64.7174 20.0237 64.7274 20.0413C64.7371 20.059 64.7473 20.0765 64.7579 20.0938C64.7682 20.1112 64.7787 20.1285 64.7895 20.1456C64.8003 20.1627 64.8114 20.1796 64.8228 20.1964C64.8342 20.2132 64.8456 20.2298 64.8572 20.2463C64.8689 20.2628 64.8808 20.2791 64.8928 20.2953C64.9047 20.3115 64.9169 20.3275 64.9294 20.3433C64.9419 20.3591 64.9547 20.3748 64.9674 20.3903C64.9802 20.4057 64.9932 20.4211 65.0066 20.4362C65.0196 20.4513 65.0332 20.4663 65.0468 20.481C65.0604 20.4958 65.074 20.5104 65.0882 20.5248C65.102 20.5392 65.1162 20.5534 65.1306 20.5674C65.1448 20.5814 65.1592 20.5952 65.1739 20.6089C65.1886 20.6225 65.2033 20.6359 65.2183 20.6491C65.2333 20.6623 65.2486 20.6754 65.2638 20.6882C65.2791 20.701 65.2946 20.7136 65.3102 20.726C65.326 20.7384 65.3418 20.7506 65.3576 20.7625C65.3735 20.7745 65.3896 20.7862 65.4056 20.7978C65.422 20.8093 65.4384 20.8206 65.4548 20.8317C65.4711 20.8428 65.4878 20.8536 65.5047 20.8643C65.5214 20.8749 65.5383 20.8853 65.5552 20.8955C65.5722 20.9057 65.5894 20.9156 65.6066 20.9253C65.6241 20.935 65.6413 20.9445 65.6588 20.9537C65.6768 20.9631 65.6948 20.9723 65.7129 20.9813C65.7309 20.9902 65.7492 20.9989 65.7678 21.0074C65.7861 21.016 65.8045 21.0242 65.8231 21.0322C65.8417 21.0403 65.8603 21.048 65.8788 21.0556C65.8977 21.0631 65.9166 21.0704 65.9355 21.0775C65.9543 21.0846 65.9732 21.0914 65.9924 21.098C66.0115 21.1046 66.0304 21.111 66.0495 21.1171C66.0687 21.1232 66.0881 21.1291 66.1075 21.1347C66.1267 21.1403 66.1461 21.1457 66.1655 21.1508C66.185 21.1559 66.2044 21.1608 66.2241 21.1655C66.2438 21.1701 66.2632 21.1745 66.2829 21.1786C66.3026 21.1828 66.3223 21.1867 66.3421 21.1903C66.3618 21.1939 66.3817 21.1973 66.4014 21.2004C66.4212 21.2036 66.4411 21.2065 66.4611 21.2091C66.4811 21.2117 66.5011 21.2141 66.5208 21.2163C66.5408 21.2184 66.5608 21.2202 66.581 21.2219C66.601 21.2235 66.621 21.2249 66.641 21.226C66.6609 21.2271 66.6809 21.228 66.7012 21.2286C66.7212 21.2292 66.7411 21.2295 66.7611 21.2296C66.7814 21.2297 66.8014 21.2296 66.8214 21.2292C66.8416 21.2287 66.8616 21.2281 66.8816 21.2272C66.9016 21.2263 66.9215 21.2251 66.9418 21.2237C66.9618 21.2222 66.9818 21.2206 67.0018 21.2186C67.0217 21.2167 67.0417 21.2145 67.0614 21.2121C67.0814 21.2096 67.1014 21.2069 67.1211 21.204C67.1411 21.2011 67.1611 21.1979 67.1808 21.1945C67.2005 21.191 67.2202 21.1873 67.2399 21.1834C67.2596 21.1794 67.2793 21.1752 67.299 21.1708C67.3187 21.1664 67.3381 21.1617 67.3576 21.1567C67.3773 21.1518 67.3967 21.1466 67.4158 21.1412C67.4353 21.1358 67.4547 21.1301 67.4738 21.1242C67.493 21.1183 67.5121 21.1121 67.5313 21.1057L67.8441 20.9802C68.9492 20.4418 69.5556 19.1635 69.227 17.9579L69.224 17.9579ZM20.4242 17.8126C20.0958 19.0149 20.7021 20.2964 21.8073 20.8348L22.1231 20.9604C22.1422 20.9667 22.1613 20.9729 22.1805 20.9788C22.1998 20.9847 22.2191 20.9903 22.2384 20.9957C22.2578 21.0011 22.2772 21.0063 22.2966 21.0112C22.3161 21.0161 22.3356 21.0207 22.3552 21.0252C22.3748 21.0296 22.3944 21.0338 22.4141 21.0377C22.4338 21.0416 22.4535 21.0453 22.4732 21.0487C22.493 21.0522 22.5128 21.0553 22.5326 21.0583C22.5524 21.0612 22.5723 21.0639 22.5922 21.0663C22.6121 21.0687 22.632 21.0709 22.652 21.0728C22.6719 21.0747 22.6919 21.0763 22.7119 21.0778C22.7318 21.0792 22.7518 21.0803 22.7718 21.0812C22.7919 21.0821 22.8119 21.0828 22.8319 21.0832C22.8519 21.0836 22.8719 21.0838 22.892 21.0837C22.912 21.0836 22.932 21.0832 22.952 21.0826C22.9721 21.082 22.9921 21.0811 23.0121 21.08C23.0321 21.0789 23.0521 21.0775 23.072 21.0759C23.092 21.0742 23.1119 21.0724 23.1319 21.0702C23.1518 21.0681 23.1717 21.0657 23.1915 21.0631C23.2114 21.0605 23.2313 21.0576 23.2511 21.0545C23.2709 21.0513 23.2906 21.0479 23.3103 21.0443C23.3301 21.0407 23.3498 21.0368 23.3694 21.0327C23.389 21.0286 23.4086 21.0242 23.4281 21.0196C23.4477 21.0149 23.4672 21.0101 23.4866 21.0049C23.506 20.9998 23.5254 20.9944 23.5447 20.9888C23.564 20.9832 23.5832 20.9774 23.6023 20.9713C23.6215 20.9652 23.6406 20.9589 23.6596 20.9523C23.6786 20.9457 23.6976 20.9389 23.7164 20.9319C23.7353 20.9248 23.7541 20.9175 23.7727 20.91C23.7914 20.9024 23.81 20.8947 23.8285 20.8867C23.8471 20.8787 23.8655 20.8704 23.8838 20.862C23.9021 20.8535 23.9203 20.8448 23.9385 20.8359C23.9566 20.827 23.9746 20.8178 23.9925 20.8084C24.01 20.7992 24.0274 20.7896 24.0447 20.7799C24.062 20.7702 24.0791 20.7602 24.0961 20.75C24.1132 20.7398 24.1301 20.7294 24.1469 20.7187C24.1637 20.7081 24.1803 20.6972 24.1968 20.686C24.2133 20.6749 24.2297 20.6636 24.2459 20.652C24.2621 20.6405 24.2782 20.6287 24.2941 20.6167C24.3101 20.6047 24.3259 20.5925 24.3415 20.5801C24.3571 20.5677 24.3726 20.555 24.3879 20.5422C24.4032 20.5293 24.4184 20.5163 24.4334 20.503C24.4484 20.4898 24.4632 20.4764 24.4778 20.4627C24.4925 20.449 24.507 20.4352 24.5213 20.4211C24.5357 20.4071 24.5498 20.3928 24.5637 20.3784C24.5777 20.364 24.5915 20.3494 24.6051 20.3346C24.6187 20.3198 24.6321 20.3048 24.6453 20.2896C24.6586 20.2744 24.6716 20.2591 24.6844 20.2436C24.6973 20.228 24.71 20.2124 24.7224 20.1965C24.7349 20.1806 24.7472 20.1646 24.7592 20.1484C24.7713 20.1322 24.7831 20.1158 24.7948 20.0993C24.8064 20.0828 24.8179 20.0661 24.8291 20.0493C24.8404 20.0324 24.8514 20.0155 24.8622 19.9983C24.8731 19.9812 24.8837 19.9639 24.894 19.9465C24.9044 19.9291 24.9146 19.9115 24.9246 19.8938C24.9346 19.8761 24.9443 19.8583 24.9538 19.8404C24.9633 19.8224 24.9726 19.8043 24.9817 19.7861C24.9907 19.7679 24.9996 19.7495 25.0082 19.7311C25.0168 19.7126 25.0252 19.6941 25.0333 19.6754C25.0415 19.6567 25.0494 19.6379 25.0571 19.619C25.0648 19.6002 25.0722 19.5812 25.0795 19.5621C25.0867 19.543 25.0937 19.5238 25.1004 19.5045C25.1071 19.4852 25.1136 19.4658 25.1199 19.4464C25.1262 19.4269 25.1322 19.4074 25.1379 19.3877C25.1437 19.3681 25.1493 19.3484 25.1545 19.3287C25.5019 18.014 24.7314 16.6135 23.4304 16.1973C22.1294 15.7778 20.7874 16.5012 20.4242 17.8158L20.4242 17.8126Z"   fill="url(#linear_fill_UwwmgtwPjjmMskI0hLWPx)" >
</path>
<defs>
<linearGradient id="linear_fill_2_765_0" x1="44.48313903808594" y1="34.7857666015625" x2="44.48313903808594" y2="63.832763671875" gradientUnits="userSpaceOnUse">
<stop offset="0" stop-color="#235EB8"  />
<stop offset="1" stop-color="#5A99F2"  />
</linearGradient>
<linearGradient id="linear_border_2_765_0" x1="44.48313903808594" y1="34.7857666015625" x2="44.48313903808594" y2="63.832763671875" gradientUnits="userSpaceOnUse">
<stop offset="0" stop-color="#2866AD"  />
<stop offset="1" stop-color="#148DDE"  />
</linearGradient>
<linearGradient id="linear_fill_2_766_0" x1="44.48323059082031" y1="18.8099365234375" x2="44.48323059082031" y2="56.5709228515625" gradientUnits="userSpaceOnUse">
<stop offset="0" stop-color="#0E7FC9"  />
<stop offset="1" stop-color="#4A89E0"  />
</linearGradient>
<linearGradient id="linear_border_2_766_0" x1="44.48323059082031" y1="18.8099365234375" x2="44.48323059082031" y2="56.5709228515625" gradientUnits="userSpaceOnUse">
<stop offset="0" stop-color="#0A6ABF"  />
<stop offset="1" stop-color="#61A5FF"  />
</linearGradient>
<linearGradient id="linear_fill_2_767" x1="44.322509765625" y1="50.7095947265625" x2="44.322509765625" y2="5.0865478515625" gradientUnits="userSpaceOnUse">
<stop offset="0" stop-color="#296DCC" stop-opacity="0.47" />
<stop offset="1" stop-color="#82B0FF" stop-opacity="0.01" />
</linearGradient>
<linearGradient id="linear_fill_UwwmgtwPjjmMskI0hLWPx" x1="13.322494506835938" y1="21" x2="76.32249450683594" y2="21" gradientUnits="userSpaceOnUse">
<stop offset="0" stop-color="#579EF9"  />
<stop offset="1" stop-color="#4BF7FA"  />
</linearGradient>
</defs>
</svg>
