<?xml version="1.0" standalone="no"?><!DOCTYPE svg PUBLIC "-//W3C//DTD SVG 1.1//EN" "http://www.w3.org/Graphics/SVG/1.1/DTD/svg11.dtd"><svg t="1729127558248" class="icon" viewBox="0 0 1367 1024" version="1.1" xmlns="http://www.w3.org/2000/svg" p-id="5271" id="mx_n_1729127558251" xmlns:xlink="http://www.w3.org/1999/xlink" width="266.9921875" height="200"><path d="M1278.668054 260.706209S1183.123136 101.760666 1043.180021 69.971557L1138.547347 0 928.632674 50.969129l-139.943115 63.578218 6.393341-95.544919-76.364898 133.727367S527.983351 324.462019 586.056191 565.988207l-101.760666-44.398197 165.338884 165.338884-139.943115 139.943114v-165.338883H0v57.184877l76.364898 127.156434v114.547347l-44.575789 63.578217h947.635102V973.208463H559.772459l88.796393-88.796392 108.154006-108.154006s120.763094 31.789109 203.521332 31.789108l-76.364898 95.544919 266.389178-197.305585a426.222685 426.222685 0 0 0 133.549775-260.706209L1367.464447 515.019077zM1030.038155 624.23864a259.285467 259.285467 0 0 1-145.803677 24.685397l184.696497-184.696496h69.971557v-31.789109h-337.426292v31.789109h69.971557l-120.407908 120.407908a205.119667 205.119667 0 0 1-38.182449-53.277835c-53.277836-110.640305 0-248.629899 122.006244-306.880333s262.837322-17.759279 316.647936 93.413805S1150.801249 565.277836 1030.038155 624.23864z" fill="#FFFFFF" p-id="5272" data-spm-anchor-id="a313x.search_index.0.i2.47e23a81xpmsSI" class=""></path></svg>