<svg xmlns="http://www.w3.org/2000/svg" xmlns:xlink="http://www.w3.org/1999/xlink" width="18.9200439453125" height="16.8299560546875" viewBox="0 0 18.9200439453125 16.8299560546875" fill="none"><path id="路径 1" fill-rule="evenodd" style="fill:#FFFFFF" opacity="0.6" d="M13.62,16.83h-10.39l-0.01,-1.29h10.4v1.29zM16.24,13.61h-5.36l-2.68,-4.57l2.68,-4.58h5.36l2.68,4.58l-2.68,4.57zM11.59,9.06c0.01,1.13 0.92,2.03 2.03,2.03c1.11,-0.01 2.01,-0.93 2.01,-2.05c-0.02,-1.15 -0.94,-2.07 -2.07,-2.06v0c-1.11,0.03 -1.99,0.96 -1.97,2.08zM9.66,13.5h-8.66c-0.55,0 -1,-0.45 -1,-1v-11.5c0,-0.55 0.45,-1 1,-1h14.4c0.55,0 1,0.45 1,1v2.28h-6.03l-0.71,0.94h-5.67v-0.99h-1.01v0.99h-1.26v1.24h1.26v1h1.01v-1h5.04l-2.14,3.48l0.28,0.45h-1.17v-1h-1.01v1h-3.27v1.27h3.27v0.99h1.01v-0.99h1.79l1.87,2.84z"></path></svg>