<?xml version="1.0" standalone="no"?><!DOCTYPE svg PUBLIC "-//W3C//DTD SVG 1.1//EN" "http://www.w3.org/Graphics/SVG/1.1/DTD/svg11.dtd"><svg t="1696749587493" class="icon" viewBox="0 0 1024 1024" version="1.1" xmlns="http://www.w3.org/2000/svg" p-id="6599" xmlns:xlink="http://www.w3.org/1999/xlink" width="200" height="200"><path d="M800.5 512c0 159.3-129.1 288.5-288.5 288.5-99.6 0-187.4-50.4-239.2-127.2-31.1-46-49.3-101.5-49.3-161.3 0-159.3 129.1-288.5 288.5-288.5S800.5 352.7 800.5 512z" fill="#E33BCA" p-id="6600"></path><path d="M543.8 404.4v-55.8c0-17.5-14.2-31.8-31.8-31.8-17.5 0-31.8 14.2-31.8 31.8v205.5c0 8.8 3.6 16.7 9.3 22.5 5.7 5.7 13.7 9.3 22.5 9.3 17.5 0 31.8-14.2 31.8-31.8V404.4zM543.8 652.3c0-17.5-14.2-31.8-31.8-31.8-17.5 0-31.8 14.2-31.8 31.8v23.2c0 8.8 3.6 16.7 9.3 22.5 5.7 5.7 13.7 9.3 22.5 9.3 17.5 0 31.8-14.2 31.8-31.8v-23.2z" fill="#FFFFFF" p-id="6601"></path></svg>
