<?xml version="1.0" standalone="no"?><!DOCTYPE svg PUBLIC "-//W3C//DTD SVG 1.1//EN" "http://www.w3.org/Graphics/SVG/1.1/DTD/svg11.dtd"><svg t="1722248718655" class="icon" viewBox="0 0 1024 1024" version="1.1" xmlns="http://www.w3.org/2000/svg" p-id="2407" xmlns:xlink="http://www.w3.org/1999/xlink" width="200" height="200"><path d="M70.2 512C70.2 267.9 268 70.09999999 512 70.09999999S953.8 267.9 953.8 512 756 953.90000001 512 953.90000001 70.2 756.1 70.2 512z m396.1 207.4L638.1 545.5c18.2-18.5 18.2-48.4 0-66.9L466.3 304.7c-18.2-18.5-47.8-18.5-66.1 0-18.2 18.5-18.2 48.4 0 66.9L539 512.1l-138.69999999 140.5c-18.2 18.5-18.2 48.4 0 66.9 18.2 18.4 47.8 18.39999999 65.99999999-0.1z" fill="#1890FF" p-id="2408"></path></svg>