<svg xmlns="http://www.w3.org/2000/svg" xmlns:xlink="http://www.w3.org/1999/xlink" width="84.33999633789062" height="63.10235552165818" viewBox="0 0 84.33999633789062 63.10235552165818" fill="none">
<path d="M29.523 38.4799L54.8103 38.4799L67.454 47.0703L54.8103 55L29.523 55L16.8793 47.0703L29.523 38.4799Z" stroke="url(#linear_border_10_466)" stroke-width="0.45833331519278886"   >
</path>
<path d="M29.523 37.1582L54.8103 37.1582L67.454 45.7487L54.8103 53.6784L29.523 53.6784L16.8793 45.7487L29.523 37.1582Z" stroke="url(#linear_border_10_467)" stroke-width="0.45833331519278886"   >
</path>
<g filter="url(#filter_10_468)">
<path d="M30.1553 31.8717L54.1783 31.8717L66.1898 39.1406L54.1783 46.4095L30.1553 46.4095L18.1439 39.1406L30.1553 31.8717Z" stroke="rgba(77, 193, 247, 1)" stroke-width="0.45833331519278886"      fill="#1E84B3" fill-opacity="0.16">
</path>
<path d="M31.4196 33.8544L52.9138 33.8544L61.7644 39.1408L52.9138 44.4273L31.4196 44.4273L22.569 39.1408L31.4196 33.8544Z" stroke="url(#linear_border_10_470)" stroke-width="0.9166666303855777"   >
</path>
<rect x="30.15533447265625" y="46.40960693359375" width="24.022979736328125" height="5.286442279815674" stroke="rgba(77, 193, 247, 1)" stroke-width="0.45833331519278886"      fill="#4DC1F7" fill-opacity="0.21">
</rect>
<path d="M36.4772 51.0351L35.845 51.6959L49.1209 51.6959L48.4887 51.0351L36.4772 51.0351Z" stroke="rgba(10, 250, 251, 1)" stroke-width="0.45833331519278886"      fill="#0AFAFB" >
</path>
<path d="M66.1897 39.1405L66.1897 44.4269L54.1782 51.6958L54.1782 46.4094L66.1897 39.1405Z" stroke="rgba(77, 193, 247, 1)" stroke-width="0.45833331519278886"      fill="url(#linear_fill_10_473)" >
</path>
<path d="M66.1895 42.4447L66.1895 44.4272L61.7642 47.0704L62.3964 45.7488L65.2412 44.0365L65.2412 43.4359L66.1895 42.4447Z" stroke="rgba(10, 250, 251, 1)" stroke-width="0.45833331519278886"      fill="#0AFAFB" >
</path>
<path d="M30.1554 46.4094L30.1554 51.6958L18.1439 44.4269L18.1439 39.1405L30.1554 46.4094Z" stroke="rgba(77, 193, 247, 1)" stroke-width="0.45833331519278886"      fill="url(#linear_fill_10_475)" >
</path>
<path d="M23.8335 47.0704L24.1496 48.0616L18.1439 44.4272L18.1439 42.4447L19.0921 43.4359L19.0921 44.0967L23.8335 47.0704Z" stroke="rgba(10, 250, 251, 1)" stroke-width="0.45833331519278886"      fill="#0AFAFB" >
</path>
</g>
<path d="M0 0L84.3356 0L66.1925 39.1394L54.175 46.4063L30.1537 46.4063L18.1431 39.1394L0 0Z"   fill="url(#linear_fill_10_477)" >
</path>
<path d="M4.42548 0.000335693L79.9061 0.000335693L61.763 39.1397L52.9149 44.4266L31.4167 44.4266L22.5686 39.1397L4.42548 0.000335693Z"   fill="url(#linear_fill_10_478)" >
</path>
<path d="M54.0298 30.8833C50.8348 25.3168 47.6395 19.7684 44.5787 14.3549L44.5787 14.3476C43.7373 12.9501 41.6669 12.9501 40.8246 14.3476C37.6304 19.914 34.4372 25.3334 31.242 30.8833C30.4016 32.2788 31.3744 34.0751 33.0387 34.0751L52.2112 34.0751C53.741 34.0751 54.8528 32.2798 54.0298 30.8833ZM39.5081 26.4584L43.8911 21.2494L43.307 24.9595L45.7415 24.8664L42.2323 30.08L42.2323 26.3653L39.5081 26.4584Z" fill-rule="evenodd"  fill="url(#linear_fill_10_479)" >
</path>
<defs>
<linearGradient id="linear_border_10_466" x1="41.28515625" y1="55" x2="41.28515625" y2="37.173431396484375" gradientUnits="userSpaceOnUse">
<stop offset="0" stop-color="#2FB6F5"  />
<stop offset="1" stop-color="#2FB6F5" stop-opacity="0" />
</linearGradient>
<linearGradient id="linear_border_10_467" x1="43.74713134765625" y1="53.6783447265625" x2="43.74713134765625" y2="35.962310791015625" gradientUnits="userSpaceOnUse">
<stop offset="0" stop-color="#0AFAFB"  />
<stop offset="1" stop-color="#0AFAFB" stop-opacity="0" />
</linearGradient>
<linearGradient id="linear_border_10_470" x1="22.56903076171875" y1="39.14080810546875" x2="61.764404296875" y2="39.14080810546875" gradientUnits="userSpaceOnUse">
<stop offset="0" stop-color="#00BFFF"  />
<stop offset="0.1214" stop-color="#2BCAFF" stop-opacity="0.62" />
<stop offset="0.2583" stop-color="#2BCAFF" stop-opacity="0.2" />
<stop offset="0.7439" stop-color="#2BCAFF" stop-opacity="0.2" />
<stop offset="0.8546" stop-color="#2BCAFF" stop-opacity="0.55" />
<stop offset="1" stop-color="#00BFFF"  />
</linearGradient>
<linearGradient id="linear_fill_10_473" x1="54.17822265625" y1="49.216766357421875" x2="66.18972778320312" y2="43.09893798828125" gradientUnits="userSpaceOnUse">
<stop offset="0" stop-color="#4DC1F7" stop-opacity="0.38" />
<stop offset="1" stop-color="#4DC1F7" stop-opacity="0" />
</linearGradient>
<linearGradient id="linear_fill_10_475" x1="18.457122802734375" y1="41.786163330078125" x2="30.155364990234375" y2="48.811981201171875" gradientUnits="userSpaceOnUse">
<stop offset="0" stop-color="#4DC1F7" stop-opacity="0.08" />
<stop offset="1" stop-color="#4DC1F7" stop-opacity="0.3" />
</linearGradient>
<filter id="filter_10_468" x="10.367899867071628" y="27.975881085879564" width="63.59787946507549" height="35.12647443577862" filterUnits="userSpaceOnUse" color-interpolation-filters="sRGB">
<feFlood flood-opacity="0" result="feFloodId_10_468"/>
<feColorMatrix in="SourceAlpha" type="matrix" values="0 0 0 0 0 0 0 0 0 0 0 0 0 0 0 0 0 0 127 0" result="hardAlpha_10_468"/>
<feOffset dx="0" dy="3.666666521542311"/>
<feGaussianBlur stdDeviation="3.666666521542311"/>
<feComposite in2="hardAlpha_10_468" operator="out"/>
<feColorMatrix type="matrix" values="0 0 0 0 0.16862745098039217 0 0 0 0 0.792156862745098 0 0 0 0 1 0 0 0 0.2 0"/>
<feBlend mode="normal" in2="feFloodId_10_468" result="dropShadow_1_10_468"/>
<feBlend mode="normal" in="SourceGraphic" in2="dropShadow_1_10_468" result="shape_10_468"/>
</filter>
<linearGradient id="linear_fill_10_477" x1="39.05877685546875" y1="46.40948486328125" x2="39.05877685546875" y2="0" gradientUnits="userSpaceOnUse">
<stop offset="0" stop-color="#1E84B3" stop-opacity="0.2" />
<stop offset="1" stop-color="#1E84B3" stop-opacity="0" />
</linearGradient>
<linearGradient id="linear_fill_10_478" x1="39.434051513671875" y1="44.42724609375" x2="39.43408203125" y2="2.449554443359375" gradientUnits="userSpaceOnUse">
<stop offset="0" stop-color="#1E84B3" stop-opacity="0.3" />
<stop offset="1" stop-color="#1E84B3" stop-opacity="0" />
</linearGradient>
<linearGradient id="linear_fill_10_479" x1="54.31024169921875" y1="34.0714111328125" x2="35.3631591796875" y2="17.2982177734375" gradientUnits="userSpaceOnUse">
<stop offset="0" stop-color="#FF8F40"  />
<stop offset="1" stop-color="#FF8F40" stop-opacity="0.35" />
</linearGradient>
</defs>
</svg>
