<svg xmlns="http://www.w3.org/2000/svg" xmlns:xlink="http://www.w3.org/1999/xlink" width="89.322509765625" height="65" viewBox="0 0 89.322509765625 65" fill="none">
<g opacity="0.3">
<path   fill-rule="evenodd"  fill="url(#linear_fill_2_803_0)"  d="M19.7783 49.7458ZM24.5983 52.6658L37.8983 60.6958C42.0983 63.2358 47.3783 63.2158 51.5583 60.6358L64.4983 52.6458C65.4783 52.0358 66.0683 50.9558 66.0483 49.8058C66.0283 48.6458 65.3983 47.5858 64.3983 47.0158L51.1783 39.4558C47.1883 37.1758 42.2983 37.1558 38.2883 39.3958L24.6983 47.0058C23.6783 47.5758 23.0383 48.6458 23.0183 49.8058C22.9983 50.9758 23.5983 52.0658 24.5983 52.6658Z">
</path>
<path fill-rule="evenodd"  fill="url(#linear_border_2_803_0)"  d="M37.8983 60.6958L24.5983 52.6658C23.6009 52.0673 23.0015 50.9814 23.0182 49.8149L23.0183 49.8058L23.0185 49.7947C23.0424 48.639 23.6816 47.574 24.6983 47.0058L38.2883 39.3958C42.2983 37.1558 47.1883 37.1758 51.1783 39.4558L64.3983 47.0158C65.3983 47.5858 66.0283 48.6458 66.0483 49.8058C66.0683 50.9558 65.4783 52.0358 64.4983 52.6458L51.5583 60.6358C47.3783 63.2158 42.0983 63.2358 37.8983 60.6958ZM23.0357 49.8051L39.0845 40.8297Q40.3902 40.0995 41.8368 39.7293Q43.2609 39.3648 44.7323 39.3716Q46.2036 39.3784 47.6243 39.756Q49.0675 40.1395 50.3663 40.8817L63.5888 48.4372C64.6676 49.0537 64.6938 50.5999 63.6364 51.2525L50.6952 59.2388Q49.3361 60.0775 47.8033 60.5122Q46.2974 60.9392 44.7302 60.9467Q43.163 60.9542 41.653 60.5416Q40.1162 60.1216 38.7492 59.296L23.0357 49.8051Z">
</path>
</g>
<path   fill-rule="evenodd"  fill="url(#linear_fill_2_804_0)"  d="M9.60583 37.9599ZM38.7958 22.9299L15.0458 35.1599C13.9658 35.7099 13.2858 36.8099 13.2658 38.0199C13.2458 39.2299 13.8958 40.3499 14.9558 40.9399L38.4258 53.9899C42.4258 56.2099 47.2858 56.1899 51.2658 53.9299L74.1558 40.9199C75.1958 40.3299 75.8258 39.2199 75.8058 38.0199C75.7858 36.8299 75.1258 35.7399 74.0658 35.1799L50.8958 22.9899C47.1158 20.9999 42.5958 20.9699 38.7958 22.9299Z">
</path>
<path fill-rule="evenodd"  fill="url(#linear_border_2_804_0)"  d="M15.0458 35.1599L38.7958 22.9299C42.5958 20.9699 47.1158 20.9999 50.8958 22.9899L74.0658 35.1799C75.1258 35.7399 75.7858 36.8299 75.8058 38.0199C75.8258 39.2199 75.1958 40.3299 74.1558 40.9199L51.2658 53.9299C47.2858 56.1899 42.4258 56.2099 38.4258 53.9899L14.9558 40.9399C13.9269 40.3672 13.2843 39.2952 13.2658 38.1262L39.2178 52.5601Q40.5189 53.2838 41.9592 53.6507Q43.3772 54.0119 44.8419 54.0051Q46.3065 53.9984 47.7212 53.6242Q49.158 53.2441 50.4525 52.5085L73.3465 39.4985C74.4718 38.859 74.4454 37.2284 73.3 36.6257L50.1307 24.4345Q47.6485 23.1285 44.8437 23.1161Q42.0389 23.1038 39.5452 24.3879L13.269 37.9197C13.3238 36.7495 13.9957 35.6947 15.0458 35.1599Z">
</path>
<path d="M14.1832 38.7367L0 1.08533L88.645 1.08533L74.9051 38.7367C74.9051 38.7367 51.4141 55.1262 44.3225 55.1262C39.0038 55.1262 14.1832 38.7367 14.1832 38.7367Z"   fill="url(#linear_fill_2_805)" >
</path>
<path d="M54.8937 19.3376C53.9338 18.8298 52.9173 18.5477 51.8445 18.5477C50.9975 18.5477 50.2069 18.717 49.4164 18.9991C48.9646 19.1119 48.7388 19.4504 48.7388 19.9018C48.7388 20.3531 49.0211 20.6352 49.5858 20.6352C50.7151 20.6916 51.8445 21.0302 53.0867 21.5943C54.2161 22.1021 55.1196 22.7227 55.9101 23.4562C58.4511 25.7129 58.9029 28.3647 57.3218 31.4113C56.7571 32.5397 55.7972 33.4988 54.442 34.3451C53.1432 35.1914 51.7315 35.6992 50.2634 35.9248C48.5694 36.2069 47.1577 35.6427 46.1413 34.2887C45.1249 32.9346 45.0119 31.3549 45.9719 29.6623C46.9318 27.9697 47.0448 26.1079 46.3671 24.1332C46.1413 23.7383 45.8589 23.5126 45.4072 23.5126C44.9555 23.5126 44.6731 23.7947 44.6731 24.3589C44.6167 25.4873 44.2779 26.6157 43.7132 27.8569C43.205 28.9853 42.6403 29.888 41.9062 30.6778C39.5911 33.1603 36.9371 33.6116 33.8879 32.0319C32.7585 31.4677 31.7986 30.5086 30.9516 29.1545C30.1046 27.8569 29.5964 26.4464 29.3705 24.9795C29.1446 23.2869 29.7093 21.8764 31.0645 20.8609C32.4762 19.7325 34.0573 19.6761 35.7513 20.6352C37.4453 21.5943 39.3087 21.7072 41.2286 21.0302C41.6804 20.8609 41.9062 20.5224 41.9062 20.071C41.9062 19.6197 41.6239 19.3376 41.0592 19.3376C39.9299 19.2812 38.8005 18.9991 37.5583 18.4349C36.4854 17.9271 35.5254 17.3065 34.7349 16.573C32.1939 14.2598 31.7421 11.6081 33.3232 8.5615C33.9444 7.43311 34.9043 6.47399 36.2595 5.6277C37.5583 4.78141 38.9699 4.27364 40.4381 4.04796Q42.9791 3.70944 44.5037 5.74054C45.5201 7.0946 45.6331 8.67434 44.6731 10.3669C44.1649 11.326 43.8826 12.3416 43.8826 13.4136C43.8826 14.3163 43.9955 15.1061 44.2779 15.896C44.4473 16.2909 44.7861 16.573 45.2378 16.5166C45.6895 16.4602 45.9719 16.1781 45.9719 15.6703C46.0283 14.5984 46.3671 13.4136 46.9318 12.1723C47.44 11.1004 48.0047 10.1412 48.7388 9.35137C51.0539 6.86892 53.7079 6.41757 56.7571 7.99731C57.8865 8.5615 58.8464 9.52063 59.6934 10.8747C60.5404 12.1723 61.0486 13.5828 61.2745 15.0497C61.5004 16.7423 60.9357 18.1528 59.5805 19.1683C58.1688 20.2403 56.5877 20.2967 54.8937 19.3376ZM44.2213 18.8299C44.5602 18.4914 44.9554 18.3221 45.4072 18.3221C45.8589 18.3785 46.1977 18.4914 46.5365 18.8299C46.8753 19.1684 46.9882 19.5069 46.9882 19.9583C46.9882 20.4096 46.8188 20.8045 46.5365 21.1431C46.1977 21.4252 45.8589 21.5944 45.4072 21.5944C44.9554 21.5944 44.5602 21.4252 44.2213 21.1431C43.8825 20.8045 43.7696 20.4096 43.7696 19.9583C43.7696 19.5069 43.939 19.112 44.2213 18.8299Z" fill-rule="evenodd"  fill="url(#linear_fill_2_824)" >
</path>
<defs>
<linearGradient id="linear_fill_2_803_0" x1="44.483123779296875" y1="35.7857666015625" x2="44.483123779296875" y2="64.832763671875" gradientUnits="userSpaceOnUse">
<stop offset="0" stop-color="#235EB8"  />
<stop offset="1" stop-color="#5A99F2"  />
</linearGradient>
<linearGradient id="linear_border_2_803_0" x1="44.483123779296875" y1="35.7857666015625" x2="44.483123779296875" y2="64.832763671875" gradientUnits="userSpaceOnUse">
<stop offset="0" stop-color="#2866AD"  />
<stop offset="1" stop-color="#148DDE"  />
</linearGradient>
<linearGradient id="linear_fill_2_804_0" x1="44.48321533203125" y1="19.8099365234375" x2="44.48321533203125" y2="57.5709228515625" gradientUnits="userSpaceOnUse">
<stop offset="0" stop-color="#0E7FC9"  />
<stop offset="1" stop-color="#4A89E0"  />
</linearGradient>
<linearGradient id="linear_border_2_804_0" x1="44.48321533203125" y1="19.8099365234375" x2="44.48321533203125" y2="57.5709228515625" gradientUnits="userSpaceOnUse">
<stop offset="0" stop-color="#0A6ABF"  />
<stop offset="1" stop-color="#61A5FF"  />
</linearGradient>
<linearGradient id="linear_fill_2_805" x1="44.322509765625" y1="51.7095947265625" x2="44.322509765625" y2="6.0865478515625" gradientUnits="userSpaceOnUse">
<stop offset="0" stop-color="#296DCC" stop-opacity="0.47" />
<stop offset="1" stop-color="#82B0FF" stop-opacity="0.01" />
</linearGradient>
<linearGradient id="linear_fill_2_824" x1="29.322509765625" y1="19.99951171875" x2="61.321807861328125" y2="19.99951171875" gradientUnits="userSpaceOnUse">
<stop offset="0" stop-color="#579EF9"  />
<stop offset="1" stop-color="#4BF7FA"  />
</linearGradient>
</defs>
</svg>
