<svg xmlns="http://www.w3.org/2000/svg" xmlns:xlink="http://www.w3.org/1999/xlink" width="19" height="11.60986328125" viewBox="0 0 19 11.60986328125" fill="none"><path id="路径 1" fill-rule="evenodd" style="fill:#FFFFFF" opacity="0.6" d="M13.24,3.9c-0.13,0.14 -0.26,0.31 -0.41,0.51c-0.14,0.19 -0.27,0.4 -0.4,0.63c-0.13,0.22 -0.19,0.46 -0.19,0.7c0,0.24 0.06,0.47 0.19,0.69c0.13,0.22 0.26,0.42 0.4,0.61c0.15,0.18 0.28,0.33 0.41,0.45c0.12,0.12 0.19,0.19 0.19,0.23v1.79c0,0.19 -0.08,0.41 -0.23,0.66c-0.15,0.24 -0.33,0.47 -0.55,0.69c-0.22,0.22 -0.47,0.4 -0.74,0.54c-0.27,0.14 -0.52,0.21 -0.76,0.21h-8.91c-0.32,0 -0.62,-0.05 -0.89,-0.16c-0.27,-0.11 -0.5,-0.26 -0.71,-0.45c-0.2,-0.2 -0.36,-0.42 -0.47,-0.69c-0.11,-0.26 -0.17,-0.54 -0.17,-0.85v-7.36c0,-0.23 0.05,-0.46 0.16,-0.71c0.11,-0.24 0.26,-0.47 0.46,-0.67c0.2,-0.21 0.43,-0.38 0.7,-0.52c0.27,-0.13 0.56,-0.2 0.88,-0.2h8.91c0.33,0 0.63,0.05 0.91,0.16c0.28,0.11 0.52,0.26 0.73,0.45c0.21,0.18 0.38,0.41 0.5,0.67c0.12,0.26 0.18,0.54 0.18,0.84v1.48c0,0.06 -0.07,0.16 -0.19,0.3zM19,2v7.8c0,0.25 -0.07,0.47 -0.21,0.67c-0.13,0.19 -0.34,0.29 -0.61,0.29c-0.1,0 -0.22,-0.04 -0.37,-0.11c-0.16,-0.07 -0.31,-0.15 -0.45,-0.23c-0.15,-0.09 -0.29,-0.19 -0.42,-0.28c-0.13,-0.09 -0.23,-0.16 -0.29,-0.22c-0.15,-0.12 -0.39,-0.34 -0.71,-0.65c-0.31,-0.31 -0.63,-0.65 -0.96,-1.04c-0.32,-0.39 -0.6,-0.79 -0.85,-1.19c-0.24,-0.41 -0.36,-0.79 -0.36,-1.13c0,-0.34 0.13,-0.73 0.39,-1.17c0.26,-0.44 0.58,-0.87 0.95,-1.29c0.37,-0.42 0.76,-0.81 1.17,-1.17c0.4,-0.36 0.74,-0.63 1.02,-0.81c0.1,-0.07 0.25,-0.15 0.44,-0.25c0.18,-0.1 0.35,-0.14 0.49,-0.14c0.32,0 0.53,0.08 0.63,0.25c0.09,0.17 0.14,0.38 0.14,0.63z"></path></svg>