<?xml version="1.0" standalone="no"?><!DOCTYPE svg PUBLIC "-//W3C//DTD SVG 1.1//EN" "http://www.w3.org/Graphics/SVG/1.1/DTD/svg11.dtd"><svg t="1711504531787" class="icon" viewBox="0 0 1024 1024" version="1.1" xmlns="http://www.w3.org/2000/svg" p-id="2031" xmlns:xlink="http://www.w3.org/1999/xlink" width="200" height="200"><path d="M884.3445514 969.61313087c-22.72811943 0-42.63429063-8.54211237-59.71851359-25.5500659L79.93693503 199.29769451c-34.09217825-34.16844769-34.09217825-88.16679715 0-119.43702715 34.16844769-34.09217825 88.16679715-34.09217825 119.43702716 0l744.68910278 741.86715279c34.09217825 34.09217825 34.09217825 88.0905277 0 119.36075948-17.08422295 19.90617119-39.81234238 28.44828355-59.71851357 28.44828178z" fill="#ffffff" p-id="2032"></path><path d="M139.6554486 969.61313087c-22.72811943 0-42.63429063-8.54211237-59.71851357-25.5500659-34.09217825-34.16844769-34.09217825-88.16679715 0-119.43702716l741.86715456-744.68910278c34.09217825-34.09217825 88.0905277-34.09217825 119.36075771 0 34.16844769 34.16844769 34.16844769 88.16679715 0 119.43702716l-741.79088511 744.68910278a81.83648098 81.83648098 0 0 1-59.71851359 25.5500659z" fill="#ffffff" p-id="2033"></path></svg>