<svg xmlns="http://www.w3.org/2000/svg" xmlns:xlink="http://www.w3.org/1999/xlink" width="18" height="18" viewBox="0 0 18 18" fill="#ffffff"><g opacity="0.6"  transform="translate(0 0)  rotate(0)"><mask id="bg-mask-0" fill="white"><use transform="translate(0 0)   " xlink:href="#path_0"></use></mask><g mask="url(#bg-mask-0)" ><path id="路径 1" fill-rule="evenodd" style="fill:#FFFFFF" opacity="1" d="M4.42 5.63L2.25 5.63C1.84 5.63 1.5 5.96 1.5 6.38L1.5 11.56C1.5 11.98 1.84 12.31 2.25 12.31L4.42 12.31C4.42 12.31 6.37 15.75 9 15.75L9 2.25C6.37 2.25 4.42 5.63 4.42 5.63Z"></path><path  id="路径 1" style="fill:#FFFFFF; opacity:1;" d="M4.42,6.29667h-2.17c-0.05555,0 -0.08333,0.02778 -0.08333,0.08333v5.18c0,0.05553 0.02778,0.0833 0.08333,0.0833h2.17c0.05896,0 0.1169,0.0077 0.17382,0.0231c0.05692,0.01533 0.11085,0.03787 0.16179,0.0676c0.05095,0.02967 0.09714,0.06547 0.13858,0.1074c0.04144,0.04193 0.0767,0.08853 0.10578,0.1398c0.07125,0.12573 0.17572,0.28777 0.31343,0.4861c0.27919,0.40213 0.57716,0.77007 0.89389,1.1038c0.43252,0.45567 0.86704,0.81087 1.30356,1.0656c0.51025,0.29773 1.00664,0.4466 1.48915,0.4466v0.6667h-0.66667v-13.5h0.66667v0.66667c-0.90721,0 -1.83947,0.4955 -2.79676,1.48651c-0.31645,0.32759 -0.61411,0.68872 -0.893,1.08341c-0.13748,0.19457 -0.24174,0.35343 -0.31278,0.47656c-0.02925,0.05069 -0.06457,0.09674 -0.10594,0.13814c-0.04138,0.0414 -0.08741,0.07674 -0.13809,0.10601c-0.05069,0.02927 -0.1043,0.05149 -0.16083,0.06664c-0.05653,0.01515 -0.11407,0.02273 -0.1726,0.02273zM4.42,4.96333v0.66667l-0.57746,-0.33315c0.09146,-0.15853 0.21772,-0.35176 0.37878,-0.57969c0.31819,-0.45031 0.65917,-0.86376 1.02294,-1.24034c0.51999,-0.53831 1.05298,-0.96399 1.59898,-1.27704c0.71675,-0.41097 1.43567,-0.61645 2.15676,-0.61645c0.04377,0 0.08713,0.00427 0.13006,0.01281c0.04293,0.00854 0.08462,0.02119 0.12506,0.03794c0.04044,0.01675 0.07886,0.03729 0.11526,0.06161c0.0364,0.02432 0.07008,0.05196 0.10103,0.08291c0.03095,0.03095 0.05858,0.06462 0.0829,0.10102c0.02432,0.03639 0.04486,0.07481 0.06161,0.11526c0.01675,0.04044 0.0294,0.08213 0.03794,0.12506c0.00854,0.04293 0.01281,0.08629 0.01281,0.13006v13.5c0,0.0438 -0.00427,0.08717 -0.01281,0.1301c-0.00854,0.04293 -0.02119,0.0846 -0.03794,0.125c-0.01675,0.04047 -0.03729,0.0789 -0.06161,0.1153c-0.02432,0.0364 -0.05195,0.07007 -0.0829,0.101c-0.03095,0.03093 -0.06463,0.05857 -0.10103,0.0829c-0.0364,0.02433 -0.07482,0.04487 -0.11526,0.0616c-0.04044,0.01673 -0.08213,0.0294 -0.12506,0.038c-0.04293,0.00853 -0.08629,0.0128 -0.13006,0.0128c-0.7229,0 -1.44329,-0.20947 -2.16116,-0.6284c-0.54599,-0.3186 -1.07886,-0.75173 -1.59863,-1.2994c-0.36347,-0.38293 -0.70415,-0.80333 -1.02205,-1.2612c-0.16083,-0.23167 -0.28688,-0.42797 -0.37813,-0.5889l0.57997,-0.3288v0.6667h-2.17c-0.38905,0 -0.72171,-0.13687 -0.99798,-0.4106c-0.27912,-0.2766 -0.41869,-0.61197 -0.41869,-1.0061v-5.18c0,-0.39415 0.13956,-0.7295 0.41869,-1.00607c0.27627,-0.27373 0.60893,-0.4106 0.99798,-0.4106z"></path><path  id="路径 2" style="fill:#FFFFFF; opacity:1;" d="M12.4495,5.13268c0.3006,0.27444 0.54347,0.54539 0.7286,0.81285l-0.5481,0.37947l0.5351,-0.39768c0.32187,0.43311 0.5683,0.90902 0.7393,1.42772c0.17487,0.5304 0.2623,1.08039 0.2623,1.64996c0,0.55657 -0.08647,1.09871 -0.2594,1.6264c-0.16647,0.50773 -0.4049,0.97833 -0.7153,1.4118c-0.2132,0.303 -0.4642,0.58083 -0.753,0.8335c-0.03293,0.02887 -0.06837,0.0542 -0.1063,0.076c-0.03793,0.02187 -0.07763,0.0398 -0.1191,0.0538c-0.04147,0.01407 -0.0839,0.02393 -0.1273,0.0296c-0.0434,0.00567 -0.08693,0.00703 -0.1306,0.0041c-0.04373,-0.00293 -0.08673,-0.01007 -0.129,-0.0214c-0.04227,-0.0114 -0.083,-0.0268 -0.1222,-0.0462c-0.03927,-0.0194 -0.07623,-0.04247 -0.1109,-0.0692c-0.03473,-0.02667 -0.0665,-0.05647 -0.0953,-0.0894c-0.02887,-0.03293 -0.0542,-0.06837 -0.076,-0.1063c-0.02187,-0.03793 -0.0398,-0.07763 -0.0538,-0.1191c-0.01407,-0.04147 -0.02393,-0.0839 -0.0296,-0.1273c-0.00567,-0.0434 -0.00703,-0.08693 -0.0041,-0.1306c0.00293,-0.04373 0.01007,-0.08673 0.0214,-0.129c0.0114,-0.04227 0.0268,-0.083 0.0462,-0.1222c0.0194,-0.03927 0.04247,-0.07623 0.0692,-0.1109c0.02667,-0.03473 0.05647,-0.0665 0.0894,-0.0953c0.20853,-0.18247 0.39087,-0.38463 0.547,-0.6065c0.48353,-0.67513 0.7253,-1.42907 0.7253,-2.2618c0,-0.85923 -0.24613,-1.62 -0.7384,-2.28232c-0.0044,-0.00599 -0.00873,-0.01206 -0.013,-0.01821c-0.12793,-0.18479 -0.30507,-0.3805 -0.5314,-0.58715c-0.03233,-0.02951 -0.06147,-0.0619 -0.0874,-0.09715c-0.02593,-0.03525 -0.0482,-0.0727 -0.0668,-0.11234c-0.0186,-0.03964 -0.03313,-0.08071 -0.0436,-0.12321c-0.01047,-0.04251 -0.0167,-0.08562 -0.0187,-0.12935c-0.002,-0.04373 0.0003,-0.08723 0.0069,-0.13051c0.0066,-0.04327 0.01733,-0.08549 0.0322,-0.12665c0.01493,-0.04116 0.0337,-0.08047 0.0563,-0.11794c0.02267,-0.03746 0.04877,-0.07235 0.0783,-0.10468c0.02947,-0.03233 0.06183,-0.06146 0.0971,-0.08741c0.03527,-0.02595 0.07273,-0.04821 0.1124,-0.06678c0.0396,-0.01857 0.08067,-0.0331 0.1232,-0.04358c0.04247,-0.01048 0.08557,-0.01671 0.1293,-0.0187c0.04373,-0.00199 0.08723,0.00031 0.1305,0.00689c0.04327,0.00658 0.0855,0.01732 0.1267,0.03222c0.04113,0.0149 0.08043,0.03367 0.1179,0.05631c0.03747,0.02264 0.07237,0.04872 0.1047,0.07824z"></path><path  id="路径 3" style="fill:#FFFFFF; opacity:1;" d="M12.4962,14.8751c1.0164,-0.608 1.82197,-1.425 2.4167,-2.451c0.61253,-1.0568 0.9188,-2.1991 0.9188,-3.42691c0,-1.20655 -0.29673,-2.33122 -0.8902,-3.37399c-0.5772,-1.01413 -1.36157,-1.82699 -2.3531,-2.4386c-0.03727,-0.02299 -0.07193,-0.04938 -0.104,-0.07919c-0.03207,-0.02981 -0.0609,-0.06245 -0.0865,-0.09794c-0.0256,-0.03549 -0.04753,-0.07313 -0.0658,-0.11294c-0.0182,-0.03981 -0.03233,-0.08101 -0.0424,-0.1236c-0.01013,-0.0426 -0.01597,-0.08577 -0.0175,-0.12951c-0.0016,-0.04375 0.00107,-0.08723 0.008,-0.13044c0.007,-0.04322 0.01813,-0.08534 0.0334,-0.12636c0.01527,-0.04103 0.0344,-0.08017 0.0574,-0.11742c0.02293,-0.03726 0.04933,-0.07192 0.0792,-0.10397c0.0298,-0.03206 0.06243,-0.0609 0.0979,-0.08653c0.03547,-0.02563 0.0731,-0.04754 0.1129,-0.06575c0.0398,-0.01821 0.081,-0.03237 0.1236,-0.04246c0.0426,-0.01009 0.08577,-0.01594 0.1295,-0.01753c0.0438,-0.00159 0.0873,0.0011 0.1305,0.00808c0.0432,0.00697 0.0853,0.01809 0.1263,0.03336c0.04107,0.01527 0.08023,0.0344 0.1175,0.05738c1.185,0.73093 2.1223,1.70223 2.8119,2.9139c0.7098,1.24722 1.0647,2.59172 1.0647,4.03351c0,1.46681 -0.3662,2.83201 -1.0986,4.09561c-0.71007,1.22493 -1.672,2.20043 -2.8858,2.9265c-0.03753,0.02247 -0.07693,0.04107 -0.1182,0.0558c-0.0412,0.01467 -0.08347,0.0252 -0.1268,0.0316c-0.04327,0.0064 -0.08677,0.0085 -0.1305,0.0063c-0.04373,-0.0022 -0.08683,-0.00863 -0.1293,-0.0193c-0.04247,-0.01067 -0.08347,-0.02537 -0.123,-0.0441c-0.03953,-0.01873 -0.07687,-0.04117 -0.112,-0.0673c-0.03513,-0.02613 -0.0674,-0.0554 -0.0968,-0.0878c-0.02933,-0.03247 -0.05523,-0.0675 -0.0777,-0.1051c-0.02253,-0.03753 -0.04113,-0.07693 -0.0558,-0.1182c-0.01473,-0.0412 -0.0253,-0.08347 -0.0317,-0.1268c-0.00633,-0.04327 -0.00843,-0.08677 -0.0063,-0.1305c0.0022,-0.04373 0.00863,-0.08683 0.0193,-0.1293c0.01067,-0.04247 0.0254,-0.08347 0.0442,-0.123c0.01873,-0.03953 0.04117,-0.07687 0.0673,-0.112c0.02607,-0.03513 0.05533,-0.0674 0.0878,-0.0968c0.03247,-0.02933 0.0675,-0.05523 0.1051,-0.0777z"></path></g></g><defs><rect id="path_0" x="0" y="0" width="18" height="18" /></defs></svg>