<?xml version="1.0" standalone="no"?><!DOCTYPE svg PUBLIC "-//W3C//DTD SVG 1.1//EN" "http://www.w3.org/Graphics/SVG/1.1/DTD/svg11.dtd"><svg t="1720661241128" class="icon" viewBox="0 0 1024 1024" version="1.1" xmlns="http://www.w3.org/2000/svg" p-id="5593" xmlns:xlink="http://www.w3.org/1999/xlink" width="200" height="200"><path d="M42.666667 138.453333L384 42.666667v128h111.914667a89.514667 89.514667 0 1 1 16.085333 34.346666v124.032c40.533333-59.008 50.346667-61.226667 64.341333-63.445333l65.792-12.8 0.554667-0.085333c10.794667-1.792 23.210667-3.882667 129.152 29.312 28.330667 9.173333 51.2 27.434667 64.853333 53.930666l43.861334 84.053334c10.965333 20.053333 2.730667 43.818667-16.426667 54.784a41.472 41.472 0 0 1-54.826667-16.426667l-44.8-83.157333a30.464 30.464 0 0 0-17.322666-14.592c-5.717333-2.133333-11.434667-3.754667-16.725334-5.205334l-4.266666-1.194666 35.626666 135.210666 36.522667 129.706667 175.36-5.504a48.938667 48.938667 0 0 1 2.773333 97.749333l-175.36 5.504h-2.773333a96.725333 96.725333 0 0 1-93.184-70.357333l-8.234667-30.122667-44.757333 55.722667a273.109333 273.109333 0 0 0-45.653333 84.906667l-44.8 138.88c-6.357333 20.992-25.557333 33.792-46.549334 33.792a41.386667 41.386667 0 0 1-14.634666-2.730667c-25.6-8.234667-39.253333-35.626667-31.061334-61.184l4.010667-12.458667H384v128l-341.333333-100.138666V138.453333zM384 810.666667h85.333333v-346.88a80.213333 80.213333 0 0 1-20.864-5.418667L384 431.146667V810.666667zM384 345.770667c4.48 0.213333 8.96 1.194667 13.312 2.986666L469.333333 379.306667V213.333333H384v132.437334zM341.333333 512a42.666667 42.666667 0 1 0-85.333333 0 42.666667 42.666667 0 0 0 85.333333 0z m172.928 214.016a374.656 374.656 0 0 1 62.08-116.053333l43.861334-55.68L563.626667 398.08c-5.504 9.130667-11.904 19.2-19.2 30.122667-8.106667 12.842667-19.413333 22.613333-32.384 28.714666v276.053334l2.261333-6.954667z" p-id="5594"></path></svg>